<?xml version="1.0" encoding="UTF-8" standalone="no"?>
<!-- Created with Inkscape (http://www.inkscape.org/) -->

<svg
   xmlns:dc="http://purl.org/dc/elements/1.1/"
   xmlns:cc="http://creativecommons.org/ns#"
   xmlns:rdf="http://www.w3.org/1999/02/22-rdf-syntax-ns#"
   xmlns:svg="http://www.w3.org/2000/svg"
   xmlns="http://www.w3.org/2000/svg"
   version="1.1"
   width="916.25"
   height="685"
   id="svg2"
   xml:space="preserve"><metadata
     id="metadata8"><rdf:RDF><cc:Work
         rdf:about=""><dc:format>image/svg+xml</dc:format><dc:type
           rdf:resource="http://purl.org/dc/dcmitype/StillImage" /><dc:title></dc:title></cc:Work></rdf:RDF></metadata><defs
     id="defs6" /><g
     transform="matrix(1.25,0,0,-1.25,0,685)"
     id="g10"><g
       transform="scale(0.1,0.1)"
       id="g12"><path
         d="m 2172.7,5260 c 0,99.41 -256.41,180 -572.7,180 -316.29,0 -572.7,-80.59 -572.7,-180 0,-99.41 256.41,-180 572.7,-180 316.29,0 572.7,80.59 572.7,180"
         id="path14"
         style="fill:none;stroke:#000000;stroke-width:10;stroke-linecap:butt;stroke-linejoin:miter;stroke-miterlimit:1;stroke-opacity:1;stroke-dasharray:none" /><g
         transform="scale(10,10)"
         id="g16"><text
           transform="matrix(1,0,0,-1,123.5,522.3)"
           id="text18"><tspan
             x="0 9.1996536 16.061308 22.922962 29.784616 35.86227 40.385925 45.693577 51.771233 55.524887 59.278542 66.140198"
             y="0"
             id="tspan20"
             style="font-size:14px;font-variant:normal;font-weight:normal;writing-mode:lr-tb;fill:#000000;fill-opacity:1;fill-rule:nonzero;stroke:none;font-family:Times;-inkscape-font-specification:Times-Roman">Conversation</tspan></text>
</g><path
         d="m 4444.7,4540 c 0,99.41 -293.12,180 -654.7,180 -361.58,0 -654.7,-80.59 -654.7,-180 0,-99.41 293.12,-180 654.7,-180 361.58,0 654.7,80.59 654.7,180"
         id="path22"
         style="fill:none;stroke:#000000;stroke-width:10;stroke-linecap:butt;stroke-linejoin:miter;stroke-miterlimit:1;stroke-opacity:1;stroke-dasharray:none" /><g
         transform="scale(10,10)"
         id="g24"><text
           transform="matrix(1,0,0,-1,336.5,450.3)"
           id="text26"><tspan
             x="0 12.343236 18.456472 23.799707 29.142944 35.25618 42.153416 45.942654 52.83989 59.737125 67.418358 71.207596 78.104836"
             y="0"
             id="tspan28"
             style="font-size:14px;font-variant:normal;font-weight:normal;writing-mode:lr-tb;fill:#000000;fill-opacity:1;fill-rule:nonzero;stroke:none;font-family:Times;-inkscape-font-specification:Times-Roman">MessagingStub</tspan></text>
</g><path
         d="m 1957.8,5118.3 c 351.8,-117.8 891.3,-290.5 1294.4,-414.6"
         id="path30"
         style="fill:none;stroke:#000000;stroke-width:10;stroke-linecap:butt;stroke-linejoin:miter;stroke-miterlimit:1;stroke-opacity:1;stroke-dasharray:none" /><path
         d="m 3263.6,4736.8 85.4,-62.8 -105.9,-4.1"
         id="path32"
         style="fill:#000000;fill-opacity:1;fill-rule:nonzero;stroke:none" /><path
         d="m 3263.6,4736.8 85.4,-62.8 -105.9,-4.1 20.5,66.9 z"
         id="path34"
         style="fill:none;stroke:#000000;stroke-width:10;stroke-linecap:butt;stroke-linejoin:miter;stroke-miterlimit:1;stroke-opacity:1;stroke-dasharray:none" /><path
         d="m 4656.2,1660 c 0,99.41 -217.68,180 -486.2,180 -268.52,0 -486.2,-80.59 -486.2,-180 0,-99.41 217.68,-180 486.2,-180 268.52,0 486.2,80.59 486.2,180"
         id="path36"
         style="fill:none;stroke:#000000;stroke-width:10;stroke-linecap:butt;stroke-linejoin:miter;stroke-miterlimit:1;stroke-opacity:1;stroke-dasharray:none" /><g
         transform="scale(10,10)"
         id="g38"><text
           transform="matrix(1,0,0,-1,387.5,162.3)"
           id="text40"><tspan
             x="0 7.633112 13.698224 18.209335 21.950447 25.691561 31.756672 35.497784 42.346897 48.412006 55.26112"
             y="0"
             id="tspan42"
             style="font-size:14px;font-variant:normal;font-weight:normal;writing-mode:lr-tb;fill:#000000;fill-opacity:1;fill-rule:nonzero;stroke:none;font-family:Times;-inkscape-font-specification:Times-Roman">Participant</tspan></text>
</g><path
         d="M 1233.4,5119.4 C 770.801,4913.7 40,4470.5 40,3830 c 0,0 0,0 0,-740 0,-740.8 2448.1,-1188.7 3575.3,-1350.9"
         id="path44"
         style="fill:none;stroke:#000000;stroke-width:10;stroke-linecap:butt;stroke-linejoin:miter;stroke-miterlimit:1;stroke-opacity:1;stroke-dasharray:none" /><path
         d="m 3622.8,1773.4 94.1,-48.6 -103.9,-20.7"
         id="path46"
         style="fill:#000000;fill-opacity:1;fill-rule:nonzero;stroke:none" /><path
         d="m 3622.8,1773.4 94.1,-48.6 -103.9,-20.7 9.8,69.3 z"
         id="path48"
         style="fill:none;stroke:#000000;stroke-width:10;stroke-linecap:butt;stroke-linejoin:miter;stroke-miterlimit:1;stroke-opacity:1;stroke-dasharray:none" /><path
         d="m 3930,3100 c 0,99.41 -120.89,180 -270,180 -149.11,0 -270,-80.59 -270,-180 0,-99.41 120.89,-180 270,-180 149.11,0 270,80.59 270,180"
         id="path50"
         style="fill:none;stroke:#000000;stroke-width:10;stroke-linecap:butt;stroke-linejoin:miter;stroke-miterlimit:1;stroke-opacity:1;stroke-dasharray:none" /><g
         transform="scale(10,10)"
         id="g52"><text
           transform="matrix(1,0,0,-1,356.5,306.3)"
           id="text54"><tspan
             x="0 4.7747612 11.887522"
             y="0"
             id="tspan56"
             style="font-size:14px;font-variant:normal;font-weight:normal;writing-mode:lr-tb;fill:#000000;fill-opacity:1;fill-rule:nonzero;stroke:none;font-family:Times;-inkscape-font-specification:Times-Roman">Idp</tspan></text>
</g><path
         d="m 1616.7,5078.3 c 97.4,-319.8 426.5,-1012.6 893.3,-1438.3 228.5,-208.4 554,-354.7 802.1,-440.1"
         id="path58"
         style="fill:none;stroke:#000000;stroke-width:10;stroke-linecap:butt;stroke-linejoin:miter;stroke-miterlimit:1;stroke-opacity:1;stroke-dasharray:none" /><path
         d="m 3325.6,3232.3 84.2,-64.2 -105.9,-2.3"
         id="path60"
         style="fill:#000000;fill-opacity:1;fill-rule:nonzero;stroke:none" /><path
         d="m 3325.6,3232.3 84.2,-64.2 -105.9,-2.3 21.7,66.5 z"
         id="path62"
         style="fill:none;stroke:#000000;stroke-width:10;stroke-linecap:butt;stroke-linejoin:miter;stroke-miterlimit:1;stroke-opacity:1;stroke-dasharray:none" /><path
         d="m 6834.9,4540 c 0,99.41 -230.53,180 -514.9,180 -284.37,0 -514.9,-80.59 -514.9,-180 0,-99.41 230.53,-180 514.9,-180 284.37,0 514.9,80.59 514.9,180"
         id="path64"
         style="fill:none;stroke:#000000;stroke-width:10;stroke-linecap:butt;stroke-linejoin:miter;stroke-miterlimit:1;stroke-opacity:1;stroke-dasharray:none" /><g
         transform="scale(10,10)"
         id="g66"><text
           transform="matrix(1,0,0,-1,600,450.3)"
           id="text68"><tspan
             x="0 9.9772177 16.062435 19.823654 25.908873 35.116089 39.647308 46.516525 53.385742 59.470963"
             y="0"
             id="tspan70"
             style="font-size:14px;font-variant:normal;font-weight:normal;writing-mode:lr-tb;fill:#000000;fill-opacity:1;fill-rule:nonzero;stroke:none;font-family:Times;-inkscape-font-specification:Times-Roman">DataBroker</tspan></text>
</g><path
         d="m 2109.6,5174.4 c 889.2,-131.8 2717.6,-403 3644.7,-540.5"
         id="path72"
         style="fill:none;stroke:#000000;stroke-width:10;stroke-linecap:butt;stroke-linejoin:miter;stroke-miterlimit:1;stroke-opacity:1;stroke-dasharray:none" /><path
         d="m 5760.8,4668.3 93.8,-49.3 -104,-19.9"
         id="path74"
         style="fill:#000000;fill-opacity:1;fill-rule:nonzero;stroke:none" /><path
         d="m 5760.8,4668.3 93.8,-49.3 -104,-19.9 10.2,69.2 z"
         id="path76"
         style="fill:none;stroke:#000000;stroke-width:10;stroke-linecap:butt;stroke-linejoin:miter;stroke-miterlimit:1;stroke-opacity:1;stroke-dasharray:none" /><path
         d="m 3415,4687.4 c -360.5,120.5 -906.5,295.1 -1306.1,417.8"
         id="path78"
         style="fill:none;stroke:#000000;stroke-width:10;stroke-linecap:butt;stroke-linejoin:miter;stroke-miterlimit:1;stroke-opacity:1;stroke-dasharray:none" /><path
         d="m 2098.7,5071.7 -85.4,62.7 105.9,4.3"
         id="path80"
         style="fill:#000000;fill-opacity:1;fill-rule:nonzero;stroke:none" /><path
         d="m 2098.7,5071.7 -85.4,62.7 105.9,4.3 -20.5,-67 z"
         id="path82"
         style="fill:none;stroke:#000000;stroke-width:10;stroke-linecap:butt;stroke-linejoin:miter;stroke-miterlimit:1;stroke-opacity:1;stroke-dasharray:none" /><path
         d="m 4316.5,4433.3 c 247.2,-73.8 519.8,-204 673.5,-433.3 460,-686.3 -266.2,-1639.3 -632.7,-2083.6"
         id="path84"
         style="fill:none;stroke:#000000;stroke-width:10;stroke-linecap:butt;stroke-linejoin:miter;stroke-miterlimit:1;stroke-opacity:1;stroke-dasharray:none" /><path
         d="m 4382.2,1891.6 -90.9,-54.6 37,99.3"
         id="path86"
         style="fill:#000000;fill-opacity:1;fill-rule:nonzero;stroke:none" /><path
         d="m 4382.2,1891.6 -90.9,-54.6 37,99.3 53.9,-44.7 z"
         id="path88"
         style="fill:none;stroke:#000000;stroke-width:10;stroke-linecap:butt;stroke-linejoin:miter;stroke-miterlimit:1;stroke-opacity:1;stroke-dasharray:none" /><path
         d="m 4622.6,3820 c 0,99.41 -430.97,180 -962.6,180 -531.63,0 -962.6,-80.59 -962.6,-180 0,-99.41 430.97,-180 962.6,-180 531.63,0 962.6,80.59 962.6,180"
         id="path90"
         style="fill:none;stroke:#000000;stroke-width:10;stroke-linecap:butt;stroke-linejoin:miter;stroke-miterlimit:1;stroke-opacity:1;stroke-dasharray:none" /><g
         transform="scale(10,10)"
         id="g92"><text
           transform="matrix(1,0,0,-1,299.5,378.3)"
           id="text94"><tspan
             x="0 12.251547 18.273094 23.524641 28.776188 34.797733 41.603283 45.300831 52.106377 58.911922 66.501472 70.19902 77.004562 83.810112 90.615662 100.52921 107.33475 114.1403 120.16184 125.41339"
             y="0"
             id="tspan96"
             style="font-size:14px;font-variant:normal;font-weight:normal;writing-mode:lr-tb;fill:#000000;fill-opacity:1;fill-rule:nonzero;stroke:none;font-family:Times;-inkscape-font-specification:Times-Roman">MessagingStub_NodeJS</tspan></text>
</g><path
         d="m 3699.7,4360.5 c -22.4,-77 -42.2,-170.2 -54.9,-256.9"
         id="path98"
         style="fill:none;stroke:#000000;stroke-width:10;stroke-linecap:butt;stroke-linejoin:miter;stroke-miterlimit:1;stroke-opacity:1;stroke-dasharray:none" /><path
         d="m 3679.3,4098 -46.3,-95.2 -23.2,103.3"
         id="path100"
         style="fill:#000000;fill-opacity:1;fill-rule:nonzero;stroke:none" /><path
         d="m 3679.3,4098 -46.3,-95.2 -23.2,103.3 69.5,-8.1 z"
         id="path102"
         style="fill:none;stroke:#000000;stroke-width:10;stroke-linecap:butt;stroke-linejoin:miter;stroke-miterlimit:1;stroke-opacity:1;stroke-dasharray:none" /><path
         d="M 3729.4,1736.2 C 2698.2,1895.8 220,2344.7 220,3090 c 0,740 0,740 0,740 0,578.9 597.102,996.7 1006.9,1223.6"
         id="path104"
         style="fill:none;stroke:#000000;stroke-width:10;stroke-linecap:butt;stroke-linejoin:miter;stroke-miterlimit:1;stroke-opacity:1;stroke-dasharray:none" /><path
         d="m 1211.7,5085.2 104.7,16.6 -71.5,-78.2"
         id="path106"
         style="fill:#000000;fill-opacity:1;fill-rule:nonzero;stroke:none" /><path
         d="m 1211.7,5085.2 104.7,16.6 -71.5,-78.2 -33.2,61.6 z"
         id="path108"
         style="fill:none;stroke:#000000;stroke-width:10;stroke-linecap:butt;stroke-linejoin:miter;stroke-miterlimit:1;stroke-opacity:1;stroke-dasharray:none" /><path
         d="m 4369.8,1825.4 c 418.4,391 1294.7,1436.9 800.2,2174.6 -154.2,230.1 -428.1,360.3 -692.1,434.1"
         id="path110"
         style="fill:none;stroke:#000000;stroke-width:10;stroke-linecap:butt;stroke-linejoin:miter;stroke-miterlimit:1;stroke-opacity:1;stroke-dasharray:none" /><path
         d="m 4465.8,4401.1 -88.3,58.6 105.6,9.2"
         id="path112"
         style="fill:#000000;fill-opacity:1;fill-rule:nonzero;stroke:none" /><path
         d="m 4465.8,4401.1 -88.3,58.6 105.6,9.2 -17.3,-67.8 z"
         id="path114"
         style="fill:none;stroke:#000000;stroke-width:10;stroke-linecap:butt;stroke-linejoin:miter;stroke-miterlimit:1;stroke-opacity:1;stroke-dasharray:none" /><path
         d="m 3673.7,220 c 0,99.41 -189.7,180 -423.7,180 -234,0 -423.7,-80.59 -423.7,-180 0,-99.41 189.7,-180 423.7,-180 234,0 423.7,80.59 423.7,180"
         id="path116"
         style="fill:none;stroke:#000000;stroke-width:10;stroke-linecap:butt;stroke-linejoin:miter;stroke-miterlimit:1;stroke-opacity:1;stroke-dasharray:none" /><g
         transform="scale(10,10)"
         id="g118"><text
           transform="matrix(1,0,0,-1,300.5,18.3)"
           id="text120"><tspan
             x="0 12.448288 18.666576 24.114862 29.56315 35.781437 42.783726"
             y="0"
             id="tspan122"
             style="font-size:14px;font-variant:normal;font-weight:normal;writing-mode:lr-tb;fill:#000000;fill-opacity:1;fill-rule:nonzero;stroke:none;font-family:Times;-inkscape-font-specification:Times-Roman">Message</tspan></text>
</g><path
         d="M 4062.7,1484.3 C 3902.7,1237.4 3600.5,771.102 3413.1,481.801"
         id="path124"
         style="fill:none;stroke:#000000;stroke-width:10;stroke-linecap:butt;stroke-linejoin:miter;stroke-miterlimit:1;stroke-opacity:1;stroke-dasharray:none" /><path
         d="m 3440.4,459.5 -83.7,-64.898 25,103"
         id="path126"
         style="fill:#000000;fill-opacity:1;fill-rule:nonzero;stroke:none" /><path
         d="m 3440.4,459.5 -83.7,-64.898 25,103 58.7,-38.102 z"
         id="path128"
         style="fill:none;stroke:#000000;stroke-width:10;stroke-linecap:butt;stroke-linejoin:miter;stroke-miterlimit:1;stroke-opacity:1;stroke-dasharray:none" /><path
         d="m 4550.2,2380 c 0,99.41 -170.22,180 -380.2,180 -209.98,0 -380.2,-80.59 -380.2,-180 0,-99.41 170.22,-180 380.2,-180 209.98,0 380.2,80.59 380.2,180"
         id="path130"
         style="fill:none;stroke:#000000;stroke-width:10;stroke-linecap:butt;stroke-linejoin:miter;stroke-miterlimit:1;stroke-opacity:1;stroke-dasharray:none" /><g
         transform="scale(10,10)"
         id="g132"><text
           transform="matrix(1,0,0,-1,395.5,234.3)"
           id="text134"><tspan
             x="0 4.5929084 11.523816 17.670725 24.601633 28.424541 32.247448 36.070358"
             y="0"
             id="tspan136"
             style="font-size:14px;font-variant:normal;font-weight:normal;writing-mode:lr-tb;fill:#000000;fill-opacity:1;fill-rule:nonzero;stroke:none;font-family:Times;-inkscape-font-specification:Times-Roman">Identity</tspan></text>
</g><path
         d="m 4229.1,1842.8 c 8,77.5 10.3,170.8 6.8,257.3"
         id="path138"
         style="fill:none;stroke:#000000;stroke-width:10;stroke-linecap:butt;stroke-linejoin:miter;stroke-miterlimit:1;stroke-opacity:1;stroke-dasharray:none" /><path
         d="m 4200.9,2098.3 27.9,102.2 42,-97.2"
         id="path140"
         style="fill:#000000;fill-opacity:1;fill-rule:nonzero;stroke:none" /><path
         d="m 4200.9,2098.3 27.9,102.2 42,-97.2 -69.9,-5 z"
         id="path142"
         style="fill:none;stroke:#000000;stroke-width:10;stroke-linecap:butt;stroke-linejoin:miter;stroke-miterlimit:1;stroke-opacity:1;stroke-dasharray:none" /><path
         d="m 3043.4,940 c 0,99.41 -305.97,180 -683.4,180 -377.43,0 -683.4,-80.59 -683.4,-180 0,-99.41 305.97,-180 683.4,-180 377.43,0 683.4,80.59 683.4,180"
         id="path144"
         style="fill:none;stroke:#000000;stroke-width:10;stroke-linecap:butt;stroke-linejoin:miter;stroke-miterlimit:1;stroke-opacity:1;stroke-dasharray:none" /><g
         transform="scale(10,10)"
         id="g146"><text
           transform="matrix(1,0,0,-1,191,90.3)"
           id="text148"><tspan
             x="0 12.320805 18.41161 23.732414 29.053221 35.144024 42.018829 48.109634 55.76844 61.859245 67.95005 71.716858 78.59166 83.128464"
             y="0"
             id="tspan150"
             style="font-size:14px;font-variant:normal;font-weight:normal;writing-mode:lr-tb;fill:#000000;fill-opacity:1;fill-rule:nonzero;stroke:none;font-family:Times;-inkscape-font-specification:Times-Roman">MessageFactory</tspan></text>
</g><path
         d="M 3846.4,1524.9 C 3561.7,1414.7 3143.7,1253.1 2823.5,1129.3"
         id="path152"
         style="fill:none;stroke:#000000;stroke-width:10;stroke-linecap:butt;stroke-linejoin:miter;stroke-miterlimit:1;stroke-opacity:1;stroke-dasharray:none" /><path
         d="m 2833.4,1095.6 -105.9,-3.5 80.7,68.8"
         id="path154"
         style="fill:#000000;fill-opacity:1;fill-rule:nonzero;stroke:none" /><path
         d="m 2833.4,1095.6 -105.9,-3.5 80.7,68.8 25.2,-65.3 z"
         id="path156"
         style="fill:none;stroke:#000000;stroke-width:10;stroke-linecap:butt;stroke-linejoin:miter;stroke-miterlimit:1;stroke-opacity:1;stroke-dasharray:none" /><path
         d="m 5933.2,940 c 0,99.41 -193.95,180 -433.2,180 -239.25,0 -433.2,-80.59 -433.2,-180 0,-99.41 193.95,-180 433.2,-180 239.25,0 433.2,80.59 433.2,180"
         id="path158"
         style="fill:none;stroke:#000000;stroke-width:10;stroke-linecap:butt;stroke-linejoin:miter;stroke-miterlimit:1;stroke-opacity:1;stroke-dasharray:none" /><g
         transform="scale(10,10)"
         id="g160"><text
           transform="matrix(1,0,0,-1,524.5,90.3)"
           id="text162"><tspan
             x="0 9.2014771 15.280954 20.590431 27.453909 34.317387 38.842861 44.92234"
             y="0"
             id="tspan164"
             style="font-size:14px;font-variant:normal;font-weight:normal;writing-mode:lr-tb;fill:#000000;fill-opacity:1;fill-rule:nonzero;stroke:none;font-family:Times;-inkscape-font-specification:Times-Roman">Resource</tspan></text>
</g><path
         d="m 4439.1,1508.3 c 204.6,-107.6 487.7,-256.6 710.1,-373.6"
         id="path166"
         style="fill:none;stroke:#000000;stroke-width:10;stroke-linecap:butt;stroke-linejoin:miter;stroke-miterlimit:1;stroke-opacity:1;stroke-dasharray:none" /><path
         d="m 5168.1,1164.2 72.2,-77.5 -104.8,15.6"
         id="path168"
         style="fill:#000000;fill-opacity:1;fill-rule:nonzero;stroke:none" /><path
         d="m 5168.1,1164.2 72.2,-77.5 -104.8,15.6 32.6,61.9 z"
         id="path170"
         style="fill:none;stroke:#000000;stroke-width:10;stroke-linecap:butt;stroke-linejoin:miter;stroke-miterlimit:1;stroke-opacity:1;stroke-dasharray:none" /><path
         d="M 3421.1,3994.7 C 3047.7,4252.1 2325.6,4749.8 1911.7,5035.1"
         id="path172"
         style="fill:none;stroke:#000000;stroke-width:10;stroke-linecap:butt;stroke-linejoin:miter;stroke-miterlimit:1;stroke-opacity:1;stroke-dasharray:none" /><path
         d="m 1890.8,5007 -62.5,85.6 102.2,-27.9"
         id="path174"
         style="fill:#000000;fill-opacity:1;fill-rule:nonzero;stroke:none" /><path
         d="m 1890.8,5007 -62.5,85.6 102.2,-27.9 -39.7,-57.7 z"
         id="path176"
         style="fill:none;stroke:#000000;stroke-width:10;stroke-linecap:butt;stroke-linejoin:miter;stroke-miterlimit:1;stroke-opacity:1;stroke-dasharray:none" /><path
         d="m 3750.7,4001 c 22.3,76.9 41.9,169.5 54.6,255.7"
         id="path178"
         style="fill:none;stroke:#000000;stroke-width:10;stroke-linecap:butt;stroke-linejoin:miter;stroke-miterlimit:1;stroke-opacity:1;stroke-dasharray:none" /><path
         d="m 3770.6,4261.7 46.4,95.3 23.2,-103.4"
         id="path180"
         style="fill:#000000;fill-opacity:1;fill-rule:nonzero;stroke:none" /><path
         d="m 3770.6,4261.7 46.4,95.3 23.2,-103.4 -69.6,8.1 z"
         id="path182"
         style="fill:none;stroke:#000000;stroke-width:10;stroke-linecap:butt;stroke-linejoin:miter;stroke-miterlimit:1;stroke-opacity:1;stroke-dasharray:none" /><path
         d="m 3600.8,3637 c -8,-78.3 -10.2,-172.6 -6.6,-259.7"
         id="path184"
         style="fill:none;stroke:#000000;stroke-width:10;stroke-linecap:butt;stroke-linejoin:miter;stroke-miterlimit:1;stroke-opacity:1;stroke-dasharray:none" /><path
         d="m 3629.2,3378.5 -27.6,-102.3 -42.2,97.2"
         id="path186"
         style="fill:#000000;fill-opacity:1;fill-rule:nonzero;stroke:none" /><path
         d="m 3629.2,3378.5 -27.6,-102.3 -42.2,97.2 69.8,5.1 z"
         id="path188"
         style="fill:none;stroke:#000000;stroke-width:10;stroke-linecap:butt;stroke-linejoin:miter;stroke-miterlimit:1;stroke-opacity:1;stroke-dasharray:none" /><path
         d="M 3437.3,3207.4 C 3225.5,3293.7 2912,3437.6 2690,3640 2261.1,4031.1 1948.4,4647.7 1766,4993.3"
         id="path190"
         style="fill:none;stroke:#000000;stroke-width:10;stroke-linecap:butt;stroke-linejoin:miter;stroke-miterlimit:1;stroke-opacity:1;stroke-dasharray:none" /><path
         d="m 1734.3,4978.5 -16.2,104.7 77.9,-71.7"
         id="path192"
         style="fill:#000000;fill-opacity:1;fill-rule:nonzero;stroke:none" /><path
         d="m 1734.3,4978.5 -16.2,104.7 77.9,-71.7 -61.7,-33 z"
         id="path194"
         style="fill:none;stroke:#000000;stroke-width:10;stroke-linecap:butt;stroke-linejoin:miter;stroke-miterlimit:1;stroke-opacity:1;stroke-dasharray:none" /><path
         d="m 3915.3,3159.1 c 251.5,63.5 622.4,200.9 794.7,480.9 83.9,136.3 80.1,221.5 0,360 -91.8,158.8 -251.1,274.2 -411.7,355.9"
         id="path196"
         style="fill:none;stroke:#000000;stroke-width:10;stroke-linecap:butt;stroke-linejoin:miter;stroke-miterlimit:1;stroke-opacity:1;stroke-dasharray:none" /><path
         d="m 4279.7,4326 -75.6,74.3 105.4,-11"
         id="path198"
         style="fill:#000000;fill-opacity:1;fill-rule:nonzero;stroke:none" /><path
         d="m 4279.7,4326 -75.6,74.3 105.4,-11 -29.8,-63.3 z"
         id="path200"
         style="fill:none;stroke:#000000;stroke-width:10;stroke-linecap:butt;stroke-linejoin:miter;stroke-miterlimit:1;stroke-opacity:1;stroke-dasharray:none" /><path
         d="m 3718.4,3276.2 c 8.5,77.4 11,171.4 7.7,258.9"
         id="path202"
         style="fill:none;stroke:#000000;stroke-width:10;stroke-linecap:butt;stroke-linejoin:miter;stroke-miterlimit:1;stroke-opacity:1;stroke-dasharray:none" /><path
         d="m 3691,3534.8 28.2,102.2 41.7,-97.4"
         id="path204"
         style="fill:#000000;fill-opacity:1;fill-rule:nonzero;stroke:none" /><path
         d="m 3691,3534.8 28.2,102.2 41.7,-97.4 -69.9,-4.8 z"
         id="path206"
         style="fill:none;stroke:#000000;stroke-width:10;stroke-linecap:butt;stroke-linejoin:miter;stroke-miterlimit:1;stroke-opacity:1;stroke-dasharray:none" /><path
         d="m 3722.5,2924.1 c 55.5,-89.7 135.4,-202 213.1,-300.4"
         id="path208"
         style="fill:none;stroke:#000000;stroke-width:10;stroke-linecap:butt;stroke-linejoin:miter;stroke-miterlimit:1;stroke-opacity:1;stroke-dasharray:none" /><path
         d="m 3963.7,2644.7 36.1,-99.6 -90.3,55.3"
         id="path210"
         style="fill:#000000;fill-opacity:1;fill-rule:nonzero;stroke:none" /><path
         d="m 3963.7,2644.7 36.1,-99.6 -90.3,55.3 54.2,44.3 z"
         id="path212"
         style="fill:none;stroke:#000000;stroke-width:10;stroke-linecap:butt;stroke-linejoin:miter;stroke-miterlimit:1;stroke-opacity:1;stroke-dasharray:none" /><path
         d="m 4336.5,2543.6 c 299,295 867.9,956 553.5,1456.4 -115.3,183.6 -314,305.1 -511.1,384.8"
         id="path214"
         style="fill:none;stroke:#000000;stroke-width:10;stroke-linecap:butt;stroke-linejoin:miter;stroke-miterlimit:1;stroke-opacity:1;stroke-dasharray:none" /><path
         d="m 4364.1,4352.9 -81.5,67.7 105.9,-2.1"
         id="path216"
         style="fill:#000000;fill-opacity:1;fill-rule:nonzero;stroke:none" /><path
         d="m 4364.1,4352.9 -81.5,67.7 105.9,-2.1 -24.4,-65.6 z"
         id="path218"
         style="fill:none;stroke:#000000;stroke-width:10;stroke-linecap:butt;stroke-linejoin:miter;stroke-miterlimit:1;stroke-opacity:1;stroke-dasharray:none" /><path
         d="m 4111.2,2200.5 c -8.2,-77 -10.6,-170.2 -7.3,-256.9"
         id="path220"
         style="fill:none;stroke:#000000;stroke-width:10;stroke-linecap:butt;stroke-linejoin:miter;stroke-miterlimit:1;stroke-opacity:1;stroke-dasharray:none" /><path
         d="m 4138.9,1944.9 -28,-102.1 -41.8,97.3"
         id="path222"
         style="fill:#000000;fill-opacity:1;fill-rule:nonzero;stroke:none" /><path
         d="m 4138.9,1944.9 -28,-102.1 -41.8,97.3 69.8,4.8 z"
         id="path224"
         style="fill:none;stroke:#000000;stroke-width:10;stroke-linecap:butt;stroke-linejoin:miter;stroke-miterlimit:1;stroke-opacity:1;stroke-dasharray:none" /><path
         d="M 4162.7,2563.2 C 4150,2747 4115.2,3043 4020,3280 c -38.8,96.5 -97.2,193.3 -155.9,277.2"
         id="path226"
         style="fill:none;stroke:#000000;stroke-width:10;stroke-linecap:butt;stroke-linejoin:miter;stroke-miterlimit:1;stroke-opacity:1;stroke-dasharray:none" /><path
         d="m 3834.7,3538.1 -30.9,101.3 87.4,-59.9"
         id="path228"
         style="fill:#000000;fill-opacity:1;fill-rule:nonzero;stroke:none" /><path
         d="m 3834.7,3538.1 -30.9,101.3 87.4,-59.9 -56.5,-41.4 z"
         id="path230"
         style="fill:none;stroke:#000000;stroke-width:10;stroke-linecap:butt;stroke-linejoin:miter;stroke-miterlimit:1;stroke-opacity:1;stroke-dasharray:none" /><path
         d="m 4106.5,2557.6 c -59.1,95.1 -145,215 -226.7,317"
         id="path232"
         style="fill:none;stroke:#000000;stroke-width:10;stroke-linecap:butt;stroke-linejoin:miter;stroke-miterlimit:1;stroke-opacity:1;stroke-dasharray:none" /><path
         d="m 3852.7,2852.4 -36.9,99.3 90.8,-54.6"
         id="path234"
         style="fill:#000000;fill-opacity:1;fill-rule:nonzero;stroke:none" /><path
         d="m 3852.7,2852.4 -36.9,99.3 90.8,-54.6 -53.9,-44.7 z"
         id="path236"
         style="fill:none;stroke:#000000;stroke-width:10;stroke-linecap:butt;stroke-linejoin:miter;stroke-miterlimit:1;stroke-opacity:1;stroke-dasharray:none" /><path
         d="m 2566.4,767.602 c 122.5,-96.301 279.2,-219.5 411.7,-323.704"
         id="path238"
         style="fill:none;stroke:#000000;stroke-width:10;stroke-linecap:butt;stroke-linejoin:miter;stroke-miterlimit:1;stroke-opacity:1;stroke-dasharray:none" /><path
         d="m 2999.9,471.199 57,-89.301 -100.3,34.301"
         id="path240"
         style="fill:#000000;fill-opacity:1;fill-rule:nonzero;stroke:none" /><path
         d="m 2999.9,471.199 57,-89.301 -100.3,34.301 43.3,55 z"
         id="path242"
         style="fill:none;stroke:#000000;stroke-width:10;stroke-linecap:butt;stroke-linejoin:miter;stroke-miterlimit:1;stroke-opacity:1;stroke-dasharray:none" /></g></g></svg>