<?xml version="1.0" encoding="UTF-8" standalone="no"?>
<!-- Created with Inkscape (http://www.inkscape.org/) -->

<svg
   xmlns:dc="http://purl.org/dc/elements/1.1/"
   xmlns:cc="http://creativecommons.org/ns#"
   xmlns:rdf="http://www.w3.org/1999/02/22-rdf-syntax-ns#"
   xmlns:svg="http://www.w3.org/2000/svg"
   xmlns="http://www.w3.org/2000/svg"
   version="1.1"
   width="1165"
   height="415"
   id="svg2"
   xml:space="preserve"><metadata
     id="metadata8"><rdf:RDF><cc:Work
         rdf:about=""><dc:format>image/svg+xml</dc:format><dc:type
           rdf:resource="http://purl.org/dc/dcmitype/StillImage" /><dc:title></dc:title></cc:Work></rdf:RDF></metadata><defs
     id="defs6" /><g
     transform="matrix(1.25,0,0,-1.25,0,415)"
     id="g10"><g
       transform="scale(0.1,0.1)"
       id="g12"><path
         d="m 5530.7,3100 c 0,99.41 -224.17,180 -500.7,180 -276.53,0 -500.7,-80.59 -500.7,-180 0,-99.41 224.17,-180 500.7,-180 276.53,0 500.7,80.59 500.7,180"
         id="path14"
         style="fill:none;stroke:#000000;stroke-width:10;stroke-linecap:butt;stroke-linejoin:miter;stroke-miterlimit:1;stroke-opacity:1;stroke-dasharray:none" /><g
         transform="scale(10,10)"
         id="g16"><text
           transform="matrix(1,0,0,-1,472.5,306.3)"
           id="text18"><tspan
             x="0 13.14419 23.18038 33.216572 43.252762 51.734951"
             y="0"
             id="tspan20"
             style="font-size:14px;font-variant:normal;font-weight:normal;writing-mode:lr-tb;fill:#000000;fill-opacity:1;fill-rule:nonzero;stroke:none;font-family:Times;-inkscape-font-specification:Times-Roman">WONDER</tspan></text>
</g><path
         d="m 580,2380 c 0,99.41 -120.887,180 -270,180 -149.113,0 -270,-80.59 -270,-180 0,-99.41 120.887,-180 270,-180 149.113,0 270,80.59 270,180"
         id="path22"
         style="fill:none;stroke:#000000;stroke-width:10;stroke-linecap:butt;stroke-linejoin:miter;stroke-miterlimit:1;stroke-opacity:1;stroke-dasharray:none" /><g
         transform="scale(10,10)"
         id="g24"><text
           transform="matrix(1,0,0,-1,21.5,234.3)"
           id="text26"><tspan
             x="0 4.7747612 11.887522"
             y="0"
             id="tspan28"
             style="font-size:14px;font-variant:normal;font-weight:normal;writing-mode:lr-tb;fill:#000000;fill-opacity:1;fill-rule:nonzero;stroke:none;font-family:Times;-inkscape-font-specification:Times-Roman">Idp</tspan></text>
</g><path
         d="M 4529.3,3080.8 C 3707.7,3054.4 2029,2952.4 670,2560 c -19.398,-5.6 -39.102,-12.2 -58.699,-19.3"
         id="path30"
         style="fill:none;stroke:#000000;stroke-width:10;stroke-linecap:butt;stroke-linejoin:miter;stroke-miterlimit:1;stroke-opacity:1;stroke-dasharray:none" /><path
         d="M 620.801,2506.7 515,2500.6 l 78.898,70.7"
         id="path32"
         style="fill:#000000;fill-opacity:1;fill-rule:nonzero;stroke:none" /><path
         d="M 620.801,2506.7 515,2500.6 l 78.898,70.7 26.903,-64.6 z"
         id="path34"
         style="fill:none;stroke:#000000;stroke-width:10;stroke-linecap:butt;stroke-linejoin:miter;stroke-miterlimit:1;stroke-opacity:1;stroke-dasharray:none" /><path
         d="m 1736.2,2380 c 0,99.41 -217.68,180 -486.2,180 -268.52,0 -486.199,-80.59 -486.199,-180 0,-99.41 217.679,-180 486.199,-180 268.52,0 486.2,80.59 486.2,180"
         id="path36"
         style="fill:none;stroke:#000000;stroke-width:10;stroke-linecap:butt;stroke-linejoin:miter;stroke-miterlimit:1;stroke-opacity:1;stroke-dasharray:none" /><g
         transform="scale(10,10)"
         id="g38"><text
           transform="matrix(1,0,0,-1,95.5,234.3)"
           id="text40"><tspan
             x="0 13.12021 19.240419 26.14463 30.71084 34.50705 41.411259 48.315472 54.43568"
             y="0"
             id="tspan42"
             style="font-size:14px;font-variant:normal;font-weight:normal;writing-mode:lr-tb;fill:#000000;fill-opacity:1;fill-rule:nonzero;stroke:none;font-family:Times;-inkscape-font-specification:Times-Roman">Webfinger</tspan></text>
</g><path
         d="M 4570.9,3027 C 3955.2,2939.3 2829.5,2767.5 1880,2560 c -51.3,-11.2 -104.6,-23.9 -157.6,-37.2"
         id="path44"
         style="fill:none;stroke:#000000;stroke-width:10;stroke-linecap:butt;stroke-linejoin:miter;stroke-miterlimit:1;stroke-opacity:1;stroke-dasharray:none" /><path
         d="m 1727.2,2487.9 -105.6,8.8 88.1,58.9"
         id="path46"
         style="fill:#000000;fill-opacity:1;fill-rule:nonzero;stroke:none" /><path
         d="m 1727.2,2487.9 -105.6,8.8 88.1,58.9 17.5,-67.7 z"
         id="path48"
         style="fill:none;stroke:#000000;stroke-width:10;stroke-linecap:butt;stroke-linejoin:miter;stroke-miterlimit:1;stroke-opacity:1;stroke-dasharray:none" /><path
         d="m 1744.2,1660 c 0,99.41 -180.97,180 -404.2,180 -223.23,0 -404.199,-80.59 -404.199,-180 0,-99.41 180.969,-180 404.199,-180 223.23,0 404.2,80.59 404.2,180"
         id="path50"
         style="fill:none;stroke:#000000;stroke-width:10;stroke-linecap:butt;stroke-linejoin:miter;stroke-miterlimit:1;stroke-opacity:1;stroke-dasharray:none" /><g
         transform="scale(10,10)"
         id="g52"><text
           transform="matrix(1,0,0,-1,110.5,162.3)"
           id="text54"><tspan
             x="0 10.03619 16.18038 27.00057 33.14476 40.072952"
             y="0"
             id="tspan56"
             style="font-size:14px;font-variant:normal;font-weight:normal;writing-mode:lr-tb;fill:#000000;fill-opacity:1;fill-rule:nonzero;stroke:none;font-family:Times;-inkscape-font-specification:Times-Roman">Demand</tspan></text>
</g><path
         d="M 4528.9,3085.5 C 3940.6,3060.6 2951.2,2956.6 2210,2560 c -79.1,-42.3 -421.5,-404.1 -652.5,-653.2"
         id="path58"
         style="fill:none;stroke:#000000;stroke-width:10;stroke-linecap:butt;stroke-linejoin:miter;stroke-miterlimit:1;stroke-opacity:1;stroke-dasharray:none" /><path
         d="m 1580.5,1880.1 -93.6,-49.6 42.2,97.2"
         id="path60"
         style="fill:#000000;fill-opacity:1;fill-rule:nonzero;stroke:none" /><path
         d="m 1580.5,1880.1 -93.6,-49.6 42.2,97.2 51.4,-47.6 z"
         id="path62"
         style="fill:none;stroke:#000000;stroke-width:10;stroke-linecap:butt;stroke-linejoin:miter;stroke-miterlimit:1;stroke-opacity:1;stroke-dasharray:none" /><path
         d="m 3276.2,2380 c 0,99.41 -217.68,180 -486.2,180 -268.52,0 -486.2,-80.59 -486.2,-180 0,-99.41 217.68,-180 486.2,-180 268.52,0 486.2,80.59 486.2,180"
         id="path64"
         style="fill:none;stroke:#000000;stroke-width:10;stroke-linecap:butt;stroke-linejoin:miter;stroke-miterlimit:1;stroke-opacity:1;stroke-dasharray:none" /><g
         transform="scale(10,10)"
         id="g66"><text
           transform="matrix(1,0,0,-1,249.5,234.3)"
           id="text68"><tspan
             x="0 7.633112 13.698224 18.209335 21.950447 25.691561 31.756672 35.497784 42.346897 48.412006 55.26112"
             y="0"
             id="tspan70"
             style="font-size:14px;font-variant:normal;font-weight:normal;writing-mode:lr-tb;fill:#000000;fill-opacity:1;fill-rule:nonzero;stroke:none;font-family:Times;-inkscape-font-specification:Times-Roman">Participant</tspan></text>
</g><path
         d="m 4665.1,2976 c -387.9,-121.3 -1002,-313.2 -1421,-444.1"
         id="path72"
         style="fill:none;stroke:#000000;stroke-width:10;stroke-linecap:butt;stroke-linejoin:miter;stroke-miterlimit:1;stroke-opacity:1;stroke-dasharray:none" /><path
         d="m 3253.2,2498.1 -105.9,3.6 85,63.2"
         id="path74"
         style="fill:#000000;fill-opacity:1;fill-rule:nonzero;stroke:none" /><path
         d="m 3253.2,2498.1 -105.9,3.6 85,63.2 20.9,-66.8 z"
         id="path76"
         style="fill:none;stroke:#000000;stroke-width:10;stroke-linecap:butt;stroke-linejoin:miter;stroke-miterlimit:1;stroke-opacity:1;stroke-dasharray:none" /><path
         d="m 5172.7,2380 c 0,99.41 -256.41,180 -572.7,180 -316.29,0 -572.7,-80.59 -572.7,-180 0,-99.41 256.41,-180 572.7,-180 316.29,0 572.7,80.59 572.7,180"
         id="path78"
         style="fill:none;stroke:#000000;stroke-width:10;stroke-linecap:butt;stroke-linejoin:miter;stroke-miterlimit:1;stroke-opacity:1;stroke-dasharray:none" /><g
         transform="scale(10,10)"
         id="g80"><text
           transform="matrix(1,0,0,-1,423.5,234.3)"
           id="text82"><tspan
             x="0 9.1996536 16.061308 22.922962 29.784616 35.86227 40.385925 45.693577 51.771233 55.524887 59.278542 66.140198"
             y="0"
             id="tspan84"
             style="font-size:14px;font-variant:normal;font-weight:normal;writing-mode:lr-tb;fill:#000000;fill-opacity:1;fill-rule:nonzero;stroke:none;font-family:Times;-inkscape-font-specification:Times-Roman">Conversation</tspan></text>
</g><path
         d="M 4925.9,2920.5 C 4875.2,2838 4813.2,2737 4756.9,2645.4"
         id="path86"
         style="fill:none;stroke:#000000;stroke-width:10;stroke-linecap:butt;stroke-linejoin:miter;stroke-miterlimit:1;stroke-opacity:1;stroke-dasharray:none" /><path
         d="m 4785.3,2624.8 -82.2,-66.9 22.6,103.5"
         id="path88"
         style="fill:#000000;fill-opacity:1;fill-rule:nonzero;stroke:none" /><path
         d="m 4785.3,2624.8 -82.2,-66.9 22.6,103.5 59.6,-36.6 z"
         id="path90"
         style="fill:none;stroke:#000000;stroke-width:10;stroke-linecap:butt;stroke-linejoin:miter;stroke-miterlimit:1;stroke-opacity:1;stroke-dasharray:none" /><path
         d="m 3283.9,1660 c 0,99.41 -301.72,180 -673.9,180 -372.18,0 -673.9,-80.59 -673.9,-180 0,-99.41 301.72,-180 673.9,-180 372.18,0 673.9,80.59 673.9,180"
         id="path92"
         style="fill:none;stroke:#000000;stroke-width:10;stroke-linecap:butt;stroke-linejoin:miter;stroke-miterlimit:1;stroke-opacity:1;stroke-dasharray:none" /><g
         transform="scale(10,10)"
         id="g94"><text
           transform="matrix(1,0,0,-1,217,162.3)"
           id="text96"><tspan
             x="0 12.336024 17.672049 24.562073 33.006096 39.896118 43.678143 53.676167 59.782192 66.672218 73.562241 77.344261 83.450287"
             y="0"
             id="tspan98"
             style="font-size:14px;font-variant:normal;font-weight:normal;writing-mode:lr-tb;fill:#000000;fill-opacity:1;fill-rule:nonzero;stroke:none;font-family:Times;-inkscape-font-specification:Times-Roman">MsgEvtHandler</tspan></text>
</g><path
         d="M 4680.5,2970 C 4437.2,2868.9 4112.1,2716.2 3840,2560 3646.1,2448.7 3170.1,2122.6 2868.7,1897.7"
         id="path100"
         style="fill:none;stroke:#000000;stroke-width:10;stroke-linecap:butt;stroke-linejoin:miter;stroke-miterlimit:1;stroke-opacity:1;stroke-dasharray:none" /><path
         d="m 2889.5,1869.6 -100.8,-32.4 58.6,88.2"
         id="path102"
         style="fill:#000000;fill-opacity:1;fill-rule:nonzero;stroke:none" /><path
         d="m 2889.5,1869.6 -100.8,-32.4 58.6,88.2 42.2,-55.8 z"
         id="path104"
         style="fill:none;stroke:#000000;stroke-width:10;stroke-linecap:butt;stroke-linejoin:miter;stroke-miterlimit:1;stroke-opacity:1;stroke-dasharray:none" /><path
         d="m 6662.2,2380 c 0,99.41 -206.94,180 -462.2,180 -255.26,0 -462.2,-80.59 -462.2,-180 0,-99.41 206.94,-180 462.2,-180 255.26,0 462.2,80.59 462.2,180"
         id="path106"
         style="fill:none;stroke:#000000;stroke-width:10;stroke-linecap:butt;stroke-linejoin:miter;stroke-miterlimit:1;stroke-opacity:1;stroke-dasharray:none" /><g
         transform="scale(10,10)"
         id="g108"><text
           transform="matrix(1,0,0,-1,592.5,234.3)"
           id="text110"><tspan
             x="0 6.1161952 12.23239 16.024586 19.816782 27.500977 31.293171 38.193367 45.093563 48.885757"
             y="0"
             id="tspan112"
             style="font-size:14px;font-variant:normal;font-weight:normal;writing-mode:lr-tb;fill:#000000;fill-opacity:1;fill-rule:nonzero;stroke:none;font-family:Times;-inkscape-font-specification:Times-Roman">callSingle</tspan></text>
</g><path
         d="m 5232.5,2934.6 c 165.9,-106.8 403,-249.2 601.5,-361.6"
         id="path114"
         style="fill:none;stroke:#000000;stroke-width:10;stroke-linecap:butt;stroke-linejoin:miter;stroke-miterlimit:1;stroke-opacity:1;stroke-dasharray:none" /><path
         d="m 5851.9,2603.1 70.2,-79.4 -104.3,18.3"
         id="path116"
         style="fill:#000000;fill-opacity:1;fill-rule:nonzero;stroke:none" /><path
         d="m 5851.9,2603.1 70.2,-79.4 -104.3,18.3 34.1,61.1 z"
         id="path118"
         style="fill:none;stroke:#000000;stroke-width:10;stroke-linecap:butt;stroke-linejoin:miter;stroke-miterlimit:1;stroke-opacity:1;stroke-dasharray:none" /><path
         d="m 8424.7,1660 c 0,99.41 -293.12,180 -654.7,180 -361.58,0 -654.7,-80.59 -654.7,-180 0,-99.41 293.12,-180 654.7,-180 361.58,0 654.7,80.59 654.7,180"
         id="path120"
         style="fill:none;stroke:#000000;stroke-width:10;stroke-linecap:butt;stroke-linejoin:miter;stroke-miterlimit:1;stroke-opacity:1;stroke-dasharray:none" /><g
         transform="scale(10,10)"
         id="g122"><text
           transform="matrix(1,0,0,-1,734.5,162.3)"
           id="text124"><tspan
             x="0 12.343236 18.456472 23.799707 29.142944 35.25618 42.153416 45.942654 52.83989 59.737125 67.418358 71.207596 78.104836"
             y="0"
             id="tspan126"
             style="font-size:14px;font-variant:normal;font-weight:normal;writing-mode:lr-tb;fill:#000000;fill-opacity:1;fill-rule:nonzero;stroke:none;font-family:Times;-inkscape-font-specification:Times-Roman">MessagingStub</tspan></text>
</g><path
         d="M 5469.6,3012.7 C 5831.3,2935.8 6348,2794.8 6750,2560 c 200.9,-117.3 205.9,-205.7 380,-360 115.6,-102.4 246.4,-211.8 359.5,-304.5"
         id="path128"
         style="fill:none;stroke:#000000;stroke-width:10;stroke-linecap:butt;stroke-linejoin:miter;stroke-miterlimit:1;stroke-opacity:1;stroke-dasharray:none" /><path
         d="m 7512.8,1921.7 55.4,-90.3 -99.6,36"
         id="path130"
         style="fill:#000000;fill-opacity:1;fill-rule:nonzero;stroke:none" /><path
         d="m 7512.8,1921.7 55.4,-90.3 -99.6,36 44.2,54.3 z"
         id="path132"
         style="fill:none;stroke:#000000;stroke-width:10;stroke-linecap:butt;stroke-linejoin:miter;stroke-miterlimit:1;stroke-opacity:1;stroke-dasharray:none" /><path
         d="m 8313.9,2380 c 0,99.41 -243.51,180 -543.9,180 -300.39,0 -543.9,-80.59 -543.9,-180 0,-99.41 243.51,-180 543.9,-180 300.39,0 543.9,80.59 543.9,180"
         id="path134"
         style="fill:none;stroke:#000000;stroke-width:10;stroke-linecap:butt;stroke-linejoin:miter;stroke-miterlimit:1;stroke-opacity:1;stroke-dasharray:none" /><g
         transform="scale(10,10)"
         id="g136"><text
           transform="matrix(1,0,0,-1,743,234.3)"
           id="text138"><tspan
             x="0 6.8196378 12.855276 16.566914 22.602552 31.760189 38.579826 44.615467 51.435104 58.254742 64.290382"
             y="0"
             id="tspan140"
             style="font-size:14px;font-variant:normal;font-weight:normal;writing-mode:lr-tb;fill:#000000;fill-opacity:1;fill-rule:nonzero;stroke:none;font-family:Times;-inkscape-font-specification:Times-Roman">dataChannel</tspan></text>
</g><path
         d="M 5407.5,2980.6 C 5882.1,2853.8 6697.3,2645.4 7235.6,2513"
         id="path142"
         style="fill:none;stroke:#000000;stroke-width:10;stroke-linecap:butt;stroke-linejoin:miter;stroke-miterlimit:1;stroke-opacity:1;stroke-dasharray:none" /><path
         d="m 7247.2,2546.2 88.8,-57.8 -105.4,-10.2"
         id="path144"
         style="fill:#000000;fill-opacity:1;fill-rule:nonzero;stroke:none" /><path
         d="m 7247.2,2546.2 88.8,-57.8 -105.4,-10.2 16.6,68 z"
         id="path146"
         style="fill:none;stroke:#000000;stroke-width:10;stroke-linecap:butt;stroke-linejoin:miter;stroke-miterlimit:1;stroke-opacity:1;stroke-dasharray:none" /><path
         d="m 8652.2,940 c 0,99.41 -148.74,180 -332.2,180 -183.46,0 -332.2,-80.59 -332.2,-180 0,-99.41 148.74,-180 332.2,-180 183.46,0 332.2,80.59 332.2,180"
         id="path148"
         style="fill:none;stroke:#000000;stroke-width:10;stroke-linecap:butt;stroke-linejoin:miter;stroke-miterlimit:1;stroke-opacity:1;stroke-dasharray:none" /><g
         transform="scale(10,10)"
         id="g150"><text
           transform="matrix(1,0,0,-1,814.5,90.3)"
           id="text152"><tspan
             x="0 9.1841717 16.030344 22.876516 28.938688"
             y="0"
             id="tspan154"
             style="font-size:14px;font-variant:normal;font-weight:normal;writing-mode:lr-tb;fill:#000000;fill-opacity:1;fill-rule:nonzero;stroke:none;font-family:Times;-inkscape-font-specification:Times-Roman">Codec</tspan></text>
</g><path
         d="m 5530.5,3081.3 c 839,-25.6 2476.2,-126.2 2869.5,-521.3 351,-352.6 175.9,-991.9 36.1,-1349.7"
         id="path156"
         style="fill:none;stroke:#000000;stroke-width:10;stroke-linecap:butt;stroke-linejoin:miter;stroke-miterlimit:1;stroke-opacity:1;stroke-dasharray:none" /><path
         d="m 8468.4,1196.6 -70.3,-79.3 5.5,105.8"
         id="path158"
         style="fill:#000000;fill-opacity:1;fill-rule:nonzero;stroke:none" /><path
         d="m 8468.4,1196.6 -70.3,-79.3 5.5,105.8 64.8,-26.5 z"
         id="path160"
         style="fill:none;stroke:#000000;stroke-width:10;stroke-linecap:butt;stroke-linejoin:miter;stroke-miterlimit:1;stroke-opacity:1;stroke-dasharray:none" /><path
         d="M 2507,2233.4 C 2276,2121.9 1948.4,1963.7 1699,1843.3"
         id="path162"
         style="fill:none;stroke:#000000;stroke-width:10;stroke-linecap:butt;stroke-linejoin:miter;stroke-miterlimit:1;stroke-opacity:1;stroke-dasharray:none" /><path
         d="m 1712.9,1811.1 -105.3,-11.9 74.9,75"
         id="path164"
         style="fill:#000000;fill-opacity:1;fill-rule:nonzero;stroke:none" /><path
         d="m 1712.9,1811.1 -105.3,-11.9 74.9,75 30.4,-63.1 z"
         id="path166"
         style="fill:none;stroke:#000000;stroke-width:10;stroke-linecap:butt;stroke-linejoin:miter;stroke-miterlimit:1;stroke-opacity:1;stroke-dasharray:none" /><path
         d="M 4230.4,2240 C 3910.8,2127.6 3446.6,1964.3 3096.9,1841.3"
         id="path168"
         style="fill:none;stroke:#000000;stroke-width:10;stroke-linecap:butt;stroke-linejoin:miter;stroke-miterlimit:1;stroke-opacity:1;stroke-dasharray:none" /><path
         d="m 3107.4,1807.9 -105.9,-0.2 82.7,66.2"
         id="path170"
         style="fill:#000000;fill-opacity:1;fill-rule:nonzero;stroke:none" /><path
         d="m 3107.4,1807.9 -105.9,-0.2 82.7,66.2 23.2,-66 z"
         id="path172"
         style="fill:none;stroke:#000000;stroke-width:10;stroke-linecap:butt;stroke-linejoin:miter;stroke-miterlimit:1;stroke-opacity:1;stroke-dasharray:none" /><path
         d="m 6545.4,1660 c 0,99.41 -284.48,180 -635.4,180 -350.92,0 -635.4,-80.59 -635.4,-180 0,-99.41 284.48,-180 635.4,-180 350.92,0 635.4,80.59 635.4,180"
         id="path174"
         style="fill:none;stroke:#000000;stroke-width:10;stroke-linecap:butt;stroke-linejoin:miter;stroke-miterlimit:1;stroke-opacity:1;stroke-dasharray:none" /><g
         transform="scale(10,10)"
         id="g176"><text
           transform="matrix(1,0,0,-1,550,162.3)"
           id="text178"><tspan
             x="0 9.1854162 12.924832 18.988249 27.389664 34.23708 37.976498 47.931911 53.995327 60.842743 67.690163 71.429573 77.492989"
             y="0"
             id="tspan180"
             style="font-size:14px;font-variant:normal;font-weight:normal;writing-mode:lr-tb;fill:#000000;fill-opacity:1;fill-rule:nonzero;stroke:none;font-family:Times;-inkscape-font-specification:Times-Roman">RtcEvtHandler</tspan></text>
</g><path
         d="m 4877.8,2221.5 c 191.1,-102 447,-238.8 656.3,-350.6"
         id="path182"
         style="fill:none;stroke:#000000;stroke-width:10;stroke-linecap:butt;stroke-linejoin:miter;stroke-miterlimit:1;stroke-opacity:1;stroke-dasharray:none" /><path
         d="m 5551.8,1901.1 71.7,-78 -104.7,16.2"
         id="path184"
         style="fill:#000000;fill-opacity:1;fill-rule:nonzero;stroke:none" /><path
         d="m 5551.8,1901.1 71.7,-78 -104.7,16.2 33,61.8 z"
         id="path186"
         style="fill:none;stroke:#000000;stroke-width:10;stroke-linecap:butt;stroke-linejoin:miter;stroke-miterlimit:1;stroke-opacity:1;stroke-dasharray:none" /><path
         d="m 5093.6,1660 c 0,99.41 -364.26,180 -813.6,180 -449.34,0 -813.6,-80.59 -813.6,-180 0,-99.41 364.26,-180 813.6,-180 449.34,0 813.6,80.59 813.6,180"
         id="path188"
         style="fill:none;stroke:#000000;stroke-width:10;stroke-linecap:butt;stroke-linejoin:miter;stroke-miterlimit:1;stroke-opacity:1;stroke-dasharray:none" /><g
         transform="scale(10,10)"
         id="g190"><text
           transform="matrix(1,0,0,-1,373.5,162.3)"
           id="text192"><tspan
             x="0 9.9333677 15.974736 19.692104 25.733473 34.896839 41.722206 47.763577 54.588943 61.41431 67.455681 71.17305 80.336418 84.823784 91.649155 98.474518 104.51588"
             y="0"
             id="tspan194"
             style="font-size:14px;font-variant:normal;font-weight:normal;writing-mode:lr-tb;fill:#000000;fill-opacity:1;fill-rule:nonzero;stroke:none;font-family:Times;-inkscape-font-specification:Times-Roman">DataChannelBroker</tspan></text>
</g><path
         d="m 4522.5,2200.5 c -36.4,-79.6 -80.6,-176.4 -121.3,-265.4"
         id="path196"
         style="fill:none;stroke:#000000;stroke-width:10;stroke-linecap:butt;stroke-linejoin:miter;stroke-miterlimit:1;stroke-opacity:1;stroke-dasharray:none" /><path
         d="m 4432.4,1919.1 -73.4,-76.3 9.7,105.5"
         id="path198"
         style="fill:#000000;fill-opacity:1;fill-rule:nonzero;stroke:none" /><path
         d="m 4432.4,1919.1 -73.4,-76.3 9.7,105.5 63.7,-29.2 z"
         id="path200"
         style="fill:none;stroke:#000000;stroke-width:10;stroke-linecap:butt;stroke-linejoin:miter;stroke-miterlimit:1;stroke-opacity:1;stroke-dasharray:none" /><path
         d="m 2888.7,1824.2 c 347.5,220.1 915,611.6 1131.3,735.8 214.9,123.3 462.8,244.5 660.3,339.8"
         id="path202"
         style="fill:none;stroke:#000000;stroke-width:10;stroke-linecap:butt;stroke-linejoin:miter;stroke-miterlimit:1;stroke-opacity:1;stroke-dasharray:none" /><path
         d="m 4667.5,2932.5 105.3,11.9 -74.9,-74.9"
         id="path204"
         style="fill:#000000;fill-opacity:1;fill-rule:nonzero;stroke:none" /><path
         d="m 4667.5,2932.5 105.3,11.9 -74.9,-74.9 -30.4,63 z"
         id="path206"
         style="fill:none;stroke:#000000;stroke-width:10;stroke-linecap:butt;stroke-linejoin:miter;stroke-miterlimit:1;stroke-opacity:1;stroke-dasharray:none" /><path
         d="m 5805.7,1838.2 c -152.7,246.5 -438.5,707.7 -617.3,996.2"
         id="path208"
         style="fill:none;stroke:#000000;stroke-width:10;stroke-linecap:butt;stroke-linejoin:miter;stroke-miterlimit:1;stroke-opacity:1;stroke-dasharray:none" /><path
         d="m 5157.3,2818.1 -22.9,103.4 82.4,-66.5"
         id="path210"
         style="fill:#000000;fill-opacity:1;fill-rule:nonzero;stroke:none" /><path
         d="m 5157.3,2818.1 -22.9,103.4 82.4,-66.5 -59.5,-36.9 z"
         id="path212"
         style="fill:none;stroke:#000000;stroke-width:10;stroke-linecap:butt;stroke-linejoin:miter;stroke-miterlimit:1;stroke-opacity:1;stroke-dasharray:none" /><path
         d="m 7053.4,940 c 0,99.41 -305.97,180 -683.4,180 -377.43,0 -683.4,-80.59 -683.4,-180 0,-99.41 305.97,-180 683.4,-180 377.43,0 683.4,80.59 683.4,180"
         id="path214"
         style="fill:none;stroke:#000000;stroke-width:10;stroke-linecap:butt;stroke-linejoin:miter;stroke-miterlimit:1;stroke-opacity:1;stroke-dasharray:none" /><g
         transform="scale(10,10)"
         id="g216"><text
           transform="matrix(1,0,0,-1,592,90.3)"
           id="text218"><tspan
             x="0 12.320805 18.41161 23.732414 29.053221 35.144024 42.018829 48.109634 55.76844 61.859245 67.95005 71.716858 78.59166 83.128464"
             y="0"
             id="tspan220"
             style="font-size:14px;font-variant:normal;font-weight:normal;writing-mode:lr-tb;fill:#000000;fill-opacity:1;fill-rule:nonzero;stroke:none;font-family:Times;-inkscape-font-specification:Times-Roman">MessageFactory</tspan></text>
</g><path
         d="m 6021.4,1480.5 c 54.8,-83.4 121.9,-185.6 182.7,-278"
         id="path222"
         style="fill:none;stroke:#000000;stroke-width:10;stroke-linecap:butt;stroke-linejoin:miter;stroke-miterlimit:1;stroke-opacity:1;stroke-dasharray:none" /><path
         d="m 6234,1220.7 25.7,-102.8 -84.2,64.3"
         id="path224"
         style="fill:#000000;fill-opacity:1;fill-rule:nonzero;stroke:none" /><path
         d="m 6234,1220.7 25.7,-102.8 -84.2,64.3 58.5,38.5 z"
         id="path226"
         style="fill:none;stroke:#000000;stroke-width:10;stroke-linecap:butt;stroke-linejoin:miter;stroke-miterlimit:1;stroke-opacity:1;stroke-dasharray:none" /><path
         d="m 6793.7,220 c 0,99.41 -189.7,180 -423.7,180 -234,0 -423.7,-80.59 -423.7,-180 0,-99.41 189.7,-180 423.7,-180 234,0 423.7,80.59 423.7,180"
         id="path228"
         style="fill:none;stroke:#000000;stroke-width:10;stroke-linecap:butt;stroke-linejoin:miter;stroke-miterlimit:1;stroke-opacity:1;stroke-dasharray:none" /><g
         transform="scale(10,10)"
         id="g230"><text
           transform="matrix(1,0,0,-1,612.5,18.3)"
           id="text232"><tspan
             x="0 12.448288 18.666576 24.114862 29.56315 35.781437 42.783726"
             y="0"
             id="tspan234"
             style="font-size:14px;font-variant:normal;font-weight:normal;writing-mode:lr-tb;fill:#000000;fill-opacity:1;fill-rule:nonzero;stroke:none;font-family:Times;-inkscape-font-specification:Times-Roman">Message</tspan></text>
</g><path
         d="m 6370,757 c 0,-77.199 0,-169.898 0,-255.898"
         id="path236"
         style="fill:none;stroke:#000000;stroke-width:10;stroke-linecap:butt;stroke-linejoin:miter;stroke-miterlimit:1;stroke-opacity:1;stroke-dasharray:none" /><path
         d="m 6405,501 -35,-100 -35,100"
         id="path238"
         style="fill:#000000;fill-opacity:1;fill-rule:nonzero;stroke:none" /><path
         d="m 6405,501 -35,-100 -35,100 70,0 z"
         id="path240"
         style="fill:none;stroke:#000000;stroke-width:10;stroke-linecap:butt;stroke-linejoin:miter;stroke-miterlimit:1;stroke-opacity:1;stroke-dasharray:none" /><path
         d="m 4875.2,1535.9 c 101.6,-19 206.2,-38.3 304.8,-55.9 975.4,-174.4 2124.2,-364.4 2725.5,-462.7"
         id="path242"
         style="fill:none;stroke:#000000;stroke-width:10;stroke-linecap:butt;stroke-linejoin:miter;stroke-miterlimit:1;stroke-opacity:1;stroke-dasharray:none" /><path
         d="m 7914.6,1051.3 93.1,-50.7 -104.4,-18.401"
         id="path244"
         style="fill:#000000;fill-opacity:1;fill-rule:nonzero;stroke:none" /><path
         d="m 7914.6,1051.3 93.1,-50.7 -104.4,-18.401 11.3,69.101 z"
         id="path246"
         style="fill:none;stroke:#000000;stroke-width:10;stroke-linecap:butt;stroke-linejoin:miter;stroke-miterlimit:1;stroke-opacity:1;stroke-dasharray:none" /><path
         d="m 6001.8,2542.6 c -163.8,105.7 -398.8,247 -597.4,359.6"
         id="path248"
         style="fill:none;stroke:#000000;stroke-width:10;stroke-linecap:butt;stroke-linejoin:miter;stroke-miterlimit:1;stroke-opacity:1;stroke-dasharray:none" /><path
         d="m 5386.3,2872.3 -70.1,79.4 104.3,-18.4"
         id="path250"
         style="fill:#000000;fill-opacity:1;fill-rule:nonzero;stroke:none" /><path
         d="m 5386.3,2872.3 -70.1,79.4 104.3,-18.4 -34.2,-61 z"
         id="path252"
         style="fill:none;stroke:#000000;stroke-width:10;stroke-linecap:butt;stroke-linejoin:miter;stroke-miterlimit:1;stroke-opacity:1;stroke-dasharray:none" /><path
         d="m 6377,2212.2 c 94.8,-96.8 202.3,-229.3 253,-372.2 74,-208.7 -6.6,-450 -97,-628.7"
         id="path254"
         style="fill:none;stroke:#000000;stroke-width:10;stroke-linecap:butt;stroke-linejoin:miter;stroke-miterlimit:1;stroke-opacity:1;stroke-dasharray:none" /><path
         d="m 6561.4,1190.1 -78.7,-71 17.2,104.6"
         id="path256"
         style="fill:#000000;fill-opacity:1;fill-rule:nonzero;stroke:none" /><path
         d="m 6561.4,1190.1 -78.7,-71 17.2,104.6 61.5,-33.6 z"
         id="path258"
         style="fill:none;stroke:#000000;stroke-width:10;stroke-linecap:butt;stroke-linejoin:miter;stroke-miterlimit:1;stroke-opacity:1;stroke-dasharray:none" /><path
         d="m 6491.6,2240 c 241.2,-107.5 586.8,-261.6 857.9,-382.5"
         id="path260"
         style="fill:none;stroke:#000000;stroke-width:10;stroke-linecap:butt;stroke-linejoin:miter;stroke-miterlimit:1;stroke-opacity:1;stroke-dasharray:none" /><path
         d="m 7364.9,1889 77.1,-72.7 -105.6,8.7"
         id="path262"
         style="fill:#000000;fill-opacity:1;fill-rule:nonzero;stroke:none" /><path
         d="m 7364.9,1889 77.1,-72.7 -105.6,8.7 28.5,64 z"
         id="path264"
         style="fill:none;stroke:#000000;stroke-width:10;stroke-linecap:butt;stroke-linejoin:miter;stroke-miterlimit:1;stroke-opacity:1;stroke-dasharray:none" /><path
         d="m 7374.2,2504.3 c -484.3,129.1 -1302.8,338.3 -1833.8,468.6"
         id="path266"
         style="fill:none;stroke:#000000;stroke-width:10;stroke-linecap:butt;stroke-linejoin:miter;stroke-miterlimit:1;stroke-opacity:1;stroke-dasharray:none" /><path
         d="m 5530.3,2939.3 -88.8,57.7 105.4,10.3"
         id="path268"
         style="fill:#000000;fill-opacity:1;fill-rule:nonzero;stroke:none" /><path
         d="m 5530.3,2939.3 -88.8,57.7 105.4,10.3 -16.6,-68 z"
         id="path270"
         style="fill:none;stroke:#000000;stroke-width:10;stroke-linecap:butt;stroke-linejoin:miter;stroke-miterlimit:1;stroke-opacity:1;stroke-dasharray:none" /><path
         d="m 7770,2197 c 0,-77.2 0,-169.9 0,-255.9"
         id="path272"
         style="fill:none;stroke:#000000;stroke-width:10;stroke-linecap:butt;stroke-linejoin:miter;stroke-miterlimit:1;stroke-opacity:1;stroke-dasharray:none" /><path
         d="m 7805,1941 -35,-100 -35,100"
         id="path274"
         style="fill:#000000;fill-opacity:1;fill-rule:nonzero;stroke:none" /><path
         d="m 7805,1941 -35,-100 -35,100 70,0 z"
         id="path276"
         style="fill:none;stroke:#000000;stroke-width:10;stroke-linecap:butt;stroke-linejoin:miter;stroke-miterlimit:1;stroke-opacity:1;stroke-dasharray:none" /><path
         d="m 9282.6,220 c 0,99.41 -430.97,180 -962.6,180 -531.63,0 -962.6,-80.59 -962.6,-180 0,-99.41 430.97,-180 962.6,-180 531.63,0 962.6,80.59 962.6,180"
         id="path278"
         style="fill:none;stroke:#000000;stroke-width:10;stroke-linecap:butt;stroke-linejoin:miter;stroke-miterlimit:1;stroke-opacity:1;stroke-dasharray:none" /><g
         transform="scale(10,10)"
         id="g280"><text
           transform="matrix(1,0,0,-1,765.5,18.3)"
           id="text282"><tspan
             x="0 9.8875198 15.88304 19.55456 25.550079 34.667599 41.447121 47.442638 54.22216 61.001678 66.9972 70.668716 79.002243 85.781761 89.453278 99.340797 105.33632 112.11584 118.89536 122.56688 128.56239"
             y="0"
             id="tspan284"
             style="font-size:14px;font-variant:normal;font-weight:normal;writing-mode:lr-tb;fill:#000000;fill-opacity:1;fill-rule:nonzero;stroke:none;font-family:Times;-inkscape-font-specification:Times-Roman">DataChannelEvtHandler</tspan></text>
</g><path
         d="m 8320,757 c 0,-77.199 0,-169.898 0,-255.898"
         id="path286"
         style="fill:none;stroke:#000000;stroke-width:10;stroke-linecap:butt;stroke-linejoin:miter;stroke-miterlimit:1;stroke-opacity:1;stroke-dasharray:none" /><path
         d="m 8355,501 -35,-100 -35,100"
         id="path288"
         style="fill:#000000;fill-opacity:1;fill-rule:nonzero;stroke:none" /><path
         d="m 8355,501 -35,-100 -35,100 70,0 z"
         id="path290"
         style="fill:none;stroke:#000000;stroke-width:10;stroke-linecap:butt;stroke-linejoin:miter;stroke-miterlimit:1;stroke-opacity:1;stroke-dasharray:none" /></g></g></svg>