<!DOCTYPE svg PUBLIC "-//W3C//DTD SVG 1.1//EN"
 "http://www.w3.org/Graphics/SVG/1.1/DTD/svg11.dtd">
<svg version="1.1"
 width="600px" height="592px"
 viewBox="0 0 600 592"
 xmlns="http://www.w3.org/2000/svg" shape-rendering="crispEdges"
 stroke-width="1" text-rendering="geometricPrecision">
<polygon fill="white" points="58,7 60,7 60,16 58,16"/>
<text x="60" y="16" textLength="0" font-family="Helvetica" font-size="12" fill="black" text-anchor="middle">


</text>
<polygon fill="white" points="178,7 180,7 180,16 178,16"/>
<text x="180" y="16" textLength="0" font-family="Helvetica" font-size="12" fill="black" text-anchor="middle">


</text>
<polygon fill="white" points="298,7 300,7 300,16 298,16"/>
<text x="300" y="16" textLength="0" font-family="Helvetica" font-size="12" fill="black" text-anchor="middle">


</text>
<polygon fill="white" points="418,7 420,7 420,16 418,16"/>
<text x="420" y="16" textLength="0" font-family="Helvetica" font-size="12" fill="black" text-anchor="middle">


</text>
<polygon fill="white" points="538,7 540,7 540,16 538,16"/>
<text x="540" y="16" textLength="0" font-family="Helvetica" font-size="12" fill="black" text-anchor="middle">


</text>
<line x1="60" y1="22" x2="60" y2="50" stroke="#E0E0E0"/>
<line x1="180" y1="22" x2="180" y2="50" stroke="#E0E0E0"/>
<line x1="300" y1="22" x2="300" y2="50" stroke="#E0E0E0"/>
<line x1="420" y1="22" x2="420" y2="50" stroke="#E0E0E0"/>
<line x1="540" y1="22" x2="540" y2="50" stroke="#E0E0E0"/>
<polygon fill="#7FFF7F" points="8,22 112,22 112,44 8,44"/>
<line x1="8" y1="22" x2="112" y2="22" stroke="black"/>
<line x1="8" y1="44" x2="112" y2="44" stroke="black"/>
<line x1="8" y1="22" x2="8" y2="44" stroke="black"/>
<line x1="112" y1="22" x2="112" y2="44" stroke="black"/>
<polygon fill="#7FFF7F" points="23,29 96,29 96,38 23,38"/>
<text x="24" y="38" textLength="71" font-family="Helvetica" font-size="12" fill="black">
Domain Alice
</text>
<polygon fill="#7FFF7F" points="128,22 592,22 592,44 128,44"/>
<line x1="128" y1="22" x2="592" y2="22" stroke="black"/>
<line x1="128" y1="44" x2="592" y2="44" stroke="black"/>
<line x1="128" y1="22" x2="128" y2="44" stroke="black"/>
<line x1="592" y1="22" x2="592" y2="44" stroke="black"/>
<polygon fill="#7FFF7F" points="325,29 393,29 393,38 325,38"/>
<text x="326" y="38" textLength="66" font-family="Helvetica" font-size="12" fill="black">
Domain Bob
</text>
<line x1="60" y1="50" x2="60" y2="78" stroke="#E0E0E0"/>
<line x1="180" y1="50" x2="180" y2="78" stroke="#E0E0E0"/>
<line x1="300" y1="50" x2="300" y2="78" stroke="#E0E0E0"/>
<line x1="420" y1="50" x2="420" y2="78" stroke="#E0E0E0"/>
<line x1="540" y1="50" x2="540" y2="78" stroke="#E0E0E0"/>
<polygon fill="#FF7F7F" points="14,50 106,50 106,72 14,72"/>
<polygon fill="#FF7F7F" points="8,56 112,56 112,66 8,66"/>
<circle fill="#FF7F7F" cx="14" cy="56" r="6"/>
<circle fill="#FF7F7F" cx="106" cy="56" r="6"/>
<circle fill="#FF7F7F" cx="14" cy="66" r="6"/>
<circle fill="#FF7F7F" cx="106" cy="66" r="6"/>
<line x1="14" y1="50" x2="106" y2="50" stroke="black"/>
<line x1="14" y1="72" x2="106" y2="72" stroke="black"/>
<line x1="8" y1="56" x2="8" y2="66" stroke="black"/>
<line x1="112" y1="56" x2="112" y2="66" stroke="black"/>
<path d="M 8 56 A6,6 0 0,1 14,50" stroke="black" fill="none"/><path d="M 106 50 A6,6 0 0,1 112,56" stroke="black" fill="none"/><path d="M 112 66 A6,6 0 0,1 106,72" stroke="black" fill="none"/><path d="M 14 72 A6,6 0 0,1 8,66" stroke="black" fill="none"/><polygon fill="#FF7F7F" points="45,57 73,57 73,66 45,66"/>
<text x="46" y="66" textLength="26" font-family="Helvetica" font-size="12" fill="black">
Alice
</text>
<polygon fill="#FF7F7F" points="134,50 226,50 226,72 134,72"/>
<polygon fill="#FF7F7F" points="128,56 232,56 232,66 128,66"/>
<circle fill="#FF7F7F" cx="134" cy="56" r="6"/>
<circle fill="#FF7F7F" cx="226" cy="56" r="6"/>
<circle fill="#FF7F7F" cx="134" cy="66" r="6"/>
<circle fill="#FF7F7F" cx="226" cy="66" r="6"/>
<line x1="134" y1="50" x2="226" y2="50" stroke="black"/>
<line x1="134" y1="72" x2="226" y2="72" stroke="black"/>
<line x1="128" y1="56" x2="128" y2="66" stroke="black"/>
<line x1="232" y1="56" x2="232" y2="66" stroke="black"/>
<path d="M 128 56 A6,6 0 0,1 134,50" stroke="black" fill="none"/><path d="M 226 50 A6,6 0 0,1 232,56" stroke="black" fill="none"/><path d="M 232 66 A6,6 0 0,1 226,72" stroke="black" fill="none"/><path d="M 134 72 A6,6 0 0,1 128,66" stroke="black" fill="none"/><polygon fill="#FF7F7F" points="135,57 224,57 224,66 135,66"/>
<text x="136" y="66" textLength="87" font-family="Helvetica" font-size="12" fill="black">
Identity Provider
</text>
<polygon fill="#FF7F7F" points="254,50 346,50 346,72 254,72"/>
<polygon fill="#FF7F7F" points="248,56 352,56 352,66 248,66"/>
<circle fill="#FF7F7F" cx="254" cy="56" r="6"/>
<circle fill="#FF7F7F" cx="346" cy="56" r="6"/>
<circle fill="#FF7F7F" cx="254" cy="66" r="6"/>
<circle fill="#FF7F7F" cx="346" cy="66" r="6"/>
<line x1="254" y1="50" x2="346" y2="50" stroke="black"/>
<line x1="254" y1="72" x2="346" y2="72" stroke="black"/>
<line x1="248" y1="56" x2="248" y2="66" stroke="black"/>
<line x1="352" y1="56" x2="352" y2="66" stroke="black"/>
<path d="M 248 56 A6,6 0 0,1 254,50" stroke="black" fill="none"/><path d="M 346 50 A6,6 0 0,1 352,56" stroke="black" fill="none"/><path d="M 352 66 A6,6 0 0,1 346,72" stroke="black" fill="none"/><path d="M 254 72 A6,6 0 0,1 248,66" stroke="black" fill="none"/><polygon fill="#FF7F7F" points="262,57 337,57 337,66 262,66"/>
<text x="263" y="66" textLength="73" font-family="Helvetica" font-size="12" fill="black">
Stub Provider
</text>
<polygon fill="#FF7F7F" points="374,50 466,50 466,72 374,72"/>
<polygon fill="#FF7F7F" points="368,56 472,56 472,66 368,66"/>
<circle fill="#FF7F7F" cx="374" cy="56" r="6"/>
<circle fill="#FF7F7F" cx="466" cy="56" r="6"/>
<circle fill="#FF7F7F" cx="374" cy="66" r="6"/>
<circle fill="#FF7F7F" cx="466" cy="66" r="6"/>
<line x1="374" y1="50" x2="466" y2="50" stroke="black"/>
<line x1="374" y1="72" x2="466" y2="72" stroke="black"/>
<line x1="368" y1="56" x2="368" y2="66" stroke="black"/>
<line x1="472" y1="56" x2="472" y2="66" stroke="black"/>
<path d="M 368 56 A6,6 0 0,1 374,50" stroke="black" fill="none"/><path d="M 466 50 A6,6 0 0,1 472,56" stroke="black" fill="none"/><path d="M 472 66 A6,6 0 0,1 466,72" stroke="black" fill="none"/><path d="M 374 72 A6,6 0 0,1 368,66" stroke="black" fill="none"/><polygon fill="#FF7F7F" points="389,51 449,51 449,60 389,60"/>
<text x="390" y="60" textLength="58" font-family="Helvetica" font-size="12" fill="black">
Messaging
</text>
<polygon fill="#FF7F7F" points="401,62 438,62 438,71 401,71"/>
<text x="402" y="71" textLength="35" font-family="Helvetica" font-size="12" fill="black">
Server
</text>
<polygon fill="#FF7F7F" points="494,50 586,50 586,72 494,72"/>
<polygon fill="#FF7F7F" points="488,56 592,56 592,66 488,66"/>
<circle fill="#FF7F7F" cx="494" cy="56" r="6"/>
<circle fill="#FF7F7F" cx="586" cy="56" r="6"/>
<circle fill="#FF7F7F" cx="494" cy="66" r="6"/>
<circle fill="#FF7F7F" cx="586" cy="66" r="6"/>
<line x1="494" y1="50" x2="586" y2="50" stroke="black"/>
<line x1="494" y1="72" x2="586" y2="72" stroke="black"/>
<line x1="488" y1="56" x2="488" y2="66" stroke="black"/>
<line x1="592" y1="56" x2="592" y2="66" stroke="black"/>
<path d="M 488 56 A6,6 0 0,1 494,50" stroke="black" fill="none"/><path d="M 586 50 A6,6 0 0,1 592,56" stroke="black" fill="none"/><path d="M 592 66 A6,6 0 0,1 586,72" stroke="black" fill="none"/><path d="M 494 72 A6,6 0 0,1 488,66" stroke="black" fill="none"/><polygon fill="#FF7F7F" points="528,57 551,57 551,66 528,66"/>
<text x="529" y="66" textLength="21" font-family="Helvetica" font-size="12" fill="black">
Bob
</text>
<line x1="60" y1="78" x2="60" y2="95" stroke="#E0E0E0"/>
<line x1="180" y1="78" x2="180" y2="95" stroke="#E0E0E0"/>
<line x1="300" y1="78" x2="300" y2="95" stroke="#E0E0E0"/>
<line x1="420" y1="78" x2="420" y2="95" stroke="#E0E0E0"/>
<line x1="540" y1="78" x2="540" y2="95" stroke="#E0E0E0"/>
<line x1="30" y1="83" x2="570" y2="83" stroke="black" stroke-dasharray="2,2"/>
<polygon fill="white" points="225,79 374,79 374,88 225,88"/>
<text x="226" y="88" textLength="147" font-family="Helvetica" font-size="12" fill="black">
Alice and Bob are logged in
</text>
<line x1="60" y1="95" x2="60" y2="134" stroke="#E0E0E0"/>
<line x1="180" y1="95" x2="180" y2="134" stroke="#E0E0E0"/>
<line x1="300" y1="95" x2="300" y2="134" stroke="#E0E0E0"/>
<line x1="420" y1="95" x2="420" y2="134" stroke="#E0E0E0"/>
<line x1="540" y1="95" x2="540" y2="134" stroke="#E0E0E0"/>
<path d="M 60 117 A58,6 0 0,1 60,105" stroke="black" fill="none"/><polygon fill="black" points="60,117 50,123 50,111"/>
<polygon fill="white" points="60,96 127,96 127,105 60,105"/>
<text x="61" y="105" textLength="65" font-family="Helvetica" font-size="12" fill="black">
wonder.call(
</text>
<polygon fill="white" points="60,107 163,107 163,116 60,116"/>
<text x="61" y="116" textLength="101" font-family="Helvetica" font-size="12" fill="black">
'bob@domain.org',
</text>
<polygon fill="white" points="60,118 87,118 87,127 60,127"/>
<text x="61" y="127" textLength="25" font-family="Helvetica" font-size="12" fill="black">
true)
</text>
<line x1="60" y1="134" x2="60" y2="184" stroke="#E0E0E0"/>
<line x1="180" y1="134" x2="180" y2="184" stroke="#E0E0E0"/>
<line x1="300" y1="134" x2="300" y2="184" stroke="#E0E0E0"/>
<line x1="420" y1="134" x2="420" y2="184" stroke="#E0E0E0"/>
<line x1="540" y1="134" x2="540" y2="184" stroke="#E0E0E0"/>
<line x1="60" y1="156" x2="180" y2="156" stroke="black"/>
<line x1="180" y1="156" x2="170" y2="162" stroke="black"/>
<polygon fill="white" points="118,135 120,135 120,144 118,144"/>
<text x="119" y="144" textLength="0" font-family="Helvetica" font-size="12" fill="black">

</text>
<polygon fill="white" points="59,146 179,146 179,155 59,155"/>
<text x="60" y="155" textLength="118" font-family="Helvetica" font-size="12" fill="black">
get 'bob@domain.org'
</text>
<polygon fill="white" points="118,157 120,157 120,166 118,166"/>
<text x="119" y="166" textLength="0" font-family="Helvetica" font-size="12" fill="black">

</text>
<polygon fill="white" points="118,168 120,168 120,177 118,177"/>
<text x="119" y="177" textLength="0" font-family="Helvetica" font-size="12" fill="black">

</text>
<line x1="60" y1="184" x2="60" y2="256" stroke="#E0E0E0"/>
<line x1="180" y1="184" x2="180" y2="256" stroke="#E0E0E0"/>
<line x1="300" y1="184" x2="300" y2="256" stroke="#E0E0E0"/>
<line x1="420" y1="184" x2="420" y2="256" stroke="#E0E0E0"/>
<line x1="540" y1="184" x2="540" y2="256" stroke="#E0E0E0"/>
<line x1="180" y1="217" x2="60" y2="217" stroke="black"/>
<line x1="60" y1="217" x2="70" y2="223" stroke="black"/>
<polygon fill="white" points="81,185 158,185 158,194 81,194"/>
<text x="82" y="194" textLength="75" font-family="Helvetica" font-size="12" fill="black">
identity of bob
</text>
<polygon fill="white" points="53,196 186,196 186,205 53,205"/>
<text x="54" y="205" textLength="131" font-family="Helvetica" font-size="12" fill="black">
 (Stub-URIs, Messaging-
</text>
<polygon fill="white" points="39,207 200,207 200,216 39,216"/>
<text x="40" y="216" textLength="159" font-family="Helvetica" font-size="12" fill="black">
Server-URIs, Codec-URIs, ...)
</text>
<polygon fill="white" points="118,218 120,218 120,227 118,227"/>
<text x="119" y="227" textLength="0" font-family="Helvetica" font-size="12" fill="black">

</text>
<polygon fill="white" points="118,229 120,229 120,238 118,238"/>
<text x="119" y="238" textLength="0" font-family="Helvetica" font-size="12" fill="black">

</text>
<polygon fill="white" points="118,240 120,240 120,249 118,249"/>
<text x="119" y="249" textLength="0" font-family="Helvetica" font-size="12" fill="black">

</text>
<line x1="60" y1="256" x2="60" y2="284" stroke="#E0E0E0"/>
<line x1="180" y1="256" x2="180" y2="284" stroke="#E0E0E0"/>
<line x1="300" y1="256" x2="300" y2="284" stroke="#E0E0E0"/>
<line x1="420" y1="256" x2="420" y2="284" stroke="#E0E0E0"/>
<line x1="540" y1="256" x2="540" y2="284" stroke="#E0E0E0"/>
<line x1="60" y1="267" x2="300" y2="267" stroke="black"/>
<line x1="300" y1="267" x2="290" y2="273" stroke="black"/>
<polygon fill="white" points="126,257 232,257 232,266 126,266"/>
<text x="127" y="266" textLength="104" font-family="Helvetica" font-size="12" fill="black">
get messaging stub
</text>
<line x1="60" y1="284" x2="60" y2="312" stroke="#E0E0E0"/>
<line x1="180" y1="284" x2="180" y2="312" stroke="#E0E0E0"/>
<line x1="300" y1="284" x2="300" y2="312" stroke="#E0E0E0"/>
<line x1="420" y1="284" x2="420" y2="312" stroke="#E0E0E0"/>
<line x1="540" y1="284" x2="540" y2="312" stroke="#E0E0E0"/>
<line x1="300" y1="295" x2="60" y2="295" stroke="black"/>
<line x1="60" y1="295" x2="70" y2="301" stroke="black"/>
<polygon fill="white" points="136,285 222,285 222,294 136,294"/>
<text x="137" y="294" textLength="84" font-family="Helvetica" font-size="12" fill="black">
messaging stub
</text>
<line x1="60" y1="312" x2="60" y2="340" stroke="#E0E0E0"/>
<line x1="180" y1="312" x2="180" y2="340" stroke="#E0E0E0"/>
<line x1="300" y1="312" x2="300" y2="340" stroke="#E0E0E0"/>
<line x1="420" y1="312" x2="420" y2="340" stroke="#E0E0E0"/>
<line x1="540" y1="312" x2="540" y2="340" stroke="#E0E0E0"/>
<line x1="60" y1="323" x2="420" y2="323" stroke="black"/>
<line x1="420" y1="323" x2="410" y2="329" stroke="black"/>
<polygon fill="white" points="81,313 397,313 397,322 81,322"/>
<text x="82" y="322" textLength="314" font-family="Helvetica" font-size="12" fill="black">
connect('alice@domain.org', credentials, msgSrv, callback)
</text>
<line x1="60" y1="340" x2="60" y2="368" stroke="#E0E0E0"/>
<line x1="180" y1="340" x2="180" y2="368" stroke="#E0E0E0"/>
<line x1="300" y1="340" x2="300" y2="368" stroke="#E0E0E0"/>
<line x1="420" y1="340" x2="420" y2="368" stroke="#E0E0E0"/>
<line x1="540" y1="340" x2="540" y2="368" stroke="#E0E0E0"/>
<line x1="60" y1="351" x2="420" y2="351" stroke="black"/>
<polygon fill="black" points="420,351 410,357 410,345"/>
<polygon fill="black" points="60,351 70,357 70,345"/>
<polygon fill="white" points="147,341 331,341 331,350 147,350"/>
<text x="148" y="350" textLength="182" font-family="Helvetica" font-size="12" fill="black">
websocket connection established
</text>
<line x1="60" y1="368" x2="60" y2="385" stroke="#E0E0E0"/>
<line x1="180" y1="368" x2="180" y2="385" stroke="#E0E0E0"/>
<line x1="300" y1="368" x2="300" y2="385" stroke="#E0E0E0"/>
<line x1="420" y1="368" x2="420" y2="385" stroke="#E0E0E0"/>
<line x1="540" y1="368" x2="540" y2="385" stroke="#E0E0E0"/>
<line x1="30" y1="373" x2="570" y2="373" stroke="black" stroke-dasharray="2,2"/>
<polygon fill="white" points="185,369 414,369 414,378 185,378"/>
<text x="186" y="378" textLength="227" font-family="Helvetica" font-size="12" fill="black">
Alice is able to send messages to bob now
</text>
<line x1="60" y1="385" x2="60" y2="413" stroke="#E0E0E0"/>
<line x1="180" y1="385" x2="180" y2="413" stroke="#E0E0E0"/>
<line x1="300" y1="385" x2="300" y2="413" stroke="#E0E0E0"/>
<line x1="420" y1="385" x2="420" y2="413" stroke="#E0E0E0"/>
<line x1="540" y1="385" x2="540" y2="413" stroke="#E0E0E0"/>
<line x1="60" y1="396" x2="420" y2="396" stroke="black"/>
<line x1="420" y1="396" x2="410" y2="402" stroke="black"/>
<polygon fill="white" points="133,386 346,386 346,395 133,395"/>
<text x="134" y="395" textLength="211" font-family="Helvetica" font-size="12" fill="black">
invitation message (contains SDP offer)
</text>
<line x1="60" y1="413" x2="60" y2="441" stroke="#E0E0E0"/>
<line x1="180" y1="413" x2="180" y2="441" stroke="#E0E0E0"/>
<line x1="300" y1="413" x2="300" y2="441" stroke="#E0E0E0"/>
<line x1="420" y1="413" x2="420" y2="441" stroke="#E0E0E0"/>
<line x1="540" y1="413" x2="540" y2="441" stroke="#E0E0E0"/>
<line x1="420" y1="424" x2="540" y2="424" stroke="black"/>
<line x1="540" y1="424" x2="530" y2="430" stroke="black"/>
<polygon fill="white" points="373,414 586,414 586,423 373,423"/>
<text x="374" y="423" textLength="211" font-family="Helvetica" font-size="12" fill="black">
invitation message (contains SDP offer)
</text>
<line x1="60" y1="441" x2="60" y2="480" stroke="#E0E0E0"/>
<line x1="180" y1="441" x2="180" y2="480" stroke="#E0E0E0"/>
<line x1="300" y1="441" x2="300" y2="480" stroke="#E0E0E0"/>
<line x1="420" y1="441" x2="420" y2="480" stroke="#E0E0E0"/>
<line x1="540" y1="441" x2="540" y2="480" stroke="#E0E0E0"/>
<path d="M 540 451 A60,6 0 0,1 540,463" stroke="black" fill="none"/><polygon fill="black" points="540,463 550,469 550,457"/>
<polygon fill="white" points="493,442 538,442 538,451 493,451"/>
<text x="494" y="451" textLength="43" font-family="Helvetica" font-size="12" fill="black">
wonder.
</text>
<polygon fill="white" points="449,453 538,453 538,462 449,462"/>
<text x="450" y="462" textLength="87" font-family="Helvetica" font-size="12" fill="black">
answerRequest(
</text>
<polygon fill="white" points="511,464 538,464 538,473 511,473"/>
<text x="512" y="473" textLength="25" font-family="Helvetica" font-size="12" fill="black">
true)
</text>
<line x1="60" y1="480" x2="60" y2="508" stroke="#E0E0E0"/>
<line x1="180" y1="480" x2="180" y2="508" stroke="#E0E0E0"/>
<line x1="300" y1="480" x2="300" y2="508" stroke="#E0E0E0"/>
<line x1="420" y1="480" x2="420" y2="508" stroke="#E0E0E0"/>
<line x1="540" y1="480" x2="540" y2="508" stroke="#E0E0E0"/>
<line x1="540" y1="491" x2="420" y2="491" stroke="black"/>
<line x1="420" y1="491" x2="430" y2="497" stroke="black"/>
<polygon fill="white" points="370,481 589,481 589,490 370,490"/>
<text x="371" y="490" textLength="217" font-family="Helvetica" font-size="12" fill="black">
answer message (contains SDP answer)
</text>
<line x1="60" y1="508" x2="60" y2="536" stroke="#E0E0E0"/>
<line x1="180" y1="508" x2="180" y2="536" stroke="#E0E0E0"/>
<line x1="300" y1="508" x2="300" y2="536" stroke="#E0E0E0"/>
<line x1="420" y1="508" x2="420" y2="536" stroke="#E0E0E0"/>
<line x1="540" y1="508" x2="540" y2="536" stroke="#E0E0E0"/>
<line x1="420" y1="519" x2="60" y2="519" stroke="black"/>
<line x1="60" y1="519" x2="70" y2="525" stroke="black"/>
<polygon fill="white" points="130,509 349,509 349,518 130,518"/>
<text x="131" y="518" textLength="217" font-family="Helvetica" font-size="12" fill="black">
answer message (contains SDP answer)
</text>
<line x1="60" y1="536" x2="60" y2="564" stroke="#E0E0E0"/>
<line x1="180" y1="536" x2="180" y2="564" stroke="#E0E0E0"/>
<line x1="300" y1="536" x2="300" y2="564" stroke="#E0E0E0"/>
<line x1="420" y1="536" x2="420" y2="564" stroke="#E0E0E0"/>
<line x1="540" y1="536" x2="540" y2="564" stroke="#E0E0E0"/>
<line x1="60" y1="547" x2="420" y2="547" stroke="black"/>
<line x1="420" y1="547" x2="410" y2="553" stroke="black"/>
<line x1="60" y1="547" x2="70" y2="553" stroke="black"/>
<polygon fill="white" points="172,537 306,537 306,546 172,546"/>
<text x="173" y="546" textLength="132" font-family="Helvetica" font-size="12" fill="black">
ice candidates exchange
</text>
<line x1="420" y1="547" x2="540" y2="547" stroke="black"/>
<line x1="540" y1="547" x2="530" y2="553" stroke="black"/>
<line x1="420" y1="547" x2="430" y2="553" stroke="black"/>
<polygon fill="white" points="412,537 546,537 546,546 412,546"/>
<text x="413" y="546" textLength="132" font-family="Helvetica" font-size="12" fill="black">
ice candidates exchange
</text>
<line x1="60" y1="564" x2="60" y2="592" stroke="#E0E0E0"/>
<line x1="180" y1="564" x2="180" y2="592" stroke="#E0E0E0"/>
<line x1="300" y1="564" x2="300" y2="592" stroke="#E0E0E0"/>
<line x1="420" y1="564" x2="420" y2="592" stroke="#E0E0E0"/>
<line x1="540" y1="564" x2="540" y2="592" stroke="#E0E0E0"/>
<line x1="60" y1="575" x2="540" y2="575" stroke="black"/>
<polygon fill="black" points="540,575 530,581 530,569"/>
<polygon fill="black" points="60,575 70,581 70,569"/>
<polygon fill="white" points="223,565 375,565 375,574 223,574"/>
<text x="224" y="574" textLength="150" font-family="Helvetica" font-size="12" fill="black">
PeerConnection established
</text>
<polygon fill="white" points="298,576 300,576 300,585 298,585"/>
<text x="299" y="585" textLength="0" font-family="Helvetica" font-size="12" fill="black">

</text>
<line x1="60" y1="586" x2="60" y2="592" stroke="#E0E0E0"/>
<line x1="180" y1="586" x2="180" y2="592" stroke="#E0E0E0"/>
<line x1="300" y1="586" x2="300" y2="592" stroke="#E0E0E0"/>
<line x1="420" y1="586" x2="420" y2="592" stroke="#E0E0E0"/>
<line x1="540" y1="586" x2="540" y2="592" stroke="#E0E0E0"/>
</svg>
