<!DOCTYPE svg PUBLIC "-//W3C//DTD SVG 1.1//EN"
 "http://www.w3.org/Graphics/SVG/1.1/DTD/svg11.dtd">
<svg version="1.1"
 width="600px" height="419px"
 viewBox="0 0 600 419"
 xmlns="http://www.w3.org/2000/svg" shape-rendering="crispEdges"
 stroke-width="1" text-rendering="geometricPrecision">
<polygon fill="white" points="58,7 60,7 60,16 58,16"/>
<text x="60" y="16" textLength="0" font-family="Helvetica" font-size="12" fill="black" text-anchor="middle">


</text>
<polygon fill="white" points="178,7 180,7 180,16 178,16"/>
<text x="180" y="16" textLength="0" font-family="Helvetica" font-size="12" fill="black" text-anchor="middle">


</text>
<polygon fill="white" points="298,7 300,7 300,16 298,16"/>
<text x="300" y="16" textLength="0" font-family="Helvetica" font-size="12" fill="black" text-anchor="middle">


</text>
<polygon fill="white" points="418,7 420,7 420,16 418,16"/>
<text x="420" y="16" textLength="0" font-family="Helvetica" font-size="12" fill="black" text-anchor="middle">


</text>
<polygon fill="white" points="538,7 540,7 540,16 538,16"/>
<text x="540" y="16" textLength="0" font-family="Helvetica" font-size="12" fill="black" text-anchor="middle">


</text>
<line x1="60" y1="22" x2="60" y2="50" stroke="#E0E0E0"/>
<line x1="180" y1="22" x2="180" y2="50" stroke="#E0E0E0"/>
<line x1="300" y1="22" x2="300" y2="50" stroke="#E0E0E0"/>
<line x1="420" y1="22" x2="420" y2="50" stroke="#E0E0E0"/>
<line x1="540" y1="22" x2="540" y2="50" stroke="#E0E0E0"/>
<polygon fill="#7FFF7F" points="8,22 232,22 232,44 8,44"/>
<line x1="8" y1="22" x2="232" y2="22" stroke="black"/>
<line x1="8" y1="44" x2="232" y2="44" stroke="black"/>
<line x1="8" y1="22" x2="8" y2="44" stroke="black"/>
<line x1="232" y1="22" x2="232" y2="44" stroke="black"/>
<polygon fill="#7FFF7F" points="83,29 156,29 156,38 83,38"/>
<text x="84" y="38" textLength="71" font-family="Helvetica" font-size="12" fill="black">
Domain Alice
</text>
<polygon fill="#7FFF7F" points="248,22 592,22 592,44 248,44"/>
<line x1="248" y1="22" x2="592" y2="22" stroke="black"/>
<line x1="248" y1="44" x2="592" y2="44" stroke="black"/>
<line x1="248" y1="22" x2="248" y2="44" stroke="black"/>
<line x1="592" y1="22" x2="592" y2="44" stroke="black"/>
<polygon fill="#7FFF7F" points="385,29 453,29 453,38 385,38"/>
<text x="386" y="38" textLength="66" font-family="Helvetica" font-size="12" fill="black">
Domain Bob
</text>
<line x1="60" y1="50" x2="60" y2="78" stroke="#E0E0E0"/>
<line x1="180" y1="50" x2="180" y2="78" stroke="#E0E0E0"/>
<line x1="300" y1="50" x2="300" y2="78" stroke="#E0E0E0"/>
<line x1="420" y1="50" x2="420" y2="78" stroke="#E0E0E0"/>
<line x1="540" y1="50" x2="540" y2="78" stroke="#E0E0E0"/>
<polygon fill="#FF7F7F" points="14,50 106,50 106,72 14,72"/>
<polygon fill="#FF7F7F" points="8,56 112,56 112,66 8,66"/>
<circle fill="#FF7F7F" cx="14" cy="56" r="6"/>
<circle fill="#FF7F7F" cx="106" cy="56" r="6"/>
<circle fill="#FF7F7F" cx="14" cy="66" r="6"/>
<circle fill="#FF7F7F" cx="106" cy="66" r="6"/>
<line x1="14" y1="50" x2="106" y2="50" stroke="black"/>
<line x1="14" y1="72" x2="106" y2="72" stroke="black"/>
<line x1="8" y1="56" x2="8" y2="66" stroke="black"/>
<line x1="112" y1="56" x2="112" y2="66" stroke="black"/>
<path d="M 8 56 A6,6 0 0,1 14,50" stroke="black" fill="none"/><path d="M 106 50 A6,6 0 0,1 112,56" stroke="black" fill="none"/><path d="M 112 66 A6,6 0 0,1 106,72" stroke="black" fill="none"/><path d="M 14 72 A6,6 0 0,1 8,66" stroke="black" fill="none"/><polygon fill="#FF7F7F" points="45,57 73,57 73,66 45,66"/>
<text x="46" y="66" textLength="26" font-family="Helvetica" font-size="12" fill="black">
Alice
</text>
<polygon fill="#FF7F7F" points="134,50 226,50 226,72 134,72"/>
<polygon fill="#FF7F7F" points="128,56 232,56 232,66 128,66"/>
<circle fill="#FF7F7F" cx="134" cy="56" r="6"/>
<circle fill="#FF7F7F" cx="226" cy="56" r="6"/>
<circle fill="#FF7F7F" cx="134" cy="66" r="6"/>
<circle fill="#FF7F7F" cx="226" cy="66" r="6"/>
<line x1="134" y1="50" x2="226" y2="50" stroke="black"/>
<line x1="134" y1="72" x2="226" y2="72" stroke="black"/>
<line x1="128" y1="56" x2="128" y2="66" stroke="black"/>
<line x1="232" y1="56" x2="232" y2="66" stroke="black"/>
<path d="M 128 56 A6,6 0 0,1 134,50" stroke="black" fill="none"/><path d="M 226 50 A6,6 0 0,1 232,56" stroke="black" fill="none"/><path d="M 232 66 A6,6 0 0,1 226,72" stroke="black" fill="none"/><path d="M 134 72 A6,6 0 0,1 128,66" stroke="black" fill="none"/><polygon fill="#FF7F7F" points="137,57 222,57 222,66 137,66"/>
<text x="138" y="66" textLength="83" font-family="Helvetica" font-size="12" fill="black">
Codec Provider
</text>
<polygon fill="#FF7F7F" points="254,50 346,50 346,72 254,72"/>
<polygon fill="#FF7F7F" points="248,56 352,56 352,66 248,66"/>
<circle fill="#FF7F7F" cx="254" cy="56" r="6"/>
<circle fill="#FF7F7F" cx="346" cy="56" r="6"/>
<circle fill="#FF7F7F" cx="254" cy="66" r="6"/>
<circle fill="#FF7F7F" cx="346" cy="66" r="6"/>
<line x1="254" y1="50" x2="346" y2="50" stroke="black"/>
<line x1="254" y1="72" x2="346" y2="72" stroke="black"/>
<line x1="248" y1="56" x2="248" y2="66" stroke="black"/>
<line x1="352" y1="56" x2="352" y2="66" stroke="black"/>
<path d="M 248 56 A6,6 0 0,1 254,50" stroke="black" fill="none"/><path d="M 346 50 A6,6 0 0,1 352,56" stroke="black" fill="none"/><path d="M 352 66 A6,6 0 0,1 346,72" stroke="black" fill="none"/><path d="M 254 72 A6,6 0 0,1 248,66" stroke="black" fill="none"/><polygon fill="#FF7F7F" points="269,51 329,51 329,60 269,60"/>
<text x="270" y="60" textLength="58" font-family="Helvetica" font-size="12" fill="black">
Messaging
</text>
<polygon fill="#FF7F7F" points="281,62 318,62 318,71 281,71"/>
<text x="282" y="71" textLength="35" font-family="Helvetica" font-size="12" fill="black">
Server
</text>
<polygon fill="#FF7F7F" points="374,50 466,50 466,72 374,72"/>
<polygon fill="#FF7F7F" points="368,56 472,56 472,66 368,66"/>
<circle fill="#FF7F7F" cx="374" cy="56" r="6"/>
<circle fill="#FF7F7F" cx="466" cy="56" r="6"/>
<circle fill="#FF7F7F" cx="374" cy="66" r="6"/>
<circle fill="#FF7F7F" cx="466" cy="66" r="6"/>
<line x1="374" y1="50" x2="466" y2="50" stroke="black"/>
<line x1="374" y1="72" x2="466" y2="72" stroke="black"/>
<line x1="368" y1="56" x2="368" y2="66" stroke="black"/>
<line x1="472" y1="56" x2="472" y2="66" stroke="black"/>
<path d="M 368 56 A6,6 0 0,1 374,50" stroke="black" fill="none"/><path d="M 466 50 A6,6 0 0,1 472,56" stroke="black" fill="none"/><path d="M 472 66 A6,6 0 0,1 466,72" stroke="black" fill="none"/><path d="M 374 72 A6,6 0 0,1 368,66" stroke="black" fill="none"/><polygon fill="#FF7F7F" points="377,57 462,57 462,66 377,66"/>
<text x="378" y="66" textLength="83" font-family="Helvetica" font-size="12" fill="black">
Codec Provider
</text>
<polygon fill="#FF7F7F" points="494,50 586,50 586,72 494,72"/>
<polygon fill="#FF7F7F" points="488,56 592,56 592,66 488,66"/>
<circle fill="#FF7F7F" cx="494" cy="56" r="6"/>
<circle fill="#FF7F7F" cx="586" cy="56" r="6"/>
<circle fill="#FF7F7F" cx="494" cy="66" r="6"/>
<circle fill="#FF7F7F" cx="586" cy="66" r="6"/>
<line x1="494" y1="50" x2="586" y2="50" stroke="black"/>
<line x1="494" y1="72" x2="586" y2="72" stroke="black"/>
<line x1="488" y1="56" x2="488" y2="66" stroke="black"/>
<line x1="592" y1="56" x2="592" y2="66" stroke="black"/>
<path d="M 488 56 A6,6 0 0,1 494,50" stroke="black" fill="none"/><path d="M 586 50 A6,6 0 0,1 592,56" stroke="black" fill="none"/><path d="M 592 66 A6,6 0 0,1 586,72" stroke="black" fill="none"/><path d="M 494 72 A6,6 0 0,1 488,66" stroke="black" fill="none"/><polygon fill="#FF7F7F" points="528,57 551,57 551,66 528,66"/>
<text x="529" y="66" textLength="21" font-family="Helvetica" font-size="12" fill="black">
Bob
</text>
<line x1="60" y1="78" x2="60" y2="95" stroke="#E0E0E0"/>
<line x1="180" y1="78" x2="180" y2="95" stroke="#E0E0E0"/>
<line x1="300" y1="78" x2="300" y2="95" stroke="#E0E0E0"/>
<line x1="420" y1="78" x2="420" y2="95" stroke="#E0E0E0"/>
<line x1="540" y1="78" x2="540" y2="95" stroke="#E0E0E0"/>
<line x1="30" y1="83" x2="570" y2="83" stroke="black" stroke-dasharray="2,2"/>
<polygon fill="white" points="223,79 375,79 375,88 223,88"/>
<text x="224" y="88" textLength="150" font-family="Helvetica" font-size="12" fill="black">
PeerConnection established
</text>
<line x1="60" y1="95" x2="60" y2="167" stroke="#E0E0E0"/>
<line x1="180" y1="95" x2="180" y2="167" stroke="#E0E0E0"/>
<line x1="300" y1="95" x2="300" y2="167" stroke="#E0E0E0"/>
<line x1="420" y1="95" x2="420" y2="167" stroke="#E0E0E0"/>
<line x1="540" y1="95" x2="540" y2="167" stroke="#E0E0E0"/>
<path d="M 60 134 A58,6 0 0,1 60,122" stroke="black" fill="none"/><polygon fill="black" points="60,134 50,140 50,128"/>
<polygon fill="white" points="60,96 101,96 101,105 60,105"/>
<text x="61" y="105" textLength="39" font-family="Helvetica" font-size="12" fill="black">
wonder
</text>
<polygon fill="white" points="60,107 160,107 160,116 60,116"/>
<text x="61" y="116" textLength="98" font-family="Helvetica" font-size="12" fill="black">
.dataChannelMsg(
</text>
<polygon fill="white" points="60,118 114,118 114,127 60,127"/>
<text x="61" y="127" textLength="52" font-family="Helvetica" font-size="12" fill="black">
message,
</text>
<polygon fill="white" points="60,129 88,129 88,138 60,138"/>
<text x="61" y="138" textLength="26" font-family="Helvetica" font-size="12" fill="black">
type,
</text>
<polygon fill="white" points="60,140 143,140 143,149 60,149"/>
<text x="61" y="149" textLength="81" font-family="Helvetica" font-size="12" fill="black">
conversationId,
</text>
<polygon fill="white" points="60,151 164,151 164,160 60,160"/>
<text x="61" y="160" textLength="102" font-family="Helvetica" font-size="12" fill="black">
'bob@domain.org')
</text>
<line x1="60" y1="167" x2="60" y2="195" stroke="#E0E0E0"/>
<line x1="180" y1="167" x2="180" y2="195" stroke="#E0E0E0"/>
<line x1="300" y1="167" x2="300" y2="195" stroke="#E0E0E0"/>
<line x1="420" y1="167" x2="420" y2="195" stroke="#E0E0E0"/>
<line x1="540" y1="167" x2="540" y2="195" stroke="#E0E0E0"/>
<line x1="60" y1="178" x2="420" y2="178" stroke="black"/>
<line x1="420" y1="178" x2="410" y2="184" stroke="black"/>
<polygon fill="white" points="170,168 309,168 309,177 170,177"/>
<text x="171" y="177" textLength="137" font-family="Helvetica" font-size="12" fill="black">
get codec for payloadtype
</text>
<line x1="60" y1="195" x2="60" y2="223" stroke="#E0E0E0"/>
<line x1="180" y1="195" x2="180" y2="223" stroke="#E0E0E0"/>
<line x1="300" y1="195" x2="300" y2="223" stroke="#E0E0E0"/>
<line x1="420" y1="195" x2="420" y2="223" stroke="#E0E0E0"/>
<line x1="540" y1="195" x2="540" y2="223" stroke="#E0E0E0"/>
<line x1="420" y1="206" x2="60" y2="206" stroke="black"/>
<line x1="60" y1="206" x2="70" y2="212" stroke="black"/>
<polygon fill="white" points="182,196 297,196 297,205 182,205"/>
<text x="183" y="205" textLength="113" font-family="Helvetica" font-size="12" fill="black">
codec of payloadtype
</text>
<line x1="60" y1="223" x2="60" y2="251" stroke="#E0E0E0"/>
<line x1="180" y1="223" x2="180" y2="251" stroke="#E0E0E0"/>
<line x1="300" y1="223" x2="300" y2="251" stroke="#E0E0E0"/>
<line x1="420" y1="223" x2="420" y2="251" stroke="#E0E0E0"/>
<line x1="540" y1="223" x2="540" y2="251" stroke="#E0E0E0"/>
<line x1="60" y1="234" x2="300" y2="234" stroke="black"/>
<line x1="300" y1="234" x2="290" y2="240" stroke="black"/>
<polygon fill="white" points="72,224 286,224 286,233 72,233"/>
<text x="73" y="233" textLength="212" font-family="Helvetica" font-size="12" fill="black">
invitation for a data channel + SDP offer
</text>
<line x1="60" y1="251" x2="60" y2="279" stroke="#E0E0E0"/>
<line x1="180" y1="251" x2="180" y2="279" stroke="#E0E0E0"/>
<line x1="300" y1="251" x2="300" y2="279" stroke="#E0E0E0"/>
<line x1="420" y1="251" x2="420" y2="279" stroke="#E0E0E0"/>
<line x1="540" y1="251" x2="540" y2="279" stroke="#E0E0E0"/>
<line x1="300" y1="262" x2="540" y2="262" stroke="black"/>
<line x1="540" y1="262" x2="530" y2="268" stroke="black"/>
<polygon fill="white" points="312,252 526,252 526,261 312,261"/>
<text x="313" y="261" textLength="212" font-family="Helvetica" font-size="12" fill="black">
invitation for a data channel + SDP offer
</text>
<line x1="60" y1="279" x2="60" y2="307" stroke="#E0E0E0"/>
<line x1="180" y1="279" x2="180" y2="307" stroke="#E0E0E0"/>
<line x1="300" y1="279" x2="300" y2="307" stroke="#E0E0E0"/>
<line x1="420" y1="279" x2="420" y2="307" stroke="#E0E0E0"/>
<line x1="540" y1="279" x2="540" y2="307" stroke="#E0E0E0"/>
<line x1="540" y1="290" x2="180" y2="290" stroke="black"/>
<line x1="180" y1="290" x2="190" y2="296" stroke="black"/>
<polygon fill="white" points="290,280 429,280 429,289 290,289"/>
<text x="291" y="289" textLength="137" font-family="Helvetica" font-size="12" fill="black">
get codec for payloadtype
</text>
<line x1="60" y1="307" x2="60" y2="335" stroke="#E0E0E0"/>
<line x1="180" y1="307" x2="180" y2="335" stroke="#E0E0E0"/>
<line x1="300" y1="307" x2="300" y2="335" stroke="#E0E0E0"/>
<line x1="420" y1="307" x2="420" y2="335" stroke="#E0E0E0"/>
<line x1="540" y1="307" x2="540" y2="335" stroke="#E0E0E0"/>
<line x1="180" y1="318" x2="540" y2="318" stroke="black"/>
<line x1="540" y1="318" x2="530" y2="324" stroke="black"/>
<polygon fill="white" points="302,308 417,308 417,317 302,317"/>
<text x="303" y="317" textLength="113" font-family="Helvetica" font-size="12" fill="black">
codec of payloadtype
</text>
<line x1="60" y1="335" x2="60" y2="363" stroke="#E0E0E0"/>
<line x1="180" y1="335" x2="180" y2="363" stroke="#E0E0E0"/>
<line x1="300" y1="335" x2="300" y2="363" stroke="#E0E0E0"/>
<line x1="420" y1="335" x2="420" y2="363" stroke="#E0E0E0"/>
<line x1="540" y1="335" x2="540" y2="363" stroke="#E0E0E0"/>
<line x1="540" y1="346" x2="300" y2="346" stroke="black"/>
<line x1="300" y1="346" x2="310" y2="352" stroke="black"/>
<polygon fill="white" points="309,336 529,336 529,345 309,345"/>
<text x="310" y="345" textLength="218" font-family="Helvetica" font-size="12" fill="black">
answer for a data channel + SDP answer
</text>
<line x1="60" y1="363" x2="60" y2="391" stroke="#E0E0E0"/>
<line x1="180" y1="363" x2="180" y2="391" stroke="#E0E0E0"/>
<line x1="300" y1="363" x2="300" y2="391" stroke="#E0E0E0"/>
<line x1="420" y1="363" x2="420" y2="391" stroke="#E0E0E0"/>
<line x1="540" y1="363" x2="540" y2="391" stroke="#E0E0E0"/>
<line x1="300" y1="374" x2="60" y2="374" stroke="black"/>
<line x1="60" y1="374" x2="70" y2="380" stroke="black"/>
<polygon fill="white" points="69,364 289,364 289,373 69,373"/>
<text x="70" y="373" textLength="218" font-family="Helvetica" font-size="12" fill="black">
answer for a data channel + SDP answer
</text>
<line x1="60" y1="391" x2="60" y2="419" stroke="#E0E0E0"/>
<line x1="180" y1="391" x2="180" y2="419" stroke="#E0E0E0"/>
<line x1="300" y1="391" x2="300" y2="419" stroke="#E0E0E0"/>
<line x1="420" y1="391" x2="420" y2="419" stroke="#E0E0E0"/>
<line x1="540" y1="391" x2="540" y2="419" stroke="#E0E0E0"/>
<line x1="60" y1="402" x2="540" y2="402" stroke="black"/>
<polygon fill="black" points="540,402 530,408 530,396"/>
<polygon fill="black" points="60,402 70,408 70,396"/>
<polygon fill="white" points="230,392 369,392 369,401 230,401"/>
<text x="231" y="401" textLength="137" font-family="Helvetica" font-size="12" fill="black">
peer to peer data channel
</text>
<line x1="60" y1="413" x2="60" y2="419" stroke="#E0E0E0"/>
<line x1="180" y1="413" x2="180" y2="419" stroke="#E0E0E0"/>
<line x1="300" y1="413" x2="300" y2="419" stroke="#E0E0E0"/>
<line x1="420" y1="413" x2="420" y2="419" stroke="#E0E0E0"/>
<line x1="540" y1="413" x2="540" y2="419" stroke="#E0E0E0"/>
</svg>
