<?xml version="1.0" encoding="UTF-8" standalone="no"?>
<!-- Created with Inkscape (http://www.inkscape.org/) -->

<svg
   xmlns:dc="http://purl.org/dc/elements/1.1/"
   xmlns:cc="http://creativecommons.org/ns#"
   xmlns:rdf="http://www.w3.org/1999/02/22-rdf-syntax-ns#"
   xmlns:svg="http://www.w3.org/2000/svg"
   xmlns="http://www.w3.org/2000/svg"
   version="1.1"
   width="525"
   height="302.5"
   id="svg2"
   xml:space="preserve"><metadata
     id="metadata8"><rdf:RDF><cc:Work
         rdf:about=""><dc:format>image/svg+xml</dc:format><dc:type
           rdf:resource="http://purl.org/dc/dcmitype/StillImage" /><dc:title></dc:title></cc:Work></rdf:RDF></metadata><defs
     id="defs6" /><g
     transform="matrix(1.25,0,0,-1.25,0,302.5)"
     id="g10"><g
       transform="scale(0.1,0.1)"
       id="g12"><path
         d="m 525,2303 0,0 0,63 0,0 0,-63 z"
         id="path14"
         style="fill:#ffffff;fill-opacity:1;fill-rule:nonzero;stroke:none" /><path
         d="m 1575,2303 0,0 0,63 0,0 0,-63 z"
         id="path16"
         style="fill:#ffffff;fill-opacity:1;fill-rule:nonzero;stroke:none" /><path
         d="m 2625,2303 0,0 0,63 0,0 0,-63 z"
         id="path18"
         style="fill:#ffffff;fill-opacity:1;fill-rule:nonzero;stroke:none" /><path
         d="m 3675,2303 0,0 0,63 0,0 0,-63 z"
         id="path20"
         style="fill:#ffffff;fill-opacity:1;fill-rule:nonzero;stroke:none" /><path
         d="m 525,2268 0,-196"
         id="path22"
         style="fill:none;stroke:#e0e0e0;stroke-width:7;stroke-linecap:butt;stroke-linejoin:miter;stroke-miterlimit:10;stroke-opacity:1;stroke-dasharray:none" /><path
         d="m 1575,2268 0,-196"
         id="path24"
         style="fill:none;stroke:#e0e0e0;stroke-width:7;stroke-linecap:butt;stroke-linejoin:miter;stroke-miterlimit:10;stroke-opacity:1;stroke-dasharray:none" /><path
         d="m 2625,2268 0,-196"
         id="path26"
         style="fill:none;stroke:#e0e0e0;stroke-width:7;stroke-linecap:butt;stroke-linejoin:miter;stroke-miterlimit:10;stroke-opacity:1;stroke-dasharray:none" /><path
         d="m 3675,2268 0,-196"
         id="path28"
         style="fill:none;stroke:#e0e0e0;stroke-width:7;stroke-linecap:butt;stroke-linejoin:miter;stroke-miterlimit:10;stroke-opacity:1;stroke-dasharray:none" /><path
         d="m 56,2114 4088,0 0,154 -4088,0 0,-154 z"
         id="path30"
         style="fill:#7fff7f;fill-opacity:1;fill-rule:nonzero;stroke:none" /><path
         d="m 56,2268 4088,0"
         id="path32"
         style="fill:none;stroke:#000000;stroke-width:7;stroke-linecap:butt;stroke-linejoin:miter;stroke-miterlimit:10;stroke-opacity:1;stroke-dasharray:none" /><path
         d="m 56,2114 4088,0"
         id="path34"
         style="fill:none;stroke:#000000;stroke-width:7;stroke-linecap:butt;stroke-linejoin:miter;stroke-miterlimit:10;stroke-opacity:1;stroke-dasharray:none" /><path
         d="m 56,2268 0,-154"
         id="path36"
         style="fill:none;stroke:#000000;stroke-width:7;stroke-linecap:butt;stroke-linejoin:miter;stroke-miterlimit:10;stroke-opacity:1;stroke-dasharray:none" /><path
         d="m 4144,2268 0,-154"
         id="path38"
         style="fill:none;stroke:#000000;stroke-width:7;stroke-linecap:butt;stroke-linejoin:miter;stroke-miterlimit:10;stroke-opacity:1;stroke-dasharray:none" /><path
         d="m 1855,2156 494.734,0 0,63 -494.734,0 0,-63 z"
         id="path40"
         style="fill:#7fff7f;fill-opacity:1;fill-rule:nonzero;stroke:none" /><g
         transform="scale(10,10)"
         id="g42"><text
           transform="matrix(1,0,0,-1,185.5,215.6)"
           id="text44"><tspan
             x="0 6.0647998 10.7352 17.732401 22.4028 24.267599 28.938 31.273199 36.875999 38.740799 40.605598 44.805599"
             y="0"
             id="tspan46"
             style="font-size:8.39999962px;font-variant:normal;font-weight:normal;writing-mode:lr-tb;fill:#000000;fill-opacity:1;fill-rule:nonzero;stroke:none;font-family:Helvetica;-inkscape-font-specification:Helvetica">Domain Alice</tspan></text>
</g><path
         d="m 525,2072 0,-196"
         id="path48"
         style="fill:none;stroke:#e0e0e0;stroke-width:7;stroke-linecap:butt;stroke-linejoin:miter;stroke-miterlimit:10;stroke-opacity:1;stroke-dasharray:none" /><path
         d="m 1575,2072 0,-196"
         id="path50"
         style="fill:none;stroke:#e0e0e0;stroke-width:7;stroke-linecap:butt;stroke-linejoin:miter;stroke-miterlimit:10;stroke-opacity:1;stroke-dasharray:none" /><path
         d="m 2625,2072 0,-196"
         id="path52"
         style="fill:none;stroke:#e0e0e0;stroke-width:7;stroke-linecap:butt;stroke-linejoin:miter;stroke-miterlimit:10;stroke-opacity:1;stroke-dasharray:none" /><path
         d="m 3675,2072 0,-196"
         id="path54"
         style="fill:none;stroke:#e0e0e0;stroke-width:7;stroke-linecap:butt;stroke-linejoin:miter;stroke-miterlimit:10;stroke-opacity:1;stroke-dasharray:none" /><path
         d="m 98,1918 854,0 0,154 -854,0 0,-154 z"
         id="path56"
         style="fill:#ff7f7f;fill-opacity:1;fill-rule:nonzero;stroke:none" /><path
         d="m 56,1960 938,0 0,70 -938,0 0,-70 z"
         id="path58"
         style="fill:#ff7f7f;fill-opacity:1;fill-rule:nonzero;stroke:none" /><path
         d="m 140,2030 c 0,23.2 -18.805,42 -42,42 -23.1953,0 -42,-18.8 -42,-42 0,-23.2 18.8047,-42 42,-42 23.195,0 42,18.8 42,42"
         id="path60"
         style="fill:#ff7f7f;fill-opacity:1;fill-rule:nonzero;stroke:none" /><path
         d="m 994,2030 c 0,23.2 -18.805,42 -42,42 -23.195,0 -42,-18.8 -42,-42 0,-23.2 18.805,-42 42,-42 23.195,0 42,18.8 42,42"
         id="path62"
         style="fill:#ff7f7f;fill-opacity:1;fill-rule:nonzero;stroke:none" /><path
         d="m 140,1960 c 0,23.2 -18.805,42 -42,42 -23.1953,0 -42,-18.8 -42,-42 0,-23.2 18.8047,-42 42,-42 23.195,0 42,18.8 42,42"
         id="path64"
         style="fill:#ff7f7f;fill-opacity:1;fill-rule:nonzero;stroke:none" /><path
         d="m 994,1960 c 0,23.2 -18.805,42 -42,42 -23.195,0 -42,-18.8 -42,-42 0,-23.2 18.805,-42 42,-42 23.195,0 42,18.8 42,42"
         id="path66"
         style="fill:#ff7f7f;fill-opacity:1;fill-rule:nonzero;stroke:none" /><path
         d="m 98,2072 854,0"
         id="path68"
         style="fill:none;stroke:#000000;stroke-width:7;stroke-linecap:butt;stroke-linejoin:miter;stroke-miterlimit:10;stroke-opacity:1;stroke-dasharray:none" /><path
         d="m 98,1918 854,0"
         id="path70"
         style="fill:none;stroke:#000000;stroke-width:7;stroke-linecap:butt;stroke-linejoin:miter;stroke-miterlimit:10;stroke-opacity:1;stroke-dasharray:none" /><path
         d="m 56,2030 0,-70"
         id="path72"
         style="fill:none;stroke:#000000;stroke-width:7;stroke-linecap:butt;stroke-linejoin:miter;stroke-miterlimit:10;stroke-opacity:1;stroke-dasharray:none" /><path
         d="m 994,2030 0,-70"
         id="path74"
         style="fill:none;stroke:#000000;stroke-width:7;stroke-linecap:butt;stroke-linejoin:miter;stroke-miterlimit:10;stroke-opacity:1;stroke-dasharray:none" /><path
         d="m 56,2030 c 0,23.2 18.8047,42 42,42"
         id="path76"
         style="fill:none;stroke:#000000;stroke-width:7;stroke-linecap:butt;stroke-linejoin:miter;stroke-miterlimit:10;stroke-opacity:1;stroke-dasharray:none" /><path
         d="m 952,2072 c 23.195,0 42,-18.8 42,-42"
         id="path78"
         style="fill:none;stroke:#000000;stroke-width:7;stroke-linecap:butt;stroke-linejoin:miter;stroke-miterlimit:10;stroke-opacity:1;stroke-dasharray:none" /><path
         d="m 994,1960 c 0,-23.2 -18.805,-42 -42,-42"
         id="path80"
         style="fill:none;stroke:#000000;stroke-width:7;stroke-linecap:butt;stroke-linejoin:miter;stroke-miterlimit:10;stroke-opacity:1;stroke-dasharray:none" /><path
         d="m 98,1918 c -23.1953,0 -42,18.8 -42,42"
         id="path82"
         style="fill:none;stroke:#000000;stroke-width:7;stroke-linecap:butt;stroke-linejoin:miter;stroke-miterlimit:10;stroke-opacity:1;stroke-dasharray:none" /><path
         d="m 434,1960 182.016,0 0,63 -182.016,0 0,-63 z"
         id="path84"
         style="fill:#ff7f7f;fill-opacity:1;fill-rule:nonzero;stroke:none" /><g
         transform="scale(10,10)"
         id="g86"><text
           transform="matrix(1,0,0,-1,43.4,196)"
           id="text88"><tspan
             x="0 5.6027999 7.4675999 9.3324003 13.5324"
             y="0"
             id="tspan90"
             style="font-size:8.39999962px;font-variant:normal;font-weight:normal;writing-mode:lr-tb;fill:#000000;fill-opacity:1;fill-rule:nonzero;stroke:none;font-family:Helvetica;-inkscape-font-specification:Helvetica">Alice</tspan></text>
</g><path
         d="m 1148,1918 854,0 0,154 -854,0 0,-154 z"
         id="path92"
         style="fill:#ff7f7f;fill-opacity:1;fill-rule:nonzero;stroke:none" /><path
         d="m 1106,1960 938,0 0,70 -938,0 0,-70 z"
         id="path94"
         style="fill:#ff7f7f;fill-opacity:1;fill-rule:nonzero;stroke:none" /><path
         d="m 1190,2030 c 0,23.2 -18.8,42 -42,42 -23.2,0 -42,-18.8 -42,-42 0,-23.2 18.8,-42 42,-42 23.2,0 42,18.8 42,42"
         id="path96"
         style="fill:#ff7f7f;fill-opacity:1;fill-rule:nonzero;stroke:none" /><path
         d="m 2044,2030 c 0,23.2 -18.8,42 -42,42 -23.2,0 -42,-18.8 -42,-42 0,-23.2 18.8,-42 42,-42 23.2,0 42,18.8 42,42"
         id="path98"
         style="fill:#ff7f7f;fill-opacity:1;fill-rule:nonzero;stroke:none" /><path
         d="m 1190,1960 c 0,23.2 -18.8,42 -42,42 -23.2,0 -42,-18.8 -42,-42 0,-23.2 18.8,-42 42,-42 23.2,0 42,18.8 42,42"
         id="path100"
         style="fill:#ff7f7f;fill-opacity:1;fill-rule:nonzero;stroke:none" /><path
         d="m 2044,1960 c 0,23.2 -18.8,42 -42,42 -23.2,0 -42,-18.8 -42,-42 0,-23.2 18.8,-42 42,-42 23.2,0 42,18.8 42,42"
         id="path102"
         style="fill:#ff7f7f;fill-opacity:1;fill-rule:nonzero;stroke:none" /><path
         d="m 1148,2072 854,0"
         id="path104"
         style="fill:none;stroke:#000000;stroke-width:7;stroke-linecap:butt;stroke-linejoin:miter;stroke-miterlimit:10;stroke-opacity:1;stroke-dasharray:none" /><path
         d="m 1148,1918 854,0"
         id="path106"
         style="fill:none;stroke:#000000;stroke-width:7;stroke-linecap:butt;stroke-linejoin:miter;stroke-miterlimit:10;stroke-opacity:1;stroke-dasharray:none" /><path
         d="m 1106,2030 0,-70"
         id="path108"
         style="fill:none;stroke:#000000;stroke-width:7;stroke-linecap:butt;stroke-linejoin:miter;stroke-miterlimit:10;stroke-opacity:1;stroke-dasharray:none" /><path
         d="m 2044,2030 0,-70"
         id="path110"
         style="fill:none;stroke:#000000;stroke-width:7;stroke-linecap:butt;stroke-linejoin:miter;stroke-miterlimit:10;stroke-opacity:1;stroke-dasharray:none" /><path
         d="m 1106,2030 c 0,23.2 18.8,42 42,42"
         id="path112"
         style="fill:none;stroke:#000000;stroke-width:7;stroke-linecap:butt;stroke-linejoin:miter;stroke-miterlimit:10;stroke-opacity:1;stroke-dasharray:none" /><path
         d="m 2002,2072 c 23.2,0 42,-18.8 42,-42"
         id="path114"
         style="fill:none;stroke:#000000;stroke-width:7;stroke-linecap:butt;stroke-linejoin:miter;stroke-miterlimit:10;stroke-opacity:1;stroke-dasharray:none" /><path
         d="m 2044,1960 c 0,-23.2 -18.8,-42 -42,-42"
         id="path116"
         style="fill:none;stroke:#000000;stroke-width:7;stroke-linecap:butt;stroke-linejoin:miter;stroke-miterlimit:10;stroke-opacity:1;stroke-dasharray:none" /><path
         d="m 1148,1918 c -23.2,0 -42,18.8 -42,42"
         id="path118"
         style="fill:none;stroke:#000000;stroke-width:7;stroke-linecap:butt;stroke-linejoin:miter;stroke-miterlimit:10;stroke-opacity:1;stroke-dasharray:none" /><path
         d="m 1274,1960 606.871,0 0,63 -606.871,0 0,-63 z"
         id="path120"
         style="fill:#ff7f7f;fill-opacity:1;fill-rule:nonzero;stroke:none" /><g
         transform="scale(10,10)"
         id="g122"><text
           transform="matrix(1,0,0,-1,127.4,196)"
           id="text124"><tspan
             x="0 2.3352001 7.0056 11.676 16.346399 18.681601 20.5464 22.881599 27.0816 29.4168 35.0196 37.816799 42.487202 46.687199 48.551998 53.222401 57.892799"
             y="0"
             id="tspan126"
             style="font-size:8.39999962px;font-variant:normal;font-weight:normal;writing-mode:lr-tb;fill:#000000;fill-opacity:1;fill-rule:nonzero;stroke:none;font-family:Helvetica;-inkscape-font-specification:Helvetica">Identity Provider</tspan></text>
</g><path
         d="m 2198,1918 854,0 0,154 -854,0 0,-154 z"
         id="path128"
         style="fill:#ff7f7f;fill-opacity:1;fill-rule:nonzero;stroke:none" /><path
         d="m 2156,1960 938,0 0,70 -938,0 0,-70 z"
         id="path130"
         style="fill:#ff7f7f;fill-opacity:1;fill-rule:nonzero;stroke:none" /><path
         d="m 2240,2030 c 0,23.2 -18.8,42 -42,42 -23.2,0 -42,-18.8 -42,-42 0,-23.2 18.8,-42 42,-42 23.2,0 42,18.8 42,42"
         id="path132"
         style="fill:#ff7f7f;fill-opacity:1;fill-rule:nonzero;stroke:none" /><path
         d="m 3094,2030 c 0,23.2 -18.8,42 -42,42 -23.2,0 -42,-18.8 -42,-42 0,-23.2 18.8,-42 42,-42 23.2,0 42,18.8 42,42"
         id="path134"
         style="fill:#ff7f7f;fill-opacity:1;fill-rule:nonzero;stroke:none" /><path
         d="m 2240,1960 c 0,23.2 -18.8,42 -42,42 -23.2,0 -42,-18.8 -42,-42 0,-23.2 18.8,-42 42,-42 23.2,0 42,18.8 42,42"
         id="path136"
         style="fill:#ff7f7f;fill-opacity:1;fill-rule:nonzero;stroke:none" /><path
         d="m 3094,1960 c 0,23.2 -18.8,42 -42,42 -23.2,0 -42,-18.8 -42,-42 0,-23.2 18.8,-42 42,-42 23.2,0 42,18.8 42,42"
         id="path138"
         style="fill:#ff7f7f;fill-opacity:1;fill-rule:nonzero;stroke:none" /><path
         d="m 2198,2072 854,0"
         id="path140"
         style="fill:none;stroke:#000000;stroke-width:7;stroke-linecap:butt;stroke-linejoin:miter;stroke-miterlimit:10;stroke-opacity:1;stroke-dasharray:none" /><path
         d="m 2198,1918 854,0"
         id="path142"
         style="fill:none;stroke:#000000;stroke-width:7;stroke-linecap:butt;stroke-linejoin:miter;stroke-miterlimit:10;stroke-opacity:1;stroke-dasharray:none" /><path
         d="m 2156,2030 0,-70"
         id="path144"
         style="fill:none;stroke:#000000;stroke-width:7;stroke-linecap:butt;stroke-linejoin:miter;stroke-miterlimit:10;stroke-opacity:1;stroke-dasharray:none" /><path
         d="m 3094,2030 0,-70"
         id="path146"
         style="fill:none;stroke:#000000;stroke-width:7;stroke-linecap:butt;stroke-linejoin:miter;stroke-miterlimit:10;stroke-opacity:1;stroke-dasharray:none" /><path
         d="m 2156,2030 c 0,23.2 18.8,42 42,42"
         id="path148"
         style="fill:none;stroke:#000000;stroke-width:7;stroke-linecap:butt;stroke-linejoin:miter;stroke-miterlimit:10;stroke-opacity:1;stroke-dasharray:none" /><path
         d="m 3052,2072 c 23.2,0 42,-18.8 42,-42"
         id="path150"
         style="fill:none;stroke:#000000;stroke-width:7;stroke-linecap:butt;stroke-linejoin:miter;stroke-miterlimit:10;stroke-opacity:1;stroke-dasharray:none" /><path
         d="m 3094,1960 c 0,-23.2 -18.8,-42 -42,-42"
         id="path152"
         style="fill:none;stroke:#000000;stroke-width:7;stroke-linecap:butt;stroke-linejoin:miter;stroke-miterlimit:10;stroke-opacity:1;stroke-dasharray:none" /><path
         d="m 2198,1918 c -23.2,0 -42,18.8 -42,42"
         id="path154"
         style="fill:none;stroke:#000000;stroke-width:7;stroke-linecap:butt;stroke-linejoin:miter;stroke-miterlimit:10;stroke-opacity:1;stroke-dasharray:none" /><path
         d="m 2373,1960 508.852,0 0,63 -508.852,0 0,-63 z"
         id="path156"
         style="fill:#ff7f7f;fill-opacity:1;fill-rule:nonzero;stroke:none" /><g
         transform="scale(10,10)"
         id="g158"><text
           transform="matrix(1,0,0,-1,237.3,196)"
           id="text160"><tspan
             x="0 5.6027999 7.9380002 12.6084 17.278799 19.614 25.216801 28.014 32.684399 36.884399 38.749199 43.419601 48.09"
             y="0"
             id="tspan162"
             style="font-size:8.39999962px;font-variant:normal;font-weight:normal;writing-mode:lr-tb;fill:#000000;fill-opacity:1;fill-rule:nonzero;stroke:none;font-family:Helvetica;-inkscape-font-specification:Helvetica">Stub Provider</tspan></text>
</g><path
         d="m 3248,1918 854,0 0,154 -854,0 0,-154 z"
         id="path164"
         style="fill:#ff7f7f;fill-opacity:1;fill-rule:nonzero;stroke:none" /><path
         d="m 3206,1960 938,0 0,70 -938,0 0,-70 z"
         id="path166"
         style="fill:#ff7f7f;fill-opacity:1;fill-rule:nonzero;stroke:none" /><path
         d="m 3290,2030 c 0,23.2 -18.8,42 -42,42 -23.2,0 -42,-18.8 -42,-42 0,-23.2 18.8,-42 42,-42 23.2,0 42,18.8 42,42"
         id="path168"
         style="fill:#ff7f7f;fill-opacity:1;fill-rule:nonzero;stroke:none" /><path
         d="m 4144,2030 c 0,23.2 -18.8,42 -42,42 -23.2,0 -42,-18.8 -42,-42 0,-23.2 18.8,-42 42,-42 23.2,0 42,18.8 42,42"
         id="path170"
         style="fill:#ff7f7f;fill-opacity:1;fill-rule:nonzero;stroke:none" /><path
         d="m 3290,1960 c 0,23.2 -18.8,42 -42,42 -23.2,0 -42,-18.8 -42,-42 0,-23.2 18.8,-42 42,-42 23.2,0 42,18.8 42,42"
         id="path172"
         style="fill:#ff7f7f;fill-opacity:1;fill-rule:nonzero;stroke:none" /><path
         d="m 4144,1960 c 0,23.2 -18.8,42 -42,42 -23.2,0 -42,-18.8 -42,-42 0,-23.2 18.8,-42 42,-42 23.2,0 42,18.8 42,42"
         id="path174"
         style="fill:#ff7f7f;fill-opacity:1;fill-rule:nonzero;stroke:none" /><path
         d="m 3248,2072 854,0"
         id="path176"
         style="fill:none;stroke:#000000;stroke-width:7;stroke-linecap:butt;stroke-linejoin:miter;stroke-miterlimit:10;stroke-opacity:1;stroke-dasharray:none" /><path
         d="m 3248,1918 854,0"
         id="path178"
         style="fill:none;stroke:#000000;stroke-width:7;stroke-linecap:butt;stroke-linejoin:miter;stroke-miterlimit:10;stroke-opacity:1;stroke-dasharray:none" /><path
         d="m 3206,2030 0,-70"
         id="path180"
         style="fill:none;stroke:#000000;stroke-width:7;stroke-linecap:butt;stroke-linejoin:miter;stroke-miterlimit:10;stroke-opacity:1;stroke-dasharray:none" /><path
         d="m 4144,2030 0,-70"
         id="path182"
         style="fill:none;stroke:#000000;stroke-width:7;stroke-linecap:butt;stroke-linejoin:miter;stroke-miterlimit:10;stroke-opacity:1;stroke-dasharray:none" /><path
         d="m 3206,2030 c 0,23.2 18.8,42 42,42"
         id="path184"
         style="fill:none;stroke:#000000;stroke-width:7;stroke-linecap:butt;stroke-linejoin:miter;stroke-miterlimit:10;stroke-opacity:1;stroke-dasharray:none" /><path
         d="m 4102,2072 c 23.2,0 42,-18.8 42,-42"
         id="path186"
         style="fill:none;stroke:#000000;stroke-width:7;stroke-linecap:butt;stroke-linejoin:miter;stroke-miterlimit:10;stroke-opacity:1;stroke-dasharray:none" /><path
         d="m 4144,1960 c 0,-23.2 -18.8,-42 -42,-42"
         id="path188"
         style="fill:none;stroke:#000000;stroke-width:7;stroke-linecap:butt;stroke-linejoin:miter;stroke-miterlimit:10;stroke-opacity:1;stroke-dasharray:none" /><path
         d="m 3248,1918 c -23.2,0 -42,18.8 -42,42"
         id="path190"
         style="fill:none;stroke:#000000;stroke-width:7;stroke-linecap:butt;stroke-linejoin:miter;stroke-miterlimit:10;stroke-opacity:1;stroke-dasharray:none" /><path
         d="m 3339,1960 676.84,0 0,63 -676.84,0 0,-63 z"
         id="path192"
         style="fill:#ff7f7f;fill-opacity:1;fill-rule:nonzero;stroke:none" /><g
         transform="scale(10,10)"
         id="g194"><text
           transform="matrix(1,0,0,-1,333.9,196)"
           id="text196"><tspan
             x="0 6.9972 11.6676 15.8676 20.0676 24.738001 29.4084 31.273199 35.9436 40.613998 42.9492 48.551998 53.222401 56.0196 60.219601 64.889999"
             y="0"
             id="tspan198"
             style="font-size:8.39999962px;font-variant:normal;font-weight:normal;writing-mode:lr-tb;fill:#000000;fill-opacity:1;fill-rule:nonzero;stroke:none;font-family:Helvetica;-inkscape-font-specification:Helvetica">Messaging Server</tspan></text>
</g><path
         d="m 525,1876 0,-119"
         id="path200"
         style="fill:none;stroke:#e0e0e0;stroke-width:7;stroke-linecap:butt;stroke-linejoin:miter;stroke-miterlimit:10;stroke-opacity:1;stroke-dasharray:none" /><path
         d="m 1575,1876 0,-119"
         id="path202"
         style="fill:none;stroke:#e0e0e0;stroke-width:7;stroke-linecap:butt;stroke-linejoin:miter;stroke-miterlimit:10;stroke-opacity:1;stroke-dasharray:none" /><path
         d="m 2625,1876 0,-119"
         id="path204"
         style="fill:none;stroke:#e0e0e0;stroke-width:7;stroke-linecap:butt;stroke-linejoin:miter;stroke-miterlimit:10;stroke-opacity:1;stroke-dasharray:none" /><path
         d="m 3675,1876 0,-119"
         id="path206"
         style="fill:none;stroke:#e0e0e0;stroke-width:7;stroke-linecap:butt;stroke-linejoin:miter;stroke-miterlimit:10;stroke-opacity:1;stroke-dasharray:none" /><path
         d="m 259,1841 3682,0"
         id="path208"
         style="fill:none;stroke:#000000;stroke-width:7;stroke-linecap:butt;stroke-linejoin:miter;stroke-miterlimit:10;stroke-opacity:1;stroke-dasharray:14;stroke-dashoffset:0" /><path
         d="m 1288,1806 1628.94,0 0,63 -1628.94,0 0,-63 z"
         id="path210"
         style="fill:#ffffff;fill-opacity:1;fill-rule:nonzero;stroke:none" /><g
         transform="scale(10,10)"
         id="g212"><text
           transform="matrix(1,0,0,-1,128.8,180.6)"
           id="text214"><tspan
             x="0 7.9295998 14.4648 20.5296 26.5944 32.197201 38.262001 42.462002 47.132401 49.9296 55.062 57.8592 62.529598 69.526802 74.197197 80.262001 84.932404 87.729599 91.929604 94.264801 100.3296 105 109.2 111.5352 113.4 118.0704 122.7408 127.4112 132.0816 136.752 139.0872 143.7576 148.42799 150.7632 155.43359 158.2308"
             y="0"
             id="tspan216"
             style="font-size:8.39999962px;font-variant:normal;font-weight:normal;writing-mode:lr-tb;fill:#000000;fill-opacity:1;fill-rule:nonzero;stroke:none;font-family:Helvetica;-inkscape-font-specification:Helvetica">WONDERv2-Framework was loaded before</tspan></text>
</g><path
         d="m 525,1757 0,-273"
         id="path218"
         style="fill:none;stroke:#e0e0e0;stroke-width:7;stroke-linecap:butt;stroke-linejoin:miter;stroke-miterlimit:10;stroke-opacity:1;stroke-dasharray:none" /><path
         d="m 1575,1757 0,-273"
         id="path220"
         style="fill:none;stroke:#e0e0e0;stroke-width:7;stroke-linecap:butt;stroke-linejoin:miter;stroke-miterlimit:10;stroke-opacity:1;stroke-dasharray:none" /><path
         d="m 2625,1757 0,-273"
         id="path222"
         style="fill:none;stroke:#e0e0e0;stroke-width:7;stroke-linecap:butt;stroke-linejoin:miter;stroke-miterlimit:10;stroke-opacity:1;stroke-dasharray:none" /><path
         d="m 3675,1757 0,-273"
         id="path224"
         style="fill:none;stroke:#e0e0e0;stroke-width:7;stroke-linecap:butt;stroke-linejoin:miter;stroke-miterlimit:10;stroke-opacity:1;stroke-dasharray:none" /><path
         d="m 525,1603 c -282.215,0 -511,18.8 -511,42 0,23.2 228.785,42 511,42"
         id="path226"
         style="fill:none;stroke:#000000;stroke-width:7;stroke-linecap:butt;stroke-linejoin:miter;stroke-miterlimit:10;stroke-opacity:1;stroke-dasharray:none" /><path
         d="m 525,1603 -70,-42 0,84"
         id="path228"
         style="fill:#000000;fill-opacity:1;fill-rule:nonzero;stroke:none" /><path
         d="m 539,1687 504.145,0 0,63 -504.145,0 0,-63 z"
         id="path230"
         style="fill:#ffffff;fill-opacity:1;fill-rule:nonzero;stroke:none" /><g
         transform="scale(10,10)"
         id="g232"><text
           transform="matrix(1,0,0,-1,53.9,168.7)"
           id="text234"><tspan
             x="0 6.0647998 10.7352 15.4056 20.076 24.746401 27.5436 29.878799 31.743601 36.414001 41.0844 42.9492 47.619598"
             y="0"
             id="tspan236"
             style="font-size:8.39999962px;font-variant:normal;font-weight:normal;writing-mode:lr-tb;fill:#000000;fill-opacity:1;fill-rule:nonzero;stroke:none;font-family:Helvetica;-inkscape-font-specification:Helvetica">wonder.login(</tspan></text>
</g><path
         d="m 539,1610 701.453,0 0,63 -701.453,0 0,-63 z"
         id="path238"
         style="fill:#ffffff;fill-opacity:1;fill-rule:nonzero;stroke:none" /><g
         transform="scale(10,10)"
         id="g240"><text
           transform="matrix(1,0,0,-1,53.9,161)"
           id="text242"><tspan
             x="0 4.6704001 6.5352001 8.3999996 12.6 17.270399 25.7964 30.466801 35.137199 42.134399 46.804798 48.669601 53.34 55.675201 60.3456 63.142799 67.813202"
             y="0"
             id="tspan244"
             style="font-size:8.39999962px;font-variant:normal;font-weight:normal;writing-mode:lr-tb;fill:#000000;fill-opacity:1;fill-rule:nonzero;stroke:none;font-family:Helvetica;-inkscape-font-specification:Helvetica">alice@domain.org,</tspan></text>
</g><path
         d="m 539,1533 434.086,0 0,63 -434.086,0 0,-63 z"
         id="path246"
         style="fill:#ffffff;fill-opacity:1;fill-rule:nonzero;stroke:none" /><g
         transform="scale(10,10)"
         id="g248"><text
           transform="matrix(1,0,0,-1,53.9,153.3)"
           id="text250"><tspan
             x="0 4.1999998 6.9972 11.6676 16.337999 21.0084 25.678801 28.014 29.878799 34.549198 36.414001 40.613998"
             y="0"
             id="tspan252"
             style="font-size:8.39999962px;font-variant:normal;font-weight:normal;writing-mode:lr-tb;fill:#000000;fill-opacity:1;fill-rule:nonzero;stroke:none;font-family:Helvetica;-inkscape-font-specification:Helvetica">credentials)</tspan></text>
</g><path
         d="m 525,1484 0,-196"
         id="path254"
         style="fill:none;stroke:#e0e0e0;stroke-width:7;stroke-linecap:butt;stroke-linejoin:miter;stroke-miterlimit:10;stroke-opacity:1;stroke-dasharray:none" /><path
         d="m 1575,1484 0,-196"
         id="path256"
         style="fill:none;stroke:#e0e0e0;stroke-width:7;stroke-linecap:butt;stroke-linejoin:miter;stroke-miterlimit:10;stroke-opacity:1;stroke-dasharray:none" /><path
         d="m 2625,1484 0,-196"
         id="path258"
         style="fill:none;stroke:#e0e0e0;stroke-width:7;stroke-linecap:butt;stroke-linejoin:miter;stroke-miterlimit:10;stroke-opacity:1;stroke-dasharray:none" /><path
         d="m 3675,1484 0,-196"
         id="path260"
         style="fill:none;stroke:#e0e0e0;stroke-width:7;stroke-linecap:butt;stroke-linejoin:miter;stroke-miterlimit:10;stroke-opacity:1;stroke-dasharray:none" /><path
         d="m 525,1407 1050,0"
         id="path262"
         style="fill:none;stroke:#000000;stroke-width:7;stroke-linecap:butt;stroke-linejoin:miter;stroke-miterlimit:10;stroke-opacity:1;stroke-dasharray:none" /><path
         d="m 1575,1407 -70,-42"
         id="path264"
         style="fill:none;stroke:#000000;stroke-width:7;stroke-linecap:butt;stroke-linejoin:miter;stroke-miterlimit:10;stroke-opacity:1;stroke-dasharray:none" /><path
         d="m 623,1414 855.336,0 0,63 -855.336,0 0,-63 z"
         id="path266"
         style="fill:#ffffff;fill-opacity:1;fill-rule:nonzero;stroke:none" /><g
         transform="scale(10,10)"
         id="g268"><text
           transform="matrix(1,0,0,-1,62.3,141.4)"
           id="text270"><tspan
             x="0 4.6704001 9.3408003 11.676 14.0112 15.876 20.5464 22.4112 24.275999 28.476 33.1464 41.672401 46.3428 51.013199 58.010399 62.680801 64.545601 69.216003 71.551201 76.221603 79.018799 83.689201"
             y="0"
             id="tspan272"
             style="font-size:8.39999962px;font-variant:normal;font-weight:normal;writing-mode:lr-tb;fill:#000000;fill-opacity:1;fill-rule:nonzero;stroke:none;font-family:Helvetica;-inkscape-font-specification:Helvetica">get ’alice@domain.org’</tspan></text>
</g><path
         d="m 525,1288 0,-504"
         id="path274"
         style="fill:none;stroke:#e0e0e0;stroke-width:7;stroke-linecap:butt;stroke-linejoin:miter;stroke-miterlimit:10;stroke-opacity:1;stroke-dasharray:none" /><path
         d="m 1575,1288 0,-504"
         id="path276"
         style="fill:none;stroke:#e0e0e0;stroke-width:7;stroke-linecap:butt;stroke-linejoin:miter;stroke-miterlimit:10;stroke-opacity:1;stroke-dasharray:none" /><path
         d="m 2625,1288 0,-504"
         id="path278"
         style="fill:none;stroke:#e0e0e0;stroke-width:7;stroke-linecap:butt;stroke-linejoin:miter;stroke-miterlimit:10;stroke-opacity:1;stroke-dasharray:none" /><path
         d="m 3675,1288 0,-504"
         id="path280"
         style="fill:none;stroke:#e0e0e0;stroke-width:7;stroke-linecap:butt;stroke-linejoin:miter;stroke-miterlimit:10;stroke-opacity:1;stroke-dasharray:none" /><path
         d="m 1575,1057 -1050,0"
         id="path282"
         style="fill:none;stroke:#000000;stroke-width:7;stroke-linecap:butt;stroke-linejoin:miter;stroke-miterlimit:10;stroke-opacity:1;stroke-dasharray:none" /><path
         d="m 525,1057 70,-42"
         id="path284"
         style="fill:none;stroke:#000000;stroke-width:7;stroke-linecap:butt;stroke-linejoin:miter;stroke-miterlimit:10;stroke-opacity:1;stroke-dasharray:none" /><path
         d="m 770,1218 560.254,0 0,63 -560.254,0 0,-63 z"
         id="path286"
         style="fill:#ffffff;fill-opacity:1;fill-rule:nonzero;stroke:none" /><g
         transform="scale(10,10)"
         id="g288"><text
           transform="matrix(1,0,0,-1,77,121.8)"
           id="text290"><tspan
             x="0 2.3352001 7.0056 11.676 16.346399 18.681601 20.5464 22.881599 27.0816 29.4168 34.0872 36.422401 38.757599 43.428001 45.292801 47.1576 51.357601"
             y="0"
             id="tspan292"
             style="font-size:8.39999962px;font-variant:normal;font-weight:normal;writing-mode:lr-tb;fill:#000000;fill-opacity:1;fill-rule:nonzero;stroke:none;font-family:Helvetica;-inkscape-font-specification:Helvetica">Identity of alice</tspan></text>
</g><path
         d="m 595,1141 919.504,0 0,63 -919.504,0 0,-63 z"
         id="path294"
         style="fill:#ffffff;fill-opacity:1;fill-rule:nonzero;stroke:none" /><g
         transform="scale(10,10)"
         id="g296"><text
           transform="matrix(1,0,0,-1,61.8352,114.1)"
           id="text298"><tspan
             x="0 2.7972 8.3999996 10.7352 15.4056 20.076 22.873199 28.938 35.0028 37.338001 41.537998 43.873199 46.208401 53.205601 57.875999 62.076 66.276001 70.946404 75.616798 77.481598 82.152 86.822403"
             y="0"
             id="tspan300"
             style="font-size:8.39999962px;font-variant:normal;font-weight:normal;writing-mode:lr-tb;fill:#000000;fill-opacity:1;fill-rule:nonzero;stroke:none;font-family:Helvetica;-inkscape-font-specification:Helvetica">(Stub-URIs, Messaging-</tspan></text>
</g><path
         d="m 497,1064 1110.76,0 0,63 -1110.76,0 0,-63 z"
         id="path302"
         style="fill:#ffffff;fill-opacity:1;fill-rule:nonzero;stroke:none" /><g
         transform="scale(10,10)"
         id="g304"><text
           transform="matrix(1,0,0,-1,49.7,106.4)"
           id="text306"><tspan
             x="0 5.6027999 10.2732 13.0704 17.270399 21.9408 24.738001 27.5352 33.599998 39.664799 42 46.200001 48.535198 50.870399 56.9352 61.605598 66.276001 70.946404 75.1464 77.943604 84.0084 90.073196 92.408401 96.608398 98.943604 101.2788 103.614 105.9492 108.2844"
             y="0"
             id="tspan308"
             style="font-size:8.39999962px;font-variant:normal;font-weight:normal;writing-mode:lr-tb;fill:#000000;fill-opacity:1;fill-rule:nonzero;stroke:none;font-family:Helvetica;-inkscape-font-specification:Helvetica">Server-URIs, Codec-URIs, ...)</tspan></text>
</g><path
         d="m 1050,987 0,0 0,63 0,0 0,-63 z"
         id="path310"
         style="fill:#ffffff;fill-opacity:1;fill-rule:nonzero;stroke:none" /><path
         d="m 1050,910 0,0 0,63 0,0 0,-63 z"
         id="path312"
         style="fill:#ffffff;fill-opacity:1;fill-rule:nonzero;stroke:none" /><path
         d="m 1050,833 0,0 0,63 0,0 0,-63 z"
         id="path314"
         style="fill:#ffffff;fill-opacity:1;fill-rule:nonzero;stroke:none" /><path
         d="m 525,784 0,-196"
         id="path316"
         style="fill:none;stroke:#e0e0e0;stroke-width:7;stroke-linecap:butt;stroke-linejoin:miter;stroke-miterlimit:10;stroke-opacity:1;stroke-dasharray:none" /><path
         d="m 1575,784 0,-196"
         id="path318"
         style="fill:none;stroke:#e0e0e0;stroke-width:7;stroke-linecap:butt;stroke-linejoin:miter;stroke-miterlimit:10;stroke-opacity:1;stroke-dasharray:none" /><path
         d="m 2625,784 0,-196"
         id="path320"
         style="fill:none;stroke:#e0e0e0;stroke-width:7;stroke-linecap:butt;stroke-linejoin:miter;stroke-miterlimit:10;stroke-opacity:1;stroke-dasharray:none" /><path
         d="m 3675,784 0,-196"
         id="path322"
         style="fill:none;stroke:#e0e0e0;stroke-width:7;stroke-linecap:butt;stroke-linejoin:miter;stroke-miterlimit:10;stroke-opacity:1;stroke-dasharray:none" /><path
         d="m 525,707 2100,0"
         id="path324"
         style="fill:none;stroke:#000000;stroke-width:7;stroke-linecap:butt;stroke-linejoin:miter;stroke-miterlimit:10;stroke-opacity:1;stroke-dasharray:none" /><path
         d="m 2625,707 -70,-42"
         id="path326"
         style="fill:none;stroke:#000000;stroke-width:7;stroke-linecap:butt;stroke-linejoin:miter;stroke-miterlimit:10;stroke-opacity:1;stroke-dasharray:none" /><path
         d="m 1211,714 728.336,0 0,63 -728.336,0 0,-63 z"
         id="path328"
         style="fill:#ffffff;fill-opacity:1;fill-rule:nonzero;stroke:none" /><g
         transform="scale(10,10)"
         id="g330"><text
           transform="matrix(1,0,0,-1,121.1,71.4)"
           id="text332"><tspan
             x="0 4.6704001 9.3408003 11.676 14.0112 21.0084 25.678801 29.878799 34.0788 38.749199 43.419601 45.284401 49.9548 54.625198 56.9604 61.1604 63.495602 68.166"
             y="0"
             id="tspan334"
             style="font-size:8.39999962px;font-variant:normal;font-weight:normal;writing-mode:lr-tb;fill:#000000;fill-opacity:1;fill-rule:nonzero;stroke:none;font-family:Helvetica;-inkscape-font-specification:Helvetica">get messaging stub</tspan></text>
</g><path
         d="m 525,588 0,-196"
         id="path336"
         style="fill:none;stroke:#e0e0e0;stroke-width:7;stroke-linecap:butt;stroke-linejoin:miter;stroke-miterlimit:10;stroke-opacity:1;stroke-dasharray:none" /><path
         d="m 1575,588 0,-196"
         id="path338"
         style="fill:none;stroke:#e0e0e0;stroke-width:7;stroke-linecap:butt;stroke-linejoin:miter;stroke-miterlimit:10;stroke-opacity:1;stroke-dasharray:none" /><path
         d="m 2625,588 0,-196"
         id="path340"
         style="fill:none;stroke:#e0e0e0;stroke-width:7;stroke-linecap:butt;stroke-linejoin:miter;stroke-miterlimit:10;stroke-opacity:1;stroke-dasharray:none" /><path
         d="m 3675,588 0,-196"
         id="path342"
         style="fill:none;stroke:#e0e0e0;stroke-width:7;stroke-linecap:butt;stroke-linejoin:miter;stroke-miterlimit:10;stroke-opacity:1;stroke-dasharray:none" /><path
         d="M 2625,511 525,511"
         id="path344"
         style="fill:none;stroke:#000000;stroke-width:7;stroke-linecap:butt;stroke-linejoin:miter;stroke-miterlimit:10;stroke-opacity:1;stroke-dasharray:none" /><path
         d="m 525,511 70,-42"
         id="path346"
         style="fill:none;stroke:#000000;stroke-width:7;stroke-linecap:butt;stroke-linejoin:miter;stroke-miterlimit:10;stroke-opacity:1;stroke-dasharray:none" /><path
         d="m 1281,518 588.227,0 0,63 -588.227,0 0,-63 z"
         id="path348"
         style="fill:#ffffff;fill-opacity:1;fill-rule:nonzero;stroke:none" /><g
         transform="scale(10,10)"
         id="g350"><text
           transform="matrix(1,0,0,-1,128.1,51.8)"
           id="text352"><tspan
             x="0 6.9972 11.6676 15.8676 20.0676 24.738001 29.4084 31.273199 35.9436 40.613998 42.9492 47.1492 49.484402 54.1548"
             y="0"
             id="tspan354"
             style="font-size:8.39999962px;font-variant:normal;font-weight:normal;writing-mode:lr-tb;fill:#000000;fill-opacity:1;fill-rule:nonzero;stroke:none;font-family:Helvetica;-inkscape-font-specification:Helvetica">messaging stub</tspan></text>
</g><path
         d="m 525,392 0,-196"
         id="path356"
         style="fill:none;stroke:#e0e0e0;stroke-width:7;stroke-linecap:butt;stroke-linejoin:miter;stroke-miterlimit:10;stroke-opacity:1;stroke-dasharray:none" /><path
         d="m 1575,392 0,-196"
         id="path358"
         style="fill:none;stroke:#e0e0e0;stroke-width:7;stroke-linecap:butt;stroke-linejoin:miter;stroke-miterlimit:10;stroke-opacity:1;stroke-dasharray:none" /><path
         d="m 2625,392 0,-196"
         id="path360"
         style="fill:none;stroke:#e0e0e0;stroke-width:7;stroke-linecap:butt;stroke-linejoin:miter;stroke-miterlimit:10;stroke-opacity:1;stroke-dasharray:none" /><path
         d="m 3675,392 0,-196"
         id="path362"
         style="fill:none;stroke:#e0e0e0;stroke-width:7;stroke-linecap:butt;stroke-linejoin:miter;stroke-miterlimit:10;stroke-opacity:1;stroke-dasharray:none" /><path
         d="m 525,315 3150,0"
         id="path364"
         style="fill:none;stroke:#000000;stroke-width:7;stroke-linecap:butt;stroke-linejoin:miter;stroke-miterlimit:10;stroke-opacity:1;stroke-dasharray:none" /><path
         d="m 3675,315 -70,-42"
         id="path366"
         style="fill:none;stroke:#000000;stroke-width:7;stroke-linecap:butt;stroke-linejoin:miter;stroke-miterlimit:10;stroke-opacity:1;stroke-dasharray:none" /><path
         d="m 1344,322 1518.14,0 0,63 -1518.14,0 0,-63 z"
         id="path368"
         style="fill:#ffffff;fill-opacity:1;fill-rule:nonzero;stroke:none" /><g
         transform="scale(10,10)"
         id="g370"><text
           transform="matrix(1,0,0,-1,134.4,32.2)"
           id="text372"><tspan
             x="0 4.1999998 8.8704004 13.5408 18.211201 22.881599 27.0816 29.4168 32.214001 34.0788 38.749199 40.613998 42.478802 46.678799 51.349201 59.875198 64.545601 69.216003 76.213203 80.883598 82.748398 87.4188 89.753998 94.4244 97.221603 101.892 103.7568 106.092 108.4272 112.6272 115.4244 120.0948 124.7652 129.43559 134.106 136.44119 138.306 142.97639 144.8412 149.0412"
             y="0"
             id="tspan374"
             style="font-size:8.39999962px;font-variant:normal;font-weight:normal;writing-mode:lr-tb;fill:#000000;fill-opacity:1;fill-rule:nonzero;stroke:none;font-family:Helvetica;-inkscape-font-specification:Helvetica">connect(’alice@domain.org’, credentials)</tspan></text>
</g><path
         d="M 525,196 525,0"
         id="path376"
         style="fill:none;stroke:#e0e0e0;stroke-width:7;stroke-linecap:butt;stroke-linejoin:miter;stroke-miterlimit:10;stroke-opacity:1;stroke-dasharray:none" /><path
         d="M 1575,196 1575,0"
         id="path378"
         style="fill:none;stroke:#e0e0e0;stroke-width:7;stroke-linecap:butt;stroke-linejoin:miter;stroke-miterlimit:10;stroke-opacity:1;stroke-dasharray:none" /><path
         d="M 2625,196 2625,0"
         id="path380"
         style="fill:none;stroke:#e0e0e0;stroke-width:7;stroke-linecap:butt;stroke-linejoin:miter;stroke-miterlimit:10;stroke-opacity:1;stroke-dasharray:none" /><path
         d="M 3675,196 3675,0"
         id="path382"
         style="fill:none;stroke:#e0e0e0;stroke-width:7;stroke-linecap:butt;stroke-linejoin:miter;stroke-miterlimit:10;stroke-opacity:1;stroke-dasharray:none" /><path
         d="m 525,119 3150,0"
         id="path384"
         style="fill:none;stroke:#000000;stroke-width:7;stroke-linecap:butt;stroke-linejoin:miter;stroke-miterlimit:10;stroke-opacity:1;stroke-dasharray:none" /><path
         d="m 3675,119 -70,-42 0,84"
         id="path386"
         style="fill:#000000;fill-opacity:1;fill-rule:nonzero;stroke:none" /><path
         d="m 525,119 70,-42 0,84"
         id="path388"
         style="fill:#000000;fill-opacity:1;fill-rule:nonzero;stroke:none" /><path
         d="m 1463,126 1274.56,0 0,63 -1274.56,0 0,-63 z"
         id="path390"
         style="fill:#ffffff;fill-opacity:1;fill-rule:nonzero;stroke:none" /><g
         transform="scale(10,10)"
         id="g392"><text
           transform="matrix(1,0,0,-1,146.3,12.6)"
           id="text394"><tspan
             x="0 6.0647998 10.7352 15.4056 19.6056 24.275999 28.476 32.675999 37.346401 39.681599 42.0168 46.216801 50.887199 55.557598 60.228001 64.898399 69.098396 71.433601 73.298401 77.968803 82.639198 84.974403 89.644798 93.844803 96.18 100.8504 105.5208 107.3856 109.2504 113.4504 118.1208 122.7912"
             y="0"
             id="tspan396"
             style="font-size:8.39999962px;font-variant:normal;font-weight:normal;writing-mode:lr-tb;fill:#000000;fill-opacity:1;fill-rule:nonzero;stroke:none;font-family:Helvetica;-inkscape-font-specification:Helvetica">websocket connection established</tspan></text>
</g><path
         d="M 525,42 525,0"
         id="path398"
         style="fill:none;stroke:#e0e0e0;stroke-width:7;stroke-linecap:butt;stroke-linejoin:miter;stroke-miterlimit:10;stroke-opacity:1;stroke-dasharray:none" /><path
         d="m 1575,42 0,-42"
         id="path400"
         style="fill:none;stroke:#e0e0e0;stroke-width:7;stroke-linecap:butt;stroke-linejoin:miter;stroke-miterlimit:10;stroke-opacity:1;stroke-dasharray:none" /><path
         d="m 2625,42 0,-42"
         id="path402"
         style="fill:none;stroke:#e0e0e0;stroke-width:7;stroke-linecap:butt;stroke-linejoin:miter;stroke-miterlimit:10;stroke-opacity:1;stroke-dasharray:none" /><path
         d="m 3675,42 0,-42"
         id="path404"
         style="fill:none;stroke:#e0e0e0;stroke-width:7;stroke-linecap:butt;stroke-linejoin:miter;stroke-miterlimit:10;stroke-opacity:1;stroke-dasharray:none" /></g></g></svg>