<!DOCTYPE svg PUBLIC "-//W3C//DTD SVG 1.1//EN"
 "http://www.w3.org/Graphics/SVG/1.1/DTD/svg11.dtd">
<svg version="1.1"
 width="600px" height="587px"
 viewBox="0 0 600 587"
 xmlns="http://www.w3.org/2000/svg" shape-rendering="crispEdges"
 stroke-width="1" text-rendering="geometricPrecision">
<polygon fill="white" points="58,7 60,7 60,16 58,16"/>
<text x="60" y="16" textLength="0" font-family="Helvetica" font-size="12" fill="black" text-anchor="middle">


</text>
<polygon fill="white" points="178,7 180,7 180,16 178,16"/>
<text x="180" y="16" textLength="0" font-family="Helvetica" font-size="12" fill="black" text-anchor="middle">


</text>
<polygon fill="white" points="298,7 300,7 300,16 298,16"/>
<text x="300" y="16" textLength="0" font-family="Helvetica" font-size="12" fill="black" text-anchor="middle">


</text>
<polygon fill="white" points="418,7 420,7 420,16 418,16"/>
<text x="420" y="16" textLength="0" font-family="Helvetica" font-size="12" fill="black" text-anchor="middle">


</text>
<polygon fill="white" points="538,7 540,7 540,16 538,16"/>
<text x="540" y="16" textLength="0" font-family="Helvetica" font-size="12" fill="black" text-anchor="middle">


</text>
<line x1="60" y1="22" x2="60" y2="50" stroke="#E0E0E0"/>
<line x1="180" y1="22" x2="180" y2="50" stroke="#E0E0E0"/>
<line x1="300" y1="22" x2="300" y2="50" stroke="#E0E0E0"/>
<line x1="420" y1="22" x2="420" y2="50" stroke="#E0E0E0"/>
<line x1="540" y1="22" x2="540" y2="50" stroke="#E0E0E0"/>
<polygon fill="#7FFF7F" points="8,22 232,22 232,44 8,44"/>
<line x1="8" y1="22" x2="232" y2="22" stroke="black"/>
<line x1="8" y1="44" x2="232" y2="44" stroke="black"/>
<line x1="8" y1="22" x2="8" y2="44" stroke="black"/>
<line x1="232" y1="22" x2="232" y2="44" stroke="black"/>
<polygon fill="#7FFF7F" points="83,29 156,29 156,38 83,38"/>
<text x="84" y="38" textLength="71" font-family="Helvetica" font-size="12" fill="black">
Domain Alice
</text>
<polygon fill="#7FFF7F" points="248,22 592,22 592,44 248,44"/>
<line x1="248" y1="22" x2="592" y2="22" stroke="black"/>
<line x1="248" y1="44" x2="592" y2="44" stroke="black"/>
<line x1="248" y1="22" x2="248" y2="44" stroke="black"/>
<line x1="592" y1="22" x2="592" y2="44" stroke="black"/>
<polygon fill="#7FFF7F" points="385,29 453,29 453,38 385,38"/>
<text x="386" y="38" textLength="66" font-family="Helvetica" font-size="12" fill="black">
Domain Bob
</text>
<line x1="60" y1="50" x2="60" y2="78" stroke="#E0E0E0"/>
<line x1="180" y1="50" x2="180" y2="78" stroke="#E0E0E0"/>
<line x1="300" y1="50" x2="300" y2="78" stroke="#E0E0E0"/>
<line x1="420" y1="50" x2="420" y2="78" stroke="#E0E0E0"/>
<line x1="540" y1="50" x2="540" y2="78" stroke="#E0E0E0"/>
<polygon fill="#FF7F7F" points="14,50 106,50 106,72 14,72"/>
<polygon fill="#FF7F7F" points="8,56 112,56 112,66 8,66"/>
<circle fill="#FF7F7F" cx="14" cy="56" r="6"/>
<circle fill="#FF7F7F" cx="106" cy="56" r="6"/>
<circle fill="#FF7F7F" cx="14" cy="66" r="6"/>
<circle fill="#FF7F7F" cx="106" cy="66" r="6"/>
<line x1="14" y1="50" x2="106" y2="50" stroke="black"/>
<line x1="14" y1="72" x2="106" y2="72" stroke="black"/>
<line x1="8" y1="56" x2="8" y2="66" stroke="black"/>
<line x1="112" y1="56" x2="112" y2="66" stroke="black"/>
<path d="M 8 56 A6,6 0 0,1 14,50" stroke="black" fill="none"/><path d="M 106 50 A6,6 0 0,1 112,56" stroke="black" fill="none"/><path d="M 112 66 A6,6 0 0,1 106,72" stroke="black" fill="none"/><path d="M 14 72 A6,6 0 0,1 8,66" stroke="black" fill="none"/><polygon fill="#FF7F7F" points="45,57 73,57 73,66 45,66"/>
<text x="46" y="66" textLength="26" font-family="Helvetica" font-size="12" fill="black">
Alice
</text>
<polygon fill="#FF7F7F" points="134,50 226,50 226,72 134,72"/>
<polygon fill="#FF7F7F" points="128,56 232,56 232,66 128,66"/>
<circle fill="#FF7F7F" cx="134" cy="56" r="6"/>
<circle fill="#FF7F7F" cx="226" cy="56" r="6"/>
<circle fill="#FF7F7F" cx="134" cy="66" r="6"/>
<circle fill="#FF7F7F" cx="226" cy="66" r="6"/>
<line x1="134" y1="50" x2="226" y2="50" stroke="black"/>
<line x1="134" y1="72" x2="226" y2="72" stroke="black"/>
<line x1="128" y1="56" x2="128" y2="66" stroke="black"/>
<line x1="232" y1="56" x2="232" y2="66" stroke="black"/>
<path d="M 128 56 A6,6 0 0,1 134,50" stroke="black" fill="none"/><path d="M 226 50 A6,6 0 0,1 232,56" stroke="black" fill="none"/><path d="M 232 66 A6,6 0 0,1 226,72" stroke="black" fill="none"/><path d="M 134 72 A6,6 0 0,1 128,66" stroke="black" fill="none"/><polygon fill="#FF7F7F" points="135,57 224,57 224,66 135,66"/>
<text x="136" y="66" textLength="87" font-family="Helvetica" font-size="12" fill="black">
Identity Provider
</text>
<polygon fill="#FF7F7F" points="254,50 346,50 346,72 254,72"/>
<polygon fill="#FF7F7F" points="248,56 352,56 352,66 248,66"/>
<circle fill="#FF7F7F" cx="254" cy="56" r="6"/>
<circle fill="#FF7F7F" cx="346" cy="56" r="6"/>
<circle fill="#FF7F7F" cx="254" cy="66" r="6"/>
<circle fill="#FF7F7F" cx="346" cy="66" r="6"/>
<line x1="254" y1="50" x2="346" y2="50" stroke="black"/>
<line x1="254" y1="72" x2="346" y2="72" stroke="black"/>
<line x1="248" y1="56" x2="248" y2="66" stroke="black"/>
<line x1="352" y1="56" x2="352" y2="66" stroke="black"/>
<path d="M 248 56 A6,6 0 0,1 254,50" stroke="black" fill="none"/><path d="M 346 50 A6,6 0 0,1 352,56" stroke="black" fill="none"/><path d="M 352 66 A6,6 0 0,1 346,72" stroke="black" fill="none"/><path d="M 254 72 A6,6 0 0,1 248,66" stroke="black" fill="none"/><polygon fill="#FF7F7F" points="262,57 337,57 337,66 262,66"/>
<text x="263" y="66" textLength="73" font-family="Helvetica" font-size="12" fill="black">
Stub Provider
</text>
<polygon fill="#FF7F7F" points="374,50 466,50 466,72 374,72"/>
<polygon fill="#FF7F7F" points="368,56 472,56 472,66 368,66"/>
<circle fill="#FF7F7F" cx="374" cy="56" r="6"/>
<circle fill="#FF7F7F" cx="466" cy="56" r="6"/>
<circle fill="#FF7F7F" cx="374" cy="66" r="6"/>
<circle fill="#FF7F7F" cx="466" cy="66" r="6"/>
<line x1="374" y1="50" x2="466" y2="50" stroke="black"/>
<line x1="374" y1="72" x2="466" y2="72" stroke="black"/>
<line x1="368" y1="56" x2="368" y2="66" stroke="black"/>
<line x1="472" y1="56" x2="472" y2="66" stroke="black"/>
<path d="M 368 56 A6,6 0 0,1 374,50" stroke="black" fill="none"/><path d="M 466 50 A6,6 0 0,1 472,56" stroke="black" fill="none"/><path d="M 472 66 A6,6 0 0,1 466,72" stroke="black" fill="none"/><path d="M 374 72 A6,6 0 0,1 368,66" stroke="black" fill="none"/><polygon fill="#FF7F7F" points="389,51 449,51 449,60 389,60"/>
<text x="390" y="60" textLength="58" font-family="Helvetica" font-size="12" fill="black">
Messaging
</text>
<polygon fill="#FF7F7F" points="401,62 438,62 438,71 401,71"/>
<text x="402" y="71" textLength="35" font-family="Helvetica" font-size="12" fill="black">
Server
</text>
<polygon fill="#FF7F7F" points="494,50 586,50 586,72 494,72"/>
<polygon fill="#FF7F7F" points="488,56 592,56 592,66 488,66"/>
<circle fill="#FF7F7F" cx="494" cy="56" r="6"/>
<circle fill="#FF7F7F" cx="586" cy="56" r="6"/>
<circle fill="#FF7F7F" cx="494" cy="66" r="6"/>
<circle fill="#FF7F7F" cx="586" cy="66" r="6"/>
<line x1="494" y1="50" x2="586" y2="50" stroke="black"/>
<line x1="494" y1="72" x2="586" y2="72" stroke="black"/>
<line x1="488" y1="56" x2="488" y2="66" stroke="black"/>
<line x1="592" y1="56" x2="592" y2="66" stroke="black"/>
<path d="M 488 56 A6,6 0 0,1 494,50" stroke="black" fill="none"/><path d="M 586 50 A6,6 0 0,1 592,56" stroke="black" fill="none"/><path d="M 592 66 A6,6 0 0,1 586,72" stroke="black" fill="none"/><path d="M 494 72 A6,6 0 0,1 488,66" stroke="black" fill="none"/><polygon fill="#FF7F7F" points="528,57 551,57 551,66 528,66"/>
<text x="529" y="66" textLength="21" font-family="Helvetica" font-size="12" fill="black">
Bob
</text>
<line x1="60" y1="78" x2="60" y2="95" stroke="#E0E0E0"/>
<line x1="180" y1="78" x2="180" y2="95" stroke="#E0E0E0"/>
<line x1="300" y1="78" x2="300" y2="95" stroke="#E0E0E0"/>
<line x1="420" y1="78" x2="420" y2="95" stroke="#E0E0E0"/>
<line x1="540" y1="78" x2="540" y2="95" stroke="#E0E0E0"/>
<line x1="30" y1="83" x2="570" y2="83" stroke="black" stroke-dasharray="2,2"/>
<polygon fill="white" points="225,79 374,79 374,88 225,88"/>
<text x="226" y="88" textLength="147" font-family="Helvetica" font-size="12" fill="black">
Alice and Bob are logged in
</text>
<line x1="60" y1="95" x2="60" y2="167" stroke="#E0E0E0"/>
<line x1="180" y1="95" x2="180" y2="167" stroke="#E0E0E0"/>
<line x1="300" y1="95" x2="300" y2="167" stroke="#E0E0E0"/>
<line x1="420" y1="95" x2="420" y2="167" stroke="#E0E0E0"/>
<line x1="540" y1="95" x2="540" y2="167" stroke="#E0E0E0"/>
<path d="M 60 134 A58,6 0 0,1 60,122" stroke="black" fill="none"/><polygon fill="black" points="60,134 50,140 50,128"/>
<polygon fill="white" points="60,96 164,96 164,105 60,105"/>
<text x="61" y="105" textLength="102" font-family="Helvetica" font-size="12" fill="black">
conversation.open(
</text>
<polygon fill="white" points="60,107 170,107 170,116 60,116"/>
<text x="61" y="116" textLength="108" font-family="Helvetica" font-size="12" fill="black">
['bob@domain.org'],
</text>
<polygon fill="white" points="60,118 74,118 74,127 60,127"/>
<text x="61" y="127" textLength="12" font-family="Helvetica" font-size="12" fill="black">
&quot;&quot;,
</text>
<polygon fill="white" points="60,129 127,129 127,138 60,138"/>
<text x="61" y="138" textLength="65" font-family="Helvetica" font-size="12" fill="black">
 constraints,
</text>
<polygon fill="white" points="60,140 117,140 117,149 60,149"/>
<text x="61" y="149" textLength="55" font-family="Helvetica" font-size="12" fill="black">
 invitation)
</text>
<polygon fill="white" points="60,151 62,151 62,160 60,160"/>
<text x="61" y="160" textLength="0" font-family="Helvetica" font-size="12" fill="black">

</text>
<line x1="60" y1="167" x2="60" y2="195" stroke="#E0E0E0"/>
<line x1="180" y1="167" x2="180" y2="195" stroke="#E0E0E0"/>
<line x1="300" y1="167" x2="300" y2="195" stroke="#E0E0E0"/>
<line x1="420" y1="167" x2="420" y2="195" stroke="#E0E0E0"/>
<line x1="540" y1="167" x2="540" y2="195" stroke="#E0E0E0"/>
<line x1="60" y1="178" x2="180" y2="178" stroke="black"/>
<line x1="180" y1="178" x2="170" y2="184" stroke="black"/>
<polygon fill="white" points="59,168 179,168 179,177 59,177"/>
<text x="60" y="177" textLength="118" font-family="Helvetica" font-size="12" fill="black">
get 'bob@domain.org'
</text>
<polygon fill="white" points="118,179 120,179 120,188 118,188"/>
<text x="119" y="188" textLength="0" font-family="Helvetica" font-size="12" fill="black">

</text>
<line x1="60" y1="195" x2="60" y2="245" stroke="#E0E0E0"/>
<line x1="180" y1="195" x2="180" y2="245" stroke="#E0E0E0"/>
<line x1="300" y1="195" x2="300" y2="245" stroke="#E0E0E0"/>
<line x1="420" y1="195" x2="420" y2="245" stroke="#E0E0E0"/>
<line x1="540" y1="195" x2="540" y2="245" stroke="#E0E0E0"/>
<line x1="180" y1="217" x2="60" y2="217" stroke="black"/>
<line x1="60" y1="217" x2="70" y2="223" stroke="black"/>
<polygon fill="white" points="81,196 158,196 158,205 81,205"/>
<text x="82" y="205" textLength="75" font-family="Helvetica" font-size="12" fill="black">
identity of bob
</text>
<polygon fill="white" points="85,207 154,207 154,216 85,216"/>
<text x="86" y="216" textLength="67" font-family="Helvetica" font-size="12" fill="black">
 (Stub-URIs)
</text>
<polygon fill="white" points="118,218 120,218 120,227 118,227"/>
<text x="119" y="227" textLength="0" font-family="Helvetica" font-size="12" fill="black">

</text>
<polygon fill="white" points="118,229 120,229 120,238 118,238"/>
<text x="119" y="238" textLength="0" font-family="Helvetica" font-size="12" fill="black">

</text>
<line x1="60" y1="245" x2="60" y2="273" stroke="#E0E0E0"/>
<line x1="180" y1="245" x2="180" y2="273" stroke="#E0E0E0"/>
<line x1="300" y1="245" x2="300" y2="273" stroke="#E0E0E0"/>
<line x1="420" y1="245" x2="420" y2="273" stroke="#E0E0E0"/>
<line x1="540" y1="245" x2="540" y2="273" stroke="#E0E0E0"/>
<line x1="60" y1="256" x2="300" y2="256" stroke="black"/>
<line x1="300" y1="256" x2="290" y2="262" stroke="black"/>
<polygon fill="white" points="126,246 232,246 232,255 126,255"/>
<text x="127" y="255" textLength="104" font-family="Helvetica" font-size="12" fill="black">
get messaging stub
</text>
<line x1="60" y1="273" x2="60" y2="301" stroke="#E0E0E0"/>
<line x1="180" y1="273" x2="180" y2="301" stroke="#E0E0E0"/>
<line x1="300" y1="273" x2="300" y2="301" stroke="#E0E0E0"/>
<line x1="420" y1="273" x2="420" y2="301" stroke="#E0E0E0"/>
<line x1="540" y1="273" x2="540" y2="301" stroke="#E0E0E0"/>
<line x1="300" y1="284" x2="60" y2="284" stroke="black"/>
<line x1="60" y1="284" x2="70" y2="290" stroke="black"/>
<polygon fill="white" points="136,274 222,274 222,283 136,283"/>
<text x="137" y="283" textLength="84" font-family="Helvetica" font-size="12" fill="black">
messaging stub
</text>
<line x1="60" y1="301" x2="60" y2="329" stroke="#E0E0E0"/>
<line x1="180" y1="301" x2="180" y2="329" stroke="#E0E0E0"/>
<line x1="300" y1="301" x2="300" y2="329" stroke="#E0E0E0"/>
<line x1="420" y1="301" x2="420" y2="329" stroke="#E0E0E0"/>
<line x1="540" y1="301" x2="540" y2="329" stroke="#E0E0E0"/>
<line x1="60" y1="312" x2="420" y2="312" stroke="black"/>
<line x1="420" y1="312" x2="410" y2="318" stroke="black"/>
<polygon fill="white" points="89,302 389,302 389,311 89,311"/>
<text x="90" y="311" textLength="298" font-family="Helvetica" font-size="12" fill="black">
connect('alice@example.org', alicecredentials, callback)
</text>
<line x1="60" y1="329" x2="60" y2="346" stroke="#E0E0E0"/>
<line x1="180" y1="329" x2="180" y2="346" stroke="#E0E0E0"/>
<line x1="300" y1="329" x2="300" y2="346" stroke="#E0E0E0"/>
<line x1="420" y1="329" x2="420" y2="346" stroke="#E0E0E0"/>
<line x1="540" y1="329" x2="540" y2="346" stroke="#E0E0E0"/>
<line x1="60" y1="346" x2="60" y2="374" stroke="#E0E0E0"/>
<line x1="180" y1="346" x2="180" y2="374" stroke="#E0E0E0"/>
<line x1="300" y1="346" x2="300" y2="374" stroke="#E0E0E0"/>
<line x1="420" y1="346" x2="420" y2="374" stroke="#E0E0E0"/>
<line x1="540" y1="346" x2="540" y2="374" stroke="#E0E0E0"/>
<line x1="60" y1="357" x2="420" y2="357" stroke="black"/>
<polygon fill="black" points="420,357 410,363 410,351"/>
<polygon fill="black" points="60,357 70,363 70,351"/>
<polygon fill="white" points="147,347 331,347 331,356 147,356"/>
<text x="148" y="356" textLength="182" font-family="Helvetica" font-size="12" fill="black">
websocket connection established
</text>
<line x1="60" y1="374" x2="60" y2="391" stroke="#E0E0E0"/>
<line x1="180" y1="374" x2="180" y2="391" stroke="#E0E0E0"/>
<line x1="300" y1="374" x2="300" y2="391" stroke="#E0E0E0"/>
<line x1="420" y1="374" x2="420" y2="391" stroke="#E0E0E0"/>
<line x1="540" y1="374" x2="540" y2="391" stroke="#E0E0E0"/>
<line x1="30" y1="379" x2="570" y2="379" stroke="black" stroke-dasharray="2,2"/>
<polygon fill="white" points="185,375 414,375 414,384 185,384"/>
<text x="186" y="384" textLength="227" font-family="Helvetica" font-size="12" fill="black">
Alice is able to send messages to bob now
</text>
<line x1="60" y1="391" x2="60" y2="419" stroke="#E0E0E0"/>
<line x1="180" y1="391" x2="180" y2="419" stroke="#E0E0E0"/>
<line x1="300" y1="391" x2="300" y2="419" stroke="#E0E0E0"/>
<line x1="420" y1="391" x2="420" y2="419" stroke="#E0E0E0"/>
<line x1="540" y1="391" x2="540" y2="419" stroke="#E0E0E0"/>
<line x1="60" y1="402" x2="420" y2="402" stroke="black"/>
<line x1="420" y1="402" x2="410" y2="408" stroke="black"/>
<polygon fill="white" points="133,392 346,392 346,401 133,401"/>
<text x="134" y="401" textLength="211" font-family="Helvetica" font-size="12" fill="black">
invitation message (contains SDP offer)
</text>
<line x1="60" y1="419" x2="60" y2="447" stroke="#E0E0E0"/>
<line x1="180" y1="419" x2="180" y2="447" stroke="#E0E0E0"/>
<line x1="300" y1="419" x2="300" y2="447" stroke="#E0E0E0"/>
<line x1="420" y1="419" x2="420" y2="447" stroke="#E0E0E0"/>
<line x1="540" y1="419" x2="540" y2="447" stroke="#E0E0E0"/>
<line x1="420" y1="430" x2="540" y2="430" stroke="black"/>
<line x1="540" y1="430" x2="530" y2="436" stroke="black"/>
<polygon fill="white" points="373,420 586,420 586,429 373,429"/>
<text x="374" y="429" textLength="211" font-family="Helvetica" font-size="12" fill="black">
invitation message (contains SDP offer)
</text>
<line x1="60" y1="447" x2="60" y2="475" stroke="#E0E0E0"/>
<line x1="180" y1="447" x2="180" y2="475" stroke="#E0E0E0"/>
<line x1="300" y1="447" x2="300" y2="475" stroke="#E0E0E0"/>
<line x1="420" y1="447" x2="420" y2="475" stroke="#E0E0E0"/>
<line x1="540" y1="447" x2="540" y2="475" stroke="#E0E0E0"/>
<path d="M 540 452 A60,6 0 0,1 540,464" stroke="black" fill="none"/><polygon fill="black" points="540,464 550,470 550,458"/>
<polygon fill="white" points="493,448 538,448 538,457 493,457"/>
<text x="494" y="457" textLength="43" font-family="Helvetica" font-size="12" fill="black">
accept()
</text>
<line x1="60" y1="475" x2="60" y2="503" stroke="#E0E0E0"/>
<line x1="180" y1="475" x2="180" y2="503" stroke="#E0E0E0"/>
<line x1="300" y1="475" x2="300" y2="503" stroke="#E0E0E0"/>
<line x1="420" y1="475" x2="420" y2="503" stroke="#E0E0E0"/>
<line x1="540" y1="475" x2="540" y2="503" stroke="#E0E0E0"/>
<line x1="540" y1="486" x2="420" y2="486" stroke="black"/>
<line x1="420" y1="486" x2="430" y2="492" stroke="black"/>
<polygon fill="white" points="370,476 589,476 589,485 370,485"/>
<text x="371" y="485" textLength="217" font-family="Helvetica" font-size="12" fill="black">
answer message (contains SDP answer)
</text>
<line x1="60" y1="503" x2="60" y2="531" stroke="#E0E0E0"/>
<line x1="180" y1="503" x2="180" y2="531" stroke="#E0E0E0"/>
<line x1="300" y1="503" x2="300" y2="531" stroke="#E0E0E0"/>
<line x1="420" y1="503" x2="420" y2="531" stroke="#E0E0E0"/>
<line x1="540" y1="503" x2="540" y2="531" stroke="#E0E0E0"/>
<line x1="420" y1="514" x2="60" y2="514" stroke="black"/>
<line x1="60" y1="514" x2="70" y2="520" stroke="black"/>
<polygon fill="white" points="130,504 349,504 349,513 130,513"/>
<text x="131" y="513" textLength="217" font-family="Helvetica" font-size="12" fill="black">
answer message (contains SDP answer)
</text>
<line x1="60" y1="531" x2="60" y2="559" stroke="#E0E0E0"/>
<line x1="180" y1="531" x2="180" y2="559" stroke="#E0E0E0"/>
<line x1="300" y1="531" x2="300" y2="559" stroke="#E0E0E0"/>
<line x1="420" y1="531" x2="420" y2="559" stroke="#E0E0E0"/>
<line x1="540" y1="531" x2="540" y2="559" stroke="#E0E0E0"/>
<line x1="60" y1="542" x2="420" y2="542" stroke="black"/>
<line x1="420" y1="542" x2="410" y2="548" stroke="black"/>
<line x1="60" y1="542" x2="70" y2="548" stroke="black"/>
<polygon fill="white" points="172,532 306,532 306,541 172,541"/>
<text x="173" y="541" textLength="132" font-family="Helvetica" font-size="12" fill="black">
ice candidates exchange
</text>
<line x1="420" y1="542" x2="540" y2="542" stroke="black"/>
<line x1="540" y1="542" x2="530" y2="548" stroke="black"/>
<line x1="420" y1="542" x2="430" y2="548" stroke="black"/>
<polygon fill="white" points="412,532 546,532 546,541 412,541"/>
<text x="413" y="541" textLength="132" font-family="Helvetica" font-size="12" fill="black">
ice candidates exchange
</text>
<line x1="60" y1="559" x2="60" y2="587" stroke="#E0E0E0"/>
<line x1="180" y1="559" x2="180" y2="587" stroke="#E0E0E0"/>
<line x1="300" y1="559" x2="300" y2="587" stroke="#E0E0E0"/>
<line x1="420" y1="559" x2="420" y2="587" stroke="#E0E0E0"/>
<line x1="540" y1="559" x2="540" y2="587" stroke="#E0E0E0"/>
<line x1="60" y1="570" x2="540" y2="570" stroke="black"/>
<polygon fill="black" points="540,570 530,576 530,564"/>
<polygon fill="black" points="60,570 70,576 70,564"/>
<polygon fill="white" points="223,560 375,560 375,569 223,569"/>
<text x="224" y="569" textLength="150" font-family="Helvetica" font-size="12" fill="black">
PeerConnection established
</text>
<polygon fill="white" points="298,571 300,571 300,580 298,580"/>
<text x="299" y="580" textLength="0" font-family="Helvetica" font-size="12" fill="black">

</text>
<line x1="60" y1="581" x2="60" y2="587" stroke="#E0E0E0"/>
<line x1="180" y1="581" x2="180" y2="587" stroke="#E0E0E0"/>
<line x1="300" y1="581" x2="300" y2="587" stroke="#E0E0E0"/>
<line x1="420" y1="581" x2="420" y2="587" stroke="#E0E0E0"/>
<line x1="540" y1="581" x2="540" y2="587" stroke="#E0E0E0"/>
</svg>
