<!DOCTYPE svg PUBLIC "-//W3C//DTD SVG 1.1//EN"
 "http://www.w3.org/Graphics/SVG/1.1/DTD/svg11.dtd">
<svg version="1.1"
 width="600px" height="429px"
 viewBox="0 0 600 429"
 xmlns="http://www.w3.org/2000/svg" shape-rendering="crispEdges"
 stroke-width="1" text-rendering="geometricPrecision">
<polygon fill="white" points="98,7 100,7 100,16 98,16"/>
<text x="100" y="16" textLength="0" font-family="Helvetica" font-size="12" fill="black" text-anchor="middle">


</text>
<polygon fill="white" points="298,7 300,7 300,16 298,16"/>
<text x="300" y="16" textLength="0" font-family="Helvetica" font-size="12" fill="black" text-anchor="middle">


</text>
<polygon fill="white" points="498,7 500,7 500,16 498,16"/>
<text x="500" y="16" textLength="0" font-family="Helvetica" font-size="12" fill="black" text-anchor="middle">


</text>
<line x1="100" y1="22" x2="100" y2="50" stroke="#E0E0E0"/>
<line x1="300" y1="22" x2="300" y2="50" stroke="#E0E0E0"/>
<line x1="500" y1="22" x2="500" y2="50" stroke="#E0E0E0"/>
<polygon fill="#7FFF7F" points="8,22 192,22 192,44 8,44"/>
<line x1="8" y1="22" x2="192" y2="22" stroke="black"/>
<line x1="8" y1="44" x2="192" y2="44" stroke="black"/>
<line x1="8" y1="22" x2="8" y2="44" stroke="black"/>
<line x1="192" y1="22" x2="192" y2="44" stroke="black"/>
<polygon fill="#7FFF7F" points="63,29 136,29 136,38 63,38"/>
<text x="64" y="38" textLength="71" font-family="Helvetica" font-size="12" fill="black">
Domain Alice
</text>
<polygon fill="#7FFF7F" points="208,22 592,22 592,44 208,44"/>
<line x1="208" y1="22" x2="592" y2="22" stroke="black"/>
<line x1="208" y1="44" x2="592" y2="44" stroke="black"/>
<line x1="208" y1="22" x2="208" y2="44" stroke="black"/>
<line x1="592" y1="22" x2="592" y2="44" stroke="black"/>
<polygon fill="#7FFF7F" points="365,29 433,29 433,38 365,38"/>
<text x="366" y="38" textLength="66" font-family="Helvetica" font-size="12" fill="black">
Domain Bob
</text>
<line x1="100" y1="50" x2="100" y2="78" stroke="#E0E0E0"/>
<line x1="300" y1="50" x2="300" y2="78" stroke="#E0E0E0"/>
<line x1="500" y1="50" x2="500" y2="78" stroke="#E0E0E0"/>
<polygon fill="#FF7F7F" points="14,50 186,50 186,72 14,72"/>
<polygon fill="#FF7F7F" points="8,56 192,56 192,66 8,66"/>
<circle fill="#FF7F7F" cx="14" cy="56" r="6"/>
<circle fill="#FF7F7F" cx="186" cy="56" r="6"/>
<circle fill="#FF7F7F" cx="14" cy="66" r="6"/>
<circle fill="#FF7F7F" cx="186" cy="66" r="6"/>
<line x1="14" y1="50" x2="186" y2="50" stroke="black"/>
<line x1="14" y1="72" x2="186" y2="72" stroke="black"/>
<line x1="8" y1="56" x2="8" y2="66" stroke="black"/>
<line x1="192" y1="56" x2="192" y2="66" stroke="black"/>
<path d="M 8 56 A6,6 0 0,1 14,50" stroke="black" fill="none"/><path d="M 186 50 A6,6 0 0,1 192,56" stroke="black" fill="none"/><path d="M 192 66 A6,6 0 0,1 186,72" stroke="black" fill="none"/><path d="M 14 72 A6,6 0 0,1 8,66" stroke="black" fill="none"/><polygon fill="#FF7F7F" points="85,57 113,57 113,66 85,66"/>
<text x="86" y="66" textLength="26" font-family="Helvetica" font-size="12" fill="black">
Alice
</text>
<polygon fill="#FF7F7F" points="214,50 386,50 386,72 214,72"/>
<polygon fill="#FF7F7F" points="208,56 392,56 392,66 208,66"/>
<circle fill="#FF7F7F" cx="214" cy="56" r="6"/>
<circle fill="#FF7F7F" cx="386" cy="56" r="6"/>
<circle fill="#FF7F7F" cx="214" cy="66" r="6"/>
<circle fill="#FF7F7F" cx="386" cy="66" r="6"/>
<line x1="214" y1="50" x2="386" y2="50" stroke="black"/>
<line x1="214" y1="72" x2="386" y2="72" stroke="black"/>
<line x1="208" y1="56" x2="208" y2="66" stroke="black"/>
<line x1="392" y1="56" x2="392" y2="66" stroke="black"/>
<path d="M 208 56 A6,6 0 0,1 214,50" stroke="black" fill="none"/><path d="M 386 50 A6,6 0 0,1 392,56" stroke="black" fill="none"/><path d="M 392 66 A6,6 0 0,1 386,72" stroke="black" fill="none"/><path d="M 214 72 A6,6 0 0,1 208,66" stroke="black" fill="none"/><polygon fill="#FF7F7F" points="250,57 349,57 349,66 250,66"/>
<text x="251" y="66" textLength="97" font-family="Helvetica" font-size="12" fill="black">
Messaging Server
</text>
<polygon fill="#FF7F7F" points="414,50 586,50 586,72 414,72"/>
<polygon fill="#FF7F7F" points="408,56 592,56 592,66 408,66"/>
<circle fill="#FF7F7F" cx="414" cy="56" r="6"/>
<circle fill="#FF7F7F" cx="586" cy="56" r="6"/>
<circle fill="#FF7F7F" cx="414" cy="66" r="6"/>
<circle fill="#FF7F7F" cx="586" cy="66" r="6"/>
<line x1="414" y1="50" x2="586" y2="50" stroke="black"/>
<line x1="414" y1="72" x2="586" y2="72" stroke="black"/>
<line x1="408" y1="56" x2="408" y2="66" stroke="black"/>
<line x1="592" y1="56" x2="592" y2="66" stroke="black"/>
<path d="M 408 56 A6,6 0 0,1 414,50" stroke="black" fill="none"/><path d="M 586 50 A6,6 0 0,1 592,56" stroke="black" fill="none"/><path d="M 592 66 A6,6 0 0,1 586,72" stroke="black" fill="none"/><path d="M 414 72 A6,6 0 0,1 408,66" stroke="black" fill="none"/><polygon fill="#FF7F7F" points="488,57 511,57 511,66 488,66"/>
<text x="489" y="66" textLength="21" font-family="Helvetica" font-size="12" fill="black">
Bob
</text>
<line x1="100" y1="78" x2="100" y2="95" stroke="#E0E0E0"/>
<line x1="300" y1="78" x2="300" y2="95" stroke="#E0E0E0"/>
<line x1="500" y1="78" x2="500" y2="95" stroke="#E0E0E0"/>
<line x1="50" y1="83" x2="550" y2="83" stroke="black" stroke-dasharray="2,2"/>
<polygon fill="white" points="223,79 375,79 375,88 223,88"/>
<text x="224" y="88" textLength="150" font-family="Helvetica" font-size="12" fill="black">
PeerConnection established
</text>
<line x1="100" y1="95" x2="100" y2="211" stroke="#E0E0E0"/>
<line x1="300" y1="95" x2="300" y2="211" stroke="#E0E0E0"/>
<line x1="500" y1="95" x2="500" y2="211" stroke="#E0E0E0"/>
<path d="M 100 156 A98,6 0 0,1 100,144" stroke="black" fill="none"/><polygon fill="black" points="100,156 90,162 90,150"/>
<polygon fill="white" points="100,96 157,96 157,105 100,105"/>
<text x="101" y="105" textLength="55" font-family="Helvetica" font-size="12" fill="black">
participant
</text>
<polygon fill="white" points="100,107 210,107 210,116 100,116"/>
<text x="101" y="116" textLength="108" font-family="Helvetica" font-size="12" fill="black">
.createRemotePeer(
</text>
<polygon fill="white" points="100,118 143,118 143,127 100,127"/>
<text x="101" y="127" textLength="41" font-family="Helvetica" font-size="12" fill="black">
identity,
</text>
<polygon fill="white" points="100,129 181,129 181,138 100,138"/>
<text x="101" y="138" textLength="79" font-family="Helvetica" font-size="12" fill="black">
 myParticipant,
</text>
<polygon fill="white" points="100,140 157,140 157,149 100,149"/>
<text x="101" y="149" textLength="55" font-family="Helvetica" font-size="12" fill="black">
 contextId,
</text>
<polygon fill="white" points="100,151 216,151 216,160 100,160"/>
<text x="101" y="160" textLength="114" font-family="Helvetica" font-size="12" fill="black">
 resourceConstraints,
</text>
<polygon fill="white" points="100,162 181,162 181,171 100,171"/>
<text x="101" y="171" textLength="79" font-family="Helvetica" font-size="12" fill="black">
 rtcEvtHandler,
</text>
<polygon fill="white" points="100,173 173,173 173,182 100,182"/>
<text x="101" y="182" textLength="71" font-family="Helvetica" font-size="12" fill="black">
 msgHandler,
</text>
<polygon fill="white" points="100,184 166,184 166,193 100,193"/>
<text x="101" y="193" textLength="64" font-family="Helvetica" font-size="12" fill="black">
 iceServers)
</text>
<polygon fill="white" points="100,195 102,195 102,204 100,204"/>
<text x="101" y="204" textLength="0" font-family="Helvetica" font-size="12" fill="black">

</text>
<line x1="100" y1="211" x2="100" y2="250" stroke="#E0E0E0"/>
<line x1="300" y1="211" x2="300" y2="250" stroke="#E0E0E0"/>
<line x1="500" y1="211" x2="500" y2="250" stroke="#E0E0E0"/>
<line x1="100" y1="227" x2="300" y2="227" stroke="black"/>
<line x1="300" y1="227" x2="290" y2="233" stroke="black"/>
<polygon fill="white" points="125,212 274,212 274,221 125,221"/>
<text x="126" y="221" textLength="147" font-family="Helvetica" font-size="12" fill="black">
invitation for a data channel
</text>
<polygon fill="white" points="198,223 200,223 200,232 198,232"/>
<text x="199" y="232" textLength="0" font-family="Helvetica" font-size="12" fill="black">

</text>
<polygon fill="white" points="165,234 233,234 233,243 165,243"/>
<text x="166" y="243" textLength="66" font-family="Helvetica" font-size="12" fill="black">
 + SDP offer
</text>
<line x1="100" y1="250" x2="100" y2="289" stroke="#E0E0E0"/>
<line x1="300" y1="250" x2="300" y2="289" stroke="#E0E0E0"/>
<line x1="500" y1="250" x2="500" y2="289" stroke="#E0E0E0"/>
<line x1="300" y1="266" x2="500" y2="266" stroke="black"/>
<line x1="500" y1="266" x2="490" y2="272" stroke="black"/>
<polygon fill="white" points="325,251 474,251 474,260 325,260"/>
<text x="326" y="260" textLength="147" font-family="Helvetica" font-size="12" fill="black">
invitation for a data channel
</text>
<polygon fill="white" points="398,262 400,262 400,271 398,271"/>
<text x="399" y="271" textLength="0" font-family="Helvetica" font-size="12" fill="black">

</text>
<polygon fill="white" points="365,273 433,273 433,282 365,282"/>
<text x="366" y="282" textLength="66" font-family="Helvetica" font-size="12" fill="black">
 + SDP offer
</text>
<line x1="100" y1="289" x2="100" y2="306" stroke="#E0E0E0"/>
<line x1="300" y1="289" x2="300" y2="306" stroke="#E0E0E0"/>
<line x1="500" y1="289" x2="500" y2="306" stroke="#E0E0E0"/>
<line x1="100" y1="306" x2="100" y2="345" stroke="#E0E0E0"/>
<line x1="300" y1="306" x2="300" y2="345" stroke="#E0E0E0"/>
<line x1="500" y1="306" x2="500" y2="345" stroke="#E0E0E0"/>
<line x1="500" y1="322" x2="300" y2="322" stroke="black"/>
<line x1="300" y1="322" x2="310" y2="328" stroke="black"/>
<polygon fill="white" points="329,307 469,307 469,316 329,316"/>
<text x="330" y="316" textLength="138" font-family="Helvetica" font-size="12" fill="black">
answer for a data channel
</text>
<polygon fill="white" points="398,318 400,318 400,327 398,327"/>
<text x="399" y="327" textLength="0" font-family="Helvetica" font-size="12" fill="black">

</text>
<polygon fill="white" points="358,329 440,329 440,338 358,338"/>
<text x="359" y="338" textLength="80" font-family="Helvetica" font-size="12" fill="black">
 + SDP answer
</text>
<line x1="100" y1="345" x2="100" y2="384" stroke="#E0E0E0"/>
<line x1="300" y1="345" x2="300" y2="384" stroke="#E0E0E0"/>
<line x1="500" y1="345" x2="500" y2="384" stroke="#E0E0E0"/>
<line x1="300" y1="361" x2="100" y2="361" stroke="black"/>
<line x1="100" y1="361" x2="110" y2="367" stroke="black"/>
<polygon fill="white" points="129,346 269,346 269,355 129,355"/>
<text x="130" y="355" textLength="138" font-family="Helvetica" font-size="12" fill="black">
answer for a data channel
</text>
<polygon fill="white" points="198,357 200,357 200,366 198,366"/>
<text x="199" y="366" textLength="0" font-family="Helvetica" font-size="12" fill="black">

</text>
<polygon fill="white" points="158,368 240,368 240,377 158,377"/>
<text x="159" y="377" textLength="80" font-family="Helvetica" font-size="12" fill="black">
 + SDP answer
</text>
<line x1="100" y1="384" x2="100" y2="401" stroke="#E0E0E0"/>
<line x1="300" y1="384" x2="300" y2="401" stroke="#E0E0E0"/>
<line x1="500" y1="384" x2="500" y2="401" stroke="#E0E0E0"/>
<line x1="100" y1="401" x2="100" y2="429" stroke="#E0E0E0"/>
<line x1="300" y1="401" x2="300" y2="429" stroke="#E0E0E0"/>
<line x1="500" y1="401" x2="500" y2="429" stroke="#E0E0E0"/>
<line x1="100" y1="412" x2="500" y2="412" stroke="black"/>
<polygon fill="black" points="500,412 490,418 490,406"/>
<polygon fill="black" points="100,412 110,418 110,406"/>
<polygon fill="white" points="230,402 369,402 369,411 230,411"/>
<text x="231" y="411" textLength="137" font-family="Helvetica" font-size="12" fill="black">
peer to peer data channel
</text>
<line x1="100" y1="423" x2="100" y2="429" stroke="#E0E0E0"/>
<line x1="300" y1="423" x2="300" y2="429" stroke="#E0E0E0"/>
<line x1="500" y1="423" x2="500" y2="429" stroke="#E0E0E0"/>
</svg>
