<!DOCTYPE svg PUBLIC "-//W3C//DTD SVG 1.1//EN"
 "http://www.w3.org/Graphics/SVG/1.1/DTD/svg11.dtd">
<svg version="1.1"
 width="600px" height="335px"
 viewBox="0 0 600 335"
 xmlns="http://www.w3.org/2000/svg" shape-rendering="crispEdges"
 stroke-width="1" text-rendering="geometricPrecision">
<polygon fill="white" points="73,7 75,7 75,16 73,16"/>
<text x="75" y="16" textLength="0" font-family="Helvetica" font-size="12" fill="black" text-anchor="middle">


</text>
<polygon fill="white" points="223,7 225,7 225,16 223,16"/>
<text x="225" y="16" textLength="0" font-family="Helvetica" font-size="12" fill="black" text-anchor="middle">


</text>
<polygon fill="white" points="373,7 375,7 375,16 373,16"/>
<text x="375" y="16" textLength="0" font-family="Helvetica" font-size="12" fill="black" text-anchor="middle">


</text>
<polygon fill="white" points="523,7 525,7 525,16 523,16"/>
<text x="525" y="16" textLength="0" font-family="Helvetica" font-size="12" fill="black" text-anchor="middle">


</text>
<line x1="75" y1="22" x2="75" y2="50" stroke="#E0E0E0"/>
<line x1="225" y1="22" x2="225" y2="50" stroke="#E0E0E0"/>
<line x1="375" y1="22" x2="375" y2="50" stroke="#E0E0E0"/>
<line x1="525" y1="22" x2="525" y2="50" stroke="#E0E0E0"/>
<polygon fill="#7FFF7F" points="8,22 592,22 592,44 8,44"/>
<line x1="8" y1="22" x2="592" y2="22" stroke="black"/>
<line x1="8" y1="44" x2="592" y2="44" stroke="black"/>
<line x1="8" y1="22" x2="8" y2="44" stroke="black"/>
<line x1="592" y1="22" x2="592" y2="44" stroke="black"/>
<polygon fill="#7FFF7F" points="263,29 336,29 336,38 263,38"/>
<text x="264" y="38" textLength="71" font-family="Helvetica" font-size="12" fill="black">
Domain Alice
</text>
<line x1="75" y1="50" x2="75" y2="78" stroke="#E0E0E0"/>
<line x1="225" y1="50" x2="225" y2="78" stroke="#E0E0E0"/>
<line x1="375" y1="50" x2="375" y2="78" stroke="#E0E0E0"/>
<line x1="525" y1="50" x2="525" y2="78" stroke="#E0E0E0"/>
<polygon fill="#FF7F7F" points="14,50 136,50 136,72 14,72"/>
<polygon fill="#FF7F7F" points="8,56 142,56 142,66 8,66"/>
<circle fill="#FF7F7F" cx="14" cy="56" r="6"/>
<circle fill="#FF7F7F" cx="136" cy="56" r="6"/>
<circle fill="#FF7F7F" cx="14" cy="66" r="6"/>
<circle fill="#FF7F7F" cx="136" cy="66" r="6"/>
<line x1="14" y1="50" x2="136" y2="50" stroke="black"/>
<line x1="14" y1="72" x2="136" y2="72" stroke="black"/>
<line x1="8" y1="56" x2="8" y2="66" stroke="black"/>
<line x1="142" y1="56" x2="142" y2="66" stroke="black"/>
<path d="M 8 56 A6,6 0 0,1 14,50" stroke="black" fill="none"/><path d="M 136 50 A6,6 0 0,1 142,56" stroke="black" fill="none"/><path d="M 142 66 A6,6 0 0,1 136,72" stroke="black" fill="none"/><path d="M 14 72 A6,6 0 0,1 8,66" stroke="black" fill="none"/><polygon fill="#FF7F7F" points="60,57 88,57 88,66 60,66"/>
<text x="61" y="66" textLength="26" font-family="Helvetica" font-size="12" fill="black">
Alice
</text>
<polygon fill="#FF7F7F" points="164,50 286,50 286,72 164,72"/>
<polygon fill="#FF7F7F" points="158,56 292,56 292,66 158,66"/>
<circle fill="#FF7F7F" cx="164" cy="56" r="6"/>
<circle fill="#FF7F7F" cx="286" cy="56" r="6"/>
<circle fill="#FF7F7F" cx="164" cy="66" r="6"/>
<circle fill="#FF7F7F" cx="286" cy="66" r="6"/>
<line x1="164" y1="50" x2="286" y2="50" stroke="black"/>
<line x1="164" y1="72" x2="286" y2="72" stroke="black"/>
<line x1="158" y1="56" x2="158" y2="66" stroke="black"/>
<line x1="292" y1="56" x2="292" y2="66" stroke="black"/>
<path d="M 158 56 A6,6 0 0,1 164,50" stroke="black" fill="none"/><path d="M 286 50 A6,6 0 0,1 292,56" stroke="black" fill="none"/><path d="M 292 66 A6,6 0 0,1 286,72" stroke="black" fill="none"/><path d="M 164 72 A6,6 0 0,1 158,66" stroke="black" fill="none"/><polygon fill="#FF7F7F" points="180,57 269,57 269,66 180,66"/>
<text x="181" y="66" textLength="87" font-family="Helvetica" font-size="12" fill="black">
Identity Provider
</text>
<polygon fill="#FF7F7F" points="314,50 436,50 436,72 314,72"/>
<polygon fill="#FF7F7F" points="308,56 442,56 442,66 308,66"/>
<circle fill="#FF7F7F" cx="314" cy="56" r="6"/>
<circle fill="#FF7F7F" cx="436" cy="56" r="6"/>
<circle fill="#FF7F7F" cx="314" cy="66" r="6"/>
<circle fill="#FF7F7F" cx="436" cy="66" r="6"/>
<line x1="314" y1="50" x2="436" y2="50" stroke="black"/>
<line x1="314" y1="72" x2="436" y2="72" stroke="black"/>
<line x1="308" y1="56" x2="308" y2="66" stroke="black"/>
<line x1="442" y1="56" x2="442" y2="66" stroke="black"/>
<path d="M 308 56 A6,6 0 0,1 314,50" stroke="black" fill="none"/><path d="M 436 50 A6,6 0 0,1 442,56" stroke="black" fill="none"/><path d="M 442 66 A6,6 0 0,1 436,72" stroke="black" fill="none"/><path d="M 314 72 A6,6 0 0,1 308,66" stroke="black" fill="none"/><polygon fill="#FF7F7F" points="337,57 412,57 412,66 337,66"/>
<text x="338" y="66" textLength="73" font-family="Helvetica" font-size="12" fill="black">
Stub Provider
</text>
<polygon fill="#FF7F7F" points="464,50 586,50 586,72 464,72"/>
<polygon fill="#FF7F7F" points="458,56 592,56 592,66 458,66"/>
<circle fill="#FF7F7F" cx="464" cy="56" r="6"/>
<circle fill="#FF7F7F" cx="586" cy="56" r="6"/>
<circle fill="#FF7F7F" cx="464" cy="66" r="6"/>
<circle fill="#FF7F7F" cx="586" cy="66" r="6"/>
<line x1="464" y1="50" x2="586" y2="50" stroke="black"/>
<line x1="464" y1="72" x2="586" y2="72" stroke="black"/>
<line x1="458" y1="56" x2="458" y2="66" stroke="black"/>
<line x1="592" y1="56" x2="592" y2="66" stroke="black"/>
<path d="M 458 56 A6,6 0 0,1 464,50" stroke="black" fill="none"/><path d="M 586 50 A6,6 0 0,1 592,56" stroke="black" fill="none"/><path d="M 592 66 A6,6 0 0,1 586,72" stroke="black" fill="none"/><path d="M 464 72 A6,6 0 0,1 458,66" stroke="black" fill="none"/><polygon fill="#FF7F7F" points="475,57 574,57 574,66 475,66"/>
<text x="476" y="66" textLength="97" font-family="Helvetica" font-size="12" fill="black">
Messaging Server
</text>
<line x1="75" y1="78" x2="75" y2="95" stroke="#E0E0E0"/>
<line x1="225" y1="78" x2="225" y2="95" stroke="#E0E0E0"/>
<line x1="375" y1="78" x2="375" y2="95" stroke="#E0E0E0"/>
<line x1="525" y1="78" x2="525" y2="95" stroke="#E0E0E0"/>
<line x1="37" y1="83" x2="563" y2="83" stroke="black" stroke-dasharray="2,2"/>
<polygon fill="white" points="182,79 417,79 417,88 182,88"/>
<text x="183" y="88" textLength="233" font-family="Helvetica" font-size="12" fill="black">
WONDERv2-Framework was loaded before
</text>
<line x1="75" y1="95" x2="75" y2="145" stroke="#E0E0E0"/>
<line x1="225" y1="95" x2="225" y2="145" stroke="#E0E0E0"/>
<line x1="375" y1="95" x2="375" y2="145" stroke="#E0E0E0"/>
<line x1="525" y1="95" x2="525" y2="145" stroke="#E0E0E0"/>
<path d="M 75 123 A73,6 0 0,1 75,111" stroke="black" fill="none"/><polygon fill="black" points="75,123 65,129 65,117"/>
<polygon fill="white" points="75,96 172,96 172,105 75,105"/>
<text x="76" y="105" textLength="95" font-family="Helvetica" font-size="12" fill="black">
idp.createIdentity(
</text>
<polygon fill="white" points="75,107 183,107 183,116 75,116"/>
<text x="76" y="116" textLength="106" font-family="Helvetica" font-size="12" fill="black">
'alice@domain.org',
</text>
<polygon fill="white" points="75,118 123,118 123,127 75,127"/>
<text x="76" y="127" textLength="46" font-family="Helvetica" font-size="12" fill="black">
function)
</text>
<polygon fill="white" points="75,129 77,129 77,138 75,138"/>
<text x="76" y="138" textLength="0" font-family="Helvetica" font-size="12" fill="black">

</text>
<line x1="75" y1="145" x2="75" y2="173" stroke="#E0E0E0"/>
<line x1="225" y1="145" x2="225" y2="173" stroke="#E0E0E0"/>
<line x1="375" y1="145" x2="375" y2="173" stroke="#E0E0E0"/>
<line x1="525" y1="145" x2="525" y2="173" stroke="#E0E0E0"/>
<line x1="75" y1="156" x2="225" y2="156" stroke="black"/>
<line x1="225" y1="156" x2="215" y2="162" stroke="black"/>
<polygon fill="white" points="87,146 211,146 211,155 87,155"/>
<text x="88" y="155" textLength="122" font-family="Helvetica" font-size="12" fill="black">
get 'alice@domain.org'
</text>
<polygon fill="white" points="148,157 150,157 150,166 148,166"/>
<text x="149" y="166" textLength="0" font-family="Helvetica" font-size="12" fill="black">

</text>
<line x1="75" y1="173" x2="75" y2="223" stroke="#E0E0E0"/>
<line x1="225" y1="173" x2="225" y2="223" stroke="#E0E0E0"/>
<line x1="375" y1="173" x2="375" y2="223" stroke="#E0E0E0"/>
<line x1="525" y1="173" x2="525" y2="223" stroke="#E0E0E0"/>
<line x1="225" y1="195" x2="75" y2="195" stroke="black"/>
<line x1="75" y1="195" x2="85" y2="201" stroke="black"/>
<polygon fill="white" points="109,174 190,174 190,183 109,183"/>
<text x="110" y="183" textLength="79" font-family="Helvetica" font-size="12" fill="black">
identity of alice
</text>
<polygon fill="white" points="115,185 184,185 184,194 115,194"/>
<text x="116" y="194" textLength="67" font-family="Helvetica" font-size="12" fill="black">
 (Stub-URIs)
</text>
<polygon fill="white" points="148,196 150,196 150,205 148,205"/>
<text x="149" y="205" textLength="0" font-family="Helvetica" font-size="12" fill="black">

</text>
<polygon fill="white" points="148,207 150,207 150,216 148,216"/>
<text x="149" y="216" textLength="0" font-family="Helvetica" font-size="12" fill="black">

</text>
<line x1="75" y1="223" x2="75" y2="251" stroke="#E0E0E0"/>
<line x1="225" y1="223" x2="225" y2="251" stroke="#E0E0E0"/>
<line x1="375" y1="223" x2="375" y2="251" stroke="#E0E0E0"/>
<line x1="525" y1="223" x2="525" y2="251" stroke="#E0E0E0"/>
<line x1="75" y1="234" x2="375" y2="234" stroke="black"/>
<line x1="375" y1="234" x2="365" y2="240" stroke="black"/>
<polygon fill="white" points="171,224 277,224 277,233 171,233"/>
<text x="172" y="233" textLength="104" font-family="Helvetica" font-size="12" fill="black">
get messaging stub
</text>
<line x1="75" y1="251" x2="75" y2="279" stroke="#E0E0E0"/>
<line x1="225" y1="251" x2="225" y2="279" stroke="#E0E0E0"/>
<line x1="375" y1="251" x2="375" y2="279" stroke="#E0E0E0"/>
<line x1="525" y1="251" x2="525" y2="279" stroke="#E0E0E0"/>
<line x1="375" y1="262" x2="75" y2="262" stroke="black"/>
<line x1="75" y1="262" x2="85" y2="268" stroke="black"/>
<polygon fill="white" points="104,252 344,252 344,261 104,261"/>
<text x="105" y="261" textLength="238" font-family="Helvetica" font-size="12" fill="black">
messaging stub + messaging server address
</text>
<line x1="75" y1="279" x2="75" y2="307" stroke="#E0E0E0"/>
<line x1="225" y1="279" x2="225" y2="307" stroke="#E0E0E0"/>
<line x1="375" y1="279" x2="375" y2="307" stroke="#E0E0E0"/>
<line x1="525" y1="279" x2="525" y2="307" stroke="#E0E0E0"/>
<line x1="75" y1="290" x2="525" y2="290" stroke="black"/>
<line x1="525" y1="290" x2="515" y2="296" stroke="black"/>
<polygon fill="white" points="190,280 409,280 409,289 190,289"/>
<text x="191" y="289" textLength="217" font-family="Helvetica" font-size="12" fill="black">
connect('alice@domain.org', credentials)
</text>
<line x1="75" y1="307" x2="75" y2="335" stroke="#E0E0E0"/>
<line x1="225" y1="307" x2="225" y2="335" stroke="#E0E0E0"/>
<line x1="375" y1="307" x2="375" y2="335" stroke="#E0E0E0"/>
<line x1="525" y1="307" x2="525" y2="335" stroke="#E0E0E0"/>
<line x1="75" y1="318" x2="525" y2="318" stroke="black"/>
<polygon fill="black" points="525,318 515,324 515,312"/>
<polygon fill="black" points="75,318 85,324 85,312"/>
<polygon fill="white" points="207,308 391,308 391,317 207,317"/>
<text x="208" y="317" textLength="182" font-family="Helvetica" font-size="12" fill="black">
websocket connection established
</text>
<line x1="75" y1="329" x2="75" y2="335" stroke="#E0E0E0"/>
<line x1="225" y1="329" x2="225" y2="335" stroke="#E0E0E0"/>
<line x1="375" y1="329" x2="375" y2="335" stroke="#E0E0E0"/>
<line x1="525" y1="329" x2="525" y2="335" stroke="#E0E0E0"/>
</svg>
