<?xml version="1.0" encoding="UTF-8" standalone="no"?>
<!DOCTYPE svg PUBLIC "-//W3C//DTD SVG 1.1//EN"
 "http://www.w3.org/Graphics/SVG/1.1/DTD/svg11.dtd">
<!-- Generated by graphviz version 2.38.0 (20140413.2041)
 -->
<!-- Title: codecmap Pages: 1 -->
<svg width="503pt" height="314pt"
 viewBox="0.00 0.00 502.88 314.00" xmlns="http://www.w3.org/2000/svg" xmlns:xlink="http://www.w3.org/1999/xlink">
<g id="graph0" class="graph" transform="scale(1 1) rotate(0) translate(4 310)">
<title>codecmap</title>
<polygon fill="white" stroke="none" points="-4,4 -4,-310 498.875,-310 498.875,4 -4,4"/>
<!-- alice1 -->
<g id="node1" class="node"><title>alice1</title>
<ellipse fill="none" stroke="black" cx="190.089" cy="-180" rx="27.0966" ry="18"/>
<text text-anchor="middle" x="190.089" y="-176.3" font-family="Times,serif" font-size="14.00">alice</text>
</g>
<!-- bob1 -->
<g id="node4" class="node"><title>bob1</title>
<ellipse fill="none" stroke="black" cx="294.284" cy="-234" rx="27" ry="18"/>
<text text-anchor="middle" x="294.284" y="-230.3" font-family="Times,serif" font-size="14.00">bob</text>
</g>
<!-- alice1&#45;&gt;bob1 -->
<g id="edge2" class="edge"><title>alice1&#45;&gt;bob1</title>
<path fill="none" stroke="black" d="M212.264,-191.189C227.023,-198.988 246.925,-209.504 263.31,-218.162"/>
<polygon fill="black" stroke="black" points="262.009,-221.433 272.486,-223.01 265.279,-215.244 262.009,-221.433"/>
<text text-anchor="middle" x="242.186" y="-211.8" font-family="Times,serif" font-size="14.00">to</text>
</g>
<!-- carol1 -->
<g id="node6" class="node"><title>carol1</title>
<ellipse fill="none" stroke="black" cx="294.284" cy="-180" rx="28.6953" ry="18"/>
<text text-anchor="middle" x="294.284" y="-176.3" font-family="Times,serif" font-size="14.00">carol</text>
</g>
<!-- alice1&#45;&gt;carol1 -->
<g id="edge5" class="edge"><title>alice1&#45;&gt;carol1</title>
<path fill="none" stroke="black" d="M217.407,-180C228.957,-180 242.737,-180 255.364,-180"/>
<polygon fill="black" stroke="black" points="255.626,-183.5 265.626,-180 255.626,-176.5 255.626,-183.5"/>
<text text-anchor="middle" x="242.186" y="-183.8" font-family="Times,serif" font-size="14.00">to</text>
</g>
<!-- alice2 -->
<g id="node2" class="node"><title>alice2</title>
<ellipse fill="none" stroke="black" cx="294.284" cy="-126" rx="27.0966" ry="18"/>
<text text-anchor="middle" x="294.284" y="-122.3" font-family="Times,serif" font-size="14.00">alice</text>
</g>
<!-- file2 -->
<g id="node9" class="node"><title>file2</title>
<ellipse fill="none" stroke="black" cx="462.378" cy="-126" rx="27" ry="18"/>
<text text-anchor="middle" x="462.378" y="-122.3" font-family="Times,serif" font-size="14.00">file</text>
</g>
<!-- alice2&#45;&gt;file2 -->
<g id="edge9" class="edge"><title>alice2&#45;&gt;file2</title>
<path fill="none" stroke="black" d="M321.602,-126C349.544,-126 393.899,-126 425.135,-126"/>
<polygon fill="black" stroke="black" points="425.183,-129.5 435.183,-126 425.183,-122.5 425.183,-129.5"/>
<text text-anchor="middle" x="376.381" y="-129.8" font-family="Times,serif" font-size="14.00">with payload</text>
</g>
<!-- alice3 -->
<g id="node3" class="node"><title>alice3</title>
<ellipse fill="none" stroke="black" cx="294.284" cy="-72" rx="27.0966" ry="18"/>
<text text-anchor="middle" x="294.284" y="-68.3" font-family="Times,serif" font-size="14.00">alice</text>
</g>
<!-- chat2 -->
<g id="node11" class="node"><title>chat2</title>
<ellipse fill="none" stroke="black" cx="462.378" cy="-72" rx="27" ry="18"/>
<text text-anchor="middle" x="462.378" y="-68.3" font-family="Times,serif" font-size="14.00">chat</text>
</g>
<!-- alice3&#45;&gt;chat2 -->
<g id="edge12" class="edge"><title>alice3&#45;&gt;chat2</title>
<path fill="none" stroke="black" d="M321.602,-72C349.544,-72 393.899,-72 425.135,-72"/>
<polygon fill="black" stroke="black" points="425.183,-75.5001 435.183,-72 425.183,-68.5001 425.183,-75.5001"/>
<text text-anchor="middle" x="376.381" y="-75.8" font-family="Times,serif" font-size="14.00">with payload</text>
</g>
<!-- image -->
<g id="node14" class="node"><title>image</title>
<ellipse fill="none" stroke="black" cx="462.378" cy="-18" rx="32.4942" ry="18"/>
<text text-anchor="middle" x="462.378" y="-14.3" font-family="Times,serif" font-size="14.00">image</text>
</g>
<!-- alice3&#45;&gt;image -->
<g id="edge13" class="edge"><title>alice3&#45;&gt;image</title>
<path fill="none" stroke="black" d="M317.354,-62.2178C324.763,-59.0917 333.116,-55.7359 340.881,-53 367.848,-43.4988 398.837,-34.54 422.635,-28.065"/>
<polygon fill="black" stroke="black" points="423.614,-31.426 432.361,-25.4477 421.795,-24.6665 423.614,-31.426"/>
<text text-anchor="middle" x="376.381" y="-56.8" font-family="Times,serif" font-size="14.00">with payload</text>
</g>
<!-- file1 -->
<g id="node8" class="node"><title>file1</title>
<ellipse fill="none" stroke="black" cx="462.378" cy="-288" rx="27" ry="18"/>
<text text-anchor="middle" x="462.378" y="-284.3" font-family="Times,serif" font-size="14.00">file</text>
</g>
<!-- bob1&#45;&gt;file1 -->
<g id="edge3" class="edge"><title>bob1&#45;&gt;file1</title>
<path fill="none" stroke="black" d="M317.354,-243.782C324.763,-246.908 333.116,-250.264 340.881,-253 369.466,-263.071 402.57,-272.533 426.839,-279.073"/>
<polygon fill="black" stroke="black" points="426.096,-282.497 436.66,-281.691 427.898,-275.733 426.096,-282.497"/>
<text text-anchor="middle" x="376.381" y="-278.8" font-family="Times,serif" font-size="14.00">with payload</text>
</g>
<!-- plain -->
<g id="node13" class="node"><title>plain</title>
<ellipse fill="none" stroke="black" cx="462.378" cy="-234" rx="28.6953" ry="18"/>
<text text-anchor="middle" x="462.378" y="-230.3" font-family="Times,serif" font-size="14.00">plain</text>
</g>
<!-- bob1&#45;&gt;plain -->
<g id="edge4" class="edge"><title>bob1&#45;&gt;plain</title>
<path fill="none" stroke="black" d="M321.602,-234C349.051,-234 392.338,-234 423.47,-234"/>
<polygon fill="black" stroke="black" points="423.521,-237.5 433.521,-234 423.521,-230.5 423.521,-237.5"/>
<text text-anchor="middle" x="376.381" y="-237.8" font-family="Times,serif" font-size="14.00">with payload</text>
</g>
<!-- bob2 -->
<g id="node5" class="node"><title>bob2</title>
<ellipse fill="none" stroke="black" cx="190.089" cy="-126" rx="27" ry="18"/>
<text text-anchor="middle" x="190.089" y="-122.3" font-family="Times,serif" font-size="14.00">bob</text>
</g>
<!-- bob2&#45;&gt;alice2 -->
<g id="edge8" class="edge"><title>bob2&#45;&gt;alice2</title>
<path fill="none" stroke="black" d="M217.141,-126C229.18,-126 243.683,-126 256.788,-126"/>
<polygon fill="black" stroke="black" points="256.923,-129.5 266.923,-126 256.923,-122.5 256.923,-129.5"/>
<text text-anchor="middle" x="242.186" y="-129.8" font-family="Times,serif" font-size="14.00">to</text>
</g>
<!-- chat1 -->
<g id="node10" class="node"><title>chat1</title>
<ellipse fill="none" stroke="black" cx="462.378" cy="-180" rx="27" ry="18"/>
<text text-anchor="middle" x="462.378" y="-176.3" font-family="Times,serif" font-size="14.00">chat</text>
</g>
<!-- carol1&#45;&gt;chat1 -->
<g id="edge6" class="edge"><title>carol1&#45;&gt;chat1</title>
<path fill="none" stroke="black" d="M323.084,-180C351.006,-180 394.177,-180 424.85,-180"/>
<polygon fill="black" stroke="black" points="425.133,-183.5 435.133,-180 425.133,-176.5 425.133,-183.5"/>
<text text-anchor="middle" x="376.381" y="-183.8" font-family="Times,serif" font-size="14.00">with payload</text>
</g>
<!-- carol2 -->
<g id="node7" class="node"><title>carol2</title>
<ellipse fill="none" stroke="black" cx="190.089" cy="-72" rx="28.6953" ry="18"/>
<text text-anchor="middle" x="190.089" y="-68.3" font-family="Times,serif" font-size="14.00">carol</text>
</g>
<!-- carol2&#45;&gt;alice3 -->
<g id="edge11" class="edge"><title>carol2&#45;&gt;alice3</title>
<path fill="none" stroke="black" d="M218.744,-72C230.382,-72 244.091,-72 256.558,-72"/>
<polygon fill="black" stroke="black" points="256.665,-75.5001 266.665,-72 256.665,-68.5001 256.665,-75.5001"/>
<text text-anchor="middle" x="242.186" y="-75.8" font-family="Times,serif" font-size="14.00">to</text>
</g>
<!-- Codecmap -->
<g id="node12" class="node"><title>Codecmap</title>
<ellipse fill="none" stroke="black" cx="48.7457" cy="-126" rx="48.9926" ry="18"/>
<text text-anchor="middle" x="48.7457" y="-122.3" font-family="Times,serif" font-size="14.00">Codecmap</text>
</g>
<!-- Codecmap&#45;&gt;alice1 -->
<g id="edge1" class="edge"><title>Codecmap&#45;&gt;alice1</title>
<path fill="none" stroke="black" d="M83.1218,-138.934C105.325,-147.539 134.351,-158.787 156.41,-167.336"/>
<polygon fill="black" stroke="black" points="155.416,-170.704 166.005,-171.054 157.945,-164.177 155.416,-170.704"/>
<text text-anchor="middle" x="129.491" y="-163.8" font-family="Times,serif" font-size="14.00">from</text>
</g>
<!-- Codecmap&#45;&gt;bob2 -->
<g id="edge7" class="edge"><title>Codecmap&#45;&gt;bob2</title>
<path fill="none" stroke="black" d="M97.6997,-126C115.824,-126 136.126,-126 152.983,-126"/>
<polygon fill="black" stroke="black" points="152.984,-129.5 162.984,-126 152.984,-122.5 152.984,-129.5"/>
<text text-anchor="middle" x="129.491" y="-129.8" font-family="Times,serif" font-size="14.00">from</text>
</g>
<!-- Codecmap&#45;&gt;carol2 -->
<g id="edge10" class="edge"><title>Codecmap&#45;&gt;carol2</title>
<path fill="none" stroke="black" d="M83.1218,-113.066C105.046,-104.569 133.622,-93.4952 155.574,-84.9881"/>
<polygon fill="black" stroke="black" points="157.086,-88.1557 165.146,-81.2786 154.557,-81.6286 157.086,-88.1557"/>
<text text-anchor="middle" x="129.491" y="-102.8" font-family="Times,serif" font-size="14.00">from</text>
</g>
</g>
</svg>
