<?xml version="1.0" encoding="UTF-8" standalone="no"?>
<!-- Created with Inkscape (http://www.inkscape.org/) -->

<svg
   xmlns:dc="http://purl.org/dc/elements/1.1/"
   xmlns:cc="http://creativecommons.org/ns#"
   xmlns:rdf="http://www.w3.org/1999/02/22-rdf-syntax-ns#"
   xmlns:svg="http://www.w3.org/2000/svg"
   xmlns="http://www.w3.org/2000/svg"
   version="1.1"
   width="1008.25"
   height="191.75"
   id="svg2"
   xml:space="preserve"><metadata
     id="metadata8"><rdf:RDF><cc:Work
         rdf:about=""><dc:format>image/svg+xml</dc:format><dc:type
           rdf:resource="http://purl.org/dc/dcmitype/StillImage" /><dc:title></dc:title></cc:Work></rdf:RDF></metadata><defs
     id="defs6"><clipPath
       id="clipPath18"><path
         d="m 0,0 8065.99,0 0,1534 L 0,1534 0,0 z"
         id="path20" /></clipPath></defs><g
     transform="matrix(1.25,0,0,-1.25,0,191.75)"
     id="g10"><g
       transform="scale(0.1,0.1)"
       id="g12"><g
         id="g14"><g
           clip-path="url(#clipPath18)"
           id="g16"><path
             d="m 1384.91,323.559 -1255.664,0 0,757.071 c 0,40.6 32.906,73.51 73.504,73.51 l 1108.66,0 c 40.6,0 73.5,-32.91 73.5,-73.51 l 0,-757.071 z m -99.23,731.351 -1057.211,0 0,-632.121 1057.211,0 0,632.121 m 228.47,-786.48 0,-47.77 c 0,-40.601 -32.91,-73.512 -73.5,-73.512 l -1367.1461,0 C 32.9062,147.148 0,180.059 0,220.66 l 0,47.77 614.066,0 c 5.039,-22.602 25.176,-35.828 49.293,-35.828 l 187.43,0 c 24.117,0 44.258,13.226 49.289,35.828 l 614.072,0"
             id="path22"
             style="fill:#050606;fill-opacity:1;fill-rule:nonzero;stroke:none" /><path
             d="m 7936.75,323.559 -1255.66,0 0,757.071 c 0,40.6 32.9,73.51 73.5,73.51 l 1108.66,0 c 40.6,0 73.5,-32.91 73.5,-73.51 l 0,-757.071 z m -99.23,731.351 -1057.21,0 0,-632.121 1057.21,0 0,632.121 m 228.47,-786.48 0,-47.77 c 0,-40.601 -32.91,-73.512 -73.5,-73.512 l -1367.15,0 c -40.59,0 -73.5,32.911 -73.5,73.512 l 0,47.77 614.07,0 c 5.04,-22.602 25.17,-35.828 49.29,-35.828 l 187.43,0 c 24.12,0 44.26,13.226 49.29,35.828 l 614.07,0"
             id="path24"
             style="fill:#050606;fill-opacity:1;fill-rule:nonzero;stroke:none" /><g
             transform="scale(10,10)"
             id="g26"><text
               transform="matrix(1,0,0,-1,51.4438,66.652)"
               id="text28"><tspan
                 x="0 14.616199 20.280199 25.896198 36.504101 658.37402 671.47803 684.65399"
                 y="0"
                 id="tspan30"
                 style="font-size:24px;font-variant:normal;font-weight:normal;writing-mode:lr-tb;fill:#231f20;fill-opacity:1;fill-rule:nonzero;stroke:none;font-family:MyriadPro;-inkscape-font-specification:MyriadPro-Regular">AliceBob</tspan></text>
</g><path
             d="m 1493.13,1053.8 5079.74,0"
             id="path32"
             style="fill:none;stroke:#f03747;stroke-width:30;stroke-linecap:butt;stroke-linejoin:miter;stroke-miterlimit:10;stroke-opacity:1;stroke-dasharray:none" /><path
             d="m 1402.6,1053.8 c 42.6,-15.81 95.45,-42.77 128.21,-71.339 l -25.8,71.339 25.8,71.32 c -32.76,-28.56 -85.61,-55.53 -128.21,-71.32"
             id="path34"
             style="fill:#f03747;fill-opacity:1;fill-rule:nonzero;stroke:none" /><path
             d="m 6663.4,1053.8 c -42.6,-15.81 -95.45,-42.77 -128.21,-71.339 l 25.8,71.339 -25.8,71.32 c 32.76,-28.56 85.61,-55.53 128.21,-71.32"
             id="path36"
             style="fill:#f03747;fill-opacity:1;fill-rule:nonzero;stroke:none" /><path
             d="m 1493.13,771.492 5079.74,0"
             id="path38"
             style="fill:none;stroke:#334da8;stroke-width:30;stroke-linecap:butt;stroke-linejoin:miter;stroke-miterlimit:10;stroke-opacity:1;stroke-dasharray:none" /><path
             d="m 1402.6,771.492 c 42.6,-15.804 95.45,-42.773 128.21,-71.34 l -25.8,71.34 25.8,71.324 C 1498.05,814.25 1445.2,787.281 1402.6,771.492"
             id="path40"
             style="fill:#334da8;fill-opacity:1;fill-rule:nonzero;stroke:none" /><path
             d="m 6663.4,771.492 c -42.6,-15.804 -95.45,-42.773 -128.21,-71.34 l 25.8,71.34 -25.8,71.324 c 32.76,-28.566 85.61,-55.535 128.21,-71.324"
             id="path42"
             style="fill:#334da8;fill-opacity:1;fill-rule:nonzero;stroke:none" /><path
             d="m 1493.13,486.879 5079.74,0"
             id="path44"
             style="fill:none;stroke:#54bf36;stroke-width:30;stroke-linecap:butt;stroke-linejoin:miter;stroke-miterlimit:10;stroke-opacity:1;stroke-dasharray:none" /><path
             d="m 1402.6,486.879 c 42.6,-15.809 95.45,-42.777 128.21,-71.34 l -25.8,71.34 25.8,71.32 c -32.76,-28.558 -85.61,-55.527 -128.21,-71.32"
             id="path46"
             style="fill:#54bf36;fill-opacity:1;fill-rule:nonzero;stroke:none" /><path
             d="m 6663.4,486.879 c -42.6,-15.809 -95.45,-42.777 -128.21,-71.34 l 25.8,71.34 -25.8,71.32 c 32.76,-28.558 85.61,-55.527 128.21,-71.32"
             id="path48"
             style="fill:#54bf36;fill-opacity:1;fill-rule:nonzero;stroke:none" /><path
             d="m 1604.68,199.488 4856.63,0"
             id="path50"
             style="fill:none;stroke:#f7a219;stroke-width:30;stroke-linecap:butt;stroke-linejoin:miter;stroke-miterlimit:10;stroke-opacity:1;stroke-dasharray:none" /><path
             d="m 1514.15,199.488 c 42.6,-15.797 95.45,-42.769 128.21,-71.328 l -25.8,71.328 25.8,71.332 c -32.76,-28.57 -85.61,-55.539 -128.21,-71.332"
             id="path52"
             style="fill:#f7a219;fill-opacity:1;fill-rule:nonzero;stroke:none" /><path
             d="m 6551.84,199.488 c -42.6,-15.797 -95.45,-42.769 -128.21,-71.328 l 25.8,71.328 -25.8,71.332 c 32.76,-28.57 85.61,-55.539 128.21,-71.332"
             id="path54"
             style="fill:#f7a219;fill-opacity:1;fill-rule:nonzero;stroke:none" /><path
             d="m 1842.88,884.215 0,31.531 c 30.76,5.774 31.9,39.152 22.54,56.418 l -15.38,-16.91 -13.26,16.91 -12.4,-16.91 -15.82,16.91 c -9.1,-16.797 -8.43,-50.605 22.54,-56.418 l 0,-55.641 16.69,0 c 20.36,0 36.87,16.508 36.87,36.872 l 0,28.847 -41.78,-41.609 z m -22.94,-23.57 c -17.38,2.972 -30.62,18.101 -30.62,36.332 l 0,28.847 30.62,-30.492 0,-34.687 z m 153.16,158.235 -272.22,0 0,-205.485 272.22,0 0,205.485 z m -26.43,-26.435 0,-152.621 -219.36,0 0,152.621 219.36,0"
             id="path56"
             style="fill:#050606;fill-opacity:1;fill-rule:nonzero;stroke:none" /><path
             d="m 1897.32,588.66 0,-32.972 -120.66,0 0,32.972 -25.3,0 0,-58.269 171.26,0 0,58.269 -25.3,0 z m -20.96,58.442 33.53,0 -72.9,-73.02 -72.9,73.02 33.53,0 0,91.746 78.74,0 0,-91.746"
             id="path58"
             style="fill:#050606;fill-opacity:1;fill-rule:nonzero;stroke:none" /><path
             d="m 1882.08,377.629 c 13.82,-13.848 22.33,-32.957 22.3,-54.059 -0.03,-21.101 -8.63,-40.211 -22.48,-54.031 l 13.41,-13.449 c 17.29,17.25 28.02,41.109 28.06,67.461 0.04,26.347 -10.59,50.187 -27.83,67.48 l -13.46,-13.402 z m -22.97,-22.891 c 7.95,-7.976 12.86,-18.976 12.84,-31.136 -0.01,-12.153 -4.95,-23.141 -12.93,-31.09 l 13.08,-13.133 c 11.33,11.301 18.36,26.941 18.38,44.203 0.03,17.27 -6.95,32.906 -18.24,44.238 l -13.13,-13.082 z m -91.03,13.25 0,-88.867 71.22,-41.012 0,170.891 -71.22,-41.012 z m -16.57,-85.207 -30.4,0 c -8.14,0 -14.74,6.598 -14.74,14.739 l 0,52.082 c 0,8.136 6.6,14.738 14.74,14.738 l 30.4,0 0,-81.559"
             id="path60"
             style="fill:#050606;fill-opacity:1;fill-rule:nonzero;stroke:none" /><path
             d="m 1947.67,1163.36 c 0,6.43 -5.23,11.64 -11.67,11.64 -6.45,0 -11.68,-5.21 -11.68,-11.64 0,-6.43 5.23,-11.65 11.68,-11.65 6.44,0 11.67,5.22 11.67,11.65 z m -34.38,0 c 0,6.43 -5.23,11.64 -11.68,11.64 -6.45,0 -11.67,-5.21 -11.67,-11.64 0,-6.43 5.22,-11.65 11.67,-11.65 6.45,0 11.68,5.22 11.68,11.65 z m -34.81,0 c 0,6.43 -5.23,11.64 -11.68,11.64 -6.44,0 -11.67,-5.21 -11.67,-11.64 0,-6.43 5.23,-11.65 11.67,-11.65 6.45,0 11.68,5.22 11.68,11.65 z m 105.91,-84.63 c -18.42,3.36 -44.6,10.76 -56.48,18.08 -65.39,-16.01 -113.04,24.28 -113.04,67.42 0,41.43 40.36,71.34 84.95,71.34 44.87,0 84.95,-30.13 84.95,-71.34 0,-14.62 -5.23,-28.96 -14.49,-40.1 -0.39,-13.05 7.24,-31.76 14.11,-45.4 z m -191.54,70.52 c -0.02,0 -0.04,0 -0.06,0.01 -17.26,-10.64 -55.31,-21.4 -82.07,-26.27 9.98,19.81 21.07,47.01 20.5,65.97 -13.45,16.18 -21.05,37.04 -21.05,58.27 0,59.88 58.24,103.66 123.44,103.66 64.8,0 123.45,-43.45 123.45,-103.66 0,-0.85 -0.02,-1.71 -0.05,-2.56 -7.52,4.06 -15.67,7.36 -24.41,9.79 -4.57,40.56 -47.21,72.46 -98.99,72.46 -54.81,0 -99.4,-35.75 -99.4,-79.69 0,-23.12 10,-37.67 24.12,-52.03 -2.87,-21.31 -9.76,-39.84 -9.76,-39.84 0,0 20.35,5.37 43.49,18.84 -0.98,-8.45 -0.71,-16.77 0.79,-24.95"
             id="path62"
             style="fill:#050606;fill-opacity:1;fill-rule:nonzero;stroke:none" /><g
             transform="scale(10,10)"
             id="g64"><text
               transform="matrix(1,0,0,-1,225.261,110.914)"
               id="text66"><tspan
                 x="0 11.988 20.591999 26.549999 35.226002 45.666 55.655998 64.332001 74.321999 84.311996 93.330002 97.578003 101.394 110.628 118.26 123.786 127.602 137.84419 147.7262 157.8782 166.89619 174.96021 178.6862 182.5022 190.56619 200.5562 209.15974"
                 y="0"
                 id="tspan68"
                 style="font-size:18px;font-variant:normal;font-weight:normal;writing-mode:lr-tb;fill:#231f20;fill-opacity:1;fill-rule:nonzero;stroke:none;font-family:MyriadPro;-inkscape-font-specification:MyriadPro-Regular">DataChannel 1 - Codec: chat</tspan><tspan
                 x="0 11.988 20.591999 26.549999 35.226002 45.666 55.655998 64.332001 74.321999 84.311996 93.330002 97.578003 101.394 110.628 118.26 123.786 127.602 137.84419 147.7262 157.8782 166.89619 174.96021 178.6862 182.5022 186.7142 201.7262 210.40219 220.4642"
                 y="28.615999"
                 id="tspan70"
                 style="font-size:18px;font-variant:normal;font-weight:normal;writing-mode:lr-tb;fill:#231f20;fill-opacity:1;fill-rule:nonzero;stroke:none;font-family:MyriadPro;-inkscape-font-specification:MyriadPro-Regular">DataChannel 2 - Codec: image</tspan><tspan
                 x="0 11.988 20.591999 26.549999 35.226002 45.666 55.655998 64.332001 74.321999 84.311996 93.330002 97.578003 101.394 110.628 118.26 123.786 127.602 137.84419 147.7262 157.8782 166.89619 174.96021 178.6862 182.5022 191.9162 196.1642"
                 y="56.813999"
                 id="tspan72"
                 style="font-size:18px;font-variant:normal;font-weight:normal;writing-mode:lr-tb;fill:#231f20;fill-opacity:1;fill-rule:nonzero;stroke:none;font-family:MyriadPro;-inkscape-font-specification:MyriadPro-Regular">DataChannel 3 - Codec: fle</tspan><tspan
                 x="0 11.988 20.591999 26.549999 35.226002 45.666 55.655998 64.332001 74.321999 84.311996 93.330002 97.578003 101.394 110.628 118.26 123.786 127.602 137.84419 147.7262 157.8782 166.89619 174.96021 178.6862 182.5022 190.97974 200.86172 205.07373 213.02977"
                 y="84.591003"
                 id="tspan74"
                 style="font-size:18px;font-variant:normal;font-weight:normal;writing-mode:lr-tb;fill:#231f20;fill-opacity:1;fill-rule:nonzero;stroke:none;font-family:MyriadPro;-inkscape-font-specification:MyriadPro-Regular">DataChannel 4 - Codec: voice</tspan></text>
</g><path
             d="m 5379.53,640.77 c 0,348.363 79.21,630.77 176.93,630.77 97.71,0 176.92,-282.407 176.92,-630.77 0,-348.36 -79.21,-630.77 -176.92,-630.77 -97.72,0 -176.93,282.41 -176.93,630.77 z"
             id="path76"
             style="fill:none;stroke:#231f20;stroke-width:20;stroke-linecap:butt;stroke-linejoin:miter;stroke-miterlimit:10;stroke-opacity:1;stroke-dasharray:none" /><g
             transform="scale(10,10)"
             id="g78"><text
               transform="matrix(1,0,0,-1,494.492,138.337)"
               id="text80"><tspan
                 x="0 9.1264877 18.144487 27.162487 33.048489 43.290688 53.172688 63.162685 73.152687 82.170685 90.468033 96.426033 100.63804 110.52003"
                 y="0"
                 id="tspan82"
                 style="font-size:18px;font-variant:normal;font-weight:normal;writing-mode:lr-tb;fill:#231f20;fill-opacity:1;fill-rule:nonzero;stroke:none;font-family:MyriadPro;-inkscape-font-specification:MyriadPro-Regular">PeerConnection</tspan></text>
</g></g></g></g></g></svg>