<?xml version="1.0" encoding="UTF-8" standalone="no"?>
<!DOCTYPE svg PUBLIC "-//W3C//DTD SVG 1.1//EN"
 "http://www.w3.org/Graphics/SVG/1.1/DTD/svg11.dtd">
<!-- Generated by graphviz version 2.36.0 (20140111.2315)
 -->
<!-- Title: codecmap Pages: 1 -->
<svg width="490pt" height="206pt"
 viewBox="0.00 0.00 490.00 206.00" xmlns="http://www.w3.org/2000/svg" xmlns:xlink="http://www.w3.org/1999/xlink">
<g id="graph0" class="graph" transform="scale(1 1) rotate(0) translate(4 202)">
<title>codecmap</title>
<polygon fill="white" stroke="none" points="-4,4 -4,-202 486,-202 486,4 -4,4"/>
<!-- alice1 -->
<g id="node1" class="node"><title>alice1</title>
<ellipse fill="none" stroke="black" cx="192" cy="-72" rx="27.8951" ry="18"/>
<text text-anchor="middle" x="192" y="-68.3" font-family="Times,serif" font-size="14.00">alice</text>
</g>
<!-- bob1 -->
<g id="node3" class="node"><title>bob1</title>
<ellipse fill="none" stroke="black" cx="297" cy="-126" rx="27" ry="18"/>
<text text-anchor="middle" x="297" y="-122.3" font-family="Times,serif" font-size="14.00">bob</text>
</g>
<!-- alice1&#45;&gt;bob1 -->
<g id="edge2" class="edge"><title>alice1&#45;&gt;bob1</title>
<path fill="none" stroke="black" d="M214.342,-83.1888C229.316,-91.0394 249.542,-101.643 266.118,-110.334"/>
<polygon fill="black" stroke="black" points="264.907,-113.65 275.389,-115.194 268.157,-107.451 264.907,-113.65"/>
<text text-anchor="middle" x="244" y="-103.8" font-family="Times,serif" font-size="14.00">to</text>
</g>
<!-- carol1 -->
<g id="node5" class="node"><title>carol1</title>
<ellipse fill="none" stroke="black" cx="297" cy="-72" rx="28.6953" ry="18"/>
<text text-anchor="middle" x="297" y="-68.3" font-family="Times,serif" font-size="14.00">carol</text>
</g>
<!-- alice1&#45;&gt;carol1 -->
<g id="edge5" class="edge"><title>alice1&#45;&gt;carol1</title>
<path fill="none" stroke="black" d="M220.062,-72C231.703,-72 245.514,-72 258.144,-72"/>
<polygon fill="black" stroke="black" points="258.402,-75.5001 268.402,-72 258.402,-68.5001 258.402,-75.5001"/>
<text text-anchor="middle" x="244" y="-75.8" font-family="Times,serif" font-size="14.00">to</text>
</g>
<!-- alice2 -->
<g id="node2" class="node"><title>alice2</title>
<ellipse fill="none" stroke="black" cx="297" cy="-18" rx="27.8951" ry="18"/>
<text text-anchor="middle" x="297" y="-14.3" font-family="Times,serif" font-size="14.00">alice</text>
</g>
<!-- file2 -->
<g id="node7" class="node"><title>file2</title>
<ellipse fill="none" stroke="black" cx="453" cy="-18" rx="27" ry="18"/>
<text text-anchor="middle" x="453" y="-14.3" font-family="Times,serif" font-size="14.00">file</text>
</g>
<!-- alice2&#45;&gt;file2 -->
<g id="edge9" class="edge"><title>alice2&#45;&gt;file2</title>
<path fill="none" stroke="black" d="M325.178,-18C350.368,-18 388.026,-18 415.765,-18"/>
<polygon fill="black" stroke="black" points="415.864,-21.5001 425.864,-18 415.864,-14.5001 415.864,-21.5001"/>
<text text-anchor="middle" x="375" y="-21.8" font-family="Times,serif" font-size="14.00">with codec</text>
</g>
<!-- file1 -->
<g id="node6" class="node"><title>file1</title>
<ellipse fill="none" stroke="black" cx="453" cy="-180" rx="27" ry="18"/>
<text text-anchor="middle" x="453" y="-176.3" font-family="Times,serif" font-size="14.00">file</text>
</g>
<!-- bob1&#45;&gt;file1 -->
<g id="edge3" class="edge"><title>bob1&#45;&gt;file1</title>
<path fill="none" stroke="black" d="M320.323,-135.632C327.8,-138.748 336.215,-142.136 344,-145 368.592,-154.048 396.768,-163.137 418.174,-169.785"/>
<polygon fill="black" stroke="black" points="417.206,-173.149 427.794,-172.75 419.268,-166.46 417.206,-173.149"/>
<text text-anchor="middle" x="375" y="-168.8" font-family="Times,serif" font-size="14.00">with codec</text>
</g>
<!-- plain -->
<g id="node10" class="node"><title>plain</title>
<ellipse fill="none" stroke="black" cx="453" cy="-126" rx="28.6953" ry="18"/>
<text text-anchor="middle" x="453" y="-122.3" font-family="Times,serif" font-size="14.00">plain</text>
</g>
<!-- bob1&#45;&gt;plain -->
<g id="edge4" class="edge"><title>bob1&#45;&gt;plain</title>
<path fill="none" stroke="black" d="M324.124,-126C348.778,-126 386.028,-126 413.974,-126"/>
<polygon fill="black" stroke="black" points="414.184,-129.5 424.184,-126 414.184,-122.5 414.184,-129.5"/>
<text text-anchor="middle" x="375" y="-129.8" font-family="Times,serif" font-size="14.00">with codec</text>
</g>
<!-- bob2 -->
<g id="node4" class="node"><title>bob2</title>
<ellipse fill="none" stroke="black" cx="192" cy="-18" rx="27" ry="18"/>
<text text-anchor="middle" x="192" y="-14.3" font-family="Times,serif" font-size="14.00">bob</text>
</g>
<!-- bob2&#45;&gt;alice2 -->
<g id="edge8" class="edge"><title>bob2&#45;&gt;alice2</title>
<path fill="none" stroke="black" d="M219.258,-18C231.203,-18 245.556,-18 258.601,-18"/>
<polygon fill="black" stroke="black" points="258.712,-21.5001 268.712,-18 258.712,-14.5001 258.712,-21.5001"/>
<text text-anchor="middle" x="244" y="-21.8" font-family="Times,serif" font-size="14.00">to</text>
</g>
<!-- chat1 -->
<g id="node8" class="node"><title>chat1</title>
<ellipse fill="none" stroke="black" cx="453" cy="-72" rx="27" ry="18"/>
<text text-anchor="middle" x="453" y="-68.3" font-family="Times,serif" font-size="14.00">chat</text>
</g>
<!-- carol1&#45;&gt;chat1 -->
<g id="edge6" class="edge"><title>carol1&#45;&gt;chat1</title>
<path fill="none" stroke="black" d="M325.888,-72C351.098,-72 388.361,-72 415.849,-72"/>
<polygon fill="black" stroke="black" points="415.86,-75.5001 425.86,-72 415.86,-68.5001 415.86,-75.5001"/>
<text text-anchor="middle" x="375" y="-75.8" font-family="Times,serif" font-size="14.00">with codec</text>
</g>
<!-- Codecmap -->
<g id="node9" class="node"><title>Codecmap</title>
<ellipse fill="none" stroke="black" cx="50" cy="-47" rx="49.2915" ry="18"/>
<text text-anchor="middle" x="50" y="-43.3" font-family="Times,serif" font-size="14.00">Codecmap</text>
</g>
<!-- Codecmap&#45;&gt;alice1 -->
<g id="edge1" class="edge"><title>Codecmap&#45;&gt;alice1</title>
<path fill="none" stroke="black" d="M94.9128,-54.8416C114.174,-58.2811 136.511,-62.2697 154.798,-65.5353"/>
<polygon fill="black" stroke="black" points="154.309,-69.0033 164.768,-67.3158 155.539,-62.1123 154.309,-69.0033"/>
<text text-anchor="middle" x="132" y="-66.8" font-family="Times,serif" font-size="14.00">from</text>
</g>
<!-- Codecmap&#45;&gt;bob2 -->
<g id="edge7" class="edge"><title>Codecmap&#45;&gt;bob2</title>
<path fill="none" stroke="black" d="M93.3845,-38.2203C113.349,-34.0849 136.882,-29.2103 155.839,-25.2834"/>
<polygon fill="black" stroke="black" points="156.766,-28.6657 165.848,-23.21 155.346,-21.8112 156.766,-28.6657"/>
<text text-anchor="middle" x="132" y="-35.8" font-family="Times,serif" font-size="14.00">from</text>
</g>
</g>
</svg>
