<?xml version="1.0" encoding="utf-8"?>
<!-- Generator: Adobe Illustrator 19.0.0, SVG Export Plug-In . SVG Version: 6.00 Build 0)  -->
<svg version="1.1" id="Ebene_1" xmlns="http://www.w3.org/2000/svg" xmlns:xlink="http://www.w3.org/1999/xlink" x="0px" y="0px"
	 viewBox="0 0 378.4 285.3" style="enable-background:new 0 0 378.4 285.3;" xml:space="preserve">
<style type="text/css">
	.st0{fill:none;stroke:#514F58;stroke-width:4;stroke-miterlimit:10;}
	.st1{fill:#514F58;}
	.st2{fill:#010202;}
</style>
<g id="XMLID_13_">
	<g id="XMLID_27_">
		<line id="XMLID_32_" class="st0" x1="88" y1="135.5" x2="290.4" y2="135.5"/>
		<g id="XMLID_30_">
			<path id="XMLID_31_" class="st1" d="M75.9,135.5c5.7,2.1,12.7,5.7,17.1,9.5l-3.4-9.5L93,126C88.6,129.8,81.6,133.4,75.9,135.5z"
				/>
		</g>
		<g id="XMLID_28_">
			<path id="XMLID_29_" class="st1" d="M302.5,135.5c-5.7,2.1-12.7,5.7-17.1,9.5l3.4-9.5l-3.4-9.5
				C289.8,129.8,296.8,133.4,302.5,135.5z"/>
		</g>
	</g>
</g>
<g id="XMLID_14_">
	<g id="XMLID_34_">
		<line id="XMLID_39_" class="st0" x1="189.9" y1="218" x2="189.9" y2="67.3"/>
		<g id="XMLID_37_">
			<path id="XMLID_38_" class="st1" d="M189.9,230.1c2.1-5.7,5.7-12.7,9.5-17.1l-9.5,3.4l-9.5-3.4
				C184.2,217.4,187.8,224.4,189.9,230.1z"/>
		</g>
		<g id="XMLID_35_">
			<path id="XMLID_36_" class="st1" d="M189.9,55.2c2.1,5.7,5.7,12.7,9.5,17.1l-9.5-3.4l-9.5,3.4C184.2,67.9,187.8,60.9,189.9,55.2z
				"/>
		</g>
	</g>
</g>
<g id="XMLID_15_">
	<g id="XMLID_50_">
		<line id="XMLID_55_" class="st0" x1="51" y1="105.2" x2="146.1" y2="30.2"/>
		<g id="XMLID_53_">
			<path id="XMLID_54_" class="st1" d="M41.5,112.7c5.8-1.9,13.5-3.4,19.3-3.1l-8.6-5.3L49,94.7C48,100.4,44.7,107.6,41.5,112.7z"/>
		</g>
		<g id="XMLID_51_">
			<path id="XMLID_52_" class="st1" d="M155.5,22.8c-3.2,5.2-6.5,12.4-7.5,18.1l-3.2-9.6l-8.6-5.3C142,26.2,149.8,24.6,155.5,22.8z"
				/>
		</g>
	</g>
</g>
<g id="XMLID_16_">
	<g id="XMLID_58_">
		<line id="XMLID_63_" class="st0" x1="233.4" y1="30.7" x2="322.9" y2="109.6"/>
		<g id="XMLID_61_">
			<path id="XMLID_62_" class="st1" d="M224.4,22.8c2.9,5.3,5.8,12.7,6.5,18.4l3.7-9.4l8.9-4.9C237.7,26.9,230,24.9,224.4,22.8z"/>
		</g>
		<g id="XMLID_59_">
			<path id="XMLID_60_" class="st1" d="M332,117.6c-5.7-2.2-13.3-4.1-19.1-4.2l8.9-4.9l3.7-9.4C326.2,104.9,329.1,112.2,332,117.6z"
				/>
		</g>
	</g>
</g>
<g id="XMLID_17_">
	<g id="XMLID_66_">
		<line id="XMLID_71_" class="st0" x1="327.1" y1="179.8" x2="234.2" y2="245.8"/>
		<g id="XMLID_69_">
			<path id="XMLID_70_" class="st1" d="M336.9,172.8c-5.8,1.6-13.7,2.7-19.4,2.2l8.3,5.8l2.7,9.7
				C329.9,184.8,333.5,177.8,336.9,172.8z"/>
		</g>
		<g id="XMLID_67_">
			<path id="XMLID_68_" class="st1" d="M224.4,252.8c3.4-5,7.1-12,8.4-17.7l2.7,9.7l8.3,5.8C238,250.1,230.2,251.3,224.4,252.8z"/>
		</g>
	</g>
</g>
<g id="XMLID_18_">
	<g id="XMLID_42_">
		<line id="XMLID_47_" class="st0" x1="145.8" y1="245.6" x2="51.2" y2="175.1"/>
		<g id="XMLID_45_">
			<path id="XMLID_46_" class="st1" d="M155.5,252.8c-3.3-5.1-6.8-12.2-8-17.8l-2.9,9.7l-8.4,5.6
				C141.9,249.8,149.7,251.1,155.5,252.8z"/>
		</g>
		<g id="XMLID_43_">
			<path id="XMLID_44_" class="st1" d="M41.5,167.9c5.8,1.7,13.6,3,19.4,2.6l-8.4,5.6l-2.9,9.7C48.3,180.1,44.8,173,41.5,167.9z"/>
		</g>
	</g>
</g>
<path id="laptop-4-icon" class="st2" d="M83,161.3v2.6c0,2.2-1.8,4-4,4H4c-2.2,0-4-1.8-4-4v-2.6h33.7c0.3,1.2,1.4,2,2.7,2h10.3
	c1.3,0,2.4-0.7,2.7-2H83z M70.5,118.2h-58v34.7h58L70.5,118.2 M75.9,158.3H7.1v-41.5c0-2.2,1.8-4,4-4h60.8c2.2,0,4,1.8,4,4V158.3z"
	/>
<path id="laptop-4-icon_1_" class="st2" d="M231.4,278.6v2.6c0,2.2-1.8,4-4,4h-74.9c-2.2,0-4-1.8-4-4v-2.6h33.7c0.3,1.2,1.4,2,2.7,2
	h10.3c1.3,0,2.4-0.7,2.7-2H231.4z M218.9,235.5h-58v34.7h58L218.9,235.5 M224.4,275.6h-68.8v-41.5c0-2.2,1.8-4,4-4h60.8
	c2.2,0,4,1.8,4,4V275.6z"/>
<path id="laptop-4-icon_2_" class="st2" d="M378.4,166.1v2.6c0,2.2-1.8,4-4,4h-74.9c-2.2,0-4-1.8-4-4v-2.6h33.7c0.3,1.2,1.4,2,2.7,2
	h10.3c1.3,0,2.4-0.7,2.7-2H378.4z M365.9,123h-58v34.7h58L365.9,123 M371.3,163.1h-68.8v-41.5c0-2.2,1.8-4,4-4h60.8c2.2,0,4,1.8,4,4
	V163.1z"/>
<path id="laptop-4-icon_3_" class="st2" d="M231.4,48.6v2.6c0,2.2-1.8,4-4,4h-74.9c-2.2,0-4-1.8-4-4v-2.6h33.7c0.3,1.2,1.4,2,2.7,2
	h10.3c1.3,0,2.4-0.7,2.7-2H231.4z M218.9,5.4h-58v34.7h58L218.9,5.4 M224.4,45.5h-68.8V4c0-2.2,1.8-4,4-4h60.8c2.2,0,4,1.8,4,4V45.5
	z"/>
</svg>
