<?xml version="1.0" encoding="utf-8"?>
<!-- Generator: Adobe Illustrator 19.0.0, SVG Export Plug-In . SVG Version: 6.00 Build 0)  -->
<svg version="1.1" id="Ebene_1" xmlns="http://www.w3.org/2000/svg" xmlns:xlink="http://www.w3.org/1999/xlink" x="0px" y="0px"
	 viewBox="-214 161.3 412 240.8" style="enable-background:new -214 161.3 412 240.8;" xml:space="preserve">
<path id="laptop-4-icon" d="M135.8,188.3H-150c-1,0-1.8,0.8-1.8,1.8v168.3c0,1,0.8,1.8,1.8,1.8h284c1,0,1.8-0.8,1.8-1.8L135.8,188.3
	 M162.8,387.3H-177c-1,0-1.8-0.8-1.8-1.8V183.1c0-12,9.8-21.8,21.8-21.8h298c12,0,21.8,9.8,21.8,21.8v204.2H162.8z"/>
<path d="M198.1,390.7v3.4c0,4.4-9.8,8-21.8,8h-368.3c-12,0-21.8-3.6-21.8-8v-3.4c0-0.4,0.8-0.7,1.8-0.7h163.9c0.8,0,1.5,0.2,1.7,0.4
	c1.8,2,7,3.1,13.1,3.1h51c6.1,0,11.3-1.1,13.1-3.1c0.2-0.3,0.9-0.5,1.7-0.5h163.9C197.2,390,198.1,390.3,198.1,390.7z"/>
<rect x="-159.5" y="179.3" width="303" height="190"/>
</svg>
