<?xml version="1.0" encoding="utf-8"?>
<!-- Generator: Adobe Illustrator 19.0.0, SVG Export Plug-In . SVG Version: 6.00 Build 0)  -->
<svg version="1.1" id="Ebene_1" xmlns="http://www.w3.org/2000/svg" xmlns:xlink="http://www.w3.org/1999/xlink" x="0px" y="0px"
	 viewBox="-481 233.2 335.3 354.8" style="enable-background:new -481 233.2 335.3 354.8;" xml:space="preserve">
<style type="text/css">
	.st0{fill:#E23237;}
	.st1{fill:#294999;}
	.st2{fill:#3556A3;}
	.st3{fill:none;}
	.st4{fill:#FFFFFF;}
	.st5{font-family:'PTMono-Bold';}
	.st6{font-size:155px;}
	.st7{letter-spacing:33.5;}
	.st8{letter-spacing:56.6;}
</style>
<g id="shield-large">
	<g id="Imported-Layers" transform="translate(8.000000, 11.000000)">
		<path id="Fill-1" class="st0" d="M-323,222.2L-323,222.2L-488.8,281l25.2,218.5l140.2,77.6l142.2-78.6l27.7-218.4L-323,222.2"/>
		<path id="Fill-2" class="st1" d="M-153.7,280l-169.7-57.8V577l142.2-78.6L-153.7,280L-153.7,280z"/>
		<path id="Fill-3" class="st2" d="M-489,281l25.3,218.5l140.3,77.6V222.2L-489,281L-489,281z"/>
		<rect x="-496" y="213.6" class="st3" width="353" height="372"/>
	</g>
</g>
<rect x="-732" y="459.2" class="st3" width="352.9" height="132"/>
<text transform="matrix(1.1656 0 0 1 -441.9648 455.1606)" class="st4 st5 st6 st7">W</text>
<text transform="matrix(1.1656 0 0 1 -292.7676 455.1606)" class="st4 st5 st6 st8">2</text>
</svg>
