<?xml version="1.0" encoding="utf-8"?>
<!-- Generator: Adobe Illustrator 19.0.0, SVG Export Plug-In . SVG Version: 6.00 Build 0)  -->
<svg version="1.1"
	 id="Ebene_1" marker-end="none" pointer-events="visiblepainted" marker-mid="none" marker-start="none" color-interpolation="srgb" image-rendering="auto" text-rendering="auto" color-rendering="auto" shape-rendering="auto"
	 xmlns="http://www.w3.org/2000/svg" xmlns:xlink="http://www.w3.org/1999/xlink" x="0px" y="0px" viewBox="55 31.3 951 533"
	 style="enable-background:new 55 31.3 951 533;" xml:space="preserve">
<style type="text/css">
	.st0{clip-path:url(#SVGID_2_);fill:#FFFFFF;}
	.st1{clip-path:url(#SVGID_6_);enable-background:new    ;}
	.st2{font-family:'Helvetica';}
	.st3{font-size:12px;}
	.st4{clip-path:url(#SVGID_10_);enable-background:new    ;}
	.st5{clip-path:url(#SVGID_12_);enable-background:new    ;}
	.st6{clip-path:url(#SVGID_14_);}
	.st7{fill:url(#SVGID_15_);}
	.st8{fill:url(#SVGID_16_);}
	.st9{fill:#515151;}
	.st10{opacity:0.43;fill:#565656;enable-background:new    ;}
	.st11{opacity:0.43;fill:none;stroke:#4D4D4D;stroke-width:9.990000e-02;stroke-miterlimit:10;enable-background:new    ;}
	.st12{opacity:0.43;fill:#565656;stroke:#4D4D4D;stroke-width:1.350000e-02;stroke-miterlimit:10;enable-background:new    ;}
	.st13{fill:#E7ED00;stroke:#717171;stroke-width:0.1926;stroke-miterlimit:10;}
	.st14{fill:#C8FF00;stroke:#717171;stroke-width:0.1926;stroke-miterlimit:10;}
	.st15{fill:url(#SVGID_17_);}
	.st16{opacity:0.17;fill:#FFFFFF;enable-background:new    ;}
	.st17{clip-path:url(#SVGID_19_);enable-background:new    ;}
	.st18{clip-path:url(#SVGID_21_);enable-background:new    ;}
	.st19{clip-path:url(#SVGID_23_);enable-background:new    ;}
	.st20{clip-path:url(#SVGID_25_);}
	.st21{fill:url(#SVGID_26_);}
	.st22{fill:url(#SVGID_27_);}
	.st23{fill:url(#SVGID_28_);}
	.st24{clip-path:url(#SVGID_30_);enable-background:new    ;}
	.st25{clip-path:url(#SVGID_34_);enable-background:new    ;}
	.st26{clip-path:url(#SVGID_38_);enable-background:new    ;}
	.st27{clip-path:url(#SVGID_40_);enable-background:new    ;}
	.st28{clip-path:url(#SVGID_42_);}
	.st29{clip-path:url(#SVGID_44_);fill:none;stroke:#000000;stroke-miterlimit:1.45;}
	.st30{clip-path:url(#SVGID_46_);}
	.st31{clip-path:url(#SVGID_48_);fill:none;stroke:#000000;stroke-miterlimit:1.45;}
	.st32{clip-path:url(#SVGID_50_);}
	.st33{clip-path:url(#SVGID_52_);fill:none;stroke:#000000;stroke-miterlimit:1.45;}
	.st34{clip-path:url(#SVGID_54_);}
	.st35{clip-path:url(#SVGID_56_);fill:none;stroke:#000000;stroke-miterlimit:1.45;}
	.st36{clip-path:url(#SVGID_58_);fill:none;stroke:#000000;stroke-miterlimit:1.45;}
	.st37{clip-path:url(#SVGID_60_);fill:none;stroke:#000000;stroke-miterlimit:1.45;}
	.st38{clip-path:url(#SVGID_62_);enable-background:new    ;}
	.st39{clip-path:url(#SVGID_64_);fill:none;stroke:#000000;stroke-miterlimit:1.45;}
	.st40{clip-path:url(#SVGID_66_);enable-background:new    ;}
	.st41{clip-path:url(#SVGID_68_);fill:none;stroke:#000000;stroke-miterlimit:1.45;}
	.st42{clip-path:url(#SVGID_70_);fill:none;stroke:#000000;stroke-miterlimit:1.45;}
	
		.st43{clip-path:url(#SVGID_72_);fill:none;stroke:#999999;stroke-linecap:round;stroke-miterlimit:1.45;stroke-dasharray:0,4;stroke-dashoffset:2;}
	.st44{clip-path:url(#SVGID_74_);fill:none;stroke:#000000;stroke-miterlimit:1.45;}
	.st45{clip-path:url(#SVGID_76_);}
	.st46{clip-path:url(#SVGID_78_);enable-background:new    ;}
	.st47{clip-path:url(#SVGID_80_);fill:none;stroke:#000000;stroke-miterlimit:1.45;}
	.st48{clip-path:url(#SVGID_82_);enable-background:new    ;}
	.st49{clip-path:url(#SVGID_84_);fill:none;stroke:#000000;stroke-miterlimit:1.45;}
	.st50{clip-path:url(#SVGID_86_);}
	.st51{clip-path:url(#SVGID_88_);enable-background:new    ;}
	.st52{clip-path:url(#SVGID_90_);fill:none;stroke:#000000;stroke-miterlimit:1.45;}
	.st53{clip-path:url(#SVGID_92_);}
	.st54{clip-path:url(#SVGID_94_);enable-background:new    ;}
	.st55{clip-path:url(#SVGID_96_);}
	.st56{clip-path:url(#SVGID_98_);}
	
		.st57{clip-path:url(#SVGID_100_);fill:none;stroke:#000000;stroke-width:4;stroke-linecap:round;stroke-miterlimit:1.45;stroke-dasharray:0,16;stroke-dashoffset:2;}
	.st58{clip-path:url(#SVGID_102_);enable-background:new    ;}
	.st59{clip-path:url(#SVGID_104_);fill:none;stroke:#000000;stroke-miterlimit:1.45;}
	.st60{clip-path:url(#SVGID_106_);}
	.st61{clip-path:url(#SVGID_108_);enable-background:new    ;}
	.st62{clip-path:url(#SVGID_110_);fill:none;stroke:#000000;stroke-miterlimit:1.45;}
	.st63{clip-path:url(#SVGID_112_);}
	.st64{clip-path:url(#SVGID_114_);enable-background:new    ;}
	.st65{clip-path:url(#SVGID_116_);fill:none;stroke:#000000;stroke-miterlimit:1.45;}
	.st66{clip-path:url(#SVGID_118_);}
	.st67{clip-path:url(#SVGID_120_);enable-background:new    ;}
	.st68{clip-path:url(#SVGID_122_);fill:none;stroke:#000000;stroke-miterlimit:1.45;}
	.st69{clip-path:url(#SVGID_124_);}
	.st70{clip-path:url(#SVGID_126_);enable-background:new    ;}
	.st71{clip-path:url(#SVGID_128_);fill:none;stroke:#000000;stroke-miterlimit:1.45;}
	.st72{clip-path:url(#SVGID_130_);}
	.st73{clip-path:url(#SVGID_132_);enable-background:new    ;}
	.st74{clip-path:url(#SVGID_134_);fill:none;stroke:#000000;stroke-miterlimit:1.45;}
	.st75{clip-path:url(#SVGID_136_);enable-background:new    ;}
</style>
<g>
	<g transform="translate(-67,-6)" text-rendering="geometricPrecision" shape-rendering="geometricPrecision">
		<g>
			<defs>
				<rect id="SVGID_1_" x="122" y="37.3" width="951" height="533"/>
			</defs>
			<clipPath id="SVGID_2_">
				<use xlink:href="#SVGID_1_"  style="overflow:visible;"/>
			</clipPath>
			<rect x="122" y="37.3" class="st0" width="951" height="533"/>
		</g>
	</g>
	<g transform="matrix(1,0,0,1,-67,-6)" text-rendering="geometricPrecision" shape-rendering="geometricPrecision">
		<g>
			<defs>
				<rect id="SVGID_3_" x="122" y="37.3" width="951" height="533"/>
			</defs>
			<clipPath id="SVGID_4_">
				<use xlink:href="#SVGID_3_"  style="overflow:visible;"/>
			</clipPath>
			<g style="clip-path:url(#SVGID_4_);enable-background:new    ;">
				
					<image style="overflow:visible;" width="512" height="512" xlink:href="1A9BBE5B2986E667.png"  transform="matrix(0.2734 0 0 0.2207 137 52.28)">
				</image>
			</g>
		</g>
		<g>
			<defs>
				<rect id="SVGID_5_" x="122" y="37.3" width="951" height="533"/>
			</defs>
			<clipPath id="SVGID_6_">
				<use xlink:href="#SVGID_5_"  style="overflow:visible;"/>
			</clipPath>
			<g class="st1">
				<text transform="matrix(1 0 0 1 195.7285 127.3086)" class="st2 st3">LAN</text>
			</g>
		</g>
		<g>
			<defs>
				<rect id="SVGID_7_" x="122" y="37.3" width="951" height="533"/>
			</defs>
			<clipPath id="SVGID_8_">
				<use xlink:href="#SVGID_7_"  style="overflow:visible;"/>
			</clipPath>
			<g transform="matrix(1 0 0 1 0 0)" style="clip-path:url(#SVGID_8_);enable-background:new    ;">
				
					<image style="overflow:visible;" width="512" height="512" xlink:href="1A9BBE5B2986E662.png"  transform="matrix(0.2129 0 0 0.1797 152 154.28)">
				</image>
			</g>
		</g>
		<g>
			<defs>
				<rect id="SVGID_9_" x="122" y="37.3" width="951" height="533"/>
			</defs>
			<clipPath id="SVGID_10_">
				<use xlink:href="#SVGID_9_"  style="overflow:visible;"/>
			</clipPath>
			<g class="st4">
				<text transform="matrix(1 0 0 1 184.5312 230.6449)" class="st2 st3">Client A</text>
			</g>
		</g>
		<g>
			<defs>
				<rect id="SVGID_11_" x="122" y="37.3" width="951" height="533"/>
			</defs>
			<clipPath id="SVGID_12_">
				<use xlink:href="#SVGID_11_"  style="overflow:visible;"/>
			</clipPath>
			<g class="st5">
				<text transform="matrix(1 0 0 1 171.4531 244.7777)" class="st2 st3">192.168.0.2</text>
			</g>
		</g>
	</g>
	
		<g transform="matrix(0.9412,0,0,1.4579,587.061,114.4731)" text-rendering="geometricPrecision" shape-rendering="geometricPrecision">
		<g>
			<defs>
				<rect id="SVGID_13_" x="-535.6" y="-140.8" width="951" height="533"/>
			</defs>
			<clipPath id="SVGID_14_">
				<use xlink:href="#SVGID_13_"  style="overflow:visible;"/>
			</clipPath>
			<g class="st6">
				
					<linearGradient id="SVGID_15_" gradientUnits="userSpaceOnUse" x1="-324.3942" y1="-232.3742" x2="-374.2364" y2="-232.3742" gradientTransform="matrix(0.9412 0 0 -1.4579 398.7328 -288.7808)">
					<stop  offset="0" style="stop-color:#4D4D4D"/>
					<stop  offset="1" style="stop-color:#8D8D8D"/>
				</linearGradient>
				<rect x="58.4" y="23.1" class="st7" width="35" height="53.7"/>
				
					<linearGradient id="SVGID_16_" gradientUnits="userSpaceOnUse" x1="-330.2346" y1="-232.3742" x2="-354.2176" y2="-232.3742" gradientTransform="matrix(0.9412 0 0 -1.4579 398.7328 -288.7808)">
					<stop  offset="3.190000e-02" style="stop-color:#848484"/>
					<stop  offset="0.1202" style="stop-color:#8C8C8C"/>
					<stop  offset="0.308" style="stop-color:#969696"/>
					<stop  offset="0.5394" style="stop-color:#999999"/>
					<stop  offset="0.5501" style="stop-color:#9C9C9C"/>
					<stop  offset="0.6256" style="stop-color:#B0B0B0"/>
					<stop  offset="0.7118" style="stop-color:#BEBEBE"/>
					<stop  offset="0.8178" style="stop-color:#C7C7C7"/>
					<stop  offset="1" style="stop-color:#C9C9C9"/>
				</linearGradient>
				<path class="st8" d="M63.9,23.1c7.9-1.3,16-1.3,24,0c0,17.9,0,35.8,0,53.7c-7.9,1.3-16,1.3-24,0C63.9,58.9,63.9,41,63.9,23.1z"
					/>
				<path class="st9" d="M63.9,36.8c8,0,16,0,24,0c0,13.3,0,26.7,0,40c-7.9,1.3-16,1.3-24,0C63.9,63.5,63.9,50.2,63.9,36.8z"/>
				<path class="st10" d="M63.9,26.9c8-0.6,16-0.6,24,0c0,2.7,0,5.4,0,8.1c-8,0-16,0-24,0C63.9,32.4,63.9,29.6,63.9,26.9z"/>
				<path class="st11" d="M63.9,26.9c8-0.6,16-0.6,24,0c0,2.7,0,5.4,0,8.1c-8,0-16,0-24,0C63.9,32.4,63.9,29.6,63.9,26.9z"/>
				<polygon class="st12" points="64.9,27.9 68.3,27.8 68.3,28.9 64.9,29 				"/>
				<rect x="89.7" y="24.7" class="st13" width="3.7" height="1.5"/>
				<rect x="89.7" y="28" class="st14" width="3.7" height="1.5"/>
				
					<linearGradient id="SVGID_17_" gradientUnits="userSpaceOnUse" x1="-537.6711" y1="291.3098" x2="-561.6121" y2="291.3098" gradientTransform="matrix(0.9412 0 0 -1.4579 593.933 482.02)">
					<stop  offset="0" style="stop-color:#808080"/>
					<stop  offset="0.1907" style="stop-color:#828282"/>
					<stop  offset="0.2955" style="stop-color:#8A8A8A"/>
					<stop  offset="0.3795" style="stop-color:#989898"/>
					<stop  offset="0.4524" style="stop-color:#ACACAC"/>
					<stop  offset="0.5175" style="stop-color:#C5C5C5"/>
					<stop  offset="0.5273" style="stop-color:#C9C9C9"/>
					<stop  offset="0.5914" style="stop-color:#C9C9C9"/>
					<stop  offset="0.9681" style="stop-color:#C9C9C9"/>
				</linearGradient>
				<path class="st15" d="M63.9,37c0,13.2,0,26.4,0,39.7c7.9,1.3,16,1.3,23.9,0c0-13.2,0-26.4,0-39.7C79.9,37,71.9,37,63.9,37z
					 M86.8,40.9c-0.7,0-1.5,0-2.2,0c0-1,0-1.9,0-2.8c0.7,0,1.5,0,2.2,0C86.8,39,86.8,40,86.8,40.9z M74.8,64.7c0-1,0-1.9,0-2.9
					c0.7,0,1.5,0,2.2,0c0,1,0,1.9,0,2.9C76.3,64.7,75.5,64.7,74.8,64.7z M77,65.8c0,1,0,1.9,0,2.9c-0.7,0-1.5,0-2.2,0
					c0-1,0-1.9,0-2.9C75.5,65.8,76.3,65.8,77,65.8z M77,49.9c0,1,0,1.9,0,2.9c-0.7,0-1.5,0-2.2,0c0-1,0-1.9,0-2.9
					C75.5,49.9,76.3,49.9,77,49.9z M74.8,48.9c0-1,0-1.9,0-2.9c0.7,0,1.5,0,2.2,0c0,1,0,1.9,0,2.9C76.3,48.9,75.5,48.9,74.8,48.9z
					 M74.8,56.8c0-1,0-1.9,0-2.9c0.7,0,1.5,0,2.2,0c0,1,0,1.9,0,2.9C76.3,56.8,75.5,56.8,74.8,56.8z M77,57.9c0,1,0,1.9,0,2.9
					c-0.7,0-1.5,0-2.2,0c0-1,0-1.9,0-2.9C75.5,57.9,76.3,57.9,77,57.9z M73.7,52.8c-0.7,0-1.5,0-2.2,0c0-1,0-1.9,0-2.9
					c0.7,0,1.5,0,2.2,0C73.7,50.9,73.7,51.9,73.7,52.8z M73.7,53.9c0,1,0,1.9,0,2.9c-0.7,0-1.5,0-2.2,0c0-1,0-1.9,0-2.9
					C72.3,53.9,73,53.9,73.7,53.9z M73.7,57.8c0,1,0,1.9,0,2.9c-0.7,0-1.5,0-2.2-0.1c0-1,0-1.9,0-2.9C72.3,57.8,73,57.8,73.7,57.8z
					 M73.7,61.8c0,1,0,1.9,0,2.9c-0.7,0-1.5,0-2.2-0.1c0-1,0-1.9,0-2.9C72.3,61.8,73,61.8,73.7,61.8z M78.1,61.8
					c0.7,0,1.5,0,2.2-0.1c0,1,0,1.9,0,2.9c-0.7,0-1.5,0.1-2.2,0.1C78.1,63.7,78.1,62.8,78.1,61.8z M78.1,60.7c0-1,0-1.9,0-2.9
					c0.7,0,1.5,0,2.2,0c0,1,0,1.9,0,2.9C79.6,60.7,78.8,60.7,78.1,60.7z M78.1,56.8c0-1,0-1.9,0-2.9c0.7,0,1.5,0,2.2,0
					c0,1,0,1.9,0,2.9C79.6,56.7,78.8,56.8,78.1,56.8z M78.1,52.8c0-1,0-1.9,0-2.9c0.7,0,1.5,0,2.2,0c0,1,0,1.9,0,2.9
					C79.6,52.8,78.8,52.8,78.1,52.8z M78.1,48.9c0-1,0-1.9,0-2.9c0.7,0,1.5,0,2.2,0c0,1,0,1.9,0,2.9C79.6,48.8,78.8,48.9,78.1,48.9z
					 M78.1,44.9c0-1,0-1.9,0-2.9c0.7,0,1.5,0,2.2,0c0,1,0,1.9,0,2.9C79.6,44.9,78.8,44.9,78.1,44.9z M77,44.9c-0.7,0-1.5,0-2.2,0
					c0-1,0-1.9,0-2.9c0.7,0,1.5,0,2.2,0C77,43,77,44,77,44.9z M73.7,44.9c-0.7,0-1.5,0-2.2,0c0-1,0-1.9,0-2.9c0.7,0,1.5,0,2.2,0
					C73.7,43,73.7,44,73.7,44.9z M73.7,46c0,1,0,1.9,0,2.9c-0.7,0-1.5,0-2.2,0c0-1,0-1.9,0-2.9C72.3,46,73,46,73.7,46z M70.5,48.8
					c-0.7,0-1.5,0-2.2-0.1c0-0.9,0-1.9,0-2.8c0.7,0,1.5,0,2.2,0C70.5,46.9,70.5,47.9,70.5,48.8z M70.5,49.9c0,1,0,1.9,0,2.9
					c-0.7,0-1.5,0-2.2-0.1c0-1,0-1.9,0-2.9C69,49.8,69.7,49.9,70.5,49.9z M70.5,53.8c0,1,0,1.9,0,2.9c-0.7,0-1.5-0.1-2.2-0.1
					c0-1,0-1.9,0-2.9C69,53.8,69.7,53.8,70.5,53.8z M70.5,57.8c0,1,0,1.9,0,2.9c-0.7,0-1.5-0.1-2.2-0.1c0-1,0-1.9,0-2.9
					C69,57.7,69.7,57.7,70.5,57.8z M70.5,61.7c0,1,0,1.9,0,2.9c-0.7,0-1.5-0.1-2.2-0.1c0-1,0-1.9,0-2.9C69,61.6,69.7,61.7,70.5,61.7
					z M70.5,65.6c0,1,0,1.9,0,2.9c-0.7,0-1.5-0.1-2.2-0.1c0-0.9,0-1.9,0-2.8C69,65.5,69.7,65.6,70.5,65.6z M71.5,65.7
					c0.7,0,1.5,0.1,2.2,0.1c0,1,0,1.9,0,2.9c-0.7,0-1.5,0-2.2-0.1C71.5,67.6,71.5,66.6,71.5,65.7z M73.7,69.7c0,1,0,1.9,0,2.9
					c-0.7,0-1.5,0-2.2-0.1c0-1,0-1.9,0-2.9C72.3,69.6,73,69.7,73.7,69.7z M74.8,69.7c0.7,0,1.5,0,2.2,0c0,1,0,1.9,0,2.9
					c-0.7,0-1.5,0-2.2,0C74.8,71.6,74.8,70.7,74.8,69.7z M78.1,69.7c0.7,0,1.5,0,2.2-0.1c0,1,0,1.9,0,2.9c-0.7,0-1.5,0.1-2.2,0.1
					C78.1,71.6,78.1,70.6,78.1,69.7z M78.1,68.6c0-1,0-1.9,0-2.9c0.7,0,1.5,0,2.2-0.1c0,1,0,1.9,0,2.9
					C79.6,68.6,78.8,68.6,78.1,68.6z M81.3,65.6c0.7,0,1.5-0.1,2.2-0.1c0,0.9,0,1.9,0,2.8c-0.7,0.1-1.5,0.1-2.2,0.2
					C81.3,67.5,81.3,66.6,81.3,65.6z M81.3,64.6c0-1,0-1.9,0-2.9c0.7,0,1.5-0.1,2.2-0.1c0,1,0,1.9,0,2.9
					C82.8,64.5,82.1,64.5,81.3,64.6z M81.3,60.6c0-1,0-1.9,0-2.9c0.7,0,1.5-0.1,2.2-0.1c0,1,0,1.9,0,2.9
					C82.8,60.6,82.1,60.6,81.3,60.6z M81.3,56.7c0-1,0-1.9,0-2.9c0.7,0,1.5-0.1,2.2-0.1c0,1,0,1.9,0,2.9
					C82.8,56.6,82.1,56.7,81.3,56.7z M81.3,52.8c0-1,0-1.9,0-2.9c0.7,0,1.5,0,2.2-0.1c0,1,0,1.9,0,2.9
					C82.8,52.7,82.1,52.7,81.3,52.8z M81.3,48.8c0-1,0-1.9,0-2.9c0.7,0,1.5,0,2.2,0c0,0.9,0,1.9,0,2.8
					C82.8,48.8,82.1,48.8,81.3,48.8z M81.3,44.9c0-1,0-1.9,0-2.9c0.7,0,1.5,0,2.2,0c0,1,0,1.9,0,2.9C82.8,44.9,82.1,44.9,81.3,44.9z
					 M81.3,41c0-1,0-1.9,0-2.9c0.7,0,1.5,0,2.2,0c0,1,0,1.9,0,2.9C82.8,40.9,82.1,41,81.3,41z M80.3,41c-0.7,0-1.5,0-2.2,0
					c0-1,0-1.9,0-2.9c0.7,0,1.5,0,2.2,0C80.3,39,80.3,40,80.3,41z M77,41c-0.7,0-1.5,0-2.2,0c0-1,0-1.9,0-2.9c0.7,0,1.5,0,2.2,0
					C77,39.1,77,40,77,41z M73.7,41c-0.7,0-1.5,0-2.2,0c0-1,0-1.9,0-2.9c0.7,0,1.5,0,2.2,0C73.7,39.1,73.7,40,73.7,41z M70.5,41
					c-0.7,0-1.5,0-2.2,0c0-1,0-1.9,0-2.9c0.7,0,1.5,0,2.2,0C70.5,39,70.5,40,70.5,41z M70.5,42c0,1,0,1.9,0,2.9c-0.7,0-1.5,0-2.2,0
					c0-1,0-1.9,0-2.9C69,42,69.7,42,70.5,42z M67.2,44.8c-0.7,0-1.5,0-2.2-0.1c0-0.9,0-1.9,0-2.8c0.7,0,1.5,0,2.2,0
					C67.2,42.9,67.2,43.9,67.2,44.8z M67.2,45.9c0,0.9,0,1.9,0,2.8c-0.7,0-1.5-0.1-2.2-0.1c0-0.9,0-1.9,0-2.8
					C65.7,45.9,66.5,45.9,67.2,45.9z M67.2,49.8c0,0.9,0,1.9,0,2.8c-0.7,0-1.5-0.1-2.2-0.1c0-0.9,0-1.9,0-2.8
					C65.7,49.7,66.5,49.8,67.2,49.8z M67.2,53.7c0,1,0,1.9,0,2.9c-0.7,0-1.5-0.1-2.2-0.1c0-0.9,0-1.9,0-2.8
					C65.7,53.6,66.5,53.7,67.2,53.7z M67.2,57.6c0,0.9,0,1.9,0,2.9c-0.7-0.1-1.5-0.1-2.2-0.2c0-0.9,0-1.9,0-2.8
					C65.7,57.5,66.5,57.6,67.2,57.6z M67.2,61.5c0,0.9,0,1.9,0,2.9c-0.7-0.1-1.5-0.1-2.2-0.2c0-0.9,0-1.9,0-2.8
					C65.7,61.4,66.5,61.5,67.2,61.5z M67.2,65.4c0,0.9,0,1.9,0,2.8c-0.7-0.1-1.5-0.1-2.2-0.2c0-0.9,0-1.9,0-2.8
					C65.7,65.3,66.5,65.4,67.2,65.4z M67.2,69.3c0,1,0,1.9,0,2.9c-0.7-0.1-1.5-0.2-2.2-0.3c0-0.9,0-1.9,0-2.8
					C65.7,69.2,66.5,69.2,67.2,69.3z M68.2,69.4c0.7,0.1,1.5,0.1,2.2,0.2c0,1,0,1.9,0,2.9c-0.7,0-1.5-0.1-2.2-0.2
					C68.2,71.3,68.2,70.4,68.2,69.4z M70.5,73.5c0,1,0,1.9,0,2.9c-0.7-0.1-1.5-0.1-2.2-0.2c0-1,0-1.9,0-2.9
					C69,73.4,69.7,73.4,70.5,73.5z M71.5,73.5c0.7,0,1.5,0.1,2.2,0.1c0,1,0,1.9,0,2.9c-0.7,0-1.5-0.1-2.2-0.1
					C71.5,75.5,71.5,74.5,71.5,73.5z M74.8,73.7c0.7,0,1.5,0,2.2,0c0,1,0,1.9,0,2.9c-0.7,0-1.5,0-2.2,0
					C74.8,75.6,74.8,74.6,74.8,73.7z M78.1,73.6c0.7,0,1.5,0,2.2-0.1c0,1,0,1.9,0,2.9c-0.7,0-1.5,0.1-2.2,0.1
					C78.1,75.6,78.1,74.6,78.1,73.6z M81.3,73.5c0.7,0,1.5-0.1,2.2-0.2c0,1,0,1.9,0,2.9c-0.7,0.1-1.5,0.1-2.2,0.2
					C81.4,75.4,81.4,74.4,81.3,73.5z M81.3,72.4c0-1,0-1.9,0-2.9c0.7,0,1.5-0.1,2.2-0.2c0,1,0,1.9,0,2.9
					C82.8,72.3,82.1,72.4,81.3,72.4z M84.6,69.3c0.7-0.1,1.5-0.1,2.2-0.2c0,0.9,0,1.9,0,2.8c-0.7,0.1-1.5,0.2-2.2,0.3
					C84.6,71.2,84.6,70.3,84.6,69.3z M84.6,68.2c0-0.9,0-1.9,0-2.8c0.7-0.1,1.5-0.1,2.2-0.2c0,0.9,0,1.9,0,2.8
					C86.1,68.1,85.4,68.2,84.6,68.2z M84.6,64.4c0-1,0-1.9,0-2.9c0.7-0.1,1.5-0.1,2.2-0.2c0,0.9,0,1.9,0,2.8
					C86.1,64.2,85.4,64.3,84.6,64.4z M84.6,60.4c0-1,0-1.9,0-2.9c0.7,0,1.5-0.1,2.2-0.1c0,0.9,0,1.9,0,2.8
					C86.1,60.3,85.4,60.4,84.6,60.4z M84.6,56.5c0-0.9,0-1.9,0-2.9c0.7,0,1.5-0.1,2.2-0.1c0,0.9,0,1.9,0,2.8
					C86.1,56.5,85.4,56.5,84.6,56.5z M84.6,52.6c0-0.9,0-1.9,0-2.8c0.7,0,1.5-0.1,2.2-0.1c0,0.9,0,1.9,0,2.8
					C86.1,52.6,85.4,52.6,84.6,52.6z M84.6,48.7c0-0.9,0-1.9,0-2.8c0.7,0,1.5,0,2.2-0.1c0,0.9,0,1.9,0,2.8
					C86.1,48.7,85.4,48.7,84.6,48.7z M84.6,44.8c0-1,0-1.9,0-2.9c0.7,0,1.5,0,2.2,0c0,0.9,0,1.9,0,2.8
					C86.1,44.8,85.4,44.8,84.6,44.8z M67.2,38.1c0,1,0,1.9,0,2.8c-0.7,0-1.5,0-2.2,0c0-0.9,0-1.9,0-2.8
					C65.7,38.1,66.5,38.1,67.2,38.1z M65,73c0.7,0.1,1.5,0.2,2.2,0.3c0,1,0,1.9,0,2.9c-0.7-0.1-1.5-0.2-2.2-0.3
					C65,74.8,65,73.9,65,73z M84.6,76.1c0-1,0-1.9,0-2.9c0.7-0.1,1.5-0.2,2.2-0.3c0,0.9,0,1.9,0,2.8C86.1,75.9,85.4,76,84.6,76.1z"
					/>
				<path id="svg1.highlight_2_" class="st16" d="M58.4,23.1h5.5c0,0,6.8-0.9,12-0.9c5.1,0,12,0.9,12,0.9h5.5v42
					c0,0-12.1-0.5-18.6-2.5c-6.5-2-16.4-9.8-16.4-9.8V23.1z"/>
			</g>
		</g>
	</g>
	<g transform="matrix(1,0,0,1,-67,-6)" text-rendering="geometricPrecision" shape-rendering="geometricPrecision">
		<g>
			<defs>
				<rect id="SVGID_18_" x="122" y="37.3" width="951" height="533"/>
			</defs>
			<clipPath id="SVGID_19_">
				<use xlink:href="#SVGID_18_"  style="overflow:visible;"/>
			</clipPath>
			<g class="st17">
				<text transform="matrix(1 0 0 1 672.9121 251.9577)" class="st2 st3">STUN Relay Server</text>
			</g>
		</g>
		<g>
			<defs>
				<rect id="SVGID_20_" x="122" y="37.3" width="951" height="533"/>
			</defs>
			<clipPath id="SVGID_21_">
				<use xlink:href="#SVGID_20_"  style="overflow:visible;"/>
			</clipPath>
			<g class="st18">
				<text transform="matrix(1 0 0 1 684.0918 266.0905)" class="st2 st3">(TURN-Server)</text>
			</g>
		</g>
		<g>
			<defs>
				<rect id="SVGID_22_" x="122" y="37.3" width="951" height="533"/>
			</defs>
			<clipPath id="SVGID_23_">
				<use xlink:href="#SVGID_22_"  style="overflow:visible;"/>
			</clipPath>
			<g class="st19">
				<text transform="matrix(1 0 0 1 689.5293 280.2233)" class="st2 st3">89.90.89.90</text>
			</g>
		</g>
	</g>
	
		<g transform="matrix(0.9412,0,0,2.5574,328.0229,52.1794)" text-rendering="geometricPrecision" shape-rendering="geometricPrecision">
		<g>
			<defs>
				<rect id="SVGID_24_" x="-260.4" y="-170.5" width="951" height="533"/>
			</defs>
			<clipPath id="SVGID_25_">
				<use xlink:href="#SVGID_24_"  style="overflow:visible;"/>
			</clipPath>
			<g class="st20">
				
					<linearGradient id="SVGID_26_" gradientUnits="userSpaceOnUse" x1="-49.1731" y1="-104.537" x2="-99.0153" y2="-104.537" gradientTransform="matrix(0.9412 0 0 -2.5574 139.6948 -226.5697)">
					<stop  offset="0" style="stop-color:#4D4D4D"/>
					<stop  offset="1" style="stop-color:#8D8D8D"/>
				</linearGradient>
				<rect x="58.4" y="13.9" class="st21" width="35" height="53.7"/>
				
					<linearGradient id="SVGID_27_" gradientUnits="userSpaceOnUse" x1="-55.0135" y1="-104.537" x2="-78.9965" y2="-104.537" gradientTransform="matrix(0.9412 0 0 -2.5574 139.6948 -226.5697)">
					<stop  offset="3.190000e-02" style="stop-color:#848484"/>
					<stop  offset="0.1202" style="stop-color:#8C8C8C"/>
					<stop  offset="0.308" style="stop-color:#969696"/>
					<stop  offset="0.5394" style="stop-color:#999999"/>
					<stop  offset="0.5501" style="stop-color:#9C9C9C"/>
					<stop  offset="0.6256" style="stop-color:#B0B0B0"/>
					<stop  offset="0.7118" style="stop-color:#BEBEBE"/>
					<stop  offset="0.8178" style="stop-color:#C7C7C7"/>
					<stop  offset="1" style="stop-color:#C9C9C9"/>
				</linearGradient>
				<path class="st22" d="M63.9,13.9c7.9-1.3,16-1.3,24,0c0,17.9,0,35.8,0,53.7c-7.9,1.3-16,1.3-24,0C63.9,49.7,63.9,31.8,63.9,13.9
					z"/>
				<path class="st9" d="M63.9,27.6c8,0,16,0,24,0c0,13.3,0,26.7,0,40c-7.9,1.3-16,1.3-24,0C63.9,54.3,63.9,40.9,63.9,27.6z"/>
				<path class="st10" d="M63.9,17.7c8-0.6,16-0.6,24,0c0,2.7,0,5.4,0,8.1c-8,0-16,0-24,0C63.9,23.1,63.9,20.4,63.9,17.7z"/>
				<path class="st11" d="M63.9,17.7c8-0.6,16-0.6,24,0c0,2.7,0,5.4,0,8.1c-8,0-16,0-24,0C63.9,23.1,63.9,20.4,63.9,17.7z"/>
				<polygon class="st12" points="64.9,18.7 68.3,18.6 68.3,19.6 64.9,19.8 				"/>
				<rect x="89.7" y="15.5" class="st13" width="3.7" height="1.5"/>
				<rect x="89.7" y="18.8" class="st14" width="3.7" height="1.5"/>
				
					<linearGradient id="SVGID_28_" gradientUnits="userSpaceOnUse" x1="-262.45" y1="194.0001" x2="-286.391" y2="194.0001" gradientTransform="matrix(0.9412 0 0 -2.5574 334.895 544.2311)">
					<stop  offset="0" style="stop-color:#808080"/>
					<stop  offset="0.1907" style="stop-color:#828282"/>
					<stop  offset="0.2955" style="stop-color:#8A8A8A"/>
					<stop  offset="0.3795" style="stop-color:#989898"/>
					<stop  offset="0.4524" style="stop-color:#ACACAC"/>
					<stop  offset="0.5175" style="stop-color:#C5C5C5"/>
					<stop  offset="0.5273" style="stop-color:#C9C9C9"/>
					<stop  offset="0.5914" style="stop-color:#C9C9C9"/>
					<stop  offset="0.9681" style="stop-color:#C9C9C9"/>
				</linearGradient>
				<path class="st23" d="M63.9,27.8c0,13.2,0,26.4,0,39.7c7.9,1.3,16,1.3,23.9,0c0-13.2,0-26.4,0-39.7
					C79.9,27.8,71.9,27.8,63.9,27.8z M86.8,31.7c-0.7,0-1.5,0-2.2,0c0-1,0-1.9,0-2.9c0.7,0,1.5,0,2.2,0
					C86.8,29.8,86.8,30.7,86.8,31.7z M74.8,55.5c0-1,0-1.9,0-2.9c0.7,0,1.5,0,2.2,0c0,1,0,1.9,0,2.9C76.3,55.5,75.5,55.5,74.8,55.5z
					 M77,56.5c0,1,0,1.9,0,2.9c-0.7,0-1.5,0-2.2,0c0-1,0-1.9,0-2.9C75.5,56.5,76.3,56.5,77,56.5z M77,40.7c0,1,0,1.9,0,2.9
					c-0.7,0-1.5,0-2.2,0c0-1,0-1.9,0-2.9C75.5,40.7,76.3,40.7,77,40.7z M74.8,39.6c0-1,0-1.9,0-2.9c0.7,0,1.5,0,2.2,0
					c0,1,0,1.9,0,2.9C76.3,39.6,75.5,39.6,74.8,39.6z M74.8,47.6c0-1,0-1.9,0-2.9c0.7,0,1.5,0,2.2,0c0,1,0,1.9,0,2.9
					C76.3,47.6,75.5,47.6,74.8,47.6z M77,48.6c0,1,0,1.9,0,2.9c-0.7,0-1.5,0-2.2,0c0-1,0-1.9,0-2.9C75.5,48.6,76.3,48.6,77,48.6z
					 M73.7,43.6c-0.7,0-1.5,0-2.2,0c0-1,0-1.9,0-2.9c0.7,0,1.5,0,2.2,0C73.7,41.7,73.7,42.6,73.7,43.6z M73.7,44.7c0,1,0,1.9,0,2.9
					c-0.7,0-1.5,0-2.2,0c0-1,0-1.9,0-2.9C72.3,44.6,73,44.7,73.7,44.7z M73.7,48.6c0,1,0,1.9,0,2.9c-0.7,0-1.5,0-2.2-0.1
					c0-1,0-1.9,0-2.9C72.3,48.6,73,48.6,73.7,48.6z M73.7,52.6c0,1,0,1.9,0,2.9c-0.7,0-1.5,0-2.2-0.1c0-1,0-1.9,0-2.9
					C72.3,52.5,73,52.6,73.7,52.6z M78.1,52.6c0.7,0,1.5,0,2.2-0.1c0,1,0,1.9,0,2.9c-0.7,0-1.5,0.1-2.2,0.1
					C78.1,54.5,78.1,53.5,78.1,52.6z M78.1,51.5c0-1,0-1.9,0-2.9c0.7,0,1.5,0,2.2,0c0,1,0,1.9,0,2.9C79.6,51.5,78.8,51.5,78.1,51.5z
					 M78.1,47.5c0-1,0-1.9,0-2.9c0.7,0,1.5,0,2.2,0c0,1,0,1.9,0,2.9C79.6,47.5,78.8,47.5,78.1,47.5z M78.1,43.6c0-1,0-1.9,0-2.9
					c0.7,0,1.5,0,2.2,0c0,1,0,1.9,0,2.9C79.6,43.6,78.8,43.6,78.1,43.6z M78.1,39.6c0-1,0-1.9,0-2.9c0.7,0,1.5,0,2.2,0
					c0,1,0,1.9,0,2.9C79.6,39.6,78.8,39.6,78.1,39.6z M78.1,35.7c0-1,0-1.9,0-2.9c0.7,0,1.5,0,2.2,0c0,1,0,1.9,0,2.9
					C79.6,35.7,78.8,35.7,78.1,35.7z M77,35.7c-0.7,0-1.5,0-2.2,0c0-1,0-1.9,0-2.9c0.7,0,1.5,0,2.2,0C77,33.8,77,34.7,77,35.7z
					 M73.7,35.7c-0.7,0-1.5,0-2.2,0c0-1,0-1.9,0-2.9c0.7,0,1.5,0,2.2,0C73.7,33.8,73.7,34.7,73.7,35.7z M73.7,36.8c0,1,0,1.9,0,2.9
					c-0.7,0-1.5,0-2.2,0c0-1,0-1.9,0-2.9C72.3,36.8,73,36.8,73.7,36.8z M70.5,39.6c-0.7,0-1.5,0-2.2-0.1c0-0.9,0-1.9,0-2.8
					c0.7,0,1.5,0,2.2,0C70.5,37.7,70.5,38.6,70.5,39.6z M70.5,40.7c0,1,0,1.9,0,2.9c-0.7,0-1.5,0-2.2-0.1c0-1,0-1.9,0-2.9
					C69,40.6,69.7,40.6,70.5,40.7z M70.5,44.6c0,1,0,1.9,0,2.9c-0.7,0-1.5-0.1-2.2-0.1c0-1,0-1.9,0-2.9C69,44.5,69.7,44.6,70.5,44.6
					z M70.5,48.5c0,1,0,1.9,0,2.9c-0.7,0-1.5-0.1-2.2-0.1c0-1,0-1.9,0-2.9C69,48.5,69.7,48.5,70.5,48.5z M70.5,52.5c0,1,0,1.9,0,2.9
					c-0.7,0-1.5-0.1-2.2-0.1c0-1,0-1.9,0-2.9C69,52.4,69.7,52.4,70.5,52.5z M70.5,56.4c0,1,0,1.9,0,2.9c-0.7,0-1.5-0.1-2.2-0.1
					c0-0.9,0-1.9,0-2.8C69,56.3,69.7,56.4,70.5,56.4z M71.5,56.5c0.7,0,1.5,0.1,2.2,0.1c0,1,0,1.9,0,2.9c-0.7,0-1.5,0-2.2-0.1
					C71.5,58.4,71.5,57.4,71.5,56.5z M73.7,60.5c0,1,0,1.9,0,2.9c-0.7,0-1.5,0-2.2-0.1c0-1,0-1.9,0-2.9C72.3,60.4,73,60.4,73.7,60.5
					z M74.8,60.5c0.7,0,1.5,0,2.2,0c0,1,0,1.9,0,2.9c-0.7,0-1.5,0-2.2,0C74.8,62.4,74.8,61.4,74.8,60.5z M78.1,60.5
					c0.7,0,1.5,0,2.2-0.1c0,1,0,1.9,0,2.9c-0.7,0-1.5,0.1-2.2,0.1C78.1,62.4,78.1,61.4,78.1,60.5z M78.1,59.4c0-1,0-1.9,0-2.9
					c0.7,0,1.5,0,2.2-0.1c0,1,0,1.9,0,2.9C79.6,59.3,78.8,59.4,78.1,59.4z M81.3,56.4c0.7,0,1.5-0.1,2.2-0.1c0,0.9,0,1.9,0,2.8
					c-0.7,0.1-1.5,0.1-2.2,0.2C81.3,58.3,81.3,57.4,81.3,56.4z M81.3,55.3c0-1,0-1.9,0-2.9c0.7,0,1.5-0.1,2.2-0.1c0,1,0,1.9,0,2.9
					C82.8,55.3,82.1,55.3,81.3,55.3z M81.3,51.4c0-1,0-1.9,0-2.9c0.7,0,1.5-0.1,2.2-0.1c0,1,0,1.9,0,2.9
					C82.8,51.3,82.1,51.4,81.3,51.4z M81.3,47.5c0-1,0-1.9,0-2.9c0.7,0,1.5-0.1,2.2-0.1c0,1,0,1.9,0,2.9
					C82.8,47.4,82.1,47.4,81.3,47.5z M81.3,43.5c0-1,0-1.9,0-2.9c0.7,0,1.5,0,2.2-0.1c0,1,0,1.9,0,2.9
					C82.8,43.5,82.1,43.5,81.3,43.5z M81.3,39.6c0-1,0-1.9,0-2.9c0.7,0,1.5,0,2.2,0c0,0.9,0,1.9,0,2.8
					C82.8,39.6,82.1,39.6,81.3,39.6z M81.3,35.7c0-1,0-1.9,0-2.9c0.7,0,1.5,0,2.2,0c0,1,0,1.9,0,2.9C82.8,35.6,82.1,35.7,81.3,35.7z
					 M81.3,31.7c0-1,0-1.9,0-2.9c0.7,0,1.5,0,2.2,0c0,1,0,1.9,0,2.9C82.8,31.7,82.1,31.7,81.3,31.7z M80.3,31.7c-0.7,0-1.5,0-2.2,0
					c0-1,0-1.9,0-2.9c0.7,0,1.5,0,2.2,0C80.3,29.8,80.3,30.8,80.3,31.7z M77,31.8c-0.7,0-1.5,0-2.2,0c0-1,0-1.9,0-2.9
					c0.7,0,1.5,0,2.2,0C77,29.8,77,30.8,77,31.8z M73.7,31.7c-0.7,0-1.5,0-2.2,0c0-1,0-1.9,0-2.9c0.7,0,1.5,0,2.2,0
					C73.7,29.8,73.7,30.8,73.7,31.7z M70.5,31.7c-0.7,0-1.5,0-2.2,0c0-1,0-1.9,0-2.9c0.7,0,1.5,0,2.2,0
					C70.5,29.8,70.5,30.8,70.5,31.7z M70.5,32.8c0,1,0,1.9,0,2.9c-0.7,0-1.5,0-2.2,0c0-1,0-1.9,0-2.9C69,32.8,69.7,32.8,70.5,32.8z
					 M67.2,35.6c-0.7,0-1.5,0-2.2-0.1c0-0.9,0-1.9,0-2.8c0.7,0,1.5,0,2.2,0C67.2,33.7,67.2,34.7,67.2,35.6z M67.2,36.7
					c0,0.9,0,1.9,0,2.8c-0.7,0-1.5-0.1-2.2-0.1c0-0.9,0-1.9,0-2.8C65.7,36.6,66.5,36.7,67.2,36.7z M67.2,40.6c0,0.9,0,1.9,0,2.8
					c-0.7,0-1.5-0.1-2.2-0.1c0-0.9,0-1.9,0-2.8C65.7,40.5,66.5,40.5,67.2,40.6z M67.2,44.5c0,1,0,1.9,0,2.9c-0.7,0-1.5-0.1-2.2-0.1
					c0-0.9,0-1.9,0-2.8C65.7,44.4,66.5,44.4,67.2,44.5z M67.2,48.4c0,0.9,0,1.9,0,2.9c-0.7-0.1-1.5-0.1-2.2-0.2c0-0.9,0-1.9,0-2.8
					C65.7,48.3,66.5,48.3,67.2,48.4z M67.2,52.3c0,0.9,0,1.9,0,2.9c-0.7-0.1-1.5-0.1-2.2-0.2c0-0.9,0-1.9,0-2.8
					C65.7,52.2,66.5,52.2,67.2,52.3z M67.2,56.2c0,0.9,0,1.9,0,2.8c-0.7-0.1-1.5-0.1-2.2-0.2c0-0.9,0-1.9,0-2.8
					C65.7,56.1,66.5,56.1,67.2,56.2z M67.2,60.1c0,1,0,1.9,0,2.9c-0.7-0.1-1.5-0.2-2.2-0.3c0-0.9,0-1.9,0-2.8
					C65.7,59.9,66.5,60,67.2,60.1z M68.2,60.2c0.7,0.1,1.5,0.1,2.2,0.2c0,1,0,1.9,0,2.9c-0.7,0-1.5-0.1-2.2-0.2
					C68.2,62.1,68.2,61.1,68.2,60.2z M70.5,64.3c0,1,0,1.9,0,2.9c-0.7-0.1-1.5-0.1-2.2-0.2c0-1,0-1.9,0-2.9
					C69,64.2,69.7,64.2,70.5,64.3z M71.5,64.3c0.7,0,1.5,0.1,2.2,0.1c0,1,0,1.9,0,2.9c-0.7,0-1.5-0.1-2.2-0.1
					C71.5,66.2,71.5,65.3,71.5,64.3z M74.8,64.4c0.7,0,1.5,0,2.2,0c0,1,0,1.9,0,2.9c-0.7,0-1.5,0-2.2,0
					C74.8,66.4,74.8,65.4,74.8,64.4z M78.1,64.4c0.7,0,1.5,0,2.2-0.1c0,1,0,1.9,0,2.9c-0.7,0-1.5,0.1-2.2,0.1
					C78.1,66.3,78.1,65.4,78.1,64.4z M81.3,64.3c0.7,0,1.5-0.1,2.2-0.2c0,1,0,1.9,0,2.9c-0.7,0.1-1.5,0.1-2.2,0.2
					C81.4,66.2,81.4,65.2,81.3,64.3z M81.3,63.2c0-1,0-1.9,0-2.9c0.7,0,1.5-0.1,2.2-0.2c0,1,0,1.9,0,2.9
					C82.8,63.1,82.1,63.2,81.3,63.2z M84.6,60.1c0.7-0.1,1.5-0.1,2.2-0.2c0,0.9,0,1.9,0,2.8c-0.7,0.1-1.5,0.2-2.2,0.3
					C84.6,62,84.6,61,84.6,60.1z M84.6,59c0-0.9,0-1.9,0-2.8c0.7-0.1,1.5-0.1,2.2-0.2c0,0.9,0,1.9,0,2.8C86.1,58.9,85.4,59,84.6,59z
					 M84.6,55.1c0-1,0-1.9,0-2.8c0.7-0.1,1.5-0.1,2.2-0.2c0,0.9,0,1.9,0,2.8C86.1,55,85.4,55.1,84.6,55.1z M84.6,51.2
					c0-1,0-1.9,0-2.9c0.7,0,1.5-0.1,2.2-0.1c0,0.9,0,1.9,0,2.8C86.1,51.1,85.4,51.2,84.6,51.2z M84.6,47.3c0-0.9,0-1.9,0-2.9
					c0.7,0,1.5-0.1,2.2-0.1c0,0.9,0,1.9,0,2.8C86.1,47.2,85.4,47.3,84.6,47.3z M84.6,43.4c0-0.9,0-1.9,0-2.8c0.7,0,1.5-0.1,2.2-0.1
					c0,0.9,0,1.9,0,2.8C86.1,43.3,85.4,43.4,84.6,43.4z M84.6,39.5c0-0.9,0-1.9,0-2.8c0.7,0,1.5,0,2.2-0.1c0,0.9,0,1.9,0,2.8
					C86.1,39.4,85.4,39.5,84.6,39.5z M84.6,35.6c0-1,0-1.9,0-2.9c0.7,0,1.5,0,2.2,0c0,0.9,0,1.9,0,2.8
					C86.1,35.6,85.4,35.6,84.6,35.6z M67.2,28.9c0,0.9,0,1.9,0,2.8c-0.7,0-1.5,0-2.2,0c0-0.9,0-1.9,0-2.8
					C65.7,28.8,66.5,28.9,67.2,28.9z M65,63.7c0.7,0.1,1.5,0.2,2.2,0.3c0,1,0,1.9,0,2.9c-0.7-0.1-1.5-0.2-2.2-0.3
					C65,65.6,65,64.7,65,63.7z M84.6,66.8c0-0.9,0-1.9,0-2.9c0.7-0.1,1.5-0.2,2.2-0.3c0,0.9,0,1.9,0,2.8
					C86.1,66.7,85.4,66.8,84.6,66.8z"/>
				<path id="svg2.highlight_2_" class="st16" d="M58.4,13.9h5.5c0,0,6.8-0.9,12-0.9c5.1,0,12,0.9,12,0.9h5.5v42
					c0,0-12.1-0.5-18.6-2.5c-6.5-2-16.4-9.8-16.4-9.8V13.9z"/>
			</g>
		</g>
	</g>
	<g transform="matrix(1,0,0,1,-67,-6)" text-rendering="geometricPrecision" shape-rendering="geometricPrecision">
		<g>
			<defs>
				<rect id="SVGID_29_" x="122" y="37.3" width="951" height="533"/>
			</defs>
			<clipPath id="SVGID_30_">
				<use xlink:href="#SVGID_29_"  style="overflow:visible;"/>
			</clipPath>
			<g class="st24">
				<text transform="matrix(1 0 0 1 423.0762 82.0176)" class="st2 st3">NAPT-Gateway</text>
			</g>
		</g>
		<g>
			<defs>
				<rect id="SVGID_31_" x="122" y="37.3" width="951" height="533"/>
			</defs>
			<clipPath id="SVGID_32_">
				<use xlink:href="#SVGID_31_"  style="overflow:visible;"/>
			</clipPath>
			<g style="clip-path:url(#SVGID_32_);enable-background:new    ;">
				
					<image style="overflow:visible;" width="512" height="512" xlink:href="1A9BBE5B2986E661.png"  transform="matrix(0.2734 0 0 0.2207 655 52.28)">
				</image>
			</g>
		</g>
		<g>
			<defs>
				<rect id="SVGID_33_" x="122" y="37.3" width="951" height="533"/>
			</defs>
			<clipPath id="SVGID_34_">
				<use xlink:href="#SVGID_33_"  style="overflow:visible;"/>
			</clipPath>
			<g class="st25">
				<text transform="matrix(1 0 0 1 711.8711 127.3086)" class="st2 st3">WAN</text>
			</g>
		</g>
		<g>
			<defs>
				<rect id="SVGID_35_" x="122" y="37.3" width="951" height="533"/>
			</defs>
			<clipPath id="SVGID_36_">
				<use xlink:href="#SVGID_35_"  style="overflow:visible;"/>
			</clipPath>
			<g transform="matrix(1 0 0 1 0 0)" style="clip-path:url(#SVGID_36_);enable-background:new    ;">
				
					<image style="overflow:visible;" width="512" height="512" xlink:href="1A9BBE5B2986E66D.png"  transform="matrix(0.2129 0 0 0.1797 948 146.28)">
				</image>
			</g>
		</g>
		<g>
			<defs>
				<rect id="SVGID_37_" x="122" y="37.3" width="951" height="533"/>
			</defs>
			<clipPath id="SVGID_38_">
				<use xlink:href="#SVGID_37_"  style="overflow:visible;"/>
			</clipPath>
			<g class="st26">
				<text transform="matrix(1 0 0 1 980.6729 222.4668)" class="st2 st3">Client B</text>
			</g>
		</g>
		<g>
			<defs>
				<rect id="SVGID_39_" x="122" y="37.3" width="951" height="533"/>
			</defs>
			<clipPath id="SVGID_40_">
				<use xlink:href="#SVGID_39_"  style="overflow:visible;"/>
			</clipPath>
			<g class="st27">
				<text transform="matrix(1 0 0 1 966.9062 236.5996)" class="st2 st3">90.90.90.90</text>
			</g>
		</g>
		<g>
			<defs>
				<rect id="SVGID_41_" x="122" y="37.3" width="951" height="533"/>
			</defs>
			<clipPath id="SVGID_42_">
				<use xlink:href="#SVGID_41_"  style="overflow:visible;"/>
			</clipPath>
			<rect x="469" y="548.4" class="st28" width="9.2" height="6.7"/>
		</g>
		<g>
			<defs>
				<rect id="SVGID_43_" x="122" y="37.3" width="951" height="533"/>
			</defs>
			<clipPath id="SVGID_44_">
				<use xlink:href="#SVGID_43_"  style="overflow:visible;"/>
			</clipPath>
			<rect x="469" y="548.4" class="st29" width="9.2" height="6.7"/>
		</g>
		<g>
			<defs>
				<rect id="SVGID_45_" x="122" y="37.3" width="951" height="533"/>
			</defs>
			<clipPath id="SVGID_46_">
				<use xlink:href="#SVGID_45_"  style="overflow:visible;"/>
			</clipPath>
			<rect x="1002.5" y="247.1" class="st30" width="1" height="307.5"/>
		</g>
		<g>
			<defs>
				<rect id="SVGID_47_" x="122" y="37.3" width="951" height="533"/>
			</defs>
			<clipPath id="SVGID_48_">
				<use xlink:href="#SVGID_47_"  style="overflow:visible;"/>
			</clipPath>
			<rect x="1002.5" y="247.1" class="st31" width="1" height="307.5"/>
		</g>
		<g>
			<defs>
				<rect id="SVGID_49_" x="122" y="37.3" width="951" height="533"/>
			</defs>
			<clipPath id="SVGID_50_">
				<use xlink:href="#SVGID_49_"  style="overflow:visible;"/>
			</clipPath>
			<rect x="726" y="289.9" class="st32" width="1" height="264.6"/>
		</g>
		<g>
			<defs>
				<rect id="SVGID_51_" x="122" y="37.3" width="951" height="533"/>
			</defs>
			<clipPath id="SVGID_52_">
				<use xlink:href="#SVGID_51_"  style="overflow:visible;"/>
			</clipPath>
			<rect x="726" y="289.9" class="st33" width="1" height="264.6"/>
		</g>
		<g>
			<defs>
				<rect id="SVGID_53_" x="122" y="37.3" width="951" height="533"/>
			</defs>
			<clipPath id="SVGID_54_">
				<use xlink:href="#SVGID_53_"  style="overflow:visible;"/>
			</clipPath>
			<rect x="207" y="256.4" class="st34" width="1" height="298.7"/>
		</g>
		<g>
			<defs>
				<rect id="SVGID_55_" x="122" y="37.3" width="951" height="533"/>
			</defs>
			<clipPath id="SVGID_56_">
				<use xlink:href="#SVGID_55_"  style="overflow:visible;"/>
			</clipPath>
			<rect x="207" y="256.4" class="st35" width="1" height="298.7"/>
		</g>
		<g>
			<defs>
				<rect id="SVGID_57_" x="122" y="37.3" width="951" height="533"/>
			</defs>
			<clipPath id="SVGID_58_">
				<use xlink:href="#SVGID_57_"  style="overflow:visible;"/>
			</clipPath>
			<path class="st36" d="M207.5,140.5v14.9"/>
		</g>
		<g>
			<defs>
				<rect id="SVGID_59_" x="122" y="37.3" width="951" height="533"/>
			</defs>
			<clipPath id="SVGID_60_">
				<use xlink:href="#SVGID_59_"  style="overflow:visible;"/>
			</clipPath>
			<path class="st37" d="M269.2,109.1l180.8,0.2"/>
		</g>
		<g>
			<defs>
				<rect id="SVGID_61_" x="122" y="37.3" width="951" height="533"/>
			</defs>
			<clipPath id="SVGID_62_">
				<use xlink:href="#SVGID_61_"  style="overflow:visible;"/>
			</clipPath>
			<g class="st38">
				<text transform="matrix(1 0 0 1 327.9412 83.6917)" class="st2 st3">192.168.0.1</text>
			</g>
		</g>
		<g>
			<defs>
				<rect id="SVGID_63_" x="122" y="37.3" width="951" height="533"/>
			</defs>
			<clipPath id="SVGID_64_">
				<use xlink:href="#SVGID_63_"  style="overflow:visible;"/>
			</clipPath>
			<path class="st39" d="M483.1,110.1h177.5"/>
		</g>
		<g>
			<defs>
				<rect id="SVGID_65_" x="122" y="37.3" width="951" height="533"/>
			</defs>
			<clipPath id="SVGID_66_">
				<use xlink:href="#SVGID_65_"  style="overflow:visible;"/>
			</clipPath>
			<g class="st40">
				<text transform="matrix(1 0 0 1 533.0413 84.6298)" class="st2 st3">88.88.88.88</text>
			</g>
		</g>
		<g>
			<defs>
				<rect id="SVGID_67_" x="122" y="37.3" width="951" height="533"/>
			</defs>
			<clipPath id="SVGID_68_">
				<use xlink:href="#SVGID_67_"  style="overflow:visible;"/>
			</clipPath>
			<path class="st41" d="M725.6,152.3v-12.2"/>
		</g>
		<g>
			<defs>
				<rect id="SVGID_69_" x="122" y="37.3" width="951" height="533"/>
			</defs>
			<clipPath id="SVGID_70_">
				<use xlink:href="#SVGID_69_"  style="overflow:visible;"/>
			</clipPath>
			<path class="st42" d="M1003,147.2v-38.2H787.2"/>
		</g>
	</g>
	<g transform="matrix(1,0,0,1,-67,-6)" text-rendering="geometricPrecision" shape-rendering="geometricPrecision">
		<g>
			<defs>
				<rect id="SVGID_71_" x="122" y="37.3" width="951" height="533"/>
			</defs>
			<clipPath id="SVGID_72_">
				<use xlink:href="#SVGID_71_"  style="overflow:visible;"/>
			</clipPath>
			<path class="st43" d="M473.5,548.4l-5.7-314"/>
		</g>
	</g>
	<g transform="matrix(1,0,0,1,-67,-6)" text-rendering="geometricPrecision" shape-rendering="geometricPrecision">
		<g>
			<defs>
				<rect id="SVGID_73_" x="122" y="37.3" width="951" height="533"/>
			</defs>
			<clipPath id="SVGID_74_">
				<use xlink:href="#SVGID_73_"  style="overflow:visible;"/>
			</clipPath>
			<path class="st44" d="M999.9,450.4H735"/>
		</g>
		<g>
			<defs>
				<rect id="SVGID_75_" x="122" y="37.3" width="951" height="533"/>
			</defs>
			<clipPath id="SVGID_76_">
				<use xlink:href="#SVGID_75_"  style="overflow:visible;"/>
			</clipPath>
			<path class="st45" d="M727,450.4l12,5l-3-5l3-5L727,450.4z"/>
		</g>
		<g>
			<defs>
				<rect id="SVGID_77_" x="122" y="37.3" width="951" height="533"/>
			</defs>
			<clipPath id="SVGID_78_">
				<use xlink:href="#SVGID_77_"  style="overflow:visible;"/>
			</clipPath>
			<g class="st46">
				<text transform="matrix(1 0 0 1 829.7466 443.8979)" class="st2 st3">Data (B-&gt;A)</text>
			</g>
		</g>
	</g>
	<g transform="matrix(1,0,0,1,-67,-6)" text-rendering="geometricPrecision" shape-rendering="geometricPrecision">
		<g>
			<defs>
				<rect id="SVGID_79_" x="122" y="37.3" width="951" height="533"/>
			</defs>
			<clipPath id="SVGID_80_">
				<use xlink:href="#SVGID_79_"  style="overflow:visible;"/>
			</clipPath>
			<path class="st47" d="M748.1,534.6l-21,10.5l21,10.5v-7h237.3v7l21-10.5l-21-10.5v7H748.1V534.6z"/>
		</g>
		<g>
			<defs>
				<rect id="SVGID_81_" x="122" y="37.3" width="951" height="533"/>
			</defs>
			<clipPath id="SVGID_82_">
				<use xlink:href="#SVGID_81_"  style="overflow:visible;"/>
			</clipPath>
			<g class="st48">
				<text transform="matrix(1 0 0 1 824.9771 538.5327)" class="st2 st3">Data (A&lt;-&gt;B)</text>
			</g>
		</g>
	</g>
	<g transform="matrix(1,0,0,1,-67,-6)" text-rendering="geometricPrecision" shape-rendering="geometricPrecision">
		<g>
			<defs>
				<rect id="SVGID_83_" x="122" y="37.3" width="951" height="533"/>
			</defs>
			<clipPath id="SVGID_84_">
				<use xlink:href="#SVGID_83_"  style="overflow:visible;"/>
			</clipPath>
			<path class="st49" d="M727,423.3h267"/>
		</g>
		<g>
			<defs>
				<rect id="SVGID_85_" x="122" y="37.3" width="951" height="533"/>
			</defs>
			<clipPath id="SVGID_86_">
				<use xlink:href="#SVGID_85_"  style="overflow:visible;"/>
			</clipPath>
			<path class="st50" d="M1002,423.3l-12-5l3,5l-3,5L1002,423.3z"/>
		</g>
		<g>
			<defs>
				<rect id="SVGID_87_" x="122" y="37.3" width="951" height="533"/>
			</defs>
			<clipPath id="SVGID_88_">
				<use xlink:href="#SVGID_87_"  style="overflow:visible;"/>
			</clipPath>
			<g class="st51">
				<text transform="matrix(1 0 0 1 829.7466 416.7666)" class="st2 st3">Data (A-&gt;B)</text>
			</g>
		</g>
		<g>
			<defs>
				<rect id="SVGID_89_" x="122" y="37.3" width="951" height="533"/>
			</defs>
			<clipPath id="SVGID_90_">
				<use xlink:href="#SVGID_89_"  style="overflow:visible;"/>
			</clipPath>
			<path class="st52" d="M725.1,323.8H212.9"/>
		</g>
		<g>
			<defs>
				<rect id="SVGID_91_" x="122" y="37.3" width="951" height="533"/>
			</defs>
			<clipPath id="SVGID_92_">
				<use xlink:href="#SVGID_91_"  style="overflow:visible;"/>
			</clipPath>
			<path class="st53" d="M204.9,323.8l12,5l-3-5l3-5L204.9,323.8z"/>
		</g>
		<g>
			<defs>
				<rect id="SVGID_93_" x="122" y="37.3" width="951" height="533"/>
			</defs>
			<clipPath id="SVGID_94_">
				<use xlink:href="#SVGID_93_"  style="overflow:visible;"/>
			</clipPath>
			<g class="st54">
				<text transform="matrix(1 0 0 1 313.7486 317.2585)" class="st2 st3">Allocate Response ; RELAY-ADDRESS=89.90.89.90:x</text>
			</g>
		</g>
	</g>
	<g transform="matrix(1,0,0,1,-67,-6)" text-rendering="geometricPrecision" shape-rendering="geometricPrecision">
		<g>
			<defs>
				<rect id="SVGID_95_" x="122" y="37.3" width="951" height="533"/>
			</defs>
			<clipPath id="SVGID_96_">
				<use xlink:href="#SVGID_95_"  style="overflow:visible;"/>
			</clipPath>
			<path class="st55" d="M1004.2,364.9l-16.5-6.9l4.1,6.9l-4.1,6.9L1004.2,364.9z"/>
		</g>
		<g>
			<defs>
				<rect id="SVGID_97_" x="127.5" y="37.3" width="951" height="533"/>
			</defs>
			<clipPath id="SVGID_98_">
				<use xlink:href="#SVGID_97_"  style="overflow:visible;"/>
			</clipPath>
			<path class="st56" d="M207.1,364.9l16.5,6.9l-4.1-6.9l4.1-6.9L207.1,364.9z"/>
		</g>
		<g>
			<defs>
				<rect id="SVGID_99_" x="122" y="37.3" width="951" height="533"/>
			</defs>
			<clipPath id="SVGID_100_">
				<use xlink:href="#SVGID_99_"  style="overflow:visible;"/>
			</clipPath>
			<path class="st57" d="M993.2,364.9H212.6"/>
		</g>
	</g>
	<g transform="matrix(1,0,0,1,-67,-6)" text-rendering="geometricPrecision" shape-rendering="geometricPrecision">
		<g>
			<defs>
				<rect id="SVGID_101_" x="122" y="37.3" width="951" height="533"/>
			</defs>
			<clipPath id="SVGID_102_">
				<use xlink:href="#SVGID_101_"  style="overflow:visible;"/>
			</clipPath>
			<g class="st58">
				<text transform="matrix(1 0 0 1 578.5488 358.3597)" class="st2 st3">Signaling</text>
			</g>
		</g>
		<g>
			<defs>
				<rect id="SVGID_103_" x="122" y="37.3" width="951" height="533"/>
			</defs>
			<clipPath id="SVGID_104_">
				<use xlink:href="#SVGID_103_"  style="overflow:visible;"/>
			</clipPath>
			<path class="st59" d="M725.1,460.1H216"/>
		</g>
		<g>
			<defs>
				<rect id="SVGID_105_" x="122" y="37.3" width="951" height="533"/>
			</defs>
			<clipPath id="SVGID_106_">
				<use xlink:href="#SVGID_105_"  style="overflow:visible;"/>
			</clipPath>
			<path class="st60" d="M208,460.1l12,5l-3-5l3-5L208,460.1z"/>
		</g>
		<g>
			<defs>
				<rect id="SVGID_107_" x="122" y="37.3" width="951" height="533"/>
			</defs>
			<clipPath id="SVGID_108_">
				<use xlink:href="#SVGID_107_"  style="overflow:visible;"/>
			</clipPath>
			<g class="st61">
				<text transform="matrix(1 0 0 1 257.0064 453.5413)" class="st2 st3">Data Indication ; DATA=Data(B-&gt;A) ; REMOTE-ADDRESS=90.90.90.90:z</text>
			</g>
		</g>
		<g>
			<defs>
				<rect id="SVGID_109_" x="122" y="37.3" width="951" height="533"/>
			</defs>
			<clipPath id="SVGID_110_">
				<use xlink:href="#SVGID_109_"  style="overflow:visible;"/>
			</clipPath>
			<path class="st62" d="M726,516.3H217.2"/>
		</g>
		<g>
			<defs>
				<rect id="SVGID_111_" x="122" y="37.3" width="951" height="533"/>
			</defs>
			<clipPath id="SVGID_112_">
				<use xlink:href="#SVGID_111_"  style="overflow:visible;"/>
			</clipPath>
			<path class="st63" d="M209.2,516.3l12,5l-3-5l3-5L209.2,516.3z"/>
		</g>
		<g>
			<defs>
				<rect id="SVGID_113_" x="122" y="37.3" width="951" height="533"/>
			</defs>
			<clipPath id="SVGID_114_">
				<use xlink:href="#SVGID_113_"  style="overflow:visible;"/>
			</clipPath>
			<g class="st64">
				<text transform="matrix(1 0 0 1 373.7837 509.7849)" class="st2 st3">Set Active Destination Response</text>
			</g>
		</g>
		<g>
			<defs>
				<rect id="SVGID_115_" x="122" y="37.3" width="951" height="533"/>
			</defs>
			<clipPath id="SVGID_116_">
				<use xlink:href="#SVGID_115_"  style="overflow:visible;"/>
			</clipPath>
			<path class="st65" d="M208.1,289.9h509.9"/>
		</g>
		<g>
			<defs>
				<rect id="SVGID_117_" x="122" y="37.3" width="951" height="533"/>
			</defs>
			<clipPath id="SVGID_118_">
				<use xlink:href="#SVGID_117_"  style="overflow:visible;"/>
			</clipPath>
			<path class="st66" d="M726.1,289.9l-12-5l3,5l-3,5L726.1,289.9z"/>
		</g>
		<g>
			<defs>
				<rect id="SVGID_119_" x="122" y="37.3" width="951" height="533"/>
			</defs>
			<clipPath id="SVGID_120_">
				<use xlink:href="#SVGID_119_"  style="overflow:visible;"/>
			</clipPath>
			<g class="st67">
				<text transform="matrix(1 0 0 1 418.5699 284.3961)" class="st2 st3">Allocate Request</text>
			</g>
		</g>
		<g>
			<defs>
				<rect id="SVGID_121_" x="122" y="37.3" width="951" height="533"/>
			</defs>
			<clipPath id="SVGID_122_">
				<use xlink:href="#SVGID_121_"  style="overflow:visible;"/>
			</clipPath>
			<path class="st68" d="M204.9,411.4H718"/>
		</g>
		<g>
			<defs>
				<rect id="SVGID_123_" x="122" y="37.3" width="951" height="533"/>
			</defs>
			<clipPath id="SVGID_124_">
				<use xlink:href="#SVGID_123_"  style="overflow:visible;"/>
			</clipPath>
			<path class="st69" d="M726,411.4l-12-5l3,5l-3,5L726,411.4z"/>
		</g>
		<g>
			<defs>
				<rect id="SVGID_125_" x="122" y="37.3" width="951" height="533"/>
			</defs>
			<clipPath id="SVGID_126_">
				<use xlink:href="#SVGID_125_"  style="overflow:visible;"/>
			</clipPath>
			<g class="st70">
				<text transform="matrix(1 0 0 1 256.2974 404.8331)" class="st2 st3">Send Indication ; DATA=Data(A-&gt;B) ; REMOTE-ADDRESS=90.90.90.90:z</text>
			</g>
		</g>
		<g>
			<defs>
				<rect id="SVGID_127_" x="122" y="37.3" width="951" height="533"/>
			</defs>
			<clipPath id="SVGID_128_">
				<use xlink:href="#SVGID_127_"  style="overflow:visible;"/>
			</clipPath>
			<path class="st71" d="M208,495.7h510"/>
		</g>
		<g>
			<defs>
				<rect id="SVGID_129_" x="122" y="37.3" width="951" height="533"/>
			</defs>
			<clipPath id="SVGID_130_">
				<use xlink:href="#SVGID_129_"  style="overflow:visible;"/>
			</clipPath>
			<path class="st72" d="M726,495.7l-12-5l3,5l-3,5L726,495.7z"/>
		</g>
		<g>
			<defs>
				<rect id="SVGID_131_" x="122" y="37.3" width="951" height="533"/>
			</defs>
			<clipPath id="SVGID_132_">
				<use xlink:href="#SVGID_131_"  style="overflow:visible;"/>
			</clipPath>
			<g class="st73">
				<text transform="matrix(1 0 0 1 272.4048 489.1827)" class="st2 st3">Set Active Destination Request ; REMOTE-ADDRESS=90.90.90.90:z</text>
			</g>
		</g>
	</g>
	<g transform="matrix(1,0,0,1,-67,-6)" text-rendering="geometricPrecision" shape-rendering="geometricPrecision">
		<g>
			<defs>
				<rect id="SVGID_133_" x="122" y="37.3" width="951" height="533"/>
			</defs>
			<clipPath id="SVGID_134_">
				<use xlink:href="#SVGID_133_"  style="overflow:visible;"/>
			</clipPath>
			<path class="st74" d="M230.7,533.2l-21,10.5l21,10.5v-7H705v7l21-10.5l-21-10.5v7H230.7V533.2z"/>
		</g>
		<g>
			<defs>
				<rect id="SVGID_135_" x="122" y="37.3" width="951" height="533"/>
			</defs>
			<clipPath id="SVGID_136_">
				<use xlink:href="#SVGID_135_"  style="overflow:visible;"/>
			</clipPath>
			<g class="st75">
				<text transform="matrix(1 0 0 1 427.2505 537.1631)" class="st2 st3">Data (A&lt;-&gt;B)</text>
			</g>
		</g>
	</g>
</g>
</svg>
