<?xml version="1.0" encoding="utf-8"?>
<!-- Generator: Adobe Illustrator 19.0.0, SVG Export Plug-In . SVG Version: 6.00 Build 0)  -->
<svg version="1.1" id="Ebene_1" xmlns="http://www.w3.org/2000/svg" xmlns:xlink="http://www.w3.org/1999/xlink" x="0px" y="0px"
	 viewBox="143 -35.3 861.3 554" style="enable-background:new 143 -35.3 861.3 554;" xml:space="preserve">
<style type="text/css">
	.st0{fill:#010202;}
	.st1{fill:none;}
	.st2{font-family:'MyriadPro-Regular';}
	.st3{font-size:18px;}
	.st4{fill:none;stroke:#000000;stroke-width:2;stroke-miterlimit:10;}
	.st5{opacity:0.25;fill:none;stroke:#000000;stroke-width:29;stroke-miterlimit:10;enable-background:new    ;}
	.st6{fill:none;stroke:#000000;stroke-width:5;stroke-miterlimit:10;}
	.st7{font-size:15px;}
	.st8{fill:none;stroke:#000000;stroke-miterlimit:10;}
	.st9{fill:#C7C6C6;}
	.st10{font-size:16.0585px;}
</style>
<path id="server-4-icon" class="st0" d="M206,18.3h-47.5v11.9H206V18.3L206,18.3z M161.6,26.9l2.1-5.2h2.5l-2.1,5.2H161.6z
	 M165.7,26.9l2.1-5.2h2.5l-2.1,5.2H165.7z M169.8,26.9l2.1-5.2h2.5l-2.1,5.2H169.8z M173.9,26.9l2.1-5.2h2.5l-2.1,5.2H173.9z
	 M180.5,26.9H178l2.1-5.2h2.5L180.5,26.9z M200.4,26c-1,0-1.7-0.8-1.7-1.7s0.8-1.7,1.7-1.7c1,0,1.7,0.8,1.7,1.7S201.3,26,200.4,26z
	 M203.4,15.2h-42.2l8.3-11H195L203.4,15.2z M206,33.4h-47.5v11.9H206V33.4L206,33.4z M161.6,41.9l2.1-5.2h2.5l-2.1,5.2H161.6z
	 M165.7,41.9l2.1-5.2h2.5l-2.1,5.2H165.7z M169.8,41.9l2.1-5.2h2.5l-2.1,5.2H169.8z M173.9,41.9l2.1-5.2h2.5l-2.1,5.2H173.9z
	 M180.5,41.9H178l2.1-5.2h2.5L180.5,41.9z M200.4,41.1c-1,0-1.7-0.8-1.7-1.7c0-1,0.8-1.7,1.7-1.7c1,0,1.7,0.8,1.7,1.7
	S201.3,41.1,200.4,41.1z M206,48.4h-47.5v11.9H206V48.4L206,48.4z M161.6,57l2.1-5.2h2.5l-2.1,5.2H161.6z M165.7,57l2.1-5.2h2.5
	l-2.1,5.2H165.7z M169.8,57l2.1-5.2h2.5l-2.1,5.2H169.8z M173.9,57l2.1-5.2h2.5l-2.1,5.2H173.9z M180.5,57H178l2.1-5.2h2.5L180.5,57
	z M200.4,56.1c-1,0-1.7-0.8-1.7-1.7c0-1,0.8-1.7,1.7-1.7c1,0,1.7,0.8,1.7,1.7S201.3,56.1,200.4,56.1z"/>
<rect id="XMLID_24_" x="316" y="482.8" class="st1" width="64" height="38"/>
<text transform="matrix(1 0 0 1 318.9663 495.5598)" class="st2 st3">Identity</text>
<text transform="matrix(1 0 0 1 316.3663 517.1598)" class="st2 st3">Provider</text>
<path id="laptop-4-icon" class="st0" d="M386,270v2.5c0,2.1-1.7,3.8-3.8,3.8h-71.3c-2.1,0-3.8-1.7-3.8-3.8V270h32
	c0.3,1.2,1.3,1.9,2.6,1.9h9.8c1.3,0,2.3-0.7,2.6-1.9H386z M374.1,229H319v33h55.1V229 M379.3,267.1h-65.5v-39.5
	c0-2.1,1.7-3.8,3.8-3.8h57.8c2.1,0,3.8,1.7,3.8,3.8v39.5H379.3z"/>
<path id="server-4-icon_1_" class="st0" d="M206.2,234.3h-47.5v11.9h47.5V234.3L206.2,234.3z M161.9,242.9l2.1-5.2h2.5l-2.1,5.2
	H161.9z M165.9,242.9l2.1-5.2h2.5l-2.1,5.2H165.9z M170,242.9l2.1-5.2h2.5l-2.1,5.2H170z M174.1,242.9l2.1-5.2h2.5l-2.1,5.2H174.1z
	 M180.7,242.9h-2.5l2.1-5.2h2.5L180.7,242.9z M200.6,242c-1,0-1.7-0.8-1.7-1.7s0.8-1.7,1.7-1.7c1,0,1.7,0.8,1.7,1.7
	S201.5,242,200.6,242z M203.6,231.2h-42.2l8.3-11h25.4L203.6,231.2z M206.2,249.4h-47.5v11.9h47.5V249.4L206.2,249.4z M161.9,257.9
	l2.1-5.2h2.5l-2.1,5.2H161.9z M165.9,257.9l2.1-5.2h2.5l-2.1,5.2H165.9z M170,257.9l2.1-5.2h2.5l-2.1,5.2H170z M174.1,257.9l2.1-5.2
	h2.5l-2.1,5.2H174.1z M180.7,257.9h-2.5l2.1-5.2h2.5L180.7,257.9z M200.6,257.1c-1,0-1.7-0.8-1.7-1.7c0-1,0.8-1.7,1.7-1.7
	c1,0,1.7,0.8,1.7,1.7C202.3,256.3,201.5,257.1,200.6,257.1z M206.2,264.4h-47.5v11.9h47.5V264.4L206.2,264.4z M161.9,273l2.1-5.2
	h2.5l-2.1,5.2H161.9z M165.9,273l2.1-5.2h2.5l-2.1,5.2H165.9z M170,273l2.1-5.2h2.5l-2.1,5.2H170z M174.1,273l2.1-5.2h2.5l-2.1,5.2
	H174.1z M180.7,273h-2.5l2.1-5.2h2.5L180.7,273z M200.6,272.1c-1,0-1.7-0.8-1.7-1.7c0-1,0.8-1.7,1.7-1.7c1,0,1.7,0.8,1.7,1.7
	C202.3,271.3,201.5,272.1,200.6,272.1z"/>
<path id="server-4-icon_2_" class="st0" d="M207.7,434.4h-47.5v11.9h47.5V434.4L207.7,434.4z M163.4,443l2.1-5.2h2.5l-2.1,5.2H163.4
	z M167.4,443l2.1-5.2h2.5l-2.1,5.2H167.4z M171.5,443l2.1-5.2h2.5L174,443H171.5z M175.6,443l2.1-5.2h2.5l-2.1,5.2H175.6z
	 M182.2,443h-2.5l2.1-5.2h2.5L182.2,443z M202.1,442.1c-1,0-1.7-0.8-1.7-1.7s0.8-1.7,1.7-1.7c1,0,1.7,0.8,1.7,1.7
	S203,442.1,202.1,442.1z M205.1,431.3h-42.2l8.3-11h25.4L205.1,431.3z M207.7,449.5h-47.5v11.9h47.5V449.5L207.7,449.5z M163.4,458
	l2.1-5.2h2.5l-2.1,5.2H163.4z M167.4,458l2.1-5.2h2.5l-2.1,5.2H167.4z M171.5,458l2.1-5.2h2.5L174,458H171.5z M175.6,458l2.1-5.2
	h2.5l-2.1,5.2H175.6z M182.2,458h-2.5l2.1-5.2h2.5L182.2,458z M202.1,457.2c-1,0-1.7-0.8-1.7-1.7c0-1,0.8-1.7,1.7-1.7
	c1,0,1.7,0.8,1.7,1.7C203.8,456.4,203,457.2,202.1,457.2z M207.7,464.5h-47.5v11.9h47.5V464.5L207.7,464.5z M163.4,473.1l2.1-5.2
	h2.5l-2.1,5.2H163.4z M167.4,473.1l2.1-5.2h2.5l-2.1,5.2H167.4z M171.5,473.1l2.1-5.2h2.5l-2.1,5.2H171.5z M175.6,473.1l2.1-5.2h2.5
	l-2.1,5.2H175.6z M182.2,473.1h-2.5l2.1-5.2h2.5L182.2,473.1z M202.1,472.2c-1,0-1.7-0.8-1.7-1.7c0-1,0.8-1.7,1.7-1.7
	c1,0,1.7,0.8,1.7,1.7C203.8,471.4,203,472.2,202.1,472.2z"/>
<rect id="XMLID_80_" x="152" y="483.3" class="st1" width="65" height="41"/>
<text transform="matrix(1 0 0 1 160.7222 496.0597)" class="st2 st3">Codec</text>
<text transform="matrix(1 0 0 1 152.8222 517.6597)" class="st2 st3">Provider</text>
<g id="XMLID_28_">
	<polygon id="XMLID_29_" class="st1" points="328.1,452.8 326,458 328.5,458 330.6,452.8 	"/>
	<circle id="XMLID_193_" class="st1" cx="364.7" cy="470.4" r="1.7"/>
	<polygon id="XMLID_194_" class="st1" points="332.2,452.8 330.1,458 332.6,458 334.7,452.8 	"/>
	<polygon id="XMLID_195_" class="st1" points="336.3,452.8 334.2,458 336.7,458 338.8,452.8 	"/>
	<polygon id="XMLID_196_" class="st1" points="336.3,467.8 334.2,473.1 336.7,473.1 338.8,467.8 	"/>
	<polygon id="XMLID_197_" class="st1" points="328.1,467.8 326,473.1 328.5,473.1 330.6,467.8 	"/>
	<polygon id="XMLID_198_" class="st1" points="340.4,467.8 338.3,473.1 340.8,473.1 342.9,467.8 	"/>
	<polygon id="XMLID_199_" class="st1" points="332.2,467.8 330.1,473.1 332.6,473.1 334.7,467.8 	"/>
	<polygon id="XMLID_200_" class="st1" points="340.4,452.8 338.3,458 340.8,458 342.9,452.8 	"/>
	<polygon id="XMLID_201_" class="st1" points="342.4,473.1 344.9,473.1 347,467.8 344.5,467.8 	"/>
	<polygon id="XMLID_202_" class="st1" points="340.4,437.8 338.3,443 340.8,443 342.9,437.8 	"/>
	<polygon id="XMLID_203_" class="st1" points="336.3,437.8 334.2,443 336.7,443 338.8,437.8 	"/>
	<circle id="XMLID_204_" class="st1" cx="364.7" cy="440.4" r="1.7"/>
	<polygon id="XMLID_205_" class="st1" points="332.2,437.8 330.1,443 332.6,443 334.7,437.8 	"/>
	<polygon id="XMLID_206_" class="st1" points="342.4,443 344.9,443 347,437.8 344.5,437.8 	"/>
	<circle id="XMLID_207_" class="st1" cx="364.7" cy="455.4" r="1.7"/>
	<polygon id="XMLID_208_" class="st1" points="342.4,458 344.9,458 347,452.8 344.5,452.8 	"/>
	<polygon id="XMLID_209_" class="st1" points="328.1,437.8 326,443 328.5,443 330.6,437.8 	"/>
	<path id="XMLID_212_" class="st0" d="M370.4,434.4h-47.5v11.9h47.5V434.4L370.4,434.4z M326,443l2.1-5.2h2.5l-2.1,5.2H326z
		 M330.1,443l2.1-5.2h2.5l-2.1,5.2H330.1z M334.2,443l2.1-5.2h2.5l-2.1,5.2H334.2z M338.3,443l2.1-5.2h2.5l-2.1,5.2H338.3z
		 M344.9,443h-2.5l2.1-5.2h2.5L344.9,443z M364.7,442.1c-1,0-1.7-0.8-1.7-1.7s0.8-1.7,1.7-1.7c1,0,1.7,0.8,1.7,1.7
		S365.7,442.1,364.7,442.1z"/>
	<polygon id="XMLID_218_" class="st0" points="359.3,420.3 333.9,420.3 325.6,431.3 367.8,431.3 	"/>
	<path id="XMLID_221_" class="st0" d="M322.9,449.5v11.9h47.5v-11.9l0,0H322.9z M326,458l2.1-5.2h2.5l-2.1,5.2H326z M330.1,458
		l2.1-5.2h2.5l-2.1,5.2H330.1z M334.2,458l2.1-5.2h2.5l-2.1,5.2H334.2z M338.3,458l2.1-5.2h2.5l-2.1,5.2H338.3z M344.9,458h-2.5
		l2.1-5.2h2.5L344.9,458z M364.7,457.2c-1,0-1.7-0.8-1.7-1.7c0-1,0.8-1.7,1.7-1.7c1,0,1.7,0.8,1.7,1.7
		C366.5,456.4,365.7,457.2,364.7,457.2z"/>
	<path id="XMLID_229_" class="st0" d="M322.9,464.5v11.9h47.5v-11.9l0,0H322.9z M326,473.1l2.1-5.2h2.5l-2.1,5.2H326z M330.1,473.1
		l2.1-5.2h2.5l-2.1,5.2H330.1z M334.2,473.1l2.1-5.2h2.5l-2.1,5.2H334.2z M338.3,473.1l2.1-5.2h2.5l-2.1,5.2H338.3z M344.9,473.1
		h-2.5l2.1-5.2h2.5L344.9,473.1z M364.7,472.2c-1,0-1.7-0.8-1.7-1.7c0-1,0.8-1.7,1.7-1.7c1,0,1.7,0.8,1.7,1.7
		C366.5,471.4,365.7,472.2,364.7,472.2z"/>
</g>
<rect id="XMLID_82_" x="152.5" y="-34.8" class="st1" width="64" height="37"/>
<text transform="matrix(1 0 0 1 167.0044 -22.0386)" class="st2 st3">Stub</text>
<text transform="matrix(1 0 0 1 152.9044 -0.4386)" class="st2 st3">Provider</text>
<path id="server-4-icon_4_" class="st0" d="M372.5,18.3H325v11.9h47.5V18.3L372.5,18.3z M328.1,26.9l2.1-5.2h2.5l-2.1,5.2H328.1z
	 M332.2,26.9l2.1-5.2h2.5l-2.1,5.2H332.2z M336.3,26.9l2.1-5.2h2.5l-2.1,5.2H336.3z M340.4,26.9l2.1-5.2h2.5l-2.1,5.2H340.4z
	 M347,26.9h-2.5l2.1-5.2h2.5L347,26.9z M366.9,26c-1,0-1.7-0.8-1.7-1.7s0.8-1.7,1.7-1.7c1,0,1.7,0.8,1.7,1.7S367.8,26,366.9,26z
	 M369.9,15.2h-42.2l8.3-11h25.4L369.9,15.2z M372.5,33.4H325v11.9h47.5V33.4L372.5,33.4z M328.1,41.9l2.1-5.2h2.5l-2.1,5.2H328.1z
	 M332.2,41.9l2.1-5.2h2.5l-2.1,5.2H332.2z M336.3,41.9l2.1-5.2h2.5l-2.1,5.2H336.3z M340.4,41.9l2.1-5.2h2.5l-2.1,5.2H340.4z
	 M347,41.9h-2.5l2.1-5.2h2.5L347,41.9z M366.9,41.1c-1,0-1.7-0.8-1.7-1.7c0-1,0.8-1.7,1.7-1.7c1,0,1.7,0.8,1.7,1.7
	C368.6,40.3,367.8,41.1,366.9,41.1z M372.5,48.4H325v11.9h47.5V48.4L372.5,48.4z M328.1,57l2.1-5.2h2.5l-2.1,5.2H328.1z M332.2,57
	l2.1-5.2h2.5l-2.1,5.2H332.2z M336.3,57l2.1-5.2h2.5l-2.1,5.2H336.3z M340.4,57l2.1-5.2h2.5l-2.1,5.2H340.4z M347,57h-2.5l2.1-5.2
	h2.5L347,57z M366.9,56.1c-1,0-1.7-0.8-1.7-1.7c0-1,0.8-1.7,1.7-1.7c1,0,1.7,0.8,1.7,1.7C368.6,55.3,367.8,56.1,366.9,56.1z"/>
<rect id="XMLID_106_" x="305" y="-35.3" class="st1" width="86" height="38"/>
<text transform="matrix(1 0 0 1 307.627 -22.5381)" class="st2 st3">Messaging</text>
<text transform="matrix(1 0 0 1 324.327 -0.9381)" class="st2 st3">Server</text>
<rect id="XMLID_130_" x="142" y="204.3" class="st1" width="82" height="21"/>
<text id="XMLID_129_" transform="matrix(1 0 0 1 142.9595 217.0598)" class="st2 st3">Webserver</text>
<rect id="XMLID_134_" x="319" y="238.5" class="st1" width="55.1" height="18.2"/>
<text id="XMLID_133_" transform="matrix(1 0 0 1 328.2409 251.2842)" class="st2 st3">Alice</text>
<g id="XMLID_181_">
	<g id="XMLID_432_">
		<line id="XMLID_439_" class="st4" x1="308" y1="253.6" x2="212" y2="253.6"/>
		<g id="XMLID_435_">
			<path id="XMLID_436_" d="M314,253.6c-2.8-1.1-6.4-2.9-8.5-4.8l1.7,4.8l-1.7,4.8C307.6,256.4,311.2,254.6,314,253.6z"/>
		</g>
		<g id="XMLID_433_">
			<path id="XMLID_434_" d="M206,253.6c2.8-1.1,6.4-2.9,8.5-4.8l-1.7,4.8l1.7,4.8C212.4,256.4,208.8,254.6,206,253.6z"/>
		</g>
	</g>
</g>
<g id="XMLID_26_">
	<g id="XMLID_266_">
		<line id="XMLID_430_" class="st4" x1="311.8" y1="221" x2="188.7" y2="65"/>
		<g id="XMLID_428_">
			<path id="XMLID_429_" d="M315.6,225.7c-0.9-2.9-1.7-6.8-1.6-9.7l-2.7,4.3l-4.8,1.6C309.4,222.5,313,224.1,315.6,225.7z"/>
		</g>
		<g id="XMLID_267_">
			<path id="XMLID_279_" d="M185,60.3c2.6,1.6,6.2,3.2,9,3.8l-4.8,1.6l-2.7,4.3C186.7,67.1,185.9,63.2,185,60.3z"/>
		</g>
	</g>
</g>
<g id="XMLID_83_">
	<g id="XMLID_259_">
		<line id="XMLID_264_" class="st4" x1="344" y1="219.3" x2="344" y2="66.3"/>
		<g id="XMLID_262_">
			<path id="XMLID_263_" d="M344,225.3c1.1-2.8,2.9-6.4,4.8-8.5l-4.8,1.7l-4.8-1.7C341.1,218.9,342.9,222.5,344,225.3z"/>
		</g>
		<g id="XMLID_260_">
			<path id="XMLID_261_" d="M344,60.3c1.1,2.8,2.9,6.4,4.8,8.5l-4.8-1.7l-4.8,1.7C341.1,66.7,342.9,63.1,344,60.3z"/>
		</g>
	</g>
</g>
<g id="XMLID_86_">
	<g id="XMLID_251_">
		<line id="XMLID_257_" class="st4" x1="344" y1="414.3" x2="344" y2="282.3"/>
		<g id="XMLID_254_">
			<path id="XMLID_255_" d="M344,420.3c1.1-2.8,2.9-6.4,4.8-8.5l-4.8,1.7l-4.8-1.7C341.1,413.9,342.9,417.5,344,420.3z"/>
		</g>
		<g id="XMLID_252_">
			<path id="XMLID_253_" d="M344,276.3c1.1,2.8,2.9,6.4,4.8,8.5l-4.8-1.7l-4.8,1.7C341.1,282.7,342.9,279.1,344,276.3z"/>
		</g>
	</g>
</g>
<g id="XMLID_88_">
	<g id="XMLID_243_">
		<line id="XMLID_248_" class="st4" x1="202.9" y1="418.6" x2="326.4" y2="280.8"/>
		<g id="XMLID_246_">
			<path id="XMLID_247_" d="M198.8,423.1c2.7-1.4,6.4-2.8,9.2-3.2l-4.7-1.9l-2.4-4.5C201,416.5,199.9,420.3,198.8,423.1z"/>
		</g>
		<g id="XMLID_244_">
			<path id="XMLID_245_" d="M330.4,276.3c-1.1,2.8-2.1,6.6-2.2,9.5l-2.4-4.5l-4.7-1.9C324.1,279.1,327.8,277.7,330.4,276.3z"/>
		</g>
	</g>
</g>
<path id="server-4-icon_7_" class="st0" d="M945,19.3h47.5v11.9H945V19.3L945,19.3z M989.4,27.8l-2.1-5.2h-2.5l2.1,5.2H989.4z
	 M985.3,27.8l-2.1-5.2h-2.5l2.1,5.2H985.3z M981.2,27.8l-2.1-5.2h-2.5l2.1,5.2H981.2z M977.1,27.8l-2.1-5.2h-2.5l2.1,5.2H977.1z
	 M970.5,27.8h2.5l-2.1-5.2h-2.5L970.5,27.8z M950.6,27c1,0,1.7-0.8,1.7-1.7s-0.8-1.7-1.7-1.7c-1,0-1.7,0.8-1.7,1.7
	S949.7,27,950.6,27z M947.6,16.1h42.2l-8.3-11H956L947.6,16.1z M945,34.3h47.5v11.9H945V34.3L945,34.3z M989.4,42.9l-2.1-5.2h-2.5
	l2.1,5.2H989.4z M985.3,42.9l-2.1-5.2h-2.5l2.1,5.2H985.3z M981.2,42.9l-2.1-5.2h-2.5l2.1,5.2H981.2z M977.1,42.9l-2.1-5.2h-2.5
	l2.1,5.2H977.1z M970.5,42.9h2.5l-2.1-5.2h-2.5L970.5,42.9z M950.6,42c1,0,1.7-0.8,1.7-1.7c0-1-0.8-1.7-1.7-1.7
	c-1,0-1.7,0.8-1.7,1.7C948.9,41.2,949.7,42,950.6,42z M945,49.3h47.5v11.9H945V49.3L945,49.3z M989.4,57.9l-2.1-5.2h-2.5l2.1,5.2
	H989.4z M985.3,57.9l-2.1-5.2h-2.5l2.1,5.2H985.3z M981.2,57.9l-2.1-5.2h-2.5l2.1,5.2H981.2z M977.1,57.9l-2.1-5.2h-2.5l2.1,5.2
	H977.1z M970.5,57.9h2.5l-2.1-5.2h-2.5L970.5,57.9z M950.6,57c1,0,1.7-0.8,1.7-1.7c0-1-0.8-1.7-1.7-1.7c-1,0-1.7,0.8-1.7,1.7
	C948.9,56.3,949.7,57,950.6,57z"/>
<path id="laptop-4-icon_1_" class="st0" d="M765,270.9v2.5c0,2.1,1.7,3.8,3.8,3.8h71.3c2.1,0,3.8-1.7,3.8-3.8v-2.5h-32
	c-0.3,1.2-1.3,1.9-2.6,1.9h-9.8c-1.3,0-2.3-0.7-2.6-1.9H765z M776.9,229.9H832v33h-55.1V229.9 M771.7,268h65.5v-39.5
	c0-2.1-1.7-3.8-3.8-3.8h-57.8c-2.1,0-3.8,1.7-3.8,3.8V268H771.7z"/>
<path id="server-4-icon_6_" class="st0" d="M944.8,235.3h47.5v11.9h-47.5V235.3L944.8,235.3z M989.1,243.8l-2.1-5.2h-2.5l2.1,5.2
	H989.1z M985.1,243.8l-2.1-5.2h-2.5l2.1,5.2H985.1z M981,243.8l-2.1-5.2h-2.5l2.1,5.2H981z M976.9,243.8l-2.1-5.2h-2.5l2.1,5.2
	H976.9z M970.3,243.8h2.5l-2.1-5.2h-2.5L970.3,243.8z M950.4,243c1,0,1.7-0.8,1.7-1.7s-0.8-1.7-1.7-1.7c-1,0-1.7,0.8-1.7,1.7
	S949.5,243,950.4,243z M947.4,232.1h42.2l-8.3-11h-25.4L947.4,232.1z M944.8,250.3h47.5v11.9h-47.5V250.3L944.8,250.3z M989.1,258.9
	l-2.1-5.2h-2.5l2.1,5.2H989.1z M985.1,258.9l-2.1-5.2h-2.5l2.1,5.2H985.1z M981,258.9l-2.1-5.2h-2.5l2.1,5.2H981z M976.9,258.9
	l-2.1-5.2h-2.5l2.1,5.2H976.9z M970.3,258.9h2.5l-2.1-5.2h-2.5L970.3,258.9z M950.4,258c1,0,1.7-0.8,1.7-1.7c0-1-0.8-1.7-1.7-1.7
	c-1,0-1.7,0.8-1.7,1.7S949.5,258,950.4,258z M944.8,265.3h47.5v11.9h-47.5V265.3L944.8,265.3z M989.1,273.9l-2.1-5.2h-2.5l2.1,5.2
	H989.1z M985.1,273.9l-2.1-5.2h-2.5l2.1,5.2H985.1z M981,273.9l-2.1-5.2h-2.5l2.1,5.2H981z M976.9,273.9l-2.1-5.2h-2.5l2.1,5.2
	H976.9z M970.3,273.9h2.5l-2.1-5.2h-2.5L970.3,273.9z M950.4,273c1,0,1.7-0.8,1.7-1.7c0-1-0.8-1.7-1.7-1.7c-1,0-1.7,0.8-1.7,1.7
	C948.7,272.3,949.5,273,950.4,273z"/>
<path id="server-4-icon_5_" class="st0" d="M943.3,435.4h47.5v11.9h-47.5V435.4L943.3,435.4z M987.6,443.9l-2.1-5.2H983l2.1,5.2
	H987.6z M983.6,443.9l-2.1-5.2H979l2.1,5.2H983.6z M979.5,443.9l-2.1-5.2h-2.5l2.1,5.2H979.5z M975.4,443.9l-2.1-5.2h-2.5l2.1,5.2
	H975.4z M968.8,443.9h2.5l-2.1-5.2h-2.5L968.8,443.9z M948.9,443.1c1,0,1.7-0.8,1.7-1.7s-0.8-1.7-1.7-1.7c-1,0-1.7,0.8-1.7,1.7
	S948,443.1,948.9,443.1z M945.9,432.2h42.2l-8.3-11h-25.4L945.9,432.2z M943.3,450.4h47.5v11.9h-47.5V450.4L943.3,450.4z M987.6,459
	l-2.1-5.2H983l2.1,5.2H987.6z M983.6,459l-2.1-5.2H979l2.1,5.2H983.6z M979.5,459l-2.1-5.2h-2.5l2.1,5.2H979.5z M975.4,459l-2.1-5.2
	h-2.5l2.1,5.2H975.4z M968.8,459h2.5l-2.1-5.2h-2.5L968.8,459z M948.9,458.1c1,0,1.7-0.8,1.7-1.7c0-1-0.8-1.7-1.7-1.7
	c-1,0-1.7,0.8-1.7,1.7S948,458.1,948.9,458.1z M943.3,465.4h47.5v11.9h-47.5V465.4L943.3,465.4z M987.6,474l-2.1-5.2H983l2.1,5.2
	H987.6z M983.6,474l-2.1-5.2H979l2.1,5.2H983.6z M979.5,474l-2.1-5.2h-2.5l2.1,5.2H979.5z M975.4,474l-2.1-5.2h-2.5l2.1,5.2H975.4z
	 M968.8,474h2.5l-2.1-5.2h-2.5L968.8,474z M948.9,473.1c1,0,1.7-0.8,1.7-1.7c0-1-0.8-1.7-1.7-1.7c-1,0-1.7,0.8-1.7,1.7
	S948,473.1,948.9,473.1z"/>
<g id="XMLID_297_">
	<polygon id="XMLID_354_" class="st1" points="822.9,453.7 825,459 822.5,459 820.4,453.7 	"/>
	<circle id="XMLID_353_" class="st1" cx="786.3" cy="471.4" r="1.7"/>
	<polygon id="XMLID_352_" class="st1" points="818.8,453.7 820.9,459 818.4,459 816.3,453.7 	"/>
	<polygon id="XMLID_351_" class="st1" points="814.7,453.7 816.8,459 814.3,459 812.2,453.7 	"/>
	<polygon id="XMLID_350_" class="st1" points="814.7,468.8 816.8,474 814.3,474 812.2,468.8 	"/>
	<polygon id="XMLID_349_" class="st1" points="822.9,468.8 825,474 822.5,474 820.4,468.8 	"/>
	<polygon id="XMLID_348_" class="st1" points="810.6,468.8 812.7,474 810.2,474 808.1,468.8 	"/>
	<polygon id="XMLID_347_" class="st1" points="818.8,468.8 820.9,474 818.4,474 816.3,468.8 	"/>
	<polygon id="XMLID_346_" class="st1" points="810.6,453.7 812.7,459 810.2,459 808.1,453.7 	"/>
	<polygon id="XMLID_345_" class="st1" points="808.6,474 806.1,474 804,468.8 806.5,468.8 	"/>
	<polygon id="XMLID_344_" class="st1" points="810.6,438.7 812.7,443.9 810.2,443.9 808.1,438.7 	"/>
	<polygon id="XMLID_343_" class="st1" points="814.7,438.7 816.8,443.9 814.3,443.9 812.2,438.7 	"/>
	<circle id="XMLID_342_" class="st1" cx="786.3" cy="441.3" r="1.7"/>
	<polygon id="XMLID_341_" class="st1" points="818.8,438.7 820.9,443.9 818.4,443.9 816.3,438.7 	"/>
	<polygon id="XMLID_340_" class="st1" points="808.6,443.9 806.1,443.9 804,438.7 806.5,438.7 	"/>
	<circle id="XMLID_339_" class="st1" cx="786.3" cy="456.4" r="1.7"/>
	<polygon id="XMLID_325_" class="st1" points="808.6,459 806.1,459 804,453.7 806.5,453.7 	"/>
	<polygon id="XMLID_324_" class="st1" points="822.9,438.7 825,443.9 822.5,443.9 820.4,438.7 	"/>
	<path id="XMLID_316_" class="st0" d="M780.6,435.4h47.5v11.9h-47.5V435.4L780.6,435.4z M825,443.9l-2.1-5.2h-2.5l2.1,5.2H825z
		 M820.9,443.9l-2.1-5.2h-2.5l2.1,5.2H820.9z M816.8,443.9l-2.1-5.2h-2.5l2.1,5.2H816.8z M812.7,443.9l-2.1-5.2h-2.5l2.1,5.2H812.7z
		 M806.1,443.9h2.5l-2.1-5.2H804L806.1,443.9z M786.3,443.1c1,0,1.7-0.8,1.7-1.7s-0.8-1.7-1.7-1.7c-1,0-1.7,0.8-1.7,1.7
		S785.3,443.1,786.3,443.1z"/>
	<polygon id="XMLID_315_" class="st0" points="791.7,421.2 817.1,421.2 825.4,432.2 783.2,432.2 	"/>
	<path id="XMLID_306_" class="st0" d="M828.1,450.4v11.9h-47.5v-11.9l0,0H828.1z M825,459l-2.1-5.2h-2.5l2.1,5.2H825z M820.9,459
		l-2.1-5.2h-2.5l2.1,5.2H820.9z M816.8,459l-2.1-5.2h-2.5l2.1,5.2H816.8z M812.7,459l-2.1-5.2h-2.5l2.1,5.2H812.7z M806.1,459h2.5
		l-2.1-5.2H804L806.1,459z M786.3,458.1c1,0,1.7-0.8,1.7-1.7c0-1-0.8-1.7-1.7-1.7c-1,0-1.7,0.8-1.7,1.7
		C784.5,457.3,785.3,458.1,786.3,458.1z"/>
	<path id="XMLID_298_" class="st0" d="M828.1,465.4v11.9h-47.5v-11.9l0,0H828.1z M825,474l-2.1-5.2h-2.5l2.1,5.2H825z M820.9,474
		l-2.1-5.2h-2.5l2.1,5.2H820.9z M816.8,474l-2.1-5.2h-2.5l2.1,5.2H816.8z M812.7,474l-2.1-5.2h-2.5l2.1,5.2H812.7z M806.1,474h2.5
		l-2.1-5.2H804L806.1,474z M786.3,473.1c1,0,1.7-0.8,1.7-1.7c0-1-0.8-1.7-1.7-1.7c-1,0-1.7,0.8-1.7,1.7
		C784.5,472.3,785.3,473.1,786.3,473.1z"/>
</g>
<path id="server-4-icon_3_" class="st0" d="M778.5,19.3H826v11.9h-47.5V19.3L778.5,19.3z M822.9,27.8l-2.1-5.2h-2.5l2.1,5.2H822.9z
	 M818.8,27.8l-2.1-5.2h-2.5l2.1,5.2H818.8z M814.7,27.8l-2.1-5.2h-2.5l2.1,5.2H814.7z M810.6,27.8l-2.1-5.2H806l2.1,5.2H810.6z
	 M804,27.8h2.5l-2.1-5.2h-2.5L804,27.8z M784.1,27c1,0,1.7-0.8,1.7-1.7c0-1-0.8-1.7-1.7-1.7c-1,0-1.7,0.8-1.7,1.7
	C782.4,26.2,783.2,27,784.1,27z M781.1,16.1h42.2l-8.3-11h-25.4L781.1,16.1z M778.5,34.3H826v11.9h-47.5V34.3L778.5,34.3z
	 M822.9,42.9l-2.1-5.2h-2.5l2.1,5.2H822.9z M818.8,42.9l-2.1-5.2h-2.5l2.1,5.2H818.8z M814.7,42.9l-2.1-5.2h-2.5l2.1,5.2H814.7z
	 M810.6,42.9l-2.1-5.2H806l2.1,5.2H810.6z M804,42.9h2.5l-2.1-5.2h-2.5L804,42.9z M784.1,42c1,0,1.7-0.8,1.7-1.7
	c0-1-0.8-1.7-1.7-1.7c-1,0-1.7,0.8-1.7,1.7C782.4,41.2,783.2,42,784.1,42z M778.5,49.3H826v11.9h-47.5V49.3L778.5,49.3z M822.9,57.9
	l-2.1-5.2h-2.5l2.1,5.2H822.9z M818.8,57.9l-2.1-5.2h-2.5l2.1,5.2H818.8z M814.7,57.9l-2.1-5.2h-2.5l2.1,5.2H814.7z M810.6,57.9
	l-2.1-5.2H806l2.1,5.2H810.6z M804,57.9h2.5l-2.1-5.2h-2.5L804,57.9z M784.1,57c1,0,1.7-0.8,1.7-1.7c0-1-0.8-1.7-1.7-1.7
	c-1,0-1.7,0.8-1.7,1.7C782.4,56.3,783.2,57,784.1,57z"/>
<g id="XMLID_256_">
	<g id="XMLID_235_">
		<line id="XMLID_241_" class="st4" x1="843" y1="254.5" x2="939" y2="254.5"/>
		<g id="XMLID_239_">
			<path id="XMLID_240_" d="M837,254.5c2.8,1.1,6.4,2.9,8.5,4.8l-1.7-4.8l1.7-4.8C843.4,251.7,839.8,253.5,837,254.5z"/>
		</g>
		<g id="XMLID_236_">
			<path id="XMLID_237_" d="M945,254.5c-2.8,1.1-6.4,2.9-8.5,4.8l1.7-4.8l-1.7-4.8C938.6,251.7,942.2,253.5,945,254.5z"/>
		</g>
	</g>
</g>
<g id="XMLID_250_">
	<g id="XMLID_186_">
		<line id="XMLID_191_" class="st4" x1="839.2" y1="221.9" x2="962.3" y2="66"/>
		<g id="XMLID_189_">
			<path id="XMLID_190_" d="M835.4,226.6c2.6-1.6,6.2-3.2,9-3.8l-4.8-1.6l-2.7-4.3C837.1,219.9,836.4,223.8,835.4,226.6z"/>
		</g>
		<g id="XMLID_187_">
			<path id="XMLID_188_" d="M966,61.2c-0.9,2.9-1.7,6.8-1.6,9.7l-2.7-4.3l-4.8-1.6C959.8,64.5,963.4,62.8,966,61.2z"/>
		</g>
	</g>
</g>
<g id="XMLID_238_">
	<g id="XMLID_178_">
		<line id="XMLID_184_" class="st4" x1="807" y1="220.2" x2="807" y2="67.3"/>
		<g id="XMLID_182_">
			<path id="XMLID_183_" d="M807,226.2c1.1-2.8,2.9-6.4,4.8-8.5l-4.8,1.7l-4.8-1.7C804.1,219.9,805.9,223.4,807,226.2z"/>
		</g>
		<g id="XMLID_179_">
			<path id="XMLID_180_" d="M807,61.2c1.1,2.8,2.9,6.4,4.8,8.5L807,68l-4.8,1.7C804.1,67.6,805.9,64.1,807,61.2z"/>
		</g>
	</g>
</g>
<g id="XMLID_136_">
	<g id="XMLID_171_">
		<line id="XMLID_176_" class="st4" x1="807" y1="415.2" x2="807" y2="283.3"/>
		<g id="XMLID_174_">
			<path id="XMLID_175_" d="M807,421.2c1.1-2.8,2.9-6.4,4.8-8.5l-4.8,1.7l-4.8-1.7C804.1,414.9,805.9,418.4,807,421.2z"/>
		</g>
		<g id="XMLID_172_">
			<path id="XMLID_173_" d="M807,277.2c1.1,2.8,2.9,6.4,4.8,8.5L807,284l-4.8,1.7C804.1,283.6,805.9,280.1,807,277.2z"/>
		</g>
	</g>
</g>
<g id="XMLID_33_">
	<g id="XMLID_164_">
		<line id="XMLID_169_" class="st4" x1="948.1" y1="419.6" x2="824.6" y2="281.7"/>
		<g id="XMLID_167_">
			<path id="XMLID_168_" d="M952.2,424.1c-1.1-2.8-2.1-6.6-2.2-9.5l-2.4,4.5l-4.7,1.9C945.8,421.2,949.5,422.6,952.2,424.1z"/>
		</g>
		<g id="XMLID_165_">
			<path id="XMLID_166_" d="M820.6,277.2c2.7,1.4,6.4,2.8,9.2,3.2l-4.7,1.9l-2.4,4.5C822.7,283.9,821.7,280.1,820.6,277.2z"/>
		</g>
	</g>
</g>
<rect id="XMLID_103_" x="940.3" y="-34.8" class="st1" width="64" height="37"/>
<text transform="matrix(1 0 0 1 954.7582 -22.0386)" class="st2 st3">Stub</text>
<text transform="matrix(1 0 0 1 940.6582 -0.4386)" class="st2 st3">Provider</text>
<rect id="XMLID_100_" x="761.5" y="-34.9" class="st1" width="86" height="38"/>
<text transform="matrix(1 0 0 1 764.1075 -22.1571)" class="st2 st3">Messaging</text>
<text transform="matrix(1 0 0 1 780.8075 -0.5571)" class="st2 st3">Server</text>
<rect id="XMLID_35_" x="775.4" y="238.9" class="st1" width="55.1" height="18.2"/>
<text id="XMLID_34_" transform="matrix(1 0 0 1 788.0604 251.6651)" class="st2 st3">Bob</text>
<rect id="XMLID_270_" x="768" y="482.8" class="st1" width="64" height="38"/>
<text transform="matrix(1 0 0 1 770.964 495.5598)" class="st2 st3">Identity</text>
<text transform="matrix(1 0 0 1 768.364 517.1598)" class="st2 st3">Provider</text>
<rect id="XMLID_268_" x="935" y="484.3" class="st1" width="65" height="41"/>
<text transform="matrix(1 0 0 1 943.7222 497.0345)" class="st2 st3">Codec</text>
<text transform="matrix(1 0 0 1 935.8222 518.6345)" class="st2 st3">Provider</text>
<rect id="XMLID_131_" x="925" y="205.3" class="st1" width="82" height="21"/>
<text id="XMLID_104_" transform="matrix(1 0 0 1 925.9595 218.0345)" class="st2 st3">Webserver</text>
<g id="XMLID_277_">
	<g id="XMLID_157_">
		<line id="XMLID_162_" class="st4" x1="379.6" y1="220.3" x2="773.6" y2="39.2"/>
		<g id="XMLID_160_">
			<path id="XMLID_161_" d="M374.1,222.8c3-0.2,7-0.1,9.8,0.8l-3.5-3.6l-0.4-5C378.7,217.5,376.2,220.6,374.1,222.8z"/>
		</g>
		<g id="XMLID_158_">
			<path id="XMLID_159_" d="M779.1,36.7c-2.1,2.1-4.6,5.2-5.8,7.9l-0.4-5l-3.5-3.6C772.2,36.8,776.1,36.9,779.1,36.7z"/>
		</g>
	</g>
</g>
<line id="XMLID_282_" class="st5" x1="379.3" y1="249.8" x2="771.7" y2="249.8"/>
<g id="XMLID_296_">
	<g id="XMLID_338_">
		<line id="XMLID_452_" class="st6" x1="387.6" y1="256.4" x2="763.4" y2="256.1"/>
		<g id="XMLID_450_">
			<polygon id="XMLID_451_" points="389.4,262.7 378.6,256.5 389.4,250.2 			"/>
		</g>
		<g id="XMLID_438_">
			<polygon id="XMLID_449_" points="761.6,262.3 772.4,256.1 761.6,249.8 			"/>
		</g>
	</g>
</g>
<rect id="XMLID_355_" x="527.5" y="286.2" class="st1" width="105.1" height="18.2"/>
<text id="XMLID_308_" transform="matrix(1 0 0 1 539.3795 296.8293)" class="st2 st7">DataChannel</text>
<line id="XMLID_404_" class="st8" x1="497" y1="255.1" x2="538.5" y2="292.3"/>
<rect id="XMLID_437_" x="518" y="237.3" class="st1" width="105.1" height="18.2"/>
<text id="XMLID_405_" transform="matrix(1 0 0 1 520.1818 247.9161)" class="st2 st7">PeerConnection</text>
<circle id="XMLID_333_" class="st9" cx="253.6" cy="253.6" r="13.9"/>
<rect id="XMLID_332_" x="239.7" y="247.4" class="st1" width="27.7" height="12"/>
<text id="XMLID_331_" transform="matrix(1 0 0 1 249.4049 258.7339)" class="st2 st10">1</text>
<circle id="XMLID_457_" class="st9" cx="343.1" cy="359.3" r="13.9"/>
<rect id="XMLID_456_" x="329.2" y="353.1" class="st1" width="27.7" height="12"/>
<text id="XMLID_455_" transform="matrix(1 0 0 1 338.9494 364.5047)" class="st2 st10">2</text>
<circle id="XMLID_461_" class="st9" cx="253.6" cy="358.9" r="13.9"/>
<rect id="XMLID_460_" x="239.7" y="352.7" class="st1" width="27.7" height="12"/>
<text id="XMLID_459_" transform="matrix(1 0 0 1 249.4049 364.0915)" class="st2 st10">9</text>
<circle id="XMLID_336_" class="st9" cx="252.5" cy="148.5" r="13.9"/>
<rect id="XMLID_335_" x="238.6" y="142.3" class="st1" width="27.7" height="12"/>
<text id="XMLID_328_" transform="matrix(1 0 0 1 248.3026 153.6476)" class="st2 st10">3</text>
<circle id="XMLID_464_" class="st9" cx="344" cy="148.6" r="13.9"/>
<rect id="XMLID_463_" x="330.1" y="142.3" class="st1" width="27.7" height="12"/>
<text id="XMLID_462_" transform="matrix(1 0 0 1 339.8026 153.7261)" class="st2 st10">4</text>
<circle id="XMLID_468_" class="st9" cx="531.9" cy="148.3" r="13.9"/>
<rect id="XMLID_467_" x="518" y="142.1" class="st1" width="27.7" height="12"/>
<text id="XMLID_466_" transform="matrix(1 0 0 1 527.7357 153.4437)" class="st2 st10">7</text>
<circle id="XMLID_472_" class="st9" cx="807" cy="147.9" r="13.9"/>
<rect id="XMLID_471_" x="793.1" y="141.7" class="st1" width="27.7" height="12"/>
<text id="XMLID_470_" transform="matrix(1 0 0 1 802.8026 153.0359)" class="st2 st10">4</text>
<circle id="XMLID_476_" class="st9" cx="895.4" cy="148.6" r="13.9"/>
<rect id="XMLID_475_" x="881.5" y="142.3" class="st1" width="27.7" height="12"/>
<text id="XMLID_474_" transform="matrix(1 0 0 1 891.2239 153.7261)" class="st2 st10">3</text>
<circle id="XMLID_480_" class="st9" cx="895.4" cy="253.6" r="13.9"/>
<rect id="XMLID_479_" x="881.5" y="247.4" class="st1" width="27.7" height="12"/>
<text id="XMLID_478_" transform="matrix(1 0 0 1 891.2239 258.8091)" class="st2 st10">1</text>
<circle id="XMLID_484_" class="st9" cx="892.5" cy="355.7" r="13.9"/>
<rect id="XMLID_483_" x="878.5" y="349.5" class="st1" width="27.7" height="12"/>
<text id="XMLID_482_" transform="matrix(1 0 0 1 884.1559 360.8823)" class="st2 st10">10</text>
<circle id="XMLID_488_" class="st9" cx="807" cy="355.7" r="13.9"/>
<rect id="XMLID_487_" x="793.1" y="349.5" class="st1" width="27.7" height="12"/>
<text id="XMLID_486_" transform="matrix(1 0 0 1 802.8026 360.8823)" class="st2 st10">2</text>
<circle id="XMLID_492_" class="st9" cx="601.2" cy="218.3" r="13.9"/>
<rect id="XMLID_491_" x="587.3" y="212.1" class="st1" width="27.7" height="12"/>
<text id="XMLID_490_" transform="matrix(1 0 0 1 596.9869 223.4423)" class="st2 st10">8</text>
<g id="XMLID_27_">
	<g id="XMLID_150_">
		<line id="XMLID_155_" class="st4" x1="384.3" y1="231.3" x2="940.7" y2="43"/>
		<g id="XMLID_153_">
			<path id="XMLID_154_" d="M378.6,233.3c3,0.1,6.9,0.7,9.6,1.8l-3.2-4l0.1-5.1C383.7,228.5,381,231.3,378.6,233.3z"/>
		</g>
		<g id="XMLID_151_">
			<path id="XMLID_152_" d="M946.4,41.1c-2.4,1.9-5.1,4.7-6.6,7.2l0.1-5.1l-3.2-4C939.4,40.4,943.3,41,946.4,41.1z"/>
		</g>
	</g>
</g>
<g id="XMLID_84_">
	<g id="XMLID_143_">
		<line id="XMLID_148_" class="st4" x1="370.2" y1="279.4" x2="775.1" y2="454"/>
		<g id="XMLID_146_">
			<path id="XMLID_147_" d="M364.6,277c2.2,2.1,4.7,5.1,6,7.8l0.3-5l3.5-3.7C371.6,276.9,367.7,277.2,364.6,277z"/>
		</g>
		<g id="XMLID_144_">
			<path id="XMLID_145_" d="M780.6,456.4c-3-0.2-7,0.1-9.7,1l3.5-3.7l0.3-5C775.9,451.2,778.4,454.3,780.6,456.4z"/>
		</g>
	</g>
</g>
<g id="XMLID_85_">
	<g id="XMLID_135_">
		<line id="XMLID_141_" class="st4" x1="389.6" y1="277.6" x2="937.5" y2="433.7"/>
		<g id="XMLID_139_">
			<path id="XMLID_140_" d="M383.8,275.9c2.4,1.8,5.3,4.5,6.9,6.9l-0.4-5l3-4.1C390.7,274.9,386.8,275.7,383.8,275.9z"/>
		</g>
		<g id="XMLID_137_">
			<path id="XMLID_138_" d="M943.3,435.4c-3,0.2-6.9,1-9.5,2.2l3-4.1l-0.4-5C937.9,430.9,940.8,433.6,943.3,435.4z"/>
		</g>
	</g>
</g>
<circle id="XMLID_92_" class="st9" cx="625.1" cy="148.1" r="13.9"/>
<rect id="XMLID_91_" x="611.2" y="141.9" class="st1" width="27.7" height="12"/>
<text id="XMLID_90_" transform="matrix(1 0 0 1 620.9352 153.2398)" class="st2 st10">6</text>
<circle id="XMLID_95_" class="st9" cx="662.5" cy="355.5" r="13.9"/>
<rect id="XMLID_94_" x="648.6" y="349.3" class="st1" width="27.7" height="12"/>
<text id="XMLID_93_" transform="matrix(1 0 0 1 654.1839 360.6784)" class="st2 st10">10</text>
<circle id="XMLID_98_" class="st9" cx="552.4" cy="357.4" r="13.9"/>
<rect id="XMLID_97_" x="538.5" y="351.2" class="st1" width="27.7" height="12"/>
<text id="XMLID_96_" transform="matrix(1 0 0 1 548.2357 362.5967)" class="st2 st10">5</text>
</svg>
