<?xml version="1.0" encoding="utf-8"?>
<!-- Generator: Adobe Illustrator 19.0.0, SVG Export Plug-In . SVG Version: 6.00 Build 0)  -->
<svg version="1.1" id="Ebene_1" xmlns="http://www.w3.org/2000/svg" xmlns:xlink="http://www.w3.org/1999/xlink" x="0px" y="0px"
	 viewBox="0 0 707.6 122" style="enable-background:new 0 0 707.6 122;" xml:space="preserve">
<style type="text/css">
	.st0{fill:#010202;}
	.st1{fill:none;stroke:#010202;stroke-width:3;stroke-miterlimit:10;}
	.st2{fill:none;}
	.st3{font-family:'MyriadPro-Regular';}
	.st4{font-size:12px;}
</style>
<path id="server-4-icon" class="st0" d="M707.6,30.2H646v15.4h61.6L707.6,30.2L707.6,30.2z M650.1,41.3l2.7-6.8h3.3l-2.7,6.8H650.1z
	 M655.4,41.3l2.7-6.8h3.3l-2.7,6.8H655.4z M660.7,41.3l2.7-6.8h3.3l-2.7,6.8H660.7z M666,41.3l2.7-6.8h3.3l-2.7,6.8H666z
	 M674.6,41.3h-3.3l2.7-6.8h3.3L674.6,41.3z M700.3,40.2c-1.2,0-2.3-1-2.3-2.3c0-1.2,1-2.3,2.3-2.3c1.2,0,2.3,1,2.3,2.3
	C702.6,39.2,701.5,40.2,700.3,40.2z M704.2,26.1h-54.7l10.8-14.2h33L704.2,26.1z M707.6,49.7H646v15.4h61.6L707.6,49.7L707.6,49.7z
	 M650.1,60.8l2.7-6.8h3.3l-2.7,6.8H650.1z M655.4,60.8l2.7-6.8h3.3l-2.7,6.8H655.4z M660.7,60.8l2.7-6.8h3.3l-2.7,6.8H660.7z
	 M666,60.8l2.7-6.8h3.3l-2.7,6.8H666z M674.6,60.8h-3.3L674,54h3.3L674.6,60.8z M700.3,59.7c-1.2,0-2.3-1-2.3-2.3
	c0-1.2,1-2.3,2.3-2.3c1.2,0,2.3,1,2.3,2.3C702.6,58.7,701.5,59.7,700.3,59.7z M707.6,69.2H646v15.4h61.6L707.6,69.2L707.6,69.2z
	 M650.1,80.3l2.7-6.8h3.3l-2.7,6.8H650.1z M655.4,80.3l2.7-6.8h3.3l-2.7,6.8H655.4z M660.7,80.3l2.7-6.8h3.3l-2.7,6.8H660.7z
	 M666,80.3l2.7-6.8h3.3l-2.7,6.8H666z M674.6,80.3h-3.3l2.7-6.8h3.3L674.6,80.3z M700.3,79.2c-1.2,0-2.3-1-2.3-2.3
	c0-1.2,1-2.3,2.3-2.3c1.2,0,2.3,1,2.3,2.3C702.6,78.1,701.5,79.2,700.3,79.2z"/>
<path id="email-icon" class="st0" d="M82.2,16.2l-7.7-5.9v13.6L82.2,16.2z M100.7,7.5H74.6l13.1,10L100.7,7.5z M91.3,17.5l-3.7,2.8
	L84,17.5L74.5,27h26.2L91.3,17.5z M93.1,16.2l7.7,7.7V10.3L93.1,16.2z"/>
<path id="email-6-icon" class="st0" d="M294.3,13.8L281,26.2h26.6L294.3,13.8z M307.7,10.2v13L300,16l5.8-4.4l-11.5-8.7l-11.5,8.7
	l5.8,4.4l-7.6,7.2v-13L294.3,0L307.7,10.2z"/>
<path id="computer-5-icon" class="st0" d="M24.8,58.2l-6.5,6.5h31.1l-6.5-6.5H24.8z M67.6,54.4H0V6.1h67.6L67.6,54.4L67.6,54.4z
	 M61.1,47.9V12.6l-54.6,0l0,35.3H61.1z M0,68.6v13.6h67.6V68.6H0z M33.8,77c-0.9,0-1.6-0.7-1.6-1.6s0.7-1.6,1.6-1.6
	c0.9,0,1.6,0.7,1.6,1.6S34.7,77,33.8,77z M61.9,76.9H41.1V74h20.7L61.9,76.9L61.9,76.9z"/>
<path id="html-code-icon" class="st0" d="M370.9,50.2h1.9l-4.4,11.6h-1.9L370.9,50.2z M379.7,56.8l-5.7,3.2v-2l3.3-1.9l-3.3-1.9v-2
	l5.7,3.2V56.8z M359.5,55.5l5.7-3.2v2l-3.3,1.9l3.3,1.9v2l-5.7-3.2V55.5z"/>
<path id="XMLID_120_" class="st0" d="M370.1,10H327v75.8h61.7V28.5L370.1,10z M381.3,78.4h-47V17.3h31.2v15.8h15.8V78.4z"/>
<g id="XMLID_48_">
	<g id="XMLID_50_">
		<line id="XMLID_53_" class="st1" x1="67.7" y1="30.9" x2="316.9" y2="30.9"/>
		<g id="XMLID_51_">
			<path id="XMLID_52_" class="st0" d="M326,30.9c-4.3,1.6-9.5,4.3-12.8,7.1l2.6-7.1l-2.6-7.1C316.4,26.6,321.7,29.3,326,30.9z"/>
		</g>
	</g>
</g>
<path id="email-icon_1_" class="st0" d="M400.4,15.1l-7.7-5.9v13.6L400.4,15.1z M419,6.4h-26.1l13.1,10L419,6.4z M409.5,16.5
	l-3.7,2.8l-3.7-2.8l-9.5,9.5H419L409.5,16.5z M411.3,15.1l7.7,7.7V9.2L411.3,15.1z"/>
<path id="email-6-icon_1_" class="st0" d="M615.6,14.5l-13.3,12.4h26.6L615.6,14.5z M628.9,10.9v13l-7.6-7.1l5.8-4.4l-11.5-8.7
	l-11.5,8.7l5.8,4.4l-7.6,7.2v-13l13.3-10.2L628.9,10.9z"/>
<path id="javascript-code-icon_1_" class="st0" d="M338.1,56c0.7,0.3,1.2,1,1.2,2.1v1.4c0,1,0.9,1.3,1.7,1.3v1.5
	c-2.1,0-3.4-0.7-3.4-2.6v-1.5c0-1-0.8-1.4-1.6-1.4v-1.5c0.8,0,1.6-0.4,1.6-1.4v-1.5c0-1.9,1.3-2.6,3.4-2.6v1.5
	c-0.8,0-1.7,0.3-1.7,1.3v1.4C339.3,55,338.8,55.7,338.1,56z M347.1,53.9v-1.4c0-1-0.9-1.3-1.7-1.3v-1.5c2.1,0,3.4,0.7,3.4,2.6v1.5
	c0,1,0.8,1.4,1.6,1.4v1.5c-0.8,0-1.6,0.4-1.6,1.4v1.5c0,1.9-1.3,2.6-3.4,2.6v-1.5c0.8,0,1.7-0.3,1.7-1.3v-1.4c0-1.2,0.5-1.8,1.2-2.1
	C347.6,55.7,347.1,55,347.1,53.9z M344.3,56.6c0,0,0,0.6,0,1.2c0,1.1-0.7,2-1.8,2.2l-0.2-0.4c0.5-0.2,0.8-0.7,0.8-1.2h-0.8v-1.8
	L344.3,56.6L344.3,56.6z M344.3,52.7h-2v1.9h2V52.7z"/>
<path id="XMLID_75_" class="st2" d="M350.3,47.2c0-4.3,11.8-7.8,26.3-7.8"/>
<g id="XMLID_83_">
	<g id="XMLID_96_">
		<path id="XMLID_99_" class="st1" d="M363.5,51.4c-1.9-2.6-5.5-3.5-9.1-2.7"/>
		<g id="XMLID_97_">
			<path id="XMLID_98_" class="st0" d="M349.5,51c2-1.9,4.2-4.7,5.3-7l0.3,4.5l3.1,3.3C355.8,51.1,352.2,50.9,349.5,51z"/>
		</g>
	</g>
</g>
<g id="XMLID_84_">
	<g id="XMLID_101_">
		<path id="XMLID_104_" class="st1" d="M350.6,60.1c2.4,2.1,5.4,2.8,8.1,2.3"/>
		<g id="XMLID_102_">
			<path id="XMLID_103_" class="st0" d="M363.4,59.7c-1.8,2-3.9,4.9-4.8,7.4l-0.6-4.5l-3.4-3.1C357.2,60.1,360.7,60.1,363.4,59.7z"
				/>
		</g>
	</g>
</g>
<g id="XMLID_86_">
	<g id="XMLID_88_">
		<line id="XMLID_91_" class="st1" x1="76.5" y1="50.5" x2="326" y2="50.5"/>
		<g id="XMLID_89_">
			<path id="XMLID_90_" class="st0" d="M67.7,50.5c4.2,1.5,9.4,4.2,12.6,7l-2.5-7l2.5-7C77,46.3,71.8,48.9,67.7,50.5z"/>
		</g>
	</g>
</g>
<path id="email-6-icon_3_" class="st0" d="M406.1,70.9l-13.3,12.4h26.6L406.1,70.9z M419.4,67.3v13l-7.6-7.1l5.8-4.4l-11.5-8.7
	l-11.5,8.7l5.8,4.4l-7.6,7.2v-13l13.3-10.2L419.4,67.3z"/>
<path id="email-icon_3_" class="st0" d="M610.1,69.8l-7.7-5.9v13.6L610.1,69.8z M628.6,61.2h-26.1l13.1,10L628.6,61.2z M619.2,71.2
	l-3.7,2.8l-3.7-2.8l-9.5,9.5h26.2L619.2,71.2z M621,69.8l7.7,7.7V63.9L621,69.8z"/>
<path id="email-6-icon_4_" class="st0" d="M86.8,69.4L73.5,81.8H100L86.8,69.4z M100.1,65.7v13l-7.6-7.1l5.8-4.4l-11.5-8.7
	l-11.5,8.7l5.8,4.4l-7.6,7.2v-13l13.3-10.2L100.1,65.7z"/>
<path id="email-icon_4_" class="st0" d="M288.9,68.3l-7.7-5.9V76L288.9,68.3z M307.4,59.6h-26.1l13.1,10L307.4,59.6z M298,69.7
	l-3.7,2.8l-3.7-2.8l-9.5,9.5h26.2L298,69.7z M299.8,68.3l7.7,7.7V62.4L299.8,68.3z"/>
<rect id="XMLID_43_" x="139.1" y="36" class="st2" width="115.3" height="14.6"/>
<text id="XMLID_1_" transform="matrix(1 0 0 1 142.0295 44.5262)" class="st3 st4">WONDERv2 Messages</text>
<g id="XMLID_81_">
	<g id="XMLID_85_">
		<line id="XMLID_94_" class="st1" x1="388.7" y1="33.5" x2="637.9" y2="33.5"/>
		<g id="XMLID_92_">
			<path id="XMLID_93_" class="st0" d="M647,33.5c-4.3,1.6-9.5,4.3-12.8,7.1l2.6-7.1l-2.6-7.1C637.4,29.2,642.7,31.9,647,33.5z"/>
		</g>
	</g>
</g>
<g id="XMLID_47_">
	<g id="XMLID_63_">
		<line id="XMLID_66_" class="st1" x1="397.5" y1="53" x2="647" y2="53"/>
		<g id="XMLID_64_">
			<path id="XMLID_65_" class="st0" d="M388.7,53c4.2,1.5,9.4,4.2,12.6,7l-2.5-7l2.5-7C398,48.8,392.8,51.5,388.7,53z"/>
		</g>
	</g>
</g>
<rect id="XMLID_45_" x="442.9" y="39.4" class="st2" width="149.9" height="14.6"/>
<text id="XMLID_44_" transform="matrix(1 0 0 1 450.6521 47.9021)" class="st3 st4">Protocol Specific Messages</text>
<rect id="XMLID_106_" x="-4" y="85.7" class="st2" width="72.4" height="40.7"/>
<text id="XMLID_105_" transform="matrix(1 0 0 1 5.1642 94.2594)"><tspan x="0" y="0" class="st3 st4">Client with </tspan><tspan x="3.7" y="14.4" class="st3 st4">WONDER </tspan><tspan x="-1.2" y="28.8" class="st3 st4">Framework</tspan></text>
<rect id="XMLID_108_" x="328.6" y="95.5" class="st2" width="61.7" height="26.5"/>
<text id="XMLID_107_" transform="matrix(1 0 0 1 332.5796 103.993)"><tspan x="0" y="0" class="st3 st4">Messaging </tspan><tspan x="15.3" y="14.4" class="st3 st4">Stub</tspan></text>
<rect id="XMLID_110_" x="643.5" y="95.5" class="st2" width="64.1" height="26.5"/>
<text id="XMLID_109_" transform="matrix(1 0 0 1 648.6226 103.993)"><tspan x="0" y="0" class="st3 st4">Messaging </tspan><tspan x="11.1" y="14.4" class="st3 st4">Server</tspan></text>
</svg>
